<svg id="Laag_1" data-name="Laag 1" xmlns="http://www.w3.org/2000/svg" viewBox="0 0 29.18 28.92"><defs><style>.cls-1{fill:#4cae3f;}</style></defs><polyline class="cls-1" points="1.27 13.04 4.18 13.62 4.63 11.38 3.93 11.24 3.66 12.63 3.2 12.53 3.42 11.4 2.76 11.27 2.54 12.4 2.13 12.32 2.39 10.99 1.7 10.85 1.27 13.04"/><path class="cls-1" d="M4.44,10.24H4.28A2,2,0,0,1,3.56,10a2.09,2.09,0,0,1-.51-.41,1.45,1.45,0,0,1-.3-.5,1.23,1.23,0,0,1-.06-.5A1.4,1.4,0,0,1,2.88,8a1.57,1.57,0,0,1,.36-.44,1.1,1.1,0,0,1,.45-.24l.28,0,.22,0a1.43,1.43,0,0,1,.4.13l-.41.74a.65.65,0,0,0-.26-.06H3.8a.47.47,0,0,0-.26.22.49.49,0,0,0,0,.44,1.18,1.18,0,0,0,.5.45,1.24,1.24,0,0,0,.44.17h.09a.65.65,0,0,0,.21,0A.7.7,0,0,0,5,9.15.49.49,0,0,0,5,8.8a.52.52,0,0,0-.25-.31l.43-.75a1.57,1.57,0,0,1,.35.31,1.17,1.17,0,0,1,.21.4,1.25,1.25,0,0,1,0,.51,1.51,1.51,0,0,1-.18.53,1.65,1.65,0,0,1-.37.45,1.34,1.34,0,0,1-.47.25,1.41,1.41,0,0,1-.35.05"/><path class="cls-1" d="M6.45,5H6.36a.39.39,0,0,0-.22.11A.41.41,0,0,0,6,5.33a.73.73,0,0,0,0,.35,1.23,1.23,0,0,0,.26.4,1,1,0,0,0,.56.37h.1a.44.44,0,0,0,.3-.12.5.5,0,0,0,.15-.25.59.59,0,0,0,0-.34,1.3,1.3,0,0,0-.26-.4,1.54,1.54,0,0,0-.27-.25A.77.77,0,0,0,6.59,5L6.45,5m.35,2.3H6.67a1.66,1.66,0,0,1-1.06-.59,2.2,2.2,0,0,1-.34-.52,1.58,1.58,0,0,1-.12-.5,1.41,1.41,0,0,1,0-.43,1.62,1.62,0,0,1,.17-.35,1.35,1.35,0,0,1,.27-.32,1.55,1.55,0,0,1,.68-.36,1.43,1.43,0,0,1,.29,0,1.29,1.29,0,0,1,.46.09,1.67,1.67,0,0,1,.67.48,1.78,1.78,0,0,1,.41.71,1.36,1.36,0,0,1,0,.75,1.45,1.45,0,0,1-.44.69,1.37,1.37,0,0,1-.94.38"/><path class="cls-1" d="M9.4,5.51,8.22,2.77l1-.44a4,4,0,0,1,.56-.2,1.13,1.13,0,0,1,.35,0,.72.72,0,0,1,.29.1.86.86,0,0,1,.27.2,1.23,1.23,0,0,1,.19.32,1.25,1.25,0,0,1,.11.41,1.55,1.55,0,0,1,0,.33.71.71,0,0,1-.12.23.73.73,0,0,1-.15.17,1.8,1.8,0,0,1-.4.25l-.47.2.36.85-.81.35M9.31,3.09l.25.57.29-.13a1.28,1.28,0,0,0,.24-.12.26.26,0,0,0,.07-.15.33.33,0,0,0,0-.19.24.24,0,0,0-.2-.18A.8.8,0,0,0,9.58,3Z"/><path class="cls-1" d="M12.37,4.36l-.28-3,1.33-.13a2.55,2.55,0,0,1,.47,0,1,1,0,0,1,.33.07.69.69,0,0,1,.22.16,1.37,1.37,0,0,1,.15.21.83.83,0,0,1,.07.3.77.77,0,0,1,0,.38.61.61,0,0,1-.16.27.56.56,0,0,1-.2.12.88.88,0,0,1,.38.21.81.81,0,0,1,.14.44l.06.46a.31.31,0,0,0,0,.12A.08.08,0,0,0,15,4v.1l-.91.08A1.71,1.71,0,0,1,14,3.8l0-.22a.57.57,0,0,0-.07-.23.28.28,0,0,0-.14-.12.65.65,0,0,0-.26,0l-.35,0,.1,1-.86.08m.7-1.76.43,0a.39.39,0,0,0,.28-.11.23.23,0,0,0,.07-.21.3.3,0,0,0-.1-.21.42.42,0,0,0-.29,0L13,2Z"/><polyline class="cls-1" points="15.82 4.26 16.3 1.32 17.19 1.47 16.71 4.41 15.82 4.26"/><polyline class="cls-1" points="17.7 4.58 18.94 1.88 19.7 2.23 19.89 4.07 20.56 2.62 21.34 2.98 20.1 5.68 19.32 5.33 19.13 3.53 18.48 4.94 17.7 4.58"/><polyline class="cls-1" points="22.77 3.95 24.62 5.66 24.08 6.24 23.49 5.68 21.99 7.29 21.34 6.68 22.83 5.08 22.24 4.52 22.77 3.95"/><polyline class="cls-1" points="23.07 8.49 25.66 7.02 26.76 8.95 26.15 9.3 25.48 8.12 25.11 8.33 25.68 9.33 25.1 9.66 24.53 8.66 24.12 8.89 24.82 10.12 24.2 10.47 23.07 8.49"/><path class="cls-1" d="M24.5,11.24l2.92-.6.25,1.22a1.54,1.54,0,0,1,0,.74,1.05,1.05,0,0,1-.37.57,1.79,1.79,0,0,1-.79.34,2.09,2.09,0,0,1-.6.05,1.48,1.48,0,0,1-.46-.11,1,1,0,0,1-.31-.19,1.12,1.12,0,0,1-.22-.31,1.79,1.79,0,0,1-.17-.51l-.25-1.2m.9.71.05.23a.76.76,0,0,0,.15.35.53.53,0,0,0,.29.14,1.42,1.42,0,0,0,.45,0,1,1,0,0,0,.29-.1.69.69,0,0,0,.21-.13.32.32,0,0,0,.09-.17.78.78,0,0,0,0-.37l-.05-.23Z"/><polyline class="cls-1" points="27.5 17.98 26.81 17.85 27.06 16.52 26.65 16.44 26.43 17.57 25.77 17.45 25.99 16.31 25.53 16.22 25.26 17.61 24.56 17.48 24.99 15.23 27.92 15.8 27.5 17.98"/><path class="cls-1" d="M25.24,21.58l-.21,0a2,2,0,0,1-.4-.12l.41-.75a.65.65,0,0,0,.26.06h.12a.47.47,0,0,0,.26-.22.49.49,0,0,0,0-.44,1.11,1.11,0,0,0-.5-.44,1.56,1.56,0,0,0-.44-.18h-.09a.46.46,0,0,0-.21,0,.53.53,0,0,0-.21.21.49.49,0,0,0,0,.35.6.6,0,0,0,.25.31l-.42.76a1.87,1.87,0,0,1-.35-.32,1.08,1.08,0,0,1-.21-.4,1.06,1.06,0,0,1-.06-.5,1.29,1.29,0,0,1,.18-.53,1.42,1.42,0,0,1,.37-.46,1.16,1.16,0,0,1,.46-.25,1.5,1.5,0,0,1,.37-.05h.14a1.84,1.84,0,0,1,.72.23,2.32,2.32,0,0,1,.52.4,1.55,1.55,0,0,1,.3.5,1.26,1.26,0,0,1,.07.5,1.6,1.6,0,0,1-.19.61,1.7,1.7,0,0,1-.35.44,1.05,1.05,0,0,1-.46.23.92.92,0,0,1-.29,0"/><path class="cls-1" d="M22.29,22.41a.41.41,0,0,0-.3.13.53.53,0,0,0-.15.25.61.61,0,0,0,0,.34,1.23,1.23,0,0,0,.26.4,1.46,1.46,0,0,0,.27.24.89.89,0,0,0,.24.12l.13,0h.1a.46.46,0,0,0,.22-.11.5.5,0,0,0,.15-.25.63.63,0,0,0,0-.35,1.19,1.19,0,0,0-.25-.4,1.1,1.1,0,0,0-.57-.37h-.1m.34,2.3a1.42,1.42,0,0,1-.45-.08,2,2,0,0,1-1.1-1.19,1.36,1.36,0,0,1,0-.75,1.45,1.45,0,0,1,.44-.69,1.38,1.38,0,0,1,.94-.39h.13a1.69,1.69,0,0,1,1.06.59,2,2,0,0,1,.34.51,1.35,1.35,0,0,1,.12.5,1.43,1.43,0,0,1,0,.43,2,2,0,0,1-.17.36,1.31,1.31,0,0,1-.27.31,1.51,1.51,0,0,1-.67.36,1,1,0,0,1-.3,0"/><path class="cls-1" d="M19.84,23.39,21,26.11l-1,.45a3,3,0,0,1-.56.2,1.07,1.07,0,0,1-.34,0,.94.94,0,0,1-.57-.29,1.26,1.26,0,0,1-.3-.72.9.9,0,0,1,0-.34.7.7,0,0,1,.11-.23,1,1,0,0,1,.15-.17,1.8,1.8,0,0,1,.4-.25l.47-.2L19,23.74l.81-.35m.1,2.41-.25-.57-.29.13a1.16,1.16,0,0,0-.24.13.35.35,0,0,0-.07.15.33.33,0,0,0,0,.19.28.28,0,0,0,.2.17.69.69,0,0,0,.36-.08Z"/><path class="cls-1" d="M16.88,24.55l.3,3-1.33.14a2.65,2.65,0,0,1-.48,0,1,1,0,0,1-.32-.07.86.86,0,0,1-.22-.15.82.82,0,0,1-.16-.22,1,1,0,0,1-.07-.29,1.1,1.1,0,0,1,0-.38.61.61,0,0,1,.16-.27.5.5,0,0,1,.2-.13.74.74,0,0,1-.38-.2.73.73,0,0,1-.15-.44l-.06-.46a.31.31,0,0,0,0-.12.08.08,0,0,0-.07,0v-.1l.9-.09a1.71,1.71,0,0,1,.09.41l0,.22a.64.64,0,0,0,.06.23.3.3,0,0,0,.14.11.54.54,0,0,0,.26,0l.35,0-.1-1,.86-.09m-.69,1.77-.43,0a.43.43,0,0,0-.28.11.25.25,0,0,0-.07.22.26.26,0,0,0,.11.2.4.4,0,0,0,.29,0l.43,0Z"/><polyline class="cls-1" points="13.42 24.68 12.96 27.62 12.08 27.48 12.53 24.54 13.42 24.68"/><polyline class="cls-1" points="11.54 24.37 10.33 27.08 9.56 26.74 9.35 24.9 8.7 26.35 7.92 26 9.13 23.28 9.91 23.64 10.12 25.43 10.76 24.01 11.54 24.37"/><polyline class="cls-1" points="6.47 25.04 4.62 23.34 5.15 22.76 5.75 23.31 7.23 21.69 7.89 22.3 6.41 23.91 7 24.46 6.47 25.04"/><polyline class="cls-1" points="6.14 20.5 3.57 21.99 2.45 20.06 3.06 19.71 3.74 20.89 4.1 20.68 3.52 19.68 4.11 19.34 4.69 20.34 5.09 20.11 4.38 18.88 5 18.52 6.14 20.5"/><path class="cls-1" d="M4.7,17.76l-2.92.62-.26-1.22a1.69,1.69,0,0,1,0-.74,1,1,0,0,1,.38-.57,1.87,1.87,0,0,1,.78-.35,2,2,0,0,1,.59-.05,1.84,1.84,0,0,1,.47.1,1.17,1.17,0,0,1,.31.19,1.31,1.31,0,0,1,.23.31,2.33,2.33,0,0,1,.17.51l.26,1.2m-.91-.71,0-.22a.76.76,0,0,0-.16-.35.47.47,0,0,0-.29-.14,1.15,1.15,0,0,0-.44,0,1.4,1.4,0,0,0-.29.09.7.7,0,0,0-.21.14.42.42,0,0,0-.1.17.85.85,0,0,0,0,.37l0,.23Z"/><path class="cls-1" d="M14.07,19.15l.37-.14.39-.14.37-.15.37-.15.42-.16.38-.14.3-.1.22-.08.18-.08h.11l.09-.08.1,0c.31-.08.14.06.14.06-.19.19.06.13.06.13l.21-.14,0-.06a.35.35,0,0,0,.28-.28l.13,0c.58-.25,1.18-.34,1.77-.53l.13,0L20.2,17h.08l0,0,0,0h0v0h0l0,0,.06.07.05-.05h.1l0,0v-.08l0,0,0,0h.22l.05,0,0,0,.07,0,0,0h-.06l0,.07.08,0h.1l0,0v0l.07-.07v-.07l-.05,0v0l.05-.05h.09l0,0H21l-.06.06h-.24l-.05,0,0,0h-.06l0,0h-.06l0,0v0h0l-.05.05h-.73l0-.24-.26.08-.33.05-.43.13-.55.17c-.39.11-.21-.12-.21-.12a.81.81,0,0,0,0-.24c0-.36.23-.27.23-.27L18.3,16h.15l.12-.12v-.13l-.06-.06-.08-.07v-.1c-.18-.18-.41.05-.41.05-.26,0,0-.11,0-.11s.33-.14.33-.14l.12,0,.09-.1h.18l.07-.07L19,15l.32-.1.32-.12.19-.07.06-.06h.18l.07-.08h.16l.08-.07v-.1c0-.09.1-.1.1-.1l.13-.07c.11-.08.07-.15.07-.15l0-.07-.07-.14,0-.15,0,0h-.07v-.07l-.06,0-.08-.09-.14-.05v.08c-.07.13-.18,0-.18,0l0-.11,0-.12,0-.07h-.3v0l-.15,0c-.17,0-.1-.05-.1-.05l.3-.09h0l0-.05.09,0,.15,0a.22.22,0,0,0,.18-.28l0-.08,0-.1v-.06l0-.08c-.12-.06,0-.14,0-.14l.14-.07.1,0,.12,0,.1,0,.1,0,0,0,.07-.07,0,0a.26.26,0,0,0,.24-.11v-.12c.13,0,.07-.16.07-.16l0-.18v-.08l0,0V11.2l0-.06C21.19,11,21,11,21,11a.26.26,0,0,1-.17.17.2.2,0,0,0-.18.09l-.06.06-.09.05-.11,0-.08.09h-.1l0,0v-.08l0-.09c0-.18-.18-.12-.18-.12h-.14l-.18.08a.18.18,0,0,0-.26-.19l-.12.06-.15.08c-.17,0-.07-.08-.07-.08l.07-.07.23-.21c.17-.13,0-.22,0-.22l-.14-.06,0,0h-.48l.07-.05.16-.1.14-.1s.07,0,.32-.26.1-.42.1-.42a1.44,1.44,0,0,1-.09-.29,1.59,1.59,0,0,0-.22-.38c0-.3-.42-.2-.42-.2s0-.05,0-.05l.07,0a1.61,1.61,0,0,0,.23-.23c.19-.19,0-.29,0-.29l0-.07,0-.1c-.11-.48-.46-.25-.46-.25h-.12c-.2.08-.41.06-.61.15l-.2,0c-.16,0-.05,0-.05,0l.14-.09L18,7.62l.17-.08.2-.09.13-.06.09,0h.09l.14,0c.24-.13,0-.22,0-.22H18.6l-.21.06-.66.32-.16.07-.17.12-.18.15c-.25.14,0,.33,0,.33h.27l.12,0A.59.59,0,0,0,17.87,8H18l.11,0,.17,0c.26-.1,0,0,0,0l-.07.07-.18.06-.21.1-.11.11-.1,0h-.11l-.1,0-.08,0-.08,0-.11,0H17c-.34,0-.23.16-.23.16l.11.24.16.24.08.16.09,0,.08.07.08,0,0-.08a10.39,10.39,0,0,1,1.16-.4l.18-.06c.2,0,0,.05,0,.05L18.41,9l-.31.11-.37.14-.44.19-.17.09L17,9.6,17,9.46l-.1-.09h-.18l0,.05-.07.07-.08.08c-.1,0-.3.17-.3.17h-.13v.11H16l-.05,0-.07-.15-.11,0c-.2-.19-.34-.26-.55-.49l-.06,0c-.11-.23-.12,0-.12,0,0,.25-.23.25-.23.25-.23,0-.25.18-.25.18H14.4l-.08,0-.05.06-.06.06-.08,0-.06.06H14l-.05,0,0,0h-.07l-.05.05-.11.07-.09.06c-.14,0-.21.14-.21.14s-.3.18-.3.18H13l0,0-.06.06,0,0-.07,0c-.09,0,0,0,0,0a0,0,0,0,1,0-.05l.06,0,.12-.11a1.75,1.75,0,0,0,.4-.28l.13,0c.07-.15.34-.19.34-.19l.07-.08L14,9.6l0,0,.1,0,.11-.12a.46.46,0,0,1,.28-.13l.12-.17.1,0,.1-.06,0,0L15,9a1.87,1.87,0,0,0,.35-.41.42.42,0,0,0,.05-.17V8.14l0,0h0v.07h0l0,0V8.11h0l0,0,0,0,0,0V7.91l0,0,0-.06a.06.06,0,0,0-.08,0l0,0h-.1l0,.07H15V8l-.23.1-.05.06-.07.07-.21.06-.1.1-.22.12c-.13,0-.05-.05-.05-.05l.26-.18a.46.46,0,0,1,.15-.2L14.56,8l.18-.24c.16-.22,0-.35,0-.35.08-.22-.13-.18-.13-.18l-.08.08-.14.08-.21.09h-.12l-.14.13-.19.09-.13,0-.06.06-.19.12a2.13,2.13,0,0,0-.53.3c-.33.17-.09,0-.09,0l0-.07c0-.06.12-.1.12-.1L13,7.88h.09c0-.08.14-.13.14-.13l.14-.15.17-.17.49-.36a.28.28,0,0,1,.14-.19V6.69l0-.05,0,0c.07-.19-.11,0-.11,0h-.1l-.09.08-.14.08-.09.08h-.07l-.11.06-.06,0h-.12l-.05,0h-.09c0-.3.7-.7.7-.7.24-.14,0-.23,0-.23l-.09.05-.1,0-.11,0-.17.13c-.53.33-.52.71-.52.71-.06.24,0,.21,0,.21l.11.08c.12.06-.06.07-.06.07l-.08.08-.09.09h-.07l-.07.06-.16.17h-.05l-.1.09L12,8.06l-.12,0-.18.18-.23.17a.39.39,0,0,1-.28.14l-.24.24.14,0c.1,0,.17.09.17.09.09.25.26.26.26.26h.2l.15-.05L12,9.1V9h0v.06h.11V9h.07l.11-.05.18-.07.13-.2.13,0,.07-.07.74-.31L13,8.65l-.32.22-.42.31-.5.41a4.39,4.39,0,0,0-.73.55h-.09v.12a2.35,2.35,0,0,0-.73.57l-.21,0c-.33.17-.08.15-.08.15s.19,0,.19,0a.63.63,0,0,1,.25.12c.18.18.31.13.31.13s.33-.2.33-.2.23-.18.23-.18l.28-.13.23-.18c.32-.2.05.14.05.14h-.1v.07l-.15,0-.32.27v.07h-.11s0,.16,0,.11-.15,0-.15,0l-.22.21-.17.15c-.28-.24-.06.06-.06.06l-.12.12c-.14.2,0,.22,0,.22l.26.25,0,.11.18.12c.15.27.35.11.35.11l.3-.17.05-.05.1,0,.16-.09h.09l.07-.07.2-.11.29-.12.2-.09a1.28,1.28,0,0,1,.28-.13l.18-.07c.38-.08,0,.12,0,.12l-.14.07-.16.08L12.6,12a.58.58,0,0,0-.21.1l-.2.06a8,8,0,0,1-1.13.59l-.13.06c-.26.25-.16,0-.16,0,.09-.34-.29-.22-.29-.22l-.18.1-.28.12c-.25.09-.19-.12-.19-.12a.1.1,0,0,0-.1-.11l-.05,0a.14.14,0,0,1-.09-.16l.05-.15c-.15-.09-.1-.15-.1-.15s.06-.17.06-.17c.15,0,0-.17,0-.17l0-.09c.22-.12.07-.24.07-.24a.23.23,0,0,0-.26,0,.19.19,0,0,0-.08.28l.16.16c-.13,0-.4.26-.4.26a.08.08,0,0,0,0,.15c.15.14,0,.15,0,.15L9,12.59a.63.63,0,0,0-.37.23H8.55L8.4,13l-.23.12c-.22,0-.15.15-.15.15a2.37,2.37,0,0,1,.09.39H8.2v.11a.7.7,0,0,1,.34.07L8.22,14a.85.85,0,0,0-.17,0l-.17.14-.24.16-.39.22h-.1v.11c-.11.12,0,.1,0,.1s.07,0,.07,0c-.15,0-.11.11-.11.11l0,.13.17.15c0,.13.21.11.21.11l.21-.1C8,15,8,15.2,8,15.2l.1.19c-.1.16,0,.21,0,.21a1.18,1.18,0,0,0-.54.32l-.11,0c-.29.28-.35.12-.35.12-.4-.31-.37,0-.37,0v.21l.08.19.08.09c.38.17.32.4.32.4l.21.27c.22.28.34.12.34.12a1.93,1.93,0,0,1,.4-.19l.12-.07c.24-.23.31,0,.31,0l.11.11c.2.2.29,0,.29,0s.12.05.12.05,0,.36,0,.36v.24c0,.23-.12.21-.12.21a.67.67,0,0,0-.3.12l-.26.14L8,18.62a.17.17,0,0,1-.14.12.54.54,0,0,0-.17,0l-.14.15a.29.29,0,0,0-.15,0,5.3,5.3,0,0,1-.51.27.43.43,0,0,1-.28.14c0,.2-.16.16-.16.16l-.27,0v0c0,.41.44.64.44.64h.27c.26.17.35,0,.35,0l.72-.47.87-.46L10,18.68l1.1-.52.51-.21-.25.25-.26.19a.43.43,0,0,1-.21.18l-.21.22-.21.14-.26.19-.44.36-.25.25a8.57,8.57,0,0,0-1,1c.06.19-.1.2-.1.2l.07.05,0,0c0,.23.14,0,.14,0l.11.11a.4.4,0,0,0,.06.2l.35.28.23-.12a23.32,23.32,0,0,1,4.35-2.19l.42-.19m4.44-5.49v0h-.05v0h0v0h0l0,0h.06Zm.09-.05h0v0h0v0Zm.2,0h-.05v0l0,0h-.06l0-.06v0h0s.06,0,.06,0ZM18.26,11l.23-.11.06,0,.08,0,.08,0,0,0h0a.47.47,0,0,1,.25-.07l-.08.09a1.43,1.43,0,0,0-.27.16l-.1,0V11h0s-.07-.11-.22,0h-.09l0,0h0s0-.05.1-.07M18,13.83l.06,0v0s-.09,0-.09,0,0,0,0,0m-.31.16.07,0,.05.05-.14,0ZM14.84,8.42c.13-.09.15-.15.15-.15l0,0a.11.11,0,0,0,.09-.11h.07a.12.12,0,0,1,0,.2c-.11,0-.08,0-.08,0l0,0c-.13,0-.15.09-.15.09a.12.12,0,0,1-.18.06c-.07-.1.05-.1.05-.1m-.17.12,0,0h0l0,0v0l0,0h0v0h0V8.56ZM12.36,10.2h0l0,0v0l0,0,0,0Zm.13.43,0,0v.05l0,0,0,0v-.07l0,0h0Zm4.65,5.18s.08,0,.08,0l0,0h.07l.07,0c.11,0,.09,0,.09,0a.34.34,0,0,0-.15,0l-.08,0v0a.22.22,0,0,1-.17,0c.09,0,.07,0,.07,0M15.8,13.56l.09-.06.1,0,0,0,.08,0,.06,0,.08-.05.07,0s.09-.07.11-.05,0,0,0,.12-.12,0-.12,0v0h0v0h-.05v.06a.17.17,0,0,0-.17.08.2.2,0,0,0-.16.1l0,0a.12.12,0,0,0-.05-.08s-.06,0,0,0m-.65-3.24s.17-.08.17-.14l.09,0,0-.14a.41.41,0,0,0,.17-.17l.13.1-.26.2s-.05,0-.05.08a.38.38,0,0,0-.28.12Zm-3.64,4.55c.19,0,.23-.15.23-.15v-.33l0-.15s0-.1,0-.1V14c.12,0,.1-.16.23-.15s.23-.08.29-.11l.33-.16a2.89,2.89,0,0,1,.39-.2c.17-.05.11,0,.1,0l0,0-.27.14c-.12,0-.11.08-.11.08s-.05.11-.05.11-.2.11-.2.11c-.37,0-.12.26-.12.26a.21.21,0,0,1,.11.14.16.16,0,0,0,.19.12c.11-.07.1,0,.1,0s-.09.09-.13.05a0,0,0,0,0-.07,0v.05c-.25.14-.33.13-.33.13l0,.07c-.19-.19-.16,0-.16,0l-.17.13,0,0c0,.13-.1.11-.1.11a.06.06,0,0,0-.06-.06v.09h0c0-.06-.07,0-.07,0-.19.06-.14-.06-.14-.06m-1.19-.14.15-.1.19-.1.05,0,0,0h.07L11,14.4l.1-.05.11-.06.07,0h0s0,0,0-.05l.07,0s.12-.05,0,0l-.09.09a.66.66,0,0,0-.26.19.18.18,0,0,1-.13,0,1.1,1.1,0,0,0-.23.1h-.06a.76.76,0,0,0-.1.12l-.1,0,0,0h-.11v.05s-.13,0-.16,0ZM9.57,15s.09.09.08.09-.27.11-.3.11a1.46,1.46,0,0,1,.22-.2m3.74,1.77,0,.12,0,.3,0,.23v.17a.75.75,0,0,1,0,.57c.13.13,0,.26,0,.26l-.28.27-.64.25-.8.43,0,0-.12,0,0,.05-.14.07-.1,0-.08.11-.11-.05-.05.1-.4.23-.21.06.06-.06.52-.48a.71.71,0,0,0,.35-.32.23.23,0,0,0,.19-.1c0-.08.17-.17.17-.17l.09,0,.07-.07,0-.05h.06v-.07l0-.05.05,0,.13,0,.19-.19.28-.3c.19,0,.09-.27.09-.27s-.08-.22-.08-.22l-.13-.24c.12-.12-.12-.12-.12-.12V17.1c.25-.05.08-.08.08-.08h-.09l-.07.07-.06,0H12l-.08,0v.07h-.08L11.72,17h-.16l-.07.07h-.14a1.07,1.07,0,0,0-.47.22c-.06-.06-.35.11-.35.11l-.12,0-.07.07-.09,0-.07.07-.18.08-.17.07s-.42.28-.42.18a1,1,0,0,0-.1-.3l0-.13v-.05l0,0v-.1l0,0v-.14a.26.26,0,0,1,.1-.23l0,0,0,0v-.06H9.6l0-.05.11,0,.13,0,.24-.13c.27-.16.12-.23.12-.23l-.12-.25c-.11-.19.1-.18.1-.18l.2-.1a1.13,1.13,0,0,1,.37-.18l.3-.13c.3,0,.11-.25.11-.25l.37-.13.15.12h-.11v.09c-.23.1-.12.23-.12.23l.2.2c.23.23.3,0,.3,0a.39.39,0,0,0,.18-.08l0,0a1,1,0,0,1,.2-.07l.08-.1.15,0,.16-.1.31-.16c.11-.11.14,0,.14,0,0,.17-.19.15-.19.15a.18.18,0,0,0-.14.16l.25.33.14.22,0,.46.09.13-.06.05Zm.26-3.58,0,0c-.09-.09-.14,0-.14,0l-.19.1s0-.13,0-.13l0,0a.15.15,0,0,1,.1,0,.63.63,0,0,0,.17-.06l.09-.09h.1l0-.08a.34.34,0,0,0,.21,0l.06-.05c.13,0,.15-.05.15-.08s.1,0,.1,0c0,.2-.16.13-.16.13v.07a.24.24,0,0,0-.16,0V13a.24.24,0,0,0-.18.08h-.07l0,.06,0,0-.06,0Zm0,4.92c.14-.07.13-.4.13-.4v-.35l0-.17.07-.07V16c0-.28.12-.31.12-.31l.2-.1c.27-.15.2-.21.2-.21l0-.12c0-.35-.26-.27-.26-.27l-.25.11V15l0-.06a.82.82,0,0,0,.37-.21.24.24,0,0,1,.31,0l.06.07v.08c0,.41.13.21.13.21a1.24,1.24,0,0,1,.37-.2l.34-.18c.37-.2.46,0,.46,0l-.07.07.09.09-.16.05-.07.07h-.19l0,0v0l.08.1c-.31.06,0,.11,0,.11.36.2-.05.24-.05.24s-.17.22-.23.16-.24.07-.24.07l-.26.17-.07-.06-.05,0,0-.05-.11,0,.08.07,0,.14c.13.14-.05.17-.05.17-.16,0-.07.08-.07.08l.26.26c.16.16.26.08.26.08l.12-.05a.3.3,0,0,0,.4,0c.07-.13.32-.17.32-.17l.1-.1.11,0,.14-.09.46-.24a.28.28,0,0,0,.19-.1l.19-.06V16l.06.07.12.12c.06.26.38.09.38.09v.58h-.1l-.08.07H17.3l-.07.07h-.11l0,0-.12.12h-.18l-.21.11a.41.41,0,0,0-.26.09l-.07,0-.1,0H16l-.08,0-.16.09a2.14,2.14,0,0,0-.64.24l-.22.06a.53.53,0,0,0-.25.11L14.6,18h-.19l-.06.06h-.1l-.05.06-.11.05H14l-.07.08h-.1l0,0,0-.05h-.09Zm10.17-1.49-.07.09-.06-.07.09,0,0,0,.08-.06-.14,0,0,.07-.06.08-.13,0,0-.07-.05-.05-.56.15c-.25.06-.5.11-.69.17s-.55.13-.85.22-.61.16-.72.21l-.48.17c-.14.05-.32.07-.59.18s-.54.22-.7.26a5.09,5.09,0,0,0-.53.16l-.52.19a1.52,1.52,0,0,0-.44.14s-.29.1-.36.14-.08,0-.16.06-.2.09-.3.14l-.26.11a2.67,2.67,0,0,0-.33.12,1.53,1.53,0,0,1-.29.14l-.19,0s0,.1-.11.11a1.08,1.08,0,0,0-.19.06.75.75,0,0,0-.14.08.29.29,0,0,0-.15.06c-.06.05-.1.12-.13.12s-.1.05-.17.06l-.3.15a1.75,1.75,0,0,0-.24.14,1.07,1.07,0,0,0-.21.13,1.53,1.53,0,0,1-.22.16s0,.06-.1.11l-.2.15s.26.44.62.44a3.53,3.53,0,0,1,1-.76,23.31,23.31,0,0,1,3.5-1.55c1.93-.7,4.36-1.4,4.36-1.4l.83-.2.14,0,.12-.09v-.24Z"/></svg>