<?xml version="1.0" encoding="utf-8"?>
<!-- Generator: Adobe Illustrator 12.0.0, SVG Export Plug-In . SVG Version: 6.00 Build 51448)  -->
<!DOCTYPE svg PUBLIC "-//W3C//DTD SVG 1.1//EN" "http://www.w3.org/Graphics/SVG/1.1/DTD/svg11.dtd" [
	<!ENTITY ns_svg "http://www.w3.org/2000/svg">
	<!ENTITY ns_xlink "http://www.w3.org/1999/xlink">
]>
<svg  version="1.1" id="Layer_1" xmlns="&ns_svg;" xmlns:xlink="&ns_xlink;" width="68.156" height="48.02"
	 viewBox="0 0 68.156 48.02" overflow="visible" enable-background="new 0 0 68.156 48.02" xml:space="preserve">
<g>
	<path fill="#E94927" d="M14.539,1.126c-0.928-0.928-2.432-0.928-3.36,0s-0.928,2.432,0,3.36l42.438,42.438
		c0.929,0.929,2.432,0.929,3.359,0c0.929-0.928,0.929-2.431,0-3.359L14.539,1.126z"/>
</g>
<g>
	<path fill="#E94927" d="M56.976,4.486c0.929-0.928,0.929-2.432,0-3.36c-0.928-0.928-2.432-0.928-3.359,0L11.179,43.564
		c-0.928,0.929-0.928,2.432,0,3.359c0.928,0.929,2.432,0.929,3.36,0L56.976,4.486z"/>
</g>
</svg>
