<svg id="Laag_1" data-name="Laag 1" xmlns="http://www.w3.org/2000/svg" viewBox="0 0 29.18 28.92"><defs><style>.cls-1{fill:#fff;}</style></defs><polyline class="cls-1" points="0 12.9 3.2 13.54 3.69 11.09 2.92 10.93 2.62 12.45 2.12 12.35 2.36 11.11 1.64 10.97 1.39 12.21 0.94 12.12 1.23 10.66 0.48 10.51 0 12.9"/><path class="cls-1" d="M3.47,9.83H3.3a1.85,1.85,0,0,1-.78-.26A2.06,2.06,0,0,1,2,9.12a1.52,1.52,0,0,1-.33-.55A1.33,1.33,0,0,1,1.56,8a1.42,1.42,0,0,1,.21-.66,1.53,1.53,0,0,1,.39-.48,1.15,1.15,0,0,1,.5-.26,1.53,1.53,0,0,1,.3,0l.24,0a1.71,1.71,0,0,1,.44.14l-.45.81a.82.82,0,0,0-.28-.07l-.13,0a.44.44,0,0,0-.29.23.51.51,0,0,0,0,.48,1.26,1.26,0,0,0,.54.5,1.55,1.55,0,0,0,.49.19h.1a.51.51,0,0,0,.22-.05.56.56,0,0,0,.23-.23.44.44,0,0,0,.06-.38.6.6,0,0,0-.27-.34L4.3,7.1a1.69,1.69,0,0,1,.39.34,1.31,1.31,0,0,1,.23.44A1.28,1.28,0,0,1,5,8.43a1.55,1.55,0,0,1-.2.58,1.69,1.69,0,0,1-.41.5,1.4,1.4,0,0,1-.51.27,1.31,1.31,0,0,1-.39.05"/><path class="cls-1" d="M5.68,4.06h-.1a.45.45,0,0,0-.25.12.53.53,0,0,0-.16.27.74.74,0,0,0,0,.38,1.29,1.29,0,0,0,.28.44,1.2,1.2,0,0,0,.62.41h.1a.53.53,0,0,0,.33-.13.65.65,0,0,0,.17-.27.74.74,0,0,0,0-.38,1.46,1.46,0,0,0-.28-.44,2.32,2.32,0,0,0-.29-.27,1.09,1.09,0,0,0-.27-.13l-.15,0m.38,2.52H5.91a1.8,1.8,0,0,1-1.15-.64,2.3,2.3,0,0,1-.37-.57,1.46,1.46,0,0,1-.13-.55,1.39,1.39,0,0,1,0-.47A1.7,1.7,0,0,1,4.49,4a1.59,1.59,0,0,1,.3-.34,1.61,1.61,0,0,1,.74-.39,1.17,1.17,0,0,1,.32,0,1.27,1.27,0,0,1,.5.1,1.85,1.85,0,0,1,.74.53,2.1,2.1,0,0,1,.45.77,1.43,1.43,0,0,1,0,.82,1.49,1.49,0,0,1-.49.76,1.49,1.49,0,0,1-1,.42"/><path class="cls-1" d="M8.9,4.65l-1.28-3,1.13-.48A2.9,2.9,0,0,1,9.36,1a1.29,1.29,0,0,1,.38,0,.84.84,0,0,1,.32.1,1.06,1.06,0,0,1,.29.22,1.21,1.21,0,0,1,.21.35,1.31,1.31,0,0,1,.12.45,1.28,1.28,0,0,1,0,.36.83.83,0,0,1-.29.44,1.62,1.62,0,0,1-.44.27l-.51.22.4.93-.9.38M8.81,2l.27.62L9.4,2.5a1,1,0,0,0,.26-.15.24.24,0,0,0,.08-.15.39.39,0,0,0,0-.21c-.05-.12-.12-.19-.22-.2a.87.87,0,0,0-.39.09Z"/><path class="cls-1" d="M12.15,3.4,11.85.16,13.31,0a2.31,2.31,0,0,1,.52,0,1.08,1.08,0,0,1,.35.07.88.88,0,0,1,.25.18.87.87,0,0,1,.16.23,1,1,0,0,1,.08.33,1,1,0,0,1,0,.41.64.64,0,0,1-.17.3.67.67,0,0,1-.22.13.91.91,0,0,1,.42.23.93.93,0,0,1,.15.48l.07.51a.49.49,0,0,0,0,.13L15,3v.1l-1,.1a2.88,2.88,0,0,1-.09-.45l0-.24a.53.53,0,0,0-.07-.25.29.29,0,0,0-.15-.12.48.48,0,0,0-.28,0l-.39,0,.11,1.13-.95.09m.78-1.93.46,0a.53.53,0,0,0,.32-.12.31.31,0,0,0,.07-.24.33.33,0,0,0-.11-.22.49.49,0,0,0-.32,0l-.48,0Z"/><polyline class="cls-1" points="15.94 3.29 16.46 0.07 17.44 0.23 16.91 3.45 15.94 3.29"/><polyline class="cls-1" points="17.99 3.65 19.35 0.68 20.18 1.06 20.4 3.08 21.13 1.49 21.98 1.89 20.63 4.85 19.77 4.46 19.56 2.49 18.85 4.04 17.99 3.65"/><polyline class="cls-1" points="23.55 2.95 25.57 4.83 24.98 5.46 24.33 4.85 22.7 6.61 21.98 5.94 23.62 4.18 22.97 3.58 23.55 2.95"/><polyline class="cls-1" points="23.88 7.92 26.71 6.31 27.92 8.43 27.25 8.81 26.51 7.52 26.11 7.74 26.74 8.84 26.1 9.21 25.47 8.11 25.03 8.36 25.79 9.71 25.11 10.09 23.88 7.92"/><path class="cls-1" d="M25.44,10.94l3.19-.66.28,1.33a1.9,1.9,0,0,1,0,.82,1.15,1.15,0,0,1-.42.62,1.9,1.9,0,0,1-.85.37,2.19,2.19,0,0,1-.66.05,1.61,1.61,0,0,1-.5-.11,1.48,1.48,0,0,1-.35-.21,1.35,1.35,0,0,1-.24-.34,2.15,2.15,0,0,1-.19-.56l-.27-1.31m1,.77.05.25a.79.79,0,0,0,.17.38.52.52,0,0,0,.32.16,1.37,1.37,0,0,0,.48,0,1.09,1.09,0,0,0,.32-.1.66.66,0,0,0,.23-.15.34.34,0,0,0,.11-.18,1.21,1.21,0,0,0,0-.41L28,11.38Z"/><polyline class="cls-1" points="28.72 18.32 27.97 18.18 28.25 16.71 27.8 16.63 27.56 17.87 26.83 17.73 27.07 16.49 26.57 16.39 26.28 17.91 25.51 17.76 25.98 15.31 29.18 15.93 28.72 18.32"/><path class="cls-1" d="M26.25,22.25H26a1.84,1.84,0,0,1-.44-.14l.45-.81a.79.79,0,0,0,.28.06l.13,0a.44.44,0,0,0,.29-.23.48.48,0,0,0,0-.48,1.14,1.14,0,0,0-.54-.49,1.34,1.34,0,0,0-.49-.19h-.09a.52.52,0,0,0-.23.05.56.56,0,0,0-.23.23.52.52,0,0,0-.06.38.64.64,0,0,0,.28.34l-.46.83a1.71,1.71,0,0,1-.39-.35A1.26,1.26,0,0,1,24.3,21a1.28,1.28,0,0,1-.06-.55,1.4,1.4,0,0,1,.19-.59,2,2,0,0,1,.4-.5,1.4,1.4,0,0,1,.51-.27,1.44,1.44,0,0,1,.4-.06h.16a2,2,0,0,1,.79.26,2.06,2.06,0,0,1,.56.44,1.41,1.41,0,0,1,.33.54,1.34,1.34,0,0,1,.08.55,1.56,1.56,0,0,1-.2.67,2.28,2.28,0,0,1-.39.48,1.2,1.2,0,0,1-.5.26,1.66,1.66,0,0,1-.32,0"/><path class="cls-1" d="M23,23.17a.44.44,0,0,0-.32.13.55.55,0,0,0-.17.28.62.62,0,0,0,0,.37,1.33,1.33,0,0,0,.29.44,1.16,1.16,0,0,0,.29.26.78.78,0,0,0,.27.14l.14,0h.11a.55.55,0,0,0,.24-.12.61.61,0,0,0,.16-.28A.65.65,0,0,0,24,24a1.29,1.29,0,0,0-.28-.44,1.12,1.12,0,0,0-.62-.4H23m.37,2.52a1.43,1.43,0,0,1-.49-.1,1.83,1.83,0,0,1-.74-.52,2.13,2.13,0,0,1-.46-.77,1.48,1.48,0,0,1,.45-1.59,1.49,1.49,0,0,1,1-.42h.14a1.8,1.8,0,0,1,1.16.64,2.31,2.31,0,0,1,.38.56A1.51,1.51,0,0,1,25,24a1.15,1.15,0,0,1-.05.47,1.38,1.38,0,0,1-.18.39,1.59,1.59,0,0,1-.29.35,1.73,1.73,0,0,1-.74.4,1.86,1.86,0,0,1-.33,0"/><path class="cls-1" d="M20.34,24.23l1.3,3-1.12.49a2.9,2.9,0,0,1-.61.22,1.36,1.36,0,0,1-.38,0,1.07,1.07,0,0,1-.32-.1.92.92,0,0,1-.29-.23,1.05,1.05,0,0,1-.22-.34,1.06,1.06,0,0,1-.11-.45,1,1,0,0,1,0-.36,1.27,1.27,0,0,1,.11-.26,1.51,1.51,0,0,1,.18-.18,1.6,1.6,0,0,1,.43-.28l.51-.22-.4-.93.89-.39m.11,2.65-.27-.63-.32.15a.83.83,0,0,0-.26.14.27.27,0,0,0-.08.16.41.41,0,0,0,0,.21c.06.12.13.18.22.19a.87.87,0,0,0,.39-.09Z"/><path class="cls-1" d="M17.1,25.51l.33,3.24L16,28.9a3.28,3.28,0,0,1-.52,0,1.06,1.06,0,0,1-.35-.08.74.74,0,0,1-.25-.17.91.91,0,0,1-.17-.23,1.33,1.33,0,0,1-.08-.33,1.38,1.38,0,0,1,0-.42.79.79,0,0,1,.18-.29.64.64,0,0,1,.22-.14.86.86,0,0,1-.42-.22.83.83,0,0,1-.16-.47l-.07-.52a.49.49,0,0,0,0-.13.15.15,0,0,0-.08,0v-.1l1-.1a1.42,1.42,0,0,1,.09.44l0,.24a.67.67,0,0,0,.08.25.29.29,0,0,0,.15.12.51.51,0,0,0,.29,0l.38,0-.12-1.12,1-.1m-.76,1.93-.47,0a.53.53,0,0,0-.31.12.28.28,0,0,0-.07.24.31.31,0,0,0,.11.22.49.49,0,0,0,.32.05l.48-.05Z"/><polyline class="cls-1" points="13.31 25.65 12.81 28.87 11.84 28.72 12.34 25.5 13.31 25.65"/><polyline class="cls-1" points="11.26 25.31 9.92 28.28 9.09 27.91 8.86 25.89 8.14 27.48 7.28 27.1 8.62 24.12 9.47 24.51 9.7 26.47 10.39 24.92 11.26 25.31"/><polyline class="cls-1" points="5.7 26.04 3.67 24.18 4.25 23.55 4.91 24.15 6.53 22.38 7.25 23.04 5.63 24.81 6.28 25.41 5.7 26.04"/><polyline class="cls-1" points="5.34 21.07 2.52 22.71 1.3 20.59 1.96 20.21 2.71 21.5 3.11 21.27 2.47 20.18 3.11 19.8 3.75 20.9 4.19 20.64 3.41 19.3 4.09 18.91 5.34 21.07"/><path class="cls-1" d="M3.76,18.07l-3.19.68L.28,17.42a1.85,1.85,0,0,1,0-.81A1.12,1.12,0,0,1,.68,16a1.91,1.91,0,0,1,.85-.38,2.19,2.19,0,0,1,.66,0,1.37,1.37,0,0,1,.5.11,1.07,1.07,0,0,1,.35.2,1.36,1.36,0,0,1,.25.34,2.17,2.17,0,0,1,.18.56l.29,1.31m-1-.77,0-.24a.89.89,0,0,0-.17-.39.53.53,0,0,0-.32-.15,1.41,1.41,0,0,0-.49,0,1.41,1.41,0,0,0-.31.1.91.91,0,0,0-.23.15.41.41,0,0,0-.11.19,1,1,0,0,0,0,.4l0,.25Z"/><path class="cls-1" d="M14,19.6l.41-.15.42-.17.41-.16.4-.16.46-.17.42-.15.33-.12.24-.08.19-.09h.13l.09-.09.12,0c.33-.09.15.07.15.07-.21.2.06.14.06.14l.24-.15,0-.07a.38.38,0,0,0,.31-.31l.15,0c.62-.27,1.28-.37,1.93-.58l.15,0,.09-.09h.08l0,0,0,0h0v-.05h0l0,0,.07.07,0-.05h.11l0,0v-.09l0,0,0,0h.24l.05-.05,0,0,.07,0,0,0h-.07l0,.07.08,0h.11l0,0v-.05l.07-.07v-.08l0-.05v0l.06-.05h.1l0,0h-.33l-.07.07h-.26l-.05.05,0,0h-.06l0,0h-.06l0,0v-.05h0l-.06.06h-.8l0-.27-.28.09-.36.05-.48.15-.61.18c-.42.12-.22-.12-.22-.12a1.05,1.05,0,0,0,0-.27c0-.39.25-.3.25-.3l.1-.09.17,0,.12-.13v-.14l-.06-.07-.08-.07V15.6c-.2-.2-.45.05-.45.05-.28,0,0-.12,0-.12s.36-.15.36-.15l.13,0,.11-.11h.19l.08-.08.24-.11.34-.1.36-.14.21-.08.06-.06.2,0,.08-.08h.17l.09-.08,0-.11c0-.09.12-.11.12-.11l.14-.07c.12-.09.08-.17.08-.17l0-.08-.07-.14,0-.18,0,0H21v-.08l-.07-.06-.09-.09-.15-.06v.09c-.08.15-.2,0-.2,0l0-.12-.06-.13,0-.08h-.32v.06l-.17,0c-.18.05-.1,0-.1,0l.32-.11h0l.05,0,.09,0,.17,0a.24.24,0,0,0,.2-.3l0-.09,0-.11v-.06l0-.1c-.12-.05,0-.15,0-.15l.15-.08.11,0L21,12l.1-.05.11,0,.05,0,.08-.09v0a.3.3,0,0,0,.27-.12v-.12a.13.13,0,0,0,.08-.18l0-.21V11l0,0v-.07l0-.07c.06-.16-.17-.2-.17-.2a.29.29,0,0,1-.18.19.24.24,0,0,0-.2.09l-.06.06-.1.06-.12,0-.09.09h-.11l0,0V11l0-.1c0-.21-.2-.13-.2-.13h-.15l-.2.08c0-.31-.29-.21-.29-.21l-.13.06-.16.09c-.19.06-.08-.08-.08-.08l.08-.08.25-.23c.18-.14.05-.24.05-.24l-.16-.07,0,0h-.51l.07-.06.17-.1.16-.12s.08,0,.34-.28.12-.46.12-.46a1.53,1.53,0,0,1-.1-.32,1.93,1.93,0,0,0-.25-.42c0-.33-.46-.21-.46-.21s0-.06,0-.06L19.28,8a1.16,1.16,0,0,0,.25-.24c.21-.21,0-.32,0-.32l0-.07,0-.12c-.12-.52-.5-.27-.5-.27h-.13c-.22.08-.45.07-.68.16L18,7.2c-.17.06-.05,0-.05,0l.15-.09L18.28,7l.19-.09.21-.1.15-.07.1,0H19l.15,0c.27-.15,0-.24,0-.24H19l-.23.06L18,6.81l-.17.07L17.67,7l-.2.15c-.27.16,0,.37,0,.37h.29l.14,0a.68.68,0,0,0,.29-.07h.15l.11,0,.19,0c.29-.1,0,0,0,0l-.08.07-.2.07-.23.11-.12.12-.11,0h-.12l-.11,0-.09,0-.09,0-.12,0h-.19c-.38,0-.25.17-.25.17l.12.27.18.25.08.18.1,0,.08.08.1,0V8.84a10.45,10.45,0,0,1,1.27-.43l.2-.07c.22-.06,0,.06,0,.06l-.34.12-.33.12L18,8.79,17.54,9l-.18.11-.12,0L17.18,9l-.1-.1h-.21l0,.06L16.77,9l-.09.08c-.11,0-.33.19-.33.19h-.14v.12H16.1L16,9.36,16,9.19l-.12,0c-.22-.21-.37-.28-.61-.54l-.06,0c-.12-.25-.13,0-.13,0,0,.27-.25.28-.25.28-.26,0-.28.19-.28.19h-.14l-.08,0-.06.06-.07.06-.09,0L14,9.33h-.1l-.05.05,0,0h-.07l-.06.06-.12.07-.09.07a.23.23,0,0,0-.24.15c-.13,0-.32.2-.32.2h-.08l0,0-.07.07-.05,0-.08,0c-.09,0,0,0,0,0a0,0,0,0,1,0,0l.08,0,.12-.13a1.84,1.84,0,0,0,.45-.3l.14,0c.07-.17.37-.22.37-.22l.08-.08L14,9.14l0-.05.11,0,.12-.13a.49.49,0,0,1,.3-.14l.14-.18.1,0,.12-.07,0,0,.1,0A1.69,1.69,0,0,0,15.43,8a.44.44,0,0,0,.06-.19v0a1.92,1.92,0,0,1,0-.24l0,0s0,0,0,0v.05l0,0h0l0,0V7.51l0,0-.05,0,0,0-.05,0V7.29l0,0,0-.06a.07.07,0,0,0-.09,0l0,0h-.11l-.06.08H15v.06l-.25.12-.06.06-.08.08-.23.06-.11.11L14,7.93c-.14,0-.06-.06-.06-.06l.29-.2a.57.57,0,0,1,.17-.22l.12-.07.2-.27c.17-.24,0-.38,0-.38.1-.24-.14-.2-.14-.2l-.09.09-.14.09-.24.1H14l-.15.14-.21.1-.14,0-.07.07-.21.12a2.94,2.94,0,0,0-.58.33c-.35.19-.1,0-.1,0l0-.07c0-.07.13-.11.13-.11l.12-.13H13c0-.08.15-.14.15-.14L13.28,7l.19-.19.53-.4a.31.31,0,0,1,.16-.2V6l-.05,0,0,0c.08-.21-.11-.05-.11-.05h-.12l-.1.09L13.58,6l-.09.09h-.08l-.13.06-.06.07-.13,0L13,6.24h-.1c0-.33.78-.76.78-.76.26-.16,0-.25,0-.25l-.09,0-.12.05-.11,0-.19.15c-.58.37-.57.78-.57.78-.07.27,0,.23,0,.23l.13.09c.13.07-.07.07-.07.07l-.09.09-.1.1h-.08l-.07.07-.17.18h-.06l-.11.1-.34.25-.13,0-.19.19-.26.18a.43.43,0,0,1-.31.16l-.26.26.15.06c.11-.05.19.1.19.1.1.27.28.28.28.28h.23l.16-.05.14-.08v-.1h0v.07h.12v-.1h.06l.13-.05.2-.08.14-.22.15,0L12.62,8l.81-.34-.63.43-.36.24L12,8.68l-.56.45a4.68,4.68,0,0,0-.79.6h-.1v.13a2.58,2.58,0,0,0-.8.63l-.23,0c-.36.19-.09.17-.09.17s.21,0,.21,0a.74.74,0,0,1,.27.13c.2.2.34.15.34.15s.37-.22.37-.22.24-.2.24-.2l.31-.14.26-.2c.34-.22,0,.16,0,.16h-.1v.06l-.17,0-.35.3v.07h-.11s0,.18,0,.12-.17,0-.17,0l-.23.23-.19.17c-.31-.26-.07.06-.07.06l-.13.13c-.15.22,0,.24,0,.24l.28.28.05.12.2.13c.16.3.38.12.38.12l.32-.18.06-.06.12,0,.17-.09h.09l.08-.08.22-.12.32-.13a1.79,1.79,0,0,0,.22-.1,1.52,1.52,0,0,1,.31-.14l.19-.07c.42-.1,0,.12,0,.12l-.15.08-.17.08-.2.11a.61.61,0,0,0-.23.11L12,12a8.57,8.57,0,0,1-1.24.65l-.14.07c-.28.27-.17,0-.17,0,.09-.38-.32-.25-.32-.25l-.2.11-.3.13c-.28.1-.21-.13-.21-.13a.12.12,0,0,0-.12-.12l0,0a.15.15,0,0,1-.09-.18l0-.16c-.16-.1-.1-.17-.1-.17s.06-.18.06-.18c.17,0,0-.19,0-.19l0-.1c.23-.13.07-.26.07-.26a.25.25,0,0,0-.29,0,.21.21,0,0,0-.08.3l.17.17c-.14,0-.43.29-.43.29s0,.17,0,.17c.15.15,0,.16,0,.16l-.14.16a.72.72,0,0,0-.41.25H8l-.16.16L7.56,13c-.24,0-.17.16-.17.16a2.27,2.27,0,0,1,.11.43h.09v.12a.75.75,0,0,1,.37.08L7.62,14a.7.7,0,0,0-.19.06l-.19.14L7,14.35l-.43.25h-.1l0,.12c-.12.12,0,.1,0,.1s.07,0,.07,0c-.15.05-.12.12-.12.12l0,.15.19.16c0,.15.23.12.23.12l.23-.11c.27-.27.3,0,.3,0l.11.22c-.11.18,0,.23,0,.23a1.41,1.41,0,0,0-.59.34l-.12,0c-.32.31-.39.13-.39.13-.43-.34-.39,0-.39,0v.24l.08.21.09.09c.41.19.35.44.35.44l.23.3c.23.3.37.13.37.13a2.05,2.05,0,0,1,.44-.21l.13-.07c.26-.26.33,0,.33,0l.13.12c.21.22.32.05.32.05.16-.1.12.05.12.05s0,.4,0,.4v.26c0,.25-.13.23-.13.23a.74.74,0,0,0-.33.12l-.29.17L7.32,19a.16.16,0,0,1-.14.12.53.53,0,0,0-.19,0l-.16.16a.32.32,0,0,0-.16.06,6.16,6.16,0,0,1-.56.29.45.45,0,0,1-.3.16c0,.22-.18.17-.18.17l-.29,0v.07c0,.44.48.7.48.7h.29c.29.18.39,0,.39,0l.78-.51,1-.51,1.34-.68,1.2-.57.55-.23-.26.27-.29.21a.51.51,0,0,1-.23.2l-.24.24-.22.16-.28.21L9.32,20,9,20.23A11,11,0,0,0,7.9,21.37c.06.21-.11.22-.11.22l.08.05,0,.05c0,.25.15,0,.15,0l.12.12a.43.43,0,0,0,.07.22l.38.3.25-.13a25.94,25.94,0,0,1,4.77-2.39L14,19.6m4.86-6v0h-.07v0l0,0h0v0h.11Zm.1-.05h0v0h0v0Zm.21,0h0v0h0v0h-.09l0,0v0h.06a0,0,0,0,1,.06,0Zm-.59-2.82.25-.12.08,0,.08,0,.09,0,0,0h0a.55.55,0,0,1,.28-.08l-.09.1a1.28,1.28,0,0,0-.29.18H19v.05l0,0h0s-.07-.12-.23,0h-.11l0,0h0s0,0,.1-.07m-.32,3.11.06,0,0,0s-.1,0-.1,0,0,0,0,0m-.34.17.08,0,.05,0-.15,0Zm-3.08-6.1c.15-.09.17-.16.17-.16l.05,0c.11,0,.1-.12.1-.12h.08a.12.12,0,0,1,0,.21c-.11,0-.08,0-.08,0l0,0a.16.16,0,0,0-.17.1.13.13,0,0,1-.2.06c-.07-.11.06-.11.06-.11M14.68,8l0,0h0l0,0h0l0,0h0v0l0,0h0V8ZM12.14,9.79h-.05v0l0,0,0,0Zm.15.48,0,0v.06l0,0h0v-.09l0,0h0Zm5.09,5.67s.09,0,.09,0l0,0,.08,0,.08,0c.12,0,.09,0,.09,0a.4.4,0,0,0-.16,0l-.09,0v0c-.06.08-.19.05-.19.05s.08,0,.08,0m-1.47-2.47.11-.06.1,0,.05-.05.09,0,.06,0,.09,0,.07,0s.1-.08.13-.06,0,0,0,.14-.14,0-.14,0v0h0v0H16.4v.07a.2.2,0,0,0-.19.09.2.2,0,0,0-.18.11h0a.11.11,0,0,0-.06-.08s-.06,0,0-.06M15.2,9.92s.19-.08.19-.15l.1,0,0-.16a.39.39,0,0,0,.18-.18l.15.1-.29.22a.17.17,0,0,0-.05.1.4.4,0,0,0-.31.12Zm-4,5a.36.36,0,0,0,.25-.16v-.37l0-.16s0-.11,0-.11V14l0-.09c.13,0,.1-.18.25-.16s.25-.1.31-.13.36-.17.36-.17a4.47,4.47,0,0,1,.43-.22c.19-.05.12,0,.11,0l.05,0-.29.16c-.13,0-.12.09-.12.09s-.05.12-.05.12-.23.12-.23.12c-.39,0-.12.28-.12.28a.24.24,0,0,1,.12.16.17.17,0,0,0,.21.13c.11-.07.11,0,.11,0s-.1.1-.15.05-.08,0-.08,0v.06c-.27.15-.35.14-.35.14l0,.07c-.21-.2-.17,0-.17,0l-.19.14,0,0c0,.14-.12.12-.12.12a.07.07,0,0,0-.06-.07V15h0c0-.06-.06,0-.06,0-.22.07-.16-.06-.16-.06m-1.31-.15.17-.11.21-.11.06,0,0,0h.08l.13-.07.11-.07.12-.06.08,0H11s0,0,0-.05l.08,0s.13-.05,0,0l-.09.1a.86.86,0,0,0-.29.21.2.2,0,0,1-.14,0,1.72,1.72,0,0,0-.25.11h-.07a.53.53,0,0,0-.1.13l-.12,0v0H9.91v0s-.14.05-.18,0Zm-.82.3a.87.87,0,0,1,.09.11l-.33.11a1.74,1.74,0,0,1,.24-.22M13.19,17l0,.13,0,.33,0,.25v.19a.86.86,0,0,1-.06.62c.14.15,0,.29,0,.29l-.32.29-.69.28-.88.47-.05-.05-.12.05,0,0-.15.08-.11,0-.09.12-.12-.05-.05.11-.44.24-.23.07.07-.07.56-.52a.77.77,0,0,0,.39-.35.26.26,0,0,0,.21-.11c0-.08.18-.18.18-.18l.1,0,.07-.08.05,0h.06V19L11.5,19l.05-.06.15,0,.2-.2.32-.33c.2-.05.09-.3.09-.3s-.08-.24-.08-.24l-.15-.26c.13-.13-.13-.13-.13-.13v-.07c.28-.06.09-.08.09-.08h-.1l-.07.07-.08,0H11.7l-.09,0v.08h-.09l-.07-.07h-.18l-.08.08H11a1.13,1.13,0,0,0-.51.24c-.07-.07-.39.13-.39.13l-.13,0-.08.08-.09,0-.08.08-.2.09-.18.07s-.46.31-.46.2a1.11,1.11,0,0,0-.11-.33l0-.14v-.05l0,0V17.6l0,0v-.16A.29.29,0,0,1,9,17.16l0,0,0,0V17.1h.09L9.17,17l.12,0,.14,0,.26-.15c.3-.17.14-.25.14-.25l-.14-.27c-.11-.21.11-.2.11-.2L10,16a1.08,1.08,0,0,1,.4-.19l.33-.14c.33,0,.11-.28.11-.28l.41-.14.16.13h-.12v.09c-.24.12-.12.26-.12.26l.21.21c.26.26.33.06.33.06a.48.48,0,0,0,.19-.09l0,0a.58.58,0,0,1,.22-.08l.09-.12.16,0,.18-.11.34-.17c.12-.13.15,0,.15,0,0,.18-.21.15-.21.15a.2.2,0,0,0-.15.18L13,16l.15.25,0,.49.1.15-.06.06Zm.28-3.92,0,0c-.1-.1-.15.05-.15.05l-.21.1c-.06,0,0-.14,0-.14l.05,0a.2.2,0,0,1,.11,0,.63.63,0,0,0,.19-.07l.09-.09h.12l0-.09a.33.33,0,0,0,.23-.06l.06-.06c.15,0,.17-.05.17-.08s.11,0,.11,0c0,.21-.18.13-.18.13v.08a.31.31,0,0,0-.18,0v.07a.28.28,0,0,0-.2.08h-.08l0,.08,0,0-.07,0Zm0,5.38c.16-.07.15-.43.15-.43V17.8l0-.15v-.19l.07-.07V16.12c0-.3.14-.33.14-.33l.21-.12c.29-.16.22-.22.22-.22l0-.14c-.05-.38-.29-.29-.29-.29l-.27.12V15l.06-.06a1,1,0,0,0,.41-.23.25.25,0,0,1,.33,0l.08.07v.1c0,.45.14.23.14.23a1.37,1.37,0,0,1,.4-.22l.37-.2c.41-.22.5,0,.5,0l-.07.08.1.1-.18.05-.07.08H15.5l-.05.05v.05l.09.11c-.34.06,0,.12,0,.12.41.22,0,.26,0,.26s-.2.24-.26.18-.27.07-.27.07l-.28.19L14.66,16l-.06.05L14.54,16l-.11,0,.08.08,0,.14c.15.15-.05.19-.05.19-.18,0-.08.08-.08.08l.29.29c.18.18.28.09.28.09l.14-.05a.34.34,0,0,0,.44,0c.07-.15.34-.19.34-.19l.11-.11.13,0,.15-.1.5-.26a.31.31,0,0,0,.21-.11l.2-.07v.19l.08.07.13.14c.06.28.41.1.41.1v.63h-.11l-.08.08h-.08l-.08.08h-.12l-.05-.05-.13.13H17l-.24.12a.45.45,0,0,0-.28.1l-.08,0-.11,0h-.12l-.1,0-.17.1a2.34,2.34,0,0,0-.7.26l-.24.07a.56.56,0,0,0-.27.12l-.08.08h-.2l-.08.08h-.1l-.06.05-.12.07h-.11l-.08.08h-.1l-.05-.05,0,0h-.1Zm11.14-1.62-.07.09-.07-.08.09-.05,0,0,.09-.06-.16,0,0,.08-.07.09-.14,0,0-.08-.05-.05s-.33.1-.62.16-.55.12-.75.18-.6.14-.94.25-.66.18-.79.23l-.52.19c-.16.05-.35.08-.64.19a6.45,6.45,0,0,1-.77.28c-.18,0-.37.12-.58.18l-.57.21a2.41,2.41,0,0,0-.49.15,2.74,2.74,0,0,1-.38.15c-.08,0-.09,0-.18.07a2.16,2.16,0,0,1-.34.15l-.28.13c-.07,0-.27.08-.36.13a1.82,1.82,0,0,1-.32.15.82.82,0,0,1-.2,0s-.05.11-.13.13a1,1,0,0,0-.2.06,1,1,0,0,0-.16.09.34.34,0,0,0-.16.06c-.07.06-.11.13-.14.13a1.57,1.57,0,0,0-.18.07l-.34.16-.26.16a1.54,1.54,0,0,0-.23.14,1.88,1.88,0,0,1-.24.18s0,.06-.11.11l-.22.17s.28.49.68.49a3.87,3.87,0,0,1,1.11-.84A26.47,26.47,0,0,1,18.74,19c2.12-.77,4.78-1.54,4.78-1.54l.91-.21.15,0,.13-.1v-.26Z"/></svg>