<svg id="Laag_1" data-name="Laag 1" xmlns="http://www.w3.org/2000/svg" viewBox="0 0 52.8 86.19"><defs><style>.cls-1{fill:#4cae3f;}.cls-2{fill:#fff;}</style></defs><polyline class="cls-1" points="9.26 16.86 13.03 17.61 13.61 14.72 12.71 14.54 12.35 16.33 11.76 16.21 12.05 14.75 11.19 14.58 10.9 16.04 10.37 15.94 10.72 14.22 9.83 14.04 9.26 16.86"/><path class="cls-1" d="M13.36,13.24h-.2a2.36,2.36,0,0,1-.93-.3,2.7,2.7,0,0,1-.66-.53,2.08,2.08,0,0,1-.39-.64,1.64,1.64,0,0,1-.08-.65,1.83,1.83,0,0,1,.25-.78,2,2,0,0,1,.46-.57,1.44,1.44,0,0,1,.59-.3,1.47,1.47,0,0,1,.36,0l.28,0a2.09,2.09,0,0,1,.52.17l-.54,1a.85.85,0,0,0-.33-.07.39.39,0,0,0-.15,0,.54.54,0,0,0-.34.27.6.6,0,0,0,0,.57,1.42,1.42,0,0,0,.64.58,1.73,1.73,0,0,0,.57.23h.12a.71.71,0,0,0,.26-.05.59.59,0,0,0,.27-.27.57.57,0,0,0,.07-.45.75.75,0,0,0-.32-.4l.55-1a2.38,2.38,0,0,1,.46.41,1.53,1.53,0,0,1,.27.51,1.59,1.59,0,0,1,.06.65,1.81,1.81,0,0,1-.23.69,2.14,2.14,0,0,1-.48.59,1.54,1.54,0,0,1-.61.31,1.74,1.74,0,0,1-.45.06"/><path class="cls-1" d="M16,6.44h-.12a.55.55,0,0,0-.29.13.69.69,0,0,0-.19.33.8.8,0,0,0,0,.45,1.72,1.72,0,0,0,.33.52,1.4,1.4,0,0,0,.73.48h.13A.52.52,0,0,0,17,8.21a.57.57,0,0,0,.2-.32.77.77,0,0,0,0-.44,1.85,1.85,0,0,0-.34-.52,1.91,1.91,0,0,0-.34-.31,1.15,1.15,0,0,0-.31-.16.55.55,0,0,0-.18,0m.45,3h-.17a2.1,2.1,0,0,1-1.36-.76A2.21,2.21,0,0,1,14.44,8a1.82,1.82,0,0,1-.16-.65,1.57,1.57,0,0,1,.06-.55,2.15,2.15,0,0,1,.22-.46,1.9,1.9,0,0,1,.35-.4,1.94,1.94,0,0,1,.88-.47,1.55,1.55,0,0,1,.37,0,1.71,1.71,0,0,1,.59.11,2.25,2.25,0,0,1,.87.63,2.47,2.47,0,0,1,.54.91,1.78,1.78,0,0,1,0,1,1.71,1.71,0,0,1-.57.89,1.8,1.8,0,0,1-1.21.5"/><path class="cls-1" d="M19.76,7.14,18.25,3.6,19.58,3a4.1,4.1,0,0,1,.72-.26,1.43,1.43,0,0,1,.44,0,1.39,1.39,0,0,1,.38.12,1.31,1.31,0,0,1,.35.27,1.5,1.5,0,0,1,.25.41,1.47,1.47,0,0,1,.13.52,1.2,1.2,0,0,1,0,.44.92.92,0,0,1-.14.3,1.24,1.24,0,0,1-.2.21,1.82,1.82,0,0,1-.52.32l-.61.26.47,1.1-1,.45M19.65,4l.32.73.38-.16a1.26,1.26,0,0,0,.3-.16.32.32,0,0,0,.1-.19.45.45,0,0,0,0-.25.34.34,0,0,0-.25-.23,1,1,0,0,0-.47.11Z"/><path class="cls-1" d="M23.59,5.66l-.36-3.83L25,1.67a3.18,3.18,0,0,1,.61,0,1.18,1.18,0,0,1,.41.09,1,1,0,0,1,.29.2,1,1,0,0,1,.2.28,1.63,1.63,0,0,1,.09.38,1.25,1.25,0,0,1,0,.49.78.78,0,0,1-.21.35.72.72,0,0,1-.26.16,1.06,1.06,0,0,1,.5.27,1,1,0,0,1,.18.56l.07.6a.63.63,0,0,0,0,.15.1.1,0,0,0,.09,0v.11l-1.16.11a1.8,1.8,0,0,1-.11-.52l0-.28a.89.89,0,0,0-.09-.3.34.34,0,0,0-.18-.15.83.83,0,0,0-.33,0l-.46,0,.13,1.33-1.12.11m.92-2.28.55,0a.61.61,0,0,0,.37-.13.39.39,0,0,0,.08-.28.32.32,0,0,0-.13-.26A.57.57,0,0,0,25,2.59l-.56.06Z"/><polyline class="cls-1" points="28.06 5.53 28.68 1.74 29.82 1.92 29.2 5.72 28.06 5.53"/><polyline class="cls-1" points="30.48 5.95 32.08 2.45 33.06 2.9 33.32 5.28 34.17 3.41 35.18 3.87 33.58 7.37 32.58 6.91 32.33 4.58 31.5 6.41 30.48 5.95"/><polyline class="cls-1" points="37.04 5.13 39.41 7.34 38.72 8.08 37.96 7.37 36.03 9.44 35.18 8.65 37.11 6.58 36.35 5.87 37.04 5.13"/><polyline class="cls-1" points="37.42 10.99 40.76 9.09 42.18 11.59 41.39 12.04 40.53 10.51 40.06 10.78 40.79 12.07 40.03 12.51 39.3 11.21 38.77 11.51 39.67 13.1 38.87 13.55 37.42 10.99"/><path class="cls-1" d="M39.26,14.55,43,13.77l.32,1.57a2.08,2.08,0,0,1,0,1,1.37,1.37,0,0,1-.49.74,2.47,2.47,0,0,1-1,.44,2.6,2.6,0,0,1-.77.05,1.91,1.91,0,0,1-.6-.13,1.44,1.44,0,0,1-.4-.25,1.48,1.48,0,0,1-.29-.4,2.67,2.67,0,0,1-.22-.66l-.32-1.54m1.17.91.06.29a.94.94,0,0,0,.2.46.65.65,0,0,0,.37.18,1.63,1.63,0,0,0,.57,0,2.11,2.11,0,0,0,.38-.12.91.91,0,0,0,.27-.18.39.39,0,0,0,.13-.21,1.19,1.19,0,0,0,0-.48l-.06-.3Z"/><polyline class="cls-1" points="43.13 23.25 42.24 23.08 42.57 21.36 42.04 21.26 41.76 22.72 40.9 22.55 41.19 21.09 40.59 20.98 40.25 22.77 39.34 22.59 39.9 19.7 43.67 20.43 43.13 23.25"/><path class="cls-1" d="M40.22,27.89l-.27,0a2,2,0,0,1-.52-.16l.53-1a.85.85,0,0,0,.33.07.44.44,0,0,0,.16,0,.55.55,0,0,0,.33-.27.6.6,0,0,0,0-.57,1.42,1.42,0,0,0-.64-.58,1.78,1.78,0,0,0-.58-.22h-.11a.6.6,0,0,0-.27.06.59.59,0,0,0-.27.27.57.57,0,0,0-.06.45.75.75,0,0,0,.32.4l-.54,1a2.41,2.41,0,0,1-.46-.41,1.71,1.71,0,0,1-.28-.52,1.52,1.52,0,0,1-.07-.64,1.71,1.71,0,0,1,.23-.69,1.88,1.88,0,0,1,.48-.59,1.62,1.62,0,0,1,.6-.33,1.84,1.84,0,0,1,.47-.06h.19a2.41,2.41,0,0,1,.93.3,2.67,2.67,0,0,1,.66.52,2.08,2.08,0,0,1,.39.64,1.49,1.49,0,0,1,.09.65,2,2,0,0,1-.24.78,2.35,2.35,0,0,1-.46.57,1.35,1.35,0,0,1-.59.31,1.5,1.5,0,0,1-.37,0"/><path class="cls-1" d="M36.41,29a.52.52,0,0,0-.38.16.6.6,0,0,0-.2.32.7.7,0,0,0,.05.44,1.6,1.6,0,0,0,.33.52,2.36,2.36,0,0,0,.35.31,1.15,1.15,0,0,0,.31.16l.18,0h.13a.67.67,0,0,0,.28-.14.78.78,0,0,0,.19-.33.81.81,0,0,0,0-.45,1.47,1.47,0,0,0-.33-.51,1.39,1.39,0,0,0-.74-.48h-.12m.44,3a1.66,1.66,0,0,1-.58-.11,2.33,2.33,0,0,1-.88-.62,2.61,2.61,0,0,1-.54-.91,1.87,1.87,0,0,1,1.74-2.37h.17a2.09,2.09,0,0,1,1.36.75,2.3,2.3,0,0,1,.44.66,1.63,1.63,0,0,1,.16.65,1.87,1.87,0,0,1,0,.55,2,2,0,0,1-.22.46,1.9,1.9,0,0,1-.34.41,2,2,0,0,1-.88.47,1.65,1.65,0,0,1-.38.05"/><path class="cls-1" d="M33.24,30.22l1.55,3.53-1.33.57a4.32,4.32,0,0,1-.72.27,1.83,1.83,0,0,1-.44,0,1.46,1.46,0,0,1-.39-.12,1.23,1.23,0,0,1-.34-.26,1.6,1.6,0,0,1-.39-.94,1.15,1.15,0,0,1,0-.43,1,1,0,0,1,.13-.3,1.33,1.33,0,0,1,.21-.22,1.91,1.91,0,0,1,.51-.32l.6-.27-.47-1.09,1-.46m.14,3.13-.32-.74-.38.16a1.83,1.83,0,0,0-.31.17.31.31,0,0,0-.09.19.45.45,0,0,0,0,.25.32.32,0,0,0,.26.22.86.86,0,0,0,.46-.11Z"/><path class="cls-1" d="M29.42,31.73l.39,3.82-1.72.18a4.46,4.46,0,0,1-.61,0,1.24,1.24,0,0,1-.42-.09.94.94,0,0,1-.48-.48,1.23,1.23,0,0,1-.1-.38,1.09,1.09,0,0,1,0-.49.87.87,0,0,1,.2-.35A.68.68,0,0,1,27,33.8a1,1,0,0,1-.49-.27A1,1,0,0,1,26.3,33l-.08-.6a.34.34,0,0,0,0-.15.12.12,0,0,0-.09,0v-.12L27.25,32a2,2,0,0,1,.1.52l0,.29a.55.55,0,0,0,.09.29.34.34,0,0,0,.18.15.81.81,0,0,0,.33,0l.45,0-.13-1.33,1.11-.11M28.53,34l-.55.06a.55.55,0,0,0-.37.14.33.33,0,0,0-.08.28.35.35,0,0,0,.13.26.59.59,0,0,0,.38,0l.56,0Z"/><polyline class="cls-1" points="24.96 31.89 24.37 35.69 23.22 35.51 23.81 31.71 24.96 31.89"/><polyline class="cls-1" points="22.54 31.49 20.96 35 19.98 34.55 19.7 32.18 18.86 34.05 17.85 33.6 19.42 30.09 20.43 30.55 20.7 32.87 21.52 31.04 22.54 31.49"/><polyline class="cls-1" points="15.99 32.36 13.59 30.16 14.28 29.42 15.05 30.12 16.96 28.04 17.82 28.82 15.9 30.91 16.67 31.61 15.99 32.36"/><polyline class="cls-1" points="15.56 26.5 12.23 28.42 10.79 25.93 11.58 25.48 12.46 27 12.93 26.73 12.18 25.44 12.93 25 13.68 26.29 14.2 25.99 13.29 24.41 14.09 23.95 15.56 26.5"/><path class="cls-1" d="M13.69,23l-3.76.8-.34-1.57a2.23,2.23,0,0,1,0-1,1.41,1.41,0,0,1,.48-.74,2.41,2.41,0,0,1,1-.45,2.63,2.63,0,0,1,.77-.06,1.91,1.91,0,0,1,.6.13,1.51,1.51,0,0,1,.4.24,1.36,1.36,0,0,1,.3.41,2.58,2.58,0,0,1,.22.65L13.69,23m-1.17-.91-.06-.29a1.05,1.05,0,0,0-.2-.45.59.59,0,0,0-.38-.18,1.42,1.42,0,0,0-.57,0,2.11,2.11,0,0,0-.38.12,1.58,1.58,0,0,0-.27.18.53.53,0,0,0-.12.22,1,1,0,0,0,0,.48l.06.3Z"/><path class="cls-1" d="M25.8,24.76l.48-.18.5-.19.47-.19.48-.19.54-.21.49-.18.4-.13.27-.1.24-.11h.15l.1-.1.14,0c.39-.11.18.07.18.07-.24.25.07.17.07.17l.28-.18,0-.08a.44.44,0,0,0,.36-.36l.18,0c.74-.32,1.51-.44,2.28-.69l.17,0,.11-.1h.09l0-.05,0,0h0v-.06h0l0,0,.08.09.06-.06h.13l0,0v-.1l.05,0,0,0h.29l.06-.06.05,0,.08,0,0,0H34.6l0,.09.1,0h.13l0,0v-.07l.09-.08v-.09l-.06-.06v-.05l.06-.06h.12l0-.05h-.4l-.08.08h-.3l-.06.06,0,.05h-.07l-.05,0h-.08l.06,0V21.3h-.06l-.06.06h-1l0-.31-.33.1-.43.06-.56.18-.71.21c-.5.14-.27-.14-.27-.14a1,1,0,0,0,.06-.32c-.05-.46.29-.35.29-.35l.11-.11.2,0,.15-.15v-.17l-.08-.08-.09-.09V20c-.23-.23-.53.07-.53.07-.33,0,0-.14,0-.14s.42-.18.42-.18l.15,0,.13-.13h.23l.09-.09.28-.14.41-.11.41-.16.26-.1.07-.07.23,0,.09-.09h.21l.1-.1,0-.13c0-.11.14-.13.14-.13l.16-.09c.15-.1.1-.19.1-.19l0-.1-.09-.17-.05-.2,0,0H34v-.1L34,17.55l-.11-.11-.17-.08v.11c-.1.18-.24,0-.24,0l0-.14-.06-.15,0-.1h-.21l-.17,0v.07l-.2,0c-.21.06-.12-.05-.12-.05L33,17l0,0,.05-.05.11-.05.2,0a.27.27,0,0,0,.23-.35l0-.1-.06-.14v-.07l0-.11c-.15-.07,0-.18,0-.18l.18-.09.14-.05.15,0,.12-.06.14,0,0-.05.1-.1v0a.35.35,0,0,0,.31-.14v-.15c.16,0,.09-.21.09-.21l0-.24v-.1l.06-.06v-.08l0-.08c.06-.19-.2-.24-.2-.24a.35.35,0,0,1-.22.22.25.25,0,0,0-.23.12l-.07.06-.13.07-.14,0-.1.1h-.13l0,0v-.1l0-.12c0-.24-.24-.15-.24-.15h-.17l-.24.1c0-.36-.34-.24-.34-.24l-.15.06-.2.11c-.22.07-.09-.1-.09-.1l.1-.09.29-.27c.22-.17,0-.28,0-.28l-.17-.08-.05-.05h-.61l.08-.07.21-.12.19-.14s.08,0,.4-.33.13-.54.13-.54a2,2,0,0,1-.11-.39,2.34,2.34,0,0,0-.29-.49c0-.38-.54-.24-.54-.24s0-.07,0-.07l.09-.06a1.5,1.5,0,0,0,.31-.29c.24-.25,0-.37,0-.37l0-.09V10.2c-.13-.62-.59-.32-.59-.32h-.15c-.26.1-.53.08-.79.19l-.26.07c-.2.07-.06-.06-.06-.06l.18-.11.18-.1.22-.1.25-.13.18-.08.11,0h.11l.18,0c.32-.18,0-.28,0-.28h-.21l-.27.07-.85.42-.21.09-.21.15-.23.19c-.33.19,0,.43,0,.43h.33l.17,0a.8.8,0,0,0,.34-.08h.18l.13-.06.23,0c.34-.13,0,0,0,0l-.09.09-.24.08-.28.13-.13.14-.13,0h-.14l-.13,0-.11,0-.11.05-.13,0h-.24c-.43,0-.29.2-.29.2l.14.31.21.3.11.21.11,0,.09.1.12,0,0-.1a11.21,11.21,0,0,1,1.49-.52l.23-.08c.27-.07,0,.07,0,.07l-.39.15-.4.14-.48.18-.57.25-.22.12-.14,0-.07-.18-.12-.12h-.24l0,.07-.09.09-.1.1c-.13,0-.38.23-.38.23h-.17v.13h-.14l-.06-.06-.08-.19-.15,0c-.25-.24-.43-.33-.71-.63l-.08-.05c-.14-.3-.15,0-.15,0,0,.32-.3.32-.3.32-.3,0-.33.23-.33.23h-.16l-.1.05-.07.07-.08.08-.1.05-.08.08h-.11l-.06.05-.06.06h-.08l-.07.07-.14.08-.12.08c-.19,0-.27.18-.27.18-.16,0-.38.24-.38.24h-.1l0,0-.08.09-.05.05-.09,0c-.11,0-.07,0-.07,0a.06.06,0,0,1,.07-.06l.08,0,.15-.15a2.24,2.24,0,0,0,.52-.36l.17-.05c.08-.19.44-.25.44-.25l.09-.09.17-.17.06-.06.13,0,.14-.14a.57.57,0,0,1,.36-.18l.16-.21.12,0,.13-.09,0,0,.12,0a2,2,0,0,0,.45-.53.48.48,0,0,0,.07-.22v0a2.81,2.81,0,0,1,0-.29l0,0s0,0,0,0v.06l0,0h0l0,0V10.5h-.05l-.05-.06-.05,0-.05-.05v-.09l0,0,0-.07a.07.07,0,0,0-.1,0l0,0h-.12l-.08.1H27v.07l-.29.13-.07.08-.1.09-.27.08-.12.13-.29.16c-.17,0-.07-.07-.07-.07l.34-.24a.62.62,0,0,1,.2-.26l.14-.08.24-.32a.34.34,0,0,0,0-.45c.11-.28-.16-.23-.16-.23l-.11.1-.17.11L26,9.68l-.16,0-.17.17-.24.12-.17,0-.08.09-.25.15a3.31,3.31,0,0,0-.69.38c-.41.23-.11,0-.11,0l.05-.08c0-.08.15-.13.15-.13l.15-.15h.12c0-.1.17-.17.17-.17l.19-.19.22-.22.63-.47A.35.35,0,0,1,26,8.91V8.66l-.06-.05,0,0c.08-.25-.14-.06-.14-.06h-.13l-.12.1-.19.1-.1.11h-.1l-.14.07L24.85,9l-.15,0L24.63,9h-.12c0-.39.92-.9.92-.9.31-.18,0-.29,0-.29l-.11.06-.13,0-.14,0-.22.18c-.68.43-.67.92-.67.92-.08.31,0,.27,0,.27l.15.1c.15.08-.08.08-.08.08l-.1.11-.12.12H24l-.08.08-.21.21H23.6l-.13.13-.39.28-.16,0-.23.23-.3.21a.47.47,0,0,1-.36.18l-.31.31.17.07c.14-.06.23.12.23.12.11.32.33.33.33.33h.26l.2-.06.16-.09v-.12h.05v.08h.14v-.11h.08l.14-.06.23-.1.18-.25.17,0,.09-.09,1-.41-.75.51-.41.28-.54.4-.66.53a6.26,6.26,0,0,0-.93.71h-.12v.16a3,3,0,0,0-.94.74l-.28,0c-.42.22-.1.2-.1.2.15-.15.25.06.25.06a.8.8,0,0,1,.31.15c.24.23.4.17.4.17.08-.15.44-.26.44-.26,0-.17.29-.23.29-.23l.36-.17.3-.24c.41-.26.06.19.06.19h-.13v.08l-.19,0-.42.35v.08H21.9s.05.22,0,.15-.2,0-.2,0l-.27.27-.22.2c-.37-.31-.08.07-.08.07l-.16.16c-.18.25,0,.28,0,.28l.33.33.05.14.24.15c.19.35.45.14.45.14l.38-.21.07-.07.13,0,.21-.11h.11l.09-.1.25-.14.38-.15.26-.12a1.7,1.7,0,0,1,.37-.16l.22-.09c.5-.11.05.15.05.15l-.18.09-.2.1-.23.12a.66.66,0,0,0-.27.13l-.26.07a11.9,11.9,0,0,1-1.46.77l-.18.08c-.32.32-.19,0-.19,0,.11-.44-.38-.28-.38-.28l-.24.12-.35.15c-.33.12-.24-.15-.24-.15a.14.14,0,0,0-.14-.14l-.07-.05A.18.18,0,0,1,20,16l.06-.19c-.19-.12-.13-.2-.13-.2s.08-.21.08-.21c.2,0,.05-.22.05-.22l0-.12c.28-.16.08-.31.08-.31a.28.28,0,0,0-.33,0,.25.25,0,0,0-.11.36l.21.21c-.17,0-.51.33-.51.33s0,.2,0,.2c.18.18,0,.19,0,.19l-.16.19a.86.86,0,0,0-.48.3h-.12l-.18.18-.3.16c-.29,0-.2.19-.2.19a2.45,2.45,0,0,1,.12.51h.11v.14a.82.82,0,0,1,.44.09l-.4.27a.9.9,0,0,0-.22.06l-.22.17-.32.21-.5.29h-.12l0,.14c-.15.15,0,.13,0,.13s.09,0,.09,0c-.19.06-.15.15-.15.15l0,.17.22.19c0,.17.27.14.27.14l.28-.13c.32-.32.35,0,.35,0l.13.25c-.13.21,0,.27,0,.27a1.63,1.63,0,0,0-.69.41l-.15,0c-.37.37-.46.16-.46.16-.5-.41-.46,0-.46,0v.28l.09.25.11.11c.49.22.42.52.42.52l.27.35c.27.36.43.15.43.15a2.43,2.43,0,0,1,.52-.24l.16-.09c.3-.3.39,0,.39,0l.15.15c.25.25.37,0,.37,0,.2-.12.15.07.15.07s0,.46,0,.46v.31c0,.3-.15.27-.15.27a1,1,0,0,0-.4.15l-.33.19-.61.29c-.06.15-.17.15-.17.15a.76.76,0,0,0-.23,0l-.18.2a.39.39,0,0,0-.19.06,5.48,5.48,0,0,1-.66.35.56.56,0,0,1-.36.18c0,.26-.21.21-.21.21l-.34-.05v.08c-.06.52.56.82.56.82l.35,0c.34.21.45,0,.45,0l.93-.6L19,25l1.58-.8L22,23.48l.66-.27-.32.31-.34.25a.57.57,0,0,1-.27.24l-.28.27-.26.19-.33.25-.58.46-.32.32a11.26,11.26,0,0,0-1.35,1.35c.07.24-.13.25-.13.25l.09.07-.05,0c0,.3.17,0,.17,0l.14.15a.53.53,0,0,0,.08.26l.46.35.29-.16A30.2,30.2,0,0,1,25.26,25l.54-.25m5.72-7.09v0h-.05l0,0,0,0,0,0h0v0h0l0,0h.07Zm.12-.07h0v0h0v0Zm.26-.06h-.06v0l0,0h-.08l0-.07v0h.07c.05,0,.08,0,.08,0Zm-.7-3.32.3-.14.08-.05.1,0,.11-.05,0,0h.05a.62.62,0,0,1,.33-.09l-.11.11a1.36,1.36,0,0,0-.34.21l-.14,0v.06l0,0h0s-.08-.14-.27.05h-.13l0,0h0s0-.05.12-.08m-.38,3.66.07,0,0,.05s-.11,0-.11,0,0-.05,0-.05m-.4.21.09-.05.07.06-.19,0ZM26.79,10.9c.17-.11.2-.2.2-.2l.06-.06c.13,0,.11-.14.11-.14h.09a.15.15,0,0,1,0,.26c-.13,0-.1.05-.1.05l0,0C27,10.83,27,11,27,11c-.1.18-.24.08-.24.08s.07-.13.07-.13m-.21.16v0h0l0,0,0,0,0,0h0v0l0,0h0v-.09Zm-3,2.14h0l0,0v0l0,0,0,0Zm.18.56,0,0v.07l0,0-.05,0v-.09l.05,0h.05Zm6,6.68s.1,0,.1,0l0-.05.09,0,.09-.05c.15-.05.12.05.12.05a.58.58,0,0,0-.2,0l-.1,0v0a.25.25,0,0,1-.22.06c.12,0,.09-.06.09-.06M28,17.53l.12-.06.12,0,.06-.06.1,0,.08-.05.1-.06.09,0s.12-.09.15-.06,0,.05,0,.16-.16,0-.16,0v.05h0v0H28.6v.08a.26.26,0,0,0-.23.1.25.25,0,0,0-.2.13l0,0s0-.08-.07-.1-.08-.05,0-.07m-.84-4.18s.22-.1.22-.17l.12,0,0-.19a.47.47,0,0,0,.21-.21l.17.13-.34.26a.17.17,0,0,0-.05.1s-.27,0-.37.15Zm-4.7,5.88a.43.43,0,0,0,.3-.19v-.43l0-.19a.19.19,0,0,0,0-.13v-.14l0-.11c.15,0,.12-.21.29-.19s.3-.11.38-.15l.42-.2a4.08,4.08,0,0,1,.51-.26c.22-.06.13,0,.12,0l.06,0-.34.18c-.15,0-.14.11-.14.11s-.06.14-.06.14-.27.14-.27.14c-.47,0-.14.33-.14.33a.28.28,0,0,1,.13.19c0,.19.25.15.25.15s.13,0,.13,0-.12.12-.17.06-.09,0-.09,0v.07c-.32.18-.42.17-.42.17l0,.08c-.25-.24-.21,0-.21,0l-.22.17-.06,0c0,.17-.14.14-.14.14a.07.07,0,0,0-.07-.07v.11h0c0-.07-.07,0-.07,0-.25.08-.19-.07-.19-.07M21,19.05l.2-.13.25-.13.06,0,.06-.06h.09l.16-.09.13-.07.14-.07.08-.06h.07a.07.07,0,0,1,0-.07l.1,0s.15-.07,0,0l-.11.11a1.06,1.06,0,0,0-.34.26.21.21,0,0,1-.17,0,2.17,2.17,0,0,0-.3.13h-.07a.7.7,0,0,0-.12.15l-.14,0,0,0H21v.06s-.16.06-.21,0Zm-1,.36s.13.12.11.12-.35.14-.39.14.24-.26.28-.26m4.83,2.28,0,.16,0,.38,0,.3v.22a1,1,0,0,1-.07.74c.17.17,0,.34,0,.34l-.37.34c-.2.07-.82.33-.82.33l-1,.55L22.36,25l-.15.06-.05.06-.18.09-.12,0-.11.15-.14-.07-.06.13-.52.29-.27.08.08-.08.66-.61A.91.91,0,0,0,22,24.7a.31.31,0,0,0,.25-.12c0-.11.21-.22.21-.22l.12,0,.09-.1.06-.05h.06v-.09l.07-.06.06-.07.18-.05.24-.24.37-.38c.23-.06.11-.35.11-.35s-.1-.29-.1-.29l-.17-.31c.16-.15-.15-.15-.15-.15v-.08c.32-.07.1-.1.1-.1h-.12l-.09.09-.08,0h-.11L23,22v.09h-.1L22.76,22h-.21l-.09.09h-.18a1.33,1.33,0,0,0-.6.29c-.08-.08-.46.14-.46.14l-.15,0-.09.09-.11,0-.09.09-.24.11-.22.08s-.54.37-.54.24a1.31,1.31,0,0,0-.13-.39l0-.17v-.05l0,0V22.4l0,0v-.19a.32.32,0,0,1,.13-.29l0,0,.05,0v-.08H20l.06-.06.14-.06.17-.05.3-.17c.35-.2.16-.3.16-.3l-.16-.31c-.13-.25.13-.24.13-.24l.27-.12a1.32,1.32,0,0,1,.47-.24L22,20.1c.39,0,.14-.32.14-.32l.47-.18.19.16h-.13v.11c-.3.14-.15.31-.15.31l.25.25c.3.3.39.06.39.06a.53.53,0,0,0,.23-.11l0,0a1,1,0,0,1,.26-.1l.1-.13.2,0,.2-.13.4-.21c.15-.14.18-.05.18-.05,0,.22-.25.19-.25.19a.22.22,0,0,0-.18.2l.32.43.19.3-.06.58.12.17-.07.07Zm.34-4.62,0,.05c-.12-.11-.18.06-.18.06l-.24.12c-.08,0,0-.16,0-.16l.06-.06a.23.23,0,0,1,.13,0,.8.8,0,0,0,.22-.07l.11-.12h.14l0-.1a.44.44,0,0,0,.28-.07l.07-.07c.18,0,.2-.06.2-.1s.13,0,.13,0c0,.25-.21.16-.21.16v.09a.38.38,0,0,0-.2,0v.08a.34.34,0,0,0-.23.1h-.09l0,.09,0,0-.09,0Zm0,6.35c.18-.08.17-.5.17-.5v-.28l0-.18,0-.22.08-.09V20.66c0-.36.17-.39.17-.39l.25-.14c.34-.19.26-.26.26-.26L26,19.7c-.06-.44-.34-.34-.34-.34l-.32.15v-.17l.07-.07A1.09,1.09,0,0,0,25.9,19a.31.31,0,0,1,.39,0l.09.08v.12c0,.52.17.26.17.26a1.53,1.53,0,0,1,.47-.25l.44-.24c.48-.26.59.05.59.05l-.09.09.12.12-.21.06-.09.09h-.24l-.06.05v.07l.11.12c-.41.07.05.14.05.14.47.26-.06.31-.06.31s-.22.28-.3.21-.32.09-.32.09l-.33.22-.08-.09-.07.07-.07-.08-.13,0,.09.09.05.17c.18.18-.05.23-.05.23-.22,0-.1.09-.1.09l.34.34c.21.21.33.11.33.11l.16-.07a.39.39,0,0,0,.52.06c.08-.18.41-.23.41-.23l.12-.12.15-.06.18-.12.59-.3a.35.35,0,0,0,.25-.13l.24-.09v.23l.09.08.15.17c.07.33.49.11.49.11v.75h-.14l-.09.09H30l-.1.09h-.13L29.68,22l-.16.15H29.3l-.28.15a.49.49,0,0,0-.33.12l-.1,0-.13,0h-.14l-.12,0-.2.12a2.77,2.77,0,0,0-.83.31l-.28.08a.68.68,0,0,0-.32.14l-.1.1h-.23l-.09.08H26l-.07.07-.15.07h-.12l-.09.1h-.13l0-.05-.06-.06h-.12Zm13.13-1.91-.09.1-.07-.09.1-.06,0,0,.11-.08-.18,0,0,.09-.07.11-.17,0-.06-.09-.06-.06s-.39.12-.72.19-.65.14-.9.21-.7.17-1.1.29-.78.21-.93.27l-.62.23a7.46,7.46,0,0,0-.76.23c-.34.13-.69.28-.9.33a5.74,5.74,0,0,0-.68.21c-.24.07-.53.2-.68.24a2.75,2.75,0,0,0-.57.18,2.45,2.45,0,0,1-.46.18c-.09.05-.1,0-.21.08a2.38,2.38,0,0,1-.39.18c-.14.06-.24.12-.33.15a2.67,2.67,0,0,0-.42.15,3.17,3.17,0,0,1-.38.18,1.67,1.67,0,0,1-.24,0s-.06.13-.15.15a1.64,1.64,0,0,0-.25.07l-.18.11a.39.39,0,0,0-.19.07c-.08.07-.12.16-.17.16s-.12.06-.21.07l-.39.2a3.1,3.1,0,0,0-.32.18c-.06,0-.23.12-.27.16a2.38,2.38,0,0,1-.27.22c-.05,0-.06.07-.14.13l-.26.2s.34.57.8.57a4.73,4.73,0,0,1,1.32-1,29.54,29.54,0,0,1,4.53-2c2.49-.9,5.62-1.81,5.62-1.81S38,22,38.07,22l.18-.05.15-.12v-.3Z"/><path d="M11,48.45c-.08-.14-.24-.07-.36-.12A1.81,1.81,0,0,1,9.4,46.56c0-.82,0-1.65,0-2.47,0-.18,0-.25.24-.25.88,0,.88,0,.88.83,0,.49,0,1,0,1.48a1.18,1.18,0,0,0,1.21,1.18q1,0,2.07,0c.2,0,.27.06.26.26s0,.57,0,.86Z"/><path d="M32.14,48.45c-.45-.14-.85-.33-1-.83A2,2,0,0,1,31.34,46a1.2,1.2,0,0,1,1.1-.53,1,1,0,0,1,1,.83c.21.79.16.85-.65.85-.24,0-.49,0-.73,0s-.25.11-.21.27a.59.59,0,0,0,.55.48.92.92,0,0,0,.55-.09c.25-.13.34-.06.43.18s-.12.27-.26.35-.37,0-.53.15Zm.08-1.84c.51,0,.51,0,.51-.16a.47.47,0,1,0-.93,0C31.84,46.76,32.11,46.53,32.22,46.61Z"/><path d="M35.27,48.45A2,2,0,0,1,34,46a2.11,2.11,0,0,1,.59-1.35,1.46,1.46,0,0,1,1.7,0c.22.19,0,.31-.07.45s-.17.08-.28,0a.66.66,0,0,0-1.11.49,4.26,4.26,0,0,0,0,1.63.65.65,0,0,0,1,.52c.26-.12.37-.05.47.18s-.12.29-.26.39-.29,0-.39.14Z"/><path d="M16.45,48.45a1.74,1.74,0,0,1-1.22-2A2.81,2.81,0,0,1,15.56,45a1.4,1.4,0,0,1,2-.33c.22.18,0,.28-.07.41s-.11.18-.27.08c-.58-.36-1-.18-1.14.47a4.07,4.07,0,0,0,0,1.63c.15.6.48.78,1,.52.28-.13.37,0,.47.2s-.12.27-.24.36-.31,0-.43.15Z"/><path d="M26.8,48.45a.9.9,0,0,1-.7-.88.83.83,0,0,1,.58-.83,2.09,2.09,0,0,1,.65-.13c.14,0,.29,0,.28-.2s0-.38-.27-.41a1.25,1.25,0,0,0-.69.09c-.17.09-.23,0-.27-.14s-.14-.3.09-.37a2.14,2.14,0,0,1,1.3-.07.67.67,0,0,1,.49.7,7.66,7.66,0,0,0,0,1.44c.09.42.06.67-.37.8h-.06l-.17-.35a2,2,0,0,1-.57.35Zm.81-1c0-.16.09-.39-.24-.37s-.59.18-.59.48a.37.37,0,0,0,.39.39C27.45,47.94,27.61,47.75,27.61,47.42Z"/><path d="M37.54,48.45c-.6-.27-.78-.58-.66-1.13a.75.75,0,0,1,.6-.59,3.73,3.73,0,0,1,.58-.12c.12,0,.3.07.29-.18s0-.41-.29-.43a1.21,1.21,0,0,0-.68.1c-.15.07-.22,0-.26-.14s-.17-.31.06-.37a2,2,0,0,1,1.36-.07.68.68,0,0,1,.46.66v1.25a.58.58,0,0,0,0,.23c.19.39.08.65-.34.79h-.07c-.08-.28-.21-.39-.45-.14-.08.08-.22,0-.28.14Zm.81-1c0-.36,0-.36-.26-.36s-.58.18-.58.46a.39.39,0,0,0,.4.42C38.21,47.93,38.35,47.76,38.35,47.41Z"/><path d="M29.8,48.45a.78.78,0,0,1-.53-.87c0-.43,0-.86,0-1.29,0-.18-.05-.26-.24-.25s-.3,0-.29-.25.1-.26.29-.24.25-.08.23-.25v-.23a.45.45,0,0,1,.58-.43c.09,0,.08.09.09.15,0,.24-.09.53.07.7s.47,0,.69.09c0,.36-.15.52-.51.47-.17,0-.24.05-.24.22,0,.41,0,.81,0,1.22,0,.26.15.38.38.29s.36.08.41.3-.17.24-.31.29-.14,0-.17.08Z"/><path d="M18.72,48.45a.82.82,0,0,1-.5-.83c0-1,0-2,0-3.07,0-.37.37-.24.57-.29s.13.17.13.27c0,1,0,1.93,0,2.9,0,.22,0,.41.32.36s.15.16.19.25.08.24-.07.32-.14,0-.16.09Z"/><path d="M40.34,48.45a.77.77,0,0,1-.52-.84c0-1,0-2,0-3,0-.28.16-.41.53-.39s.16.22.16.35c0,.94,0,1.89,0,2.83,0,.21,0,.39.31.37s.16.25.22.38-.08.18-.19.19a.23.23,0,0,0-.18.08Z"/><path d="M42.41,48.45c-.44-.16-.83-.36-.94-.86a2.2,2.2,0,0,1,.07-1.41,1.28,1.28,0,0,1,2-.44v.07s-.07.06-.08.09c-.11.25-.22.31-.49.15a.52.52,0,0,0-.78.34,2,2,0,0,0,0,.94c.08.51.44.68.92.46.13-.06.19-.09.27.08s.08.39-.2.47c-.11,0-.25,0-.34.11Z"/><path d="M21.8,47a6.75,6.75,0,0,0-.06-1.24c-.08-.29.22-.2.35-.27s.26-.07.29.12.05.22.22.1c.59-.4.72-.39,1.28,0,.12.09.15,0,.22,0a1.1,1.1,0,0,1,.89-.24.53.53,0,0,1,.46.5c0,.72,0,1.45,0,2.17,0,.33-.29.14-.44.18s-.23,0-.23-.22c0-.53,0-1.07,0-1.61,0-.17,0-.37-.2-.46s-.34,0-.49.14-.12.19-.12.32c0,.52,0,1.05,0,1.58,0,.28-.15.26-.33.25s-.39.08-.38-.25c0-.56,0-1.12,0-1.68,0-.19-.05-.41-.3-.37s-.47.09-.47.41c0,.55,0,1.1,0,1.65,0,.33-.21.23-.38.24s-.36.06-.34-.24S21.8,47.41,21.8,47Z"/><path d="M12.64,47c.4-.72.38-1.24,0-1.67s-.91-.49-1.74-.09V44c0-.14,0-.2.19-.19a12.43,12.43,0,0,1,1.49,0A1.74,1.74,0,0,1,14,45.56c0,.4,0,.81,0,1.22,0,.11,0,.21-.16.21Z"/><path d="M20.87,47c0,.36,0,.72,0,1.08s-.16.27-.35.27-.34,0-.33-.26c0-.58,0-1.16,0-1.74,0-.19,0-.29-.25-.27s-.3,0-.3-.28.17-.2.32-.21c.9,0,.9,0,.9.88V47Z"/><path d="M12.57,46.13a.84.84,0,0,1-.85.86.86.86,0,0,1-.86-.86.85.85,0,0,1,.88-.84A.83.83,0,0,1,12.57,46.13Zm-.5,0c-.07-.15-.14-.32-.36-.3a.32.32,0,0,0-.32.35.3.3,0,0,0,.33.3C11.92,46.47,12,46.33,12.07,46.11Z"/><path d="M21,44.68a.48.48,0,0,1-.47.46.47.47,0,0,1-.44-.48.41.41,0,0,1,.45-.42A.43.43,0,0,1,21,44.68Z"/><path d="M30.09,75.2a7.86,7.86,0,0,0,.32,2.36c.05.17,0,.22-.15.22a5.61,5.61,0,0,0-.71,0,.23.23,0,0,1-.27-.18,7.26,7.26,0,0,1-.45-3.6,7,7,0,0,1,2.48-4.53,7.18,7.18,0,0,1,11.33,2.93,7,7,0,0,1,0,5.09.35.35,0,0,1-.42.29c-.21,0-.43,0-.64,0s-.18,0-.14-.16a8.17,8.17,0,0,0,.25-3.74,6.85,6.85,0,0,0-3.19-5.08,4.76,4.76,0,0,0-5.42.17,6.68,6.68,0,0,0-2.64,3.73A8.13,8.13,0,0,0,30.09,75.2Z"/><path d="M41.16,75.75A5.2,5.2,0,0,1,39,76.92a6.79,6.79,0,0,1-3.17,0c-.07,0-.17,0-.19-.08s.07-.11.13-.16a5.61,5.61,0,0,1,4.07-1.16A6.1,6.1,0,0,1,41.16,75.75Z"/><path d="M35.19,77.1c0,.16,0,.32,0,.48s0,.19-.18.18a1.4,1.4,0,0,0-.29,0c-.15,0-.19-.05-.18-.19,0-.6.07-1.2.11-1.8A6.46,6.46,0,0,1,36,72.25.21.21,0,0,0,36,72a.8.8,0,0,1,.4-1,.79.79,0,0,1,1,.27.78.78,0,0,1,0,.83.71.71,0,0,1-.74.42.43.43,0,0,0-.42.22,5.78,5.78,0,0,0-.88,2A10.1,10.1,0,0,0,35.19,77.1Z"/><path d="M32.28,81.09h7.25A5.7,5.7,0,0,1,37,82,7,7,0,0,1,32.28,81.09Z"/><path d="M33.5,75.55a3.33,3.33,0,0,1-2.93-1.74c-.15-.24-.14-.25.16-.3a3.31,3.31,0,0,1,3,1,6.8,6.8,0,0,1,.64.78c.08.12.1.2-.09.23A5.84,5.84,0,0,1,33.5,75.55Z"/><path d="M40,72.34a1.06,1.06,0,1,1-2.12,0,1.08,1.08,0,0,1,1.07-1.06A1.07,1.07,0,0,1,40,72.34Z"/><path d="M37.18,70.19a1.05,1.05,0,1,1,1,1.06A1,1,0,0,1,37.18,70.19Z"/><path d="M37.19,74.81a1.06,1.06,0,1,1,0-2.12,1.06,1.06,0,1,1,0,2.12Z"/><path d="M34.74,70.78a1.06,1.06,0,0,1,0,2.11,1.06,1.06,0,1,1,0-2.11Z"/><path d="M34.93,69.83a1.06,1.06,0,0,1,2.11,0A1.06,1.06,0,0,1,36,70.9,1,1,0,0,1,34.93,69.83Z"/><path d="M33.43,79.4a1.68,1.68,0,0,1-.1.68.71.71,0,0,1-.64.55.69.69,0,0,1-.71-.41,2,2,0,0,1,0-1.62.65.65,0,0,1,.75-.4.71.71,0,0,1,.59.53A1.73,1.73,0,0,1,33.43,79.4Zm-1,0c0,.17,0,.36,0,.54s.06.22.2.22.18-.11.19-.22a4.79,4.79,0,0,0,0-1.07c0-.12-.06-.22-.19-.22s-.19.1-.2.22S32.41,79.23,32.4,79.41Z"/><path d="M39.18,79.42a2.41,2.41,0,0,1,.11-.76.65.65,0,0,1,.56-.46.6.6,0,0,1,.65.39,2.24,2.24,0,0,1,0,1.63.59.59,0,0,1-.66.39.61.61,0,0,1-.55-.48A2.48,2.48,0,0,1,39.18,79.42Zm.88,0h0c0-.19,0-.39,0-.59s0-.18-.14-.19-.15.1-.16.18a11.81,11.81,0,0,0,0,1.19c0,.09,0,.18.15.18s.15-.09.15-.17S40.06,79.61,40.06,79.41Z"/><path d="M39.05,79.37a2.14,2.14,0,0,1-.14.82.62.62,0,0,1-.6.43.59.59,0,0,1-.61-.42,2.47,2.47,0,0,1,0-1.59.59.59,0,0,1,.63-.41.62.62,0,0,1,.58.46A2.4,2.4,0,0,1,39.05,79.37Zm-.91,0a3.84,3.84,0,0,0,0,.7c0,.08,0,.15.15.14s.12-.07.13-.14a4.29,4.29,0,0,0,0-1.24c0-.09,0-.17-.14-.17s-.14.09-.15.18S38.14,79.21,38.14,79.34Z"/><path d="M31,80.64a.82.82,0,0,1-.71-.47c0-.1,0-.16.07-.2a1.51,1.51,0,0,0,.22-.11c.08,0,.12,0,.15.06a.41.41,0,0,0,.07.11.25.25,0,0,0,.26.12.15.15,0,0,0,.15-.14.21.21,0,0,0-.11-.26l-.31-.16a.72.72,0,0,1-.46-.66.69.69,0,0,1,.36-.66.73.73,0,0,1,1,.35s0,.1,0,.13l-.27.13c-.14.07-.14-.08-.21-.13s-.19-.12-.28,0,0,.2.06.26l.44.23a.68.68,0,0,1,.34.84A.75.75,0,0,1,31,80.64Z"/><path d="M37.22,78.94v.42c0,.12,0,.26.17.27s.06.14.07.22,0,.17-.08.17-.16.14-.16.25c0,.29-.18.41-.46.31-.1,0-.07-.12-.07-.19,0-.36,0-.36-.37-.36s-.46-.18-.3-.5l.61-1.17a.58.58,0,0,1,.55-.11s0,.09,0,.14Zm-.84.66c.34,0,.42-.14.28-.56Z"/><path d="M41.82,79.22V80c0,.11,0,.2.16.18s.13.15.14.25,0,.17-.16.16h-.81c-.13,0-.17,0-.15-.17s-.06-.26.15-.24.16,0,.16-.14c0-.35,0-.69,0-1,0-.11,0-.16-.14-.12s-.16.07-.16,0-.09-.27.07-.35a4.36,4.36,0,0,0,.42-.23c.17-.11.32,0,.32.19Z"/><path d="M35.42,79.2c0,.27,0,.54,0,.81,0,.11,0,.17.15.16s.14.15.15.26-.06.15-.17.15h-.79c-.14,0-.16-.07-.14-.18s-.06-.24.13-.23.17,0,.17-.18V79c0-.09,0-.17-.13-.13s-.17.08-.17,0-.08-.27.08-.35a2.93,2.93,0,0,0,.39-.21c.18-.12.33,0,.33.19Z"/><path d="M30.06,79.43c0,.32,0,.64,0,1,0,.14,0,.21-.18.19a1.61,1.61,0,0,0-.22,0c-.11,0-.14,0-.14-.14V78.38c0-.1,0-.15.14-.15h.09c.31,0,.31,0,.31.3Z"/><path d="M29.5,69.39c0,.17.12.33,0,.43s-.26,0-.43.06l.47.39c.05,0,.11.07,0,.15s-.11,0-.15,0l-.63-.51s-.1-.06-.07-.12a.14.14,0,0,1,.12-.08H29c.35,0,.35,0,.27-.36,0-.08-.07-.18,0-.23s.15,0,.21.09l.54.43s.13.06.06.15-.13,0-.18,0Z"/><path d="M35.31,66.47c-.05,0-.07,0-.08.06-.21.27-.21.27-.47,0l-.09,0c0,.21,0,.39.07.58s0,.14-.06.15-.1-.06-.11-.12c0-.27-.07-.54-.1-.8,0,0,0-.09.05-.11a.14.14,0,0,1,.16,0l.29.36c.12-.18.2-.3.27-.43a.16.16,0,0,1,.15-.07c.06,0,.06.06.06.1,0,.27.07.54.1.8,0,.06,0,.14-.07.16s-.1-.08-.11-.15S35.33,66.67,35.31,66.47Z"/><path d="M44.19,77c0-.15-.23-.21-.19-.35s.23-.1.33-.22a2.6,2.6,0,0,0-.53-.14c-.08,0-.15,0-.13-.13s.1-.06.16,0l.73.15s.13,0,.15.07,0,.12-.1.16-.33.09-.35.23.15.22.23.33a.13.13,0,0,1,0,.16c0,.07-.1,0-.15,0l-.75-.16c-.07,0-.14,0-.12-.12s.09-.06.15,0A2.43,2.43,0,0,0,44.19,77Z"/><path d="M41.68,68.63c-.16,0-.31.11-.42,0s0-.26-.07-.42l-.37.44s-.08.12-.16,0,0-.11,0-.16l.51-.6s.06-.09.12-.07a.13.13,0,0,1,.08.14c0,.15-.07.34,0,.43s.26,0,.41-.06a.17.17,0,0,1,.16.06c0,.06,0,.1-.05.14l-.51.61s-.06.11-.14.05,0-.12,0-.17Z"/><path d="M37.7,67l.1-.59c0-.07,0-.16.12-.14s.06.1,0,.16c0,.25-.08.49-.13.73,0,.06,0,.15-.08.16s-.12,0-.15-.11l-.47-.77c0,.23-.07.42-.11.61s0,.14-.11.13-.06-.09-.05-.15c0-.24.08-.48.13-.73,0-.06,0-.16.09-.17s.11.08.15.14l.35.58A1.27,1.27,0,0,0,37.7,67Z"/><path d="M27.82,75.25h-.58c-.06,0-.13,0-.13-.07s.06-.08.12-.09L28,75c.05,0,.12,0,.15,0a.19.19,0,0,1-.06.16l-.65.59,0,.06.58,0c.06,0,.14,0,.15.06s-.08.09-.14.1l-.76.06c-.06,0-.13,0-.15,0s0-.12.06-.16l.63-.58Z"/><path d="M31.36,68.28c-.14-.2-.26-.35-.37-.5s-.09-.09,0-.15.12,0,.16.05l.46.61s.1.08.06.15-.12.06-.2,0l-.7-.16a.27.27,0,0,0-.15,0l.35.48s.09.08,0,.14-.11,0-.15,0l-.46-.61s-.1-.08-.06-.15.11-.06.17-.05l.73.16Z"/><path d="M29.11,70.68l-.55-.32s-.14,0-.09-.14.11,0,.17,0l.66.38c.05,0,.13,0,.11.12s-.07.1-.14.11l-.89.18c.2.12.37.21.52.31s.14,0,.1.14-.13,0-.18,0c-.23-.12-.45-.25-.67-.38,0,0-.11,0-.09-.1s.06-.09.12-.11Z"/><path d="M42.75,69.73l-.51.35c-.05,0-.1.12-.16,0s0-.13.07-.17l.62-.44s.08-.09.13,0,.07.11.05.18-.07.28-.11.42l-.1.47.51-.35s.1-.1.16,0,0,.11-.07.14l-.62.45s-.08.1-.15,0,0-.11,0-.18C42.6,70.34,42.67,70.06,42.75,69.73Z"/><path d="M28.16,72.63a.57.57,0,0,1-.55-.54.6.6,0,0,1,.56-.61.55.55,0,0,1,.55.54A.58.58,0,0,1,28.16,72.63Zm0-1a.44.44,0,0,0-.39.41.4.4,0,0,0,.4.38.43.43,0,0,0,.38-.42A.44.44,0,0,0,28.17,71.66Z"/><path d="M39.77,68.07a.69.69,0,0,1-.7-.56.56.56,0,0,1,.48-.57.69.69,0,0,1,.59.26.12.12,0,0,1,0,.14c-.06.06-.09,0-.12,0s-.26-.25-.46-.19a.38.38,0,0,0-.3.38.38.38,0,0,0,.31.38c.06,0,.12,0,.16,0s0-.12,0-.16-.06-.07,0-.12.09,0,.13,0,.25,0,.19.18S39.9,68,39.77,68.07Z"/><path d="M27.66,72.76s.09,0,.11,0c.15.22.31.08.48,0s.16-.14.21,0-.09.14-.18.18l-.28.12s-.09.06-.09.11.08.06.12.08l.21,0c.06,0,.1,0,.08.1a.08.08,0,0,1-.11.07l-.85-.2s-.07,0-.08-.06A.47.47,0,0,1,27.66,72.76Zm0,.45c.1,0,.14,0,.15-.1a.14.14,0,0,0-.14-.16c-.09,0-.14.06-.16.15S27.57,73.18,27.62,73.21Z"/><path d="M36.68,67.08c0,.07,0,.09,0,.1a.12.12,0,0,1-.13-.1c0-.11-.08-.24-.27-.22s-.3,0-.34.2-.08.12-.15.09,0-.11,0-.16c.11-.27.24-.53.37-.79,0,0,0-.1.1-.1s.09,0,.11.09l.34.85Zm-.48-.65a.58.58,0,0,0-.12.25c.08,0,.18,0,.21,0S36.28,66.51,36.2,66.43Z"/><path d="M38.89,67.52c0,.06,0,.15-.06.16s-.12-.07-.11-.15-.09-.23-.23-.28a.26.26,0,0,0-.34.11c0,.07-.11.1-.18,0s0-.11.05-.14l.57-.66s.07-.08.13-.07a.11.11,0,0,1,.07.12C38.83,67,38.86,67.24,38.89,67.52Zm-.25-.73c-.08.13-.2.16-.17.27a.13.13,0,0,0,.16.06C38.71,67.05,38.66,67,38.64,66.79Z"/><path d="M32.43,67.38V67c0-.08,0-.18,0-.22s.16.06.22.12l.54.5s.16.08.09.17-.14,0-.2,0-.2-.12-.34-.06-.22.12-.2.28,0,.18-.1.18-.05-.11-.06-.16Zm.39-.09a.65.65,0,0,0-.21-.19.48.48,0,0,0,0,.29A.42.42,0,0,0,32.82,67.29Z"/><path d="M28.18,76.56c0-.12,0-.19-.05-.26s0-.11.06-.12.09,0,.1.08.05.27.08.41,0,.11-.08.12l-.84.17s-.09,0-.11,0-.07-.31-.09-.47,0-.08.07-.09a.09.09,0,0,1,.09.08l0,.19c0,.1,0,.14.16.12s.14-.06.13-.18-.13-.25,0-.27.09.16.12.25.06.13.16.12S28.19,76.62,28.18,76.56Z"/><path d="M44.18,75.35l.48,0c.11,0,.15,0,.14.16s0,.24,0,.35,0,.11-.09.1-.08,0-.08-.1,0-.14,0-.2,0-.14-.11-.14-.17,0-.18.12.06.27-.09.27-.07-.18-.07-.27,0-.15-.15-.16-.13,0-.14.14,0,.3-.1.28-.06-.19-.06-.29C43.73,75.33,43.74,75.33,44.18,75.35Z"/><path d="M30,68.37l.07.06s0,.06,0,.09l-.16.16c-.07.06-.12.1,0,.2s.13.09.23,0,.12-.25.24-.13-.09.17-.15.24-.07.13,0,.21.13.09.21,0l.15-.15a.07.07,0,0,1,.12,0,.08.08,0,0,1,0,.11c-.11.11-.23.22-.33.33s-.11,0-.15,0l-.58-.59s-.06-.08-.05-.09Z"/><path d="M42.2,69.59l-.15-.2c-.06-.08-.12-.11-.21,0s-.11.15,0,.22,0,0,0,0,.24.13.11.25-.16-.07-.22-.14c-.25-.26-.25-.26,0-.5s.27-.24.4-.38.16-.08.24,0,.15.16.22.24.07.09,0,.15-.09,0-.12,0l-.12-.13c-.08-.11-.14-.09-.23,0s0,.14,0,.21a.47.47,0,0,1,.13.15C42.36,69.51,42.29,69.53,42.2,69.59Z"/><path d="M40.54,68.47c0,.07,0,.13-.14.08s-.24-.17-.36-.24-.06-.1,0-.17c.15-.22.29-.45.44-.68,0-.08.09-.09.17,0l.31.19c.05,0,.11.07.06.14s-.09,0-.14,0l-.16-.11c-.11-.09-.15,0-.21.06s0,.13.06.19.26.08.18.21-.18,0-.26-.08-.14-.09-.2,0-.09.15,0,.22A.55.55,0,0,1,40.54,68.47Z"/><path d="M43.5,72.08l0,.13c0,.11,0,.22.1.26s.16-.1.19-.19a1.06,1.06,0,0,0,.06-.19.26.26,0,0,1,.35-.2.36.36,0,0,1,.21.41.1.1,0,0,1-.11.09c-.09,0,0-.07,0-.11s0-.21-.12-.22-.12.11-.15.2,0,.14-.06.21a.29.29,0,0,1-.4.15.4.4,0,0,1-.18-.43C43.34,72.11,43.4,72.09,43.5,72.08Z"/><path d="M43.9,73.65a.2.2,0,0,0,0,0c-.06.12-.15.29,0,.36s.19-.13.25-.24.18-.29.39-.23a.36.36,0,0,1,.2.42c0,.08-.08.14-.16.12s0-.09,0-.14,0-.21-.09-.24-.14.09-.17.16a.78.78,0,0,1-.11.2.3.3,0,0,1-.42.09.43.43,0,0,1-.09-.48C43.76,73.65,43.82,73.66,43.9,73.65Z"/><path d="M27.8,74.41l-.52-.26c-.07,0-.16-.08-.11-.17s.12,0,.17,0l.92.47-1.06.37s-.08,0-.09,0,0-.11.05-.13.21-.08.31-.12A1.18,1.18,0,0,0,27.8,74.41Z"/><path d="M43,71.39c-.05,0-.07,0-.09-.06s0-.09.06-.11.35-.2.54-.29.17-.12.08-.25-.1-.13,0-.19.12.06.15.11l.29.54c0,.06,0,.11,0,.15s-.1,0-.12-.07c-.06-.22-.18-.21-.35-.1A5.12,5.12,0,0,1,43,71.39Z"/><path d="M31.63,67.41l-.19.11c-.05,0-.1,0-.13,0s0-.08,0-.11L32,67c.05,0,.08,0,.11,0s0,.1,0,.12c-.27.08-.2.23-.08.4s.15.28.23.42.07.1,0,.14-.1,0-.13,0l-.32-.58S31.7,67.41,31.63,67.41Z"/><path d="M44.22,74.86h-.37c-.05,0-.1,0-.1-.09s0-.08.1-.08a5.42,5.42,0,0,1,.57,0c.16,0,.26,0,.23-.22s0-.15.07-.15.09.08.09.15v.63s0,.11-.07.11-.08,0-.08-.06C44.71,74.69,44.37,74.9,44.22,74.86Z"/><path d="M44.48,72.54c.11.25-.16.33-.2.51a2.48,2.48,0,0,1,.32.17.11.11,0,0,1,.06.16c0,.06-.1,0-.13,0a.87.87,0,0,0-.81-.1c-.06,0-.14,0-.17-.05a.09.09,0,0,1,.09-.12,1,1,0,0,0,.78-.51S44.45,72.56,44.48,72.54Z"/><path d="M34.08,67.34s0,0,0,0l-.06,0c-.46.21-.48.2-.63-.27,0-.16-.1-.32-.14-.48s0-.1,0-.13.11,0,.13.08.09.32.14.48.08.27.36.2C34,67.26,34.05,67.17,34.08,67.34Z"/><path d="M27.34,73.61l.8.11c.05,0,.12,0,.12.09s-.08.09-.14.08l-.8-.12c-.06,0-.12,0-.11-.1S27.28,73.59,27.34,73.61Z"/><rect class="cls-2" x="8.81" y="78.47" width="16.94" height="5.23"/><path d="M17.05,71.85h-.73a.31.31,0,0,1-.34-.34v-1c0-.12,0-.11-.12-.1s-.46.08-.69.08a.31.31,0,0,1-.33-.32.36.36,0,0,1,.34-.33c.22,0,.44,0,.67-.08s.31,0,.47,0a.29.29,0,0,1,.28.25,3.9,3.9,0,0,1,0,.59,5.61,5.61,0,0,1,0,.58c0,.06,0,.09.09.09h.71c.07,0,.09,0,.09-.09,0-.36,0-.72,0-1.09a.33.33,0,0,1,.33-.33,1.33,1.33,0,0,1,.55.15,1.79,1.79,0,0,0,.85.22,1,1,0,0,0,.85-.61,1.08,1.08,0,0,0-.35-1.23,2.48,2.48,0,0,0-.4-.26c-.08,0-.08-.06,0-.12a1.08,1.08,0,0,0,.28-.86,1.19,1.19,0,0,0-.9-1.07c-.17,0-.24-.06-.25-.25a1.23,1.23,0,0,0-.41-.81,1.49,1.49,0,0,0-.54-.32,1.76,1.76,0,0,0-.45-.07,1.34,1.34,0,0,0-.84.31,3.39,3.39,0,0,0-.77,1,10.4,10.4,0,0,0-.62,1.41c-.12.35-.24.7-.35,1.07s-.19.69-.29,1l-.24,1c-.05.19-.09.38-.14.57a.32.32,0,0,1-.56.16c-.16-.16-.32-.31-.47-.47l-.69-.68c-.11-.11-.22-.23-.33-.33a.35.35,0,0,1,0-.46.34.34,0,0,1,.48,0c.29.31.6.6.9.9a1.59,1.59,0,0,0,.13.13s.06.05.08,0,.11-.41.16-.62.09-.33.14-.5.12-.47.19-.7.17-.58.26-.86.2-.6.32-.9a6.52,6.52,0,0,1,1.08-1.88,2.57,2.57,0,0,1,.9-.63,1.84,1.84,0,0,1,.9-.12,2,2,0,0,1,1.42.78,2.05,2.05,0,0,1,.33.64.18.18,0,0,0,.1.13,1.76,1.76,0,0,1,.94.86,1.85,1.85,0,0,1,.19,1.06,1.21,1.21,0,0,1-.09.35s0,.08,0,.12a1.73,1.73,0,0,1,.58.91,1.83,1.83,0,0,1,0,.7A1.57,1.57,0,0,1,20,70.47a1.65,1.65,0,0,1-1.12.23,2.2,2.2,0,0,1-.65-.19c-.1-.06-.11-.05-.11.06,0,.31,0,.62,0,.93a.35.35,0,0,1-.34.35Z"/><path d="M14,74.91h-.62s-.1,0-.1-.06a.09.09,0,0,1,.09-.1l.23,0c.1,0,.12-.06.13-.14V73c0-.14,0-.16-.16-.19l-.21,0c-.05,0-.09,0-.08-.07s0-.09.08-.09c.21,0,.41,0,.62,0a1.79,1.79,0,0,0,.23,0c.41,0,.81,0,1.21,0a.15.15,0,0,1,.16.12c0,.09.09.19.13.29s.06.08,0,.12a.12.12,0,0,1-.15,0L15.24,73a.69.69,0,0,0-.56-.12,2.26,2.26,0,0,1-.37,0c-.08,0-.12,0-.12.12v.68s0,.07.05.07a1.67,1.67,0,0,0,.5,0,.18.18,0,0,0,.15-.17.23.23,0,0,1,0-.11c0-.07.07-.07.13-.06s.06.05.06.09V74a1.5,1.5,0,0,1,0,.2c0,.06,0,.08-.07.08s-.1,0-.11-.06a.56.56,0,0,0,0-.12c0-.12-.07-.17-.23-.19s-.28,0-.42,0-.07,0-.07.08v.61c0,.08,0,.13.13.14s.2,0,.29,0,.1,0,.1.08-.05.07-.1.07Z"/><path d="M17.55,74.44a.41.41,0,0,0-.19-.33,2.91,2.91,0,0,0-.59-.34,1.82,1.82,0,0,1-.56-.35.36.36,0,0,1,0-.54.87.87,0,0,1,.38-.17,1.92,1.92,0,0,1,.53-.06,2.32,2.32,0,0,1,.59.06.17.17,0,0,1,.14.18,2.46,2.46,0,0,0,0,.26c0,.08,0,.1-.1.11s-.12,0-.14-.07a.55.55,0,0,0-.71-.35.6.6,0,0,0-.22.09.2.2,0,0,0,0,.34,1.43,1.43,0,0,0,.43.25,3.14,3.14,0,0,1,.73.42.48.48,0,0,1,.21.47.55.55,0,0,1-.33.37,1.43,1.43,0,0,1-.61.14,3.24,3.24,0,0,1-.88-.07.16.16,0,0,1-.14-.13c0-.13-.07-.26-.09-.39s0-.11.07-.12.11,0,.14.06a.71.71,0,0,0,.13.22.82.82,0,0,0,.81.25.54.54,0,0,0,.25-.09A.27.27,0,0,0,17.55,74.44Z"/><path d="M19.66,74.92a1.52,1.52,0,0,1-.88-.26,1,1,0,0,1-.1-1.6,1.92,1.92,0,0,1,1.13-.4,3.32,3.32,0,0,1,.63,0c.18,0,.21,0,.2.21v.24c0,.08,0,.1-.1.12s-.08,0-.09-.09a.39.39,0,0,0-.33-.31,1.22,1.22,0,0,0-1,.21.72.72,0,0,0-.29.55,1.11,1.11,0,0,0,.13.67.92.92,0,0,0,.57.41,1.5,1.5,0,0,0,.73,0l.22-.08c.08,0,.13,0,.18.06s0,0,0,0a1.72,1.72,0,0,1-.43.16A2.19,2.19,0,0,1,19.66,74.92Z"/><path d="M17.55,79.34a.91.91,0,0,1-.07.45.46.46,0,0,1-.41.27.43.43,0,0,1-.4-.28,1.42,1.42,0,0,1-.06-.58.74.74,0,0,1,.1-.41.41.41,0,0,1,.44-.2.42.42,0,0,1,.36.38c0,.06,0,.11,0,.17A1.33,1.33,0,0,0,17.55,79.34Zm-.72,0a.94.94,0,0,0,.06.44.2.2,0,0,0,.18.11.2.2,0,0,0,.19-.11.54.54,0,0,0,.06-.25,1.56,1.56,0,0,0,0-.53.23.23,0,0,0-.21-.2c-.08,0-.17.07-.21.17A1.17,1.17,0,0,0,16.83,79.31Z"/><path d="M16.38,79.3a1.08,1.08,0,0,1-.06.48.46.46,0,0,1-.42.28.45.45,0,0,1-.42-.35,1.46,1.46,0,0,1,0-.83.45.45,0,0,1,.43-.3.43.43,0,0,1,.41.34A1,1,0,0,1,16.38,79.3Zm-.72,0a.8.8,0,0,0,.06.4.2.2,0,0,0,.25.12c.15,0,.17-.17.18-.28a1.45,1.45,0,0,0,0-.62.23.23,0,0,0-.2-.18.21.21,0,0,0-.2.15A.93.93,0,0,0,15.66,79.33Z"/><path d="M21,64.49a.56.56,0,0,1-1.11,0,.57.57,0,0,1,.56-.56A.55.55,0,0,1,21,64.49Zm-.29.31c-.14,0-.17,0-.21-.13l-.07-.09s-.05,0-.08,0,0,0,0,.07a.48.48,0,0,0,0,.12s0,0-.06,0-.06,0-.06-.06v-.49s0,0,.05,0a2.43,2.43,0,0,1,.27,0c.14,0,.21.19.12.27s-.06.12,0,.18l.06.09c0,.07.07.06.11,0a.44.44,0,0,0,.07-.34.43.43,0,1,0-.63.47A.37.37,0,0,0,20.66,64.8Zm-.29-.49s-.1,0-.1.06,0,.09.09.08.12,0,.13-.08S20.43,64.31,20.37,64.31Z"/><path d="M11,84.11v-.28c0-.12,0-.15.15-.09a.06.06,0,0,0,.07,0,.29.29,0,0,1,.34,0s.07,0,.11,0a.26.26,0,0,1,.37.07.17.17,0,0,1,0,.1c0,.17,0,.34,0,.52s0,.07-.08.07-.08,0-.08-.08V84c0-.07,0-.13-.1-.15a.14.14,0,0,0-.17.11,1.4,1.4,0,0,0,0,.35.48.48,0,0,0,0,.12c0,.07,0,.08-.09.08s-.07,0-.07-.08V84c0-.08,0-.14-.11-.14a.16.16,0,0,0-.17.13,2.26,2.26,0,0,0,0,.45c0,.07,0,.08-.09.08s-.08,0-.08-.08Z"/><path d="M15.59,84.18a2,2,0,0,1,0,.41.33.33,0,0,1-.4.22c-.1,0-.2,0-.23-.15s0-.09,0-.11a.1.1,0,0,1,.13,0,.15.15,0,0,0,.18.08c.11,0,.15,0,.18-.15s0-.06-.06,0a.29.29,0,0,1-.36-.06.48.48,0,0,1,0-.62.34.34,0,0,1,.36-.07s.05,0,.1,0,.13,0,.13.09Zm-.15-.07v-.06c0-.1-.09-.2-.17-.2s-.17,0-.2.17a.33.33,0,0,0,0,.22.17.17,0,0,0,.25.11C15.43,84.3,15.44,84.21,15.44,84.11Z"/><path d="M15.6,82.47v-.28c0-.11,0-.13.13-.09s0,0,.07,0a.27.27,0,0,1,.34,0s.07,0,.09,0a.28.28,0,0,1,.26-.05.17.17,0,0,1,.15.15c0,.2,0,.4,0,.6s0,.05-.08.05-.07,0-.07-.06v-.38a.49.49,0,0,0,0-.12c0-.08,0-.11-.13-.11a.16.16,0,0,0-.15.14v.45c0,.07,0,.08-.08.08s-.09,0-.09-.08,0-.27,0-.41,0-.18-.12-.18a.17.17,0,0,0-.17.18c0,.13,0,.26,0,.39s0,.1-.07.1-.08,0-.08-.1v-.3Z"/><path d="M17.57,82.87c-.07,0-.1,0-.11-.08l-.15-.47,0-.13s-.06-.08,0-.1.12,0,.14.07.06.21.08.32,0,.07,0,.07,0,0,0-.07.07-.22.1-.33,0-.07.09-.07.09,0,.1.07.06.23.09.34,0,.06,0,.05,0,0,.05-.05l.09-.34a.08.08,0,0,1,.09-.07c.08,0,.09,0,.06.1s-.07.22-.1.32l-.09.31a.1.1,0,0,1-.1.06s-.07,0-.09-.06a3.37,3.37,0,0,1-.09-.34s0-.06-.05-.06,0,0,0,.06,0,.23-.09.34S17.61,82.87,17.57,82.87Z"/><path d="M15,79.31c0,.21,0,.42,0,.64,0,.07,0,.08-.09.08s-.13,0-.13-.12v-.83s0-.06,0-.07-.05,0-.07,0l-.21.11s0,0,0,0a.25.25,0,0,1,0-.22.92.92,0,0,0,.32-.26.13.13,0,0,1,.12-.08c.06,0,.08,0,.08.08Z"/><path d="M17.32,84v.41c0,.11,0,.15-.14.11s-.05,0-.07,0a.33.33,0,0,1-.46-.3.5.5,0,0,1,0-.32.31.31,0,0,1,.41-.15c.07,0,.07,0,.07,0s0-.1,0-.15,0-.1.09-.1.07,0,.07.1V84Zm-.16.17a.63.63,0,0,0,0-.14.17.17,0,0,0-.14-.16.15.15,0,0,0-.18.08.38.38,0,0,0,0,.33c0,.07.06.11.13.12a.16.16,0,0,0,.18-.09C17.18,84.24,17.15,84.18,17.16,84.15Z"/><path d="M13,84.2c0,.08,0,.18,0,.27s0,0,0,0-.11,0-.15,0-.05,0-.08,0a.42.42,0,0,1-.31,0,.27.27,0,0,1-.18-.21.29.29,0,0,1,.15-.21,1.46,1.46,0,0,1,.3-.07s.09,0,.09,0a.1.1,0,0,0-.07-.11.2.2,0,0,0-.26.07c0,.08-.11,0-.15,0s0-.06,0-.1a.24.24,0,0,1,.21-.15h.2c.18,0,.21.12.23.26A1.76,1.76,0,0,1,13,84.2Zm-.39.2a.21.21,0,0,0,.22-.2s0-.07,0,0-.15,0-.22,0-.1,0-.09.11S12.54,84.38,12.59,84.4Z"/><path d="M16.23,84.17a1.61,1.61,0,0,1-.22,0c-.05,0-.06,0-.06.07a.16.16,0,0,0,.12.13.19.19,0,0,0,.22-.05s0-.08.08-.07.1,0,.12,0,0,.08,0,.11a.33.33,0,0,1-.38.15.38.38,0,0,1-.29-.48.36.36,0,0,1,.15-.27.36.36,0,0,1,.55.19c.05.22.06.22-.16.21Zm-.1-.14h0a.56.56,0,0,1,.13,0c.07,0,.08,0,0-.09a.2.2,0,0,0-.25-.08s-.12.07-.1.14.08,0,.13,0Z"/><path d="M20.3,84.17a1.62,1.62,0,0,1-.22,0c-.06,0-.07,0,0,.07s.07.13.15.14.18,0,.22-.09.13-.06.16,0,0,0,0,.07a.35.35,0,0,1-.41.19.34.34,0,0,1-.29-.32.41.41,0,0,1,.19-.45.36.36,0,0,1,.4,0,.38.38,0,0,1,.13.36s0,0-.06,0ZM20.22,84h.14s.06,0,0-.06a.19.19,0,0,0-.26-.1c-.06,0-.11.08-.1.13s.09,0,.14,0Z"/><path d="M14.71,84.12a.89.89,0,0,0,0,.33s0,0,0,0-.1,0-.13,0-.08,0-.12,0a.39.39,0,0,1-.35,0,.22.22,0,0,1-.09-.26.26.26,0,0,1,.23-.18.63.63,0,0,0,.19,0s.1,0,.1-.06a.12.12,0,0,0-.1-.11.19.19,0,0,0-.24.1c0,.06-.1,0-.15,0s0,0,0-.08a.25.25,0,0,1,.17-.16.5.5,0,0,1,.34,0,.17.17,0,0,1,.13.17Zm-.38.28a.25.25,0,0,0,.23-.18s0-.09-.05-.07-.15,0-.22,0-.11,0-.09.12S14.27,84.39,14.33,84.4Z"/><path d="M18.86,82.51h-.19c-.08,0-.1,0-.07.1a.19.19,0,0,0,.17.13c.08,0,.14,0,.19-.1a.11.11,0,0,1,.16,0s0,0,0,0a.29.29,0,0,1-.27.21.36.36,0,0,1-.4-.19.45.45,0,0,1,.19-.6.35.35,0,0,1,.47.24c.05.19.05.19-.15.19Zm-.09-.13h.13c.07,0,.07,0,.05-.09a.19.19,0,0,0-.18-.11.21.21,0,0,0-.17.12s0,.08,0,.08Z"/><path d="M13.25,82.33v-.46c0-.06,0-.08.08-.08h.59c.06,0,.08,0,.08.08s0,.07-.08.07h-.41c-.07,0-.1,0-.1.1,0,.23,0,.2.19.2h.24c.06,0,.07,0,.07.07s0,.09-.07.08h-.33c-.07,0-.11,0-.1.1v.28c0,.06,0,.11-.08.11s-.08-.05-.08-.1Z"/><path d="M17.81,79a.35.35,0,0,1,.17-.34.31.31,0,0,1,.46.21.52.52,0,0,1,0,.35.32.32,0,0,1-.35.18.34.34,0,0,1-.24-.29A.49.49,0,0,0,17.81,79Zm.2,0a.47.47,0,0,0,0,.16.14.14,0,0,0,.11.07.13.13,0,0,0,.1-.09.45.45,0,0,0,0-.28s0-.09-.1-.09-.08,0-.11.08A.34.34,0,0,0,18,79Z"/><path d="M19.31,79.69a.34.34,0,0,1-.18.36.3.3,0,0,1-.42-.17.43.43,0,0,1,.09-.51.31.31,0,0,1,.48.11A.76.76,0,0,1,19.31,79.69Zm-.19,0a.41.41,0,0,0,0-.16.09.09,0,0,0-.11-.06.09.09,0,0,0-.09.09.43.43,0,0,0,0,.25c0,.06,0,.09.09.1a.1.1,0,0,0,.11-.07A.27.27,0,0,0,19.12,79.69Z"/><path d="M18.43,84.12a.37.37,0,0,1,.16-.35.38.38,0,0,1,.59.28.42.42,0,0,1-.15.41.37.37,0,0,1-.39,0A.36.36,0,0,1,18.43,84.12Zm.16,0v.06a.23.23,0,0,0,.18.21c.14,0,.19,0,.23-.17a.29.29,0,0,0,0-.16c0-.12-.09-.2-.19-.2S18.6,83.94,18.59,84.11Z"/><path d="M15,82.88a.34.34,0,0,1-.34-.36c0-.14,0-.28.12-.38a.38.38,0,0,1,.61.4.37.37,0,0,1-.23.32Zm-.19-.42v.09a.24.24,0,0,0,.18.19.18.18,0,0,0,.21-.11.44.44,0,0,0,0-.32.2.2,0,0,0-.18-.12.23.23,0,0,0-.18.12A.4.4,0,0,0,14.84,82.46Z"/><path d="M21.05,84.53a.31.31,0,0,1-.31-.17s0-.09,0-.1.09-.05.13,0a.2.2,0,0,0,.26.09.07.07,0,0,0,.06-.09s0-.06-.07-.07l-.24-.07a.21.21,0,0,1-.15-.23.21.21,0,0,1,.19-.19.36.36,0,0,1,.37.09.11.11,0,0,1,0,.13s-.12,0-.15,0a.18.18,0,0,0-.23,0c-.06,0-.06.09,0,.12l.19.06c.2,0,.24.1.22.27a.28.28,0,0,1-.28.21Z"/><path d="M22.3,84.53a.29.29,0,0,1-.32-.2s0-.06,0-.07.12-.05.14,0,.14.11.23.11a.1.1,0,0,0,.11-.08c0-.06,0-.08-.09-.09l-.22-.07A.2.2,0,0,1,22,84a.22.22,0,0,1,.13-.23.44.44,0,0,1,.4,0l.05,0s.06.09,0,.11-.1,0-.14,0a.2.2,0,0,0-.23-.07s-.06,0-.05.08,0,0,.06.06l.21.06a.23.23,0,0,1,.21.21.26.26,0,0,1-.2.25Z"/><path d="M13.19,84.1v-.28c0-.09.06-.14.14-.09a.09.09,0,0,0,.11,0,.39.39,0,0,1,.26,0,.18.18,0,0,1,.13.16,5.23,5.23,0,0,1,0,.56c0,.08-.06,0-.1.06s-.06,0-.06-.07V84c0-.11,0-.16-.12-.16a.17.17,0,0,0-.19.13,2.16,2.16,0,0,0,0,.44c0,.07,0,.09-.09.09s-.09,0-.08-.09Z"/><path d="M19,78.58l-.59,1.15L18.3,80a.19.19,0,0,1-.2,0s0,0,0,0,.1-.22.16-.33l.52-1C18.87,78.56,18.86,78.56,19,78.58Z"/><path d="M20.71,76.33v.33a.27.27,0,0,1-.28.27c-.12,0-.24,0-.3-.12s-.05-.06,0-.09a.09.09,0,0,1,.11,0,.21.21,0,0,0,.33,0,.09.09,0,0,0,0-.06s.05-.1,0-.13-.07,0-.1,0a.29.29,0,0,1-.38-.17.5.5,0,0,1,.07-.46.26.26,0,0,1,.35,0s.07,0,.1,0,0,0,.06,0,0,0,0,0Zm-.1,0a.22.22,0,0,0,0-.08.23.23,0,0,0-.15-.2.16.16,0,0,0-.21.07.34.34,0,0,0-.05.29c0,.13.09.18.18.19S20.61,76.46,20.61,76.28Z"/><path d="M15,76.46c.06-.16.1-.31.15-.45a.08.08,0,0,1,0-.07.08.08,0,0,1,.08,0s0,0,0,.06c-.07.19-.13.39-.19.58a.1.1,0,0,1-.1.07c-.06,0-.05,0-.06-.07s-.07-.26-.09-.39a.07.07,0,0,0-.06-.06c0,.14-.08.28-.11.43s0,.09-.08.09-.07,0-.08-.07c-.06-.2-.13-.39-.19-.58,0,0,0-.06,0-.07a.08.08,0,0,1,.1.06c0,.12.06.25.1.37a.12.12,0,0,0,.06.11c0-.14.08-.28.11-.41l0-.09s0,0,.07,0,0,0,.06,0,.07.3.13.45S15,76.44,15,76.46Z"/><path d="M13.76,76.1a3.72,3.72,0,0,0-.15.48s0,.06,0,.06-.07,0-.1,0,0-.16-.08-.25a3,3,0,0,1-.1-.32s0-.08,0-.11.08,0,.09.07l.12.41s0,0,0,0,0,0,0,0,.07-.26.1-.39,0-.09.08-.09.06,0,.07.08.07.26.11.39a.06.06,0,0,0,.05.06c0-.16.1-.31.14-.46s0-.08.08-.07,0,.06,0,.08l-.18.59a.07.07,0,0,1-.08,0c-.05,0-.05,0-.06-.06S13.83,76.27,13.76,76.1Z"/><path d="M15.65,76.45a3.36,3.36,0,0,0,.14-.45s0-.08.07-.08A.09.09,0,0,1,16,76c0,.15.08.29.11.45.08,0,.06-.14.09-.21a2,2,0,0,0,.09-.26s0-.07.08,0,0,0,0,.08c-.06.19-.13.38-.18.57s0,.06-.08.06a.08.08,0,0,1-.08-.07c0-.14-.06-.27-.1-.41s0,0,0,0,0,0,0,0-.08.28-.11.42,0,0-.07,0-.07,0-.08,0l-.18-.6s0-.06,0-.07.07,0,.09,0,.08.32.13.48Z"/><path d="M18.28,83.42s.11,0,.12.06,0,.1-.08.08a.08.08,0,0,0-.08,0,.1.1,0,0,0,0,.1s0,0,.07,0,.08,0,.08.07,0,.06-.07.06-.09,0-.09.09v.49c0,.06,0,.08-.08.08s-.08,0-.07-.08v-.5s0-.08-.07-.08,0,0,0-.07,0-.06,0-.06.07,0,.07-.08S18.12,83.42,18.28,83.42Z"/><path d="M21.76,84.51c-.14,0-.19-.05-.19-.2s0-.25,0-.38,0-.07-.05-.08,0-.11,0-.12,0-.07.06-.11a.18.18,0,0,1,.13-.15s0,0,0,0v.12c0,.05,0,.1.08.09s.05,0,.05.07,0,.06-.05.06-.08,0-.08.09v.34s0,.1.07.09.08,0,.08.09-.05,0-.09.05Z"/><path d="M19.51,76.27a.33.33,0,0,1-.19.35.36.36,0,0,1-.4-.07.47.47,0,0,1,0-.53.33.33,0,0,1,.49,0A.31.31,0,0,1,19.51,76.27Zm-.56,0v.07a.21.21,0,0,0,.29.2c.13,0,.16-.13.16-.27s-.08-.3-.25-.29S19,76.11,19,76.28Z"/><path d="M17.38,76.65a.26.26,0,0,1-.26-.14s0-.06,0-.08a.08.08,0,0,1,.1,0,.2.2,0,0,0,.29.09.09.09,0,0,0,.06-.09.11.11,0,0,0-.08-.1l-.19-.06c-.14,0-.18-.08-.18-.18s0-.16.17-.2a.36.36,0,0,1,.33.09s.05.06,0,.09-.06,0-.09,0a.21.21,0,0,0-.26,0c-.07,0-.07.11,0,.15a1.14,1.14,0,0,0,.26.09c.13,0,.16.09.15.22a.21.21,0,0,1-.21.17Z"/><path d="M19.47,82.34c0,.15,0,.3,0,.45s0,.08-.08.08-.08,0-.08-.08v-.91c0-.06,0-.09.08-.09s.08,0,.08.09S19.47,82.18,19.47,82.34Z"/><path d="M19.35,84.11v-.29c0-.1,0-.13.14-.09a0,0,0,0,0,.07,0c.06,0,.12,0,.19,0a0,0,0,0,1,0,.06s0,.09-.07.1-.2,0-.2.21,0,.22,0,.34,0,.07-.09.07-.08,0-.07-.07Z"/><path d="M14.33,82.62v.19c0,.07,0,.06-.08.06s-.08,0-.08-.07v-.64c0-.06,0-.09.07-.07s.17,0,.26,0,.09,0,.11,0,0,.08,0,.12,0,0-.06,0-.14,0-.17.1A.93.93,0,0,0,14.33,82.62Z"/><path d="M18.14,75.9a.29.29,0,0,1,.24.13.05.05,0,0,1,0,.08s-.06,0-.09,0a.16.16,0,0,0-.21-.09.19.19,0,0,0-.15.17.41.41,0,0,0,0,.27.19.19,0,0,0,.19.13.18.18,0,0,0,.17-.11.06.06,0,0,0,0,0s.06,0,.09,0,0,0,0,.06a.3.3,0,0,1-.37.18.29.29,0,0,1-.22-.3.33.33,0,0,1,0-.14A.31.31,0,0,1,18.14,75.9Z"/><path d="M19.86,82.33v.47c0,.06,0,.07-.08.07s-.07,0-.07-.07v-.93c0-.07,0-.08.08-.08s.07,0,.07.08Z"/><path d="M16.76,76.32V76.1c0-.06,0-.11-.08-.11a0,0,0,0,1,0,0s0,0,0,0,.08-.06.09-.12a.17.17,0,0,1,.23-.17s.06,0,.06.06,0,0-.06,0-.12,0-.13.1,0,.1.07.1.06,0,.06,0,0,0-.05,0-.08,0-.08.09v.48s0,.08-.05.08-.06,0-.06-.08Z"/><path d="M19.78,76c.07-.07.13-.13.23-.08s0,0,0,0,0,0-.05,0-.2.06-.21.22v.33s0,.07-.05.07,0,0,0-.07,0-.37,0-.55c0,0,0-.08,0-.1S19.76,76,19.78,76Z"/><path d="M20.24,82.39h.12c.08,0,.1,0,.09.1s0,.06-.06.06H20.1c-.06,0-.07,0-.06-.08s0-.08.06-.08Z"/><path d="M18.63,76.64c-.05,0-.06,0-.06-.07s0,0,.07,0,.06,0,.06.06S18.67,76.64,18.63,76.64Z"/><path d="M16.54,76.58a.05.05,0,0,1-.06.06s-.07,0-.07,0,0-.07.06-.07S16.54,76.52,16.54,76.58Z"/><path d="M26.44,60.39h-9a2.14,2.14,0,0,1-2.35-2.33c0-1,0-1.94,0-2.9A2.11,2.11,0,0,1,17.22,53H35.68a2.12,2.12,0,0,1,2.2,2.17c0,1,0,2,0,3a2.14,2.14,0,0,1-2.25,2.21Zm4.46-6.93c-4.69,0-9.2,0-13.71,0a1.63,1.63,0,0,0-1.69,1.7c0,.94,0,1.88,0,2.82a1.76,1.76,0,0,0,1.94,2c1.24,0,2.48,0,3.73,0,2.5,0,5,0,7.52,0,1.1,0,1.61-.52,1.63-1.57,0-.68,0-1.36,0-2A4.18,4.18,0,0,1,30.9,53.46Zm-.62,6.47c2,0,3.86,0,5.74,0a1.57,1.57,0,0,0,1.41-1.64c0-1,0-2,0-3.06a1.7,1.7,0,0,0-1.76-1.74c-.76,0-1.53,0-2.3,0-2.38,0-2.58.23-2.63,2.6C30.72,57.33,31.08,58.67,30.28,59.93Z"/><path d="M20,56.73A3.39,3.39,0,0,1,19.78,58a1,1,0,0,1-1.07.64,1,1,0,0,1-1-.66,4.32,4.32,0,0,1-.09-2.17,1.13,1.13,0,0,1,2.25,0C20,56.1,20,56.42,20,56.73Zm-1.89.87c.37-.69.64-1.16.87-1.66.11-.21.48-.5,0-.7a.57.57,0,0,0-.82.37A3.94,3.94,0,0,0,18.1,57.6ZM19.43,56c-.31.59-.55,1-.76,1.46-.1.2-.34.38-.23.63s.28.12.43.11a.6.6,0,0,0,.58-.55A3.83,3.83,0,0,0,19.43,56Z"/><path d="M26.76,56.69c-.05.35-.08.74-.17,1.12a1,1,0,0,1-1.12.8,1,1,0,0,1-1-.81,4.55,4.55,0,0,1,0-2.17,1.06,1.06,0,0,1,1.18-.84,1,1,0,0,1,1,.93C26.68,56,26.71,56.33,26.76,56.69Zm-.43,0a8.32,8.32,0,0,0-.13-.85.68.68,0,0,0-.67-.64c-.42,0-.59.27-.69.62a3.57,3.57,0,0,0,0,1.92.61.61,0,0,0,.64.48.64.64,0,0,0,.65-.45A3.93,3.93,0,0,0,26.33,56.68Z"/><path d="M21.56,56.81a3.13,3.13,0,0,1,.23-1.41,1,1,0,0,1,1.09-.6.92.92,0,0,1,.86.69c.05.15.08.35-.08.42s-.3-.06-.34-.22a.57.57,0,0,0-.69-.5c-.43.06-.53.42-.57.75a4.53,4.53,0,0,0,.05,1.72c.08.28.22.54.58.54a.58.58,0,0,0,.6-.51c.05-.19,0-.51.32-.42s.15.4.1.6a1,1,0,0,1-1,.73.93.93,0,0,1-1-.66A3.2,3.2,0,0,1,21.56,56.81Z"/><path d="M27.32,57.24c.19-.6.64-.77.86-.34a.63.63,0,0,1-.12.79c-.16.15-.35.29-.5.41.16.39.51.11.65.4l-.55,0c-.51,0-.43-.23-.22-.51a1.8,1.8,0,0,1,.26-.29c.19-.21.52-.41.27-.71S27.58,57.26,27.32,57.24Z"/><path d="M34.13,59.14a2.43,2.43,0,1,1,0-4.86,2.47,2.47,0,0,1,2.49,2.41A2.45,2.45,0,0,1,34.13,59.14Zm.21-4.22a1.84,1.84,0,0,0-2,2.24,1.7,1.7,0,0,0,1.47,1.35,1.77,1.77,0,0,0,1.88-.85c.1-.18.26-.39,0-.56s-.38,0-.5.2a1.14,1.14,0,0,1-.18.25A1.25,1.25,0,0,1,33,56.32a1.21,1.21,0,0,1,1.37-.82,1.3,1.3,0,0,1,1,.71c.09.16.21.25.38.17s.18-.3.1-.47A1.72,1.72,0,0,0,34.34,54.92Zm0,1.67c-.12-.11-.22-.21-.32-.29s-.22-.34-.44-.24-.11.32-.13.49a1.14,1.14,0,0,0,0,.32c0,.17-.08.41.11.49s.22-.17.3-.32.24,0,.34,0,.32.44.59.27.1-.43.1-.66.13-.55-.14-.62S34.54,56.44,34.3,56.59Z"/></svg>