<svg id="Laag_1" data-name="Laag 1" xmlns="http://www.w3.org/2000/svg" xmlns:xlink="http://www.w3.org/1999/xlink" viewBox="0 0 52.8 105.76"><defs><style>.cls-1{fill:none;}.cls-2{fill:#4cae3f;}.cls-3{clip-path:url(#clip-path);}.cls-4{clip-path:url(#clip-path-2);}.cls-5{clip-path:url(#clip-path-3);}.cls-6{clip-path:url(#clip-path-4);}</style><clipPath id="clip-path"><rect class="cls-1" x="12.91" y="40.67" width="25.89" height="8.93"/></clipPath><clipPath id="clip-path-2"><rect class="cls-1" x="7.67" y="83.97" width="36.15" height="20.36"/></clipPath><clipPath id="clip-path-3"><rect class="cls-1" x="9.33" y="53.14" width="33.15" height="6.65"/></clipPath><clipPath id="clip-path-4"><rect class="cls-1" x="6.15" y="62.9" width="40.5" height="18.91"/></clipPath><image id="image" width="747" height="826" xlink:href="C:%5CUsers%5CUser%5CDesktop%5Cduurzaam_certificeringen2-1.png"/></defs><polyline class="cls-2" points="9.65 16.86 13.42 17.61 14 14.72 13.1 14.54 12.74 16.33 12.15 16.21 12.44 14.75 11.59 14.58 11.29 16.04 10.76 15.94 11.11 14.22 10.22 14.04 9.65 16.86"/><path class="cls-2" d="M13.75,13.24h-.2a2.41,2.41,0,0,1-.93-.3A2.7,2.7,0,0,1,12,12.4a1.87,1.87,0,0,1-.38-.64,1.49,1.49,0,0,1-.09-.65,1.83,1.83,0,0,1,.25-.78,2.14,2.14,0,0,1,.46-.57,1.44,1.44,0,0,1,.59-.3,1.47,1.47,0,0,1,.36,0l.28,0a2.09,2.09,0,0,1,.52.17l-.54,1a.85.85,0,0,0-.33-.07.39.39,0,0,0-.15,0,.54.54,0,0,0-.34.27.6.6,0,0,0,0,.57,1.48,1.48,0,0,0,.64.58,1.73,1.73,0,0,0,.57.23h.12a.67.67,0,0,0,.26-.05.59.59,0,0,0,.27-.27.57.57,0,0,0,.07-.45.75.75,0,0,0-.32-.4l.55-1a2.38,2.38,0,0,1,.46.41,1.53,1.53,0,0,1,.27.51,1.43,1.43,0,0,1,.06.65,1.81,1.81,0,0,1-.23.69,2.14,2.14,0,0,1-.48.59,1.57,1.57,0,0,1-.6.31,1.82,1.82,0,0,1-.46.06"/><path class="cls-2" d="M16.35,6.44h-.12a.49.49,0,0,0-.28.13.7.7,0,0,0-.2.33.81.81,0,0,0,.05.45,1.5,1.5,0,0,0,.32.52,1.39,1.39,0,0,0,.74.48H17a.56.56,0,0,0,.39-.16.61.61,0,0,0,.19-.32.7.7,0,0,0,0-.44,1.6,1.6,0,0,0-.33-.52,2,2,0,0,0-.35-.31,1,1,0,0,0-.31-.16.55.55,0,0,0-.18,0m.46,3h-.18a2.13,2.13,0,0,1-1.36-.76A2.42,2.42,0,0,1,14.83,8a1.67,1.67,0,0,1-.09-1.2A2.11,2.11,0,0,1,15,6.31a1.9,1.9,0,0,1,.35-.4,1.94,1.94,0,0,1,.88-.47,1.55,1.55,0,0,1,.37,0,1.71,1.71,0,0,1,.59.11,2.25,2.25,0,0,1,.87.63,2.47,2.47,0,0,1,.54.91,1.78,1.78,0,0,1,0,1,1.71,1.71,0,0,1-.57.89,1.78,1.78,0,0,1-1.2.5"/><path class="cls-2" d="M20.15,7.14,18.64,3.6,20,3a4.1,4.1,0,0,1,.72-.26,1.43,1.43,0,0,1,.44,0,1.46,1.46,0,0,1,.39.12,1.27,1.27,0,0,1,.34.27,1.5,1.5,0,0,1,.25.41,1.47,1.47,0,0,1,.13.52,1.2,1.2,0,0,1,0,.44.92.92,0,0,1-.14.3,1.24,1.24,0,0,1-.2.21,1.82,1.82,0,0,1-.52.32l-.6.26.47,1.1-1.06.45M20,4l.32.73.38-.16a1.67,1.67,0,0,0,.31-.16.31.31,0,0,0,.09-.19.45.45,0,0,0,0-.25.34.34,0,0,0-.25-.23,1,1,0,0,0-.47.11Z"/><path class="cls-2" d="M24,5.66l-.36-3.83,1.72-.16a3.18,3.18,0,0,1,.61,0,1.24,1.24,0,0,1,.42.09,1.15,1.15,0,0,1,.29.2,1.26,1.26,0,0,1,.19.28,1,1,0,0,1,.09.38,1.09,1.09,0,0,1,0,.49.87.87,0,0,1-.2.35,1,1,0,0,1-.26.16,1,1,0,0,1,.49.27,1,1,0,0,1,.18.56l.07.6a.63.63,0,0,0,0,.15.1.1,0,0,0,.09,0l0,.11-1.17.11a1.8,1.8,0,0,1-.11-.52l0-.28a.71.71,0,0,0-.09-.3.34.34,0,0,0-.18-.15.81.81,0,0,0-.33,0l-.45,0,.12,1.33L24,5.66m.91-2.28.55,0a.61.61,0,0,0,.37-.13.39.39,0,0,0,.08-.28.32.32,0,0,0-.13-.26.56.56,0,0,0-.37-.07l-.57.06Z"/><polyline class="cls-2" points="28.45 5.53 29.07 1.74 30.21 1.92 29.6 5.72 28.45 5.53"/><polyline class="cls-2" points="30.87 5.95 32.47 2.45 33.45 2.9 33.71 5.28 34.56 3.41 35.57 3.87 33.98 7.37 32.97 6.91 32.72 4.58 31.89 6.41 30.87 5.95"/><polyline class="cls-2" points="37.43 5.13 39.8 7.34 39.12 8.08 38.35 7.37 36.42 9.44 35.57 8.65 37.5 6.58 36.74 5.87 37.43 5.13"/><polyline class="cls-2" points="37.81 10.99 41.15 9.09 42.57 11.59 41.78 12.04 40.92 10.51 40.45 10.78 41.18 12.07 40.43 12.51 39.69 11.21 39.16 11.51 40.07 13.1 39.27 13.55 37.81 10.99"/><path class="cls-2" d="M39.66,14.55l3.76-.78.33,1.57a2.21,2.21,0,0,1,0,1,1.31,1.31,0,0,1-.49.74,2.42,2.42,0,0,1-1,.44,2.58,2.58,0,0,1-.77.05,1.91,1.91,0,0,1-.59-.13,1.36,1.36,0,0,1-.41-.25,1.48,1.48,0,0,1-.29-.4,2.33,2.33,0,0,1-.21-.66l-.32-1.54m1.16.91.06.29a.94.94,0,0,0,.2.46.68.68,0,0,0,.37.18,1.63,1.63,0,0,0,.57,0,2.11,2.11,0,0,0,.38-.12.71.71,0,0,0,.27-.18.39.39,0,0,0,.13-.21,1,1,0,0,0,0-.48l-.06-.3Z"/><polyline class="cls-2" points="43.52 23.25 42.63 23.08 42.96 21.36 42.43 21.26 42.15 22.72 41.3 22.55 41.58 21.09 40.98 20.98 40.64 22.77 39.73 22.59 40.29 19.7 44.06 20.43 43.52 23.25"/><path class="cls-2" d="M40.61,27.89l-.27,0a2,2,0,0,1-.52-.16l.53-1a.85.85,0,0,0,.33.07.44.44,0,0,0,.16,0,.56.56,0,0,0,.34-.27.63.63,0,0,0,0-.57,1.42,1.42,0,0,0-.64-.58,1.7,1.7,0,0,0-.58-.22h-.11a.6.6,0,0,0-.27.06.59.59,0,0,0-.27.27.61.61,0,0,0-.06.45.75.75,0,0,0,.32.4l-.54,1a2.41,2.41,0,0,1-.46-.41,1.7,1.7,0,0,1-.27-.52,1.53,1.53,0,0,1-.08-.64,2.07,2.07,0,0,1,.71-1.28,1.62,1.62,0,0,1,.6-.33,1.89,1.89,0,0,1,.47-.06h.19a2.41,2.41,0,0,1,.93.3,2.67,2.67,0,0,1,.66.52,2.08,2.08,0,0,1,.39.64,1.49,1.49,0,0,1,.09.65A2,2,0,0,1,42,27a2.14,2.14,0,0,1-.46.57,1.32,1.32,0,0,1-.58.31,1.64,1.64,0,0,1-.38,0"/><path class="cls-2" d="M36.81,29a.53.53,0,0,0-.39.16.6.6,0,0,0-.2.32.78.78,0,0,0,.05.44,1.65,1.65,0,0,0,.34.52,1.91,1.91,0,0,0,.34.31,1.19,1.19,0,0,0,.32.16l.17,0h.13a.62.62,0,0,0,.28-.14.69.69,0,0,0,.19-.33A.81.81,0,0,0,38,30a1.47,1.47,0,0,0-.33-.51,1.4,1.4,0,0,0-.73-.48h-.12m.43,3a1.7,1.7,0,0,1-.58-.11,2.23,2.23,0,0,1-.87-.62,2.64,2.64,0,0,1-.55-.91,1.78,1.78,0,0,1,0-1,1.69,1.69,0,0,1,.56-.9,1.8,1.8,0,0,1,1.21-.5h.17a2.07,2.07,0,0,1,1.36.75,2.3,2.3,0,0,1,.44.66,1.85,1.85,0,0,1,.17.65,1.57,1.57,0,0,1-.06.55,1.62,1.62,0,0,1-.22.46,1.65,1.65,0,0,1-.34.41,2,2,0,0,1-.88.47,1.58,1.58,0,0,1-.38.05"/><path class="cls-2" d="M33.64,30.22l1.54,3.53-1.33.57a4.32,4.32,0,0,1-.72.27,1.83,1.83,0,0,1-.44,0,1.39,1.39,0,0,1-.38-.12,1.28,1.28,0,0,1-.35-.26,1.5,1.5,0,0,1-.25-.41,1.55,1.55,0,0,1-.14-.53,1.15,1.15,0,0,1,0-.43.83.83,0,0,1,.14-.3,1.72,1.72,0,0,1,.2-.22,1.91,1.91,0,0,1,.51-.32l.61-.27-.48-1.09,1-.46m.13,3.13-.32-.74-.38.16a1.63,1.63,0,0,0-.3.17.27.27,0,0,0-.1.19.45.45,0,0,0,0,.25.32.32,0,0,0,.26.22.86.86,0,0,0,.46-.11Z"/><path class="cls-2" d="M29.82,31.73l.38,3.82-1.72.18a4.46,4.46,0,0,1-.61,0,1.18,1.18,0,0,1-.41-.09,1,1,0,0,1-.3-.2,1.26,1.26,0,0,1-.19-.28,1.23,1.23,0,0,1-.1-.38,1.25,1.25,0,0,1,0-.49.87.87,0,0,1,.2-.35.68.68,0,0,1,.26-.16,1,1,0,0,1-.49-.27,1,1,0,0,1-.19-.56l-.08-.6c0-.09,0-.14,0-.15a.12.12,0,0,0-.09,0v-.12L27.64,32a2.35,2.35,0,0,1,.11.52l0,.29a.83.83,0,0,0,.09.29.34.34,0,0,0,.18.15.87.87,0,0,0,.34,0l.45,0-.14-1.33,1.12-.11M28.92,34l-.55.06a.55.55,0,0,0-.37.14.36.36,0,0,0-.08.28.38.38,0,0,0,.13.26.59.59,0,0,0,.38,0l.57,0Z"/><polyline class="cls-2" points="25.35 31.89 24.76 35.69 23.61 35.51 24.2 31.71 25.35 31.89"/><polyline class="cls-2" points="22.93 31.49 21.35 35 20.37 34.55 20.1 32.18 19.25 34.05 18.24 33.6 19.82 30.09 20.82 30.55 21.09 32.87 21.91 31.04 22.93 31.49"/><polyline class="cls-2" points="16.38 32.36 13.99 30.16 14.67 29.42 15.44 30.12 17.36 28.04 18.21 28.82 16.29 30.91 17.06 31.61 16.38 32.36"/><polyline class="cls-2" points="15.95 26.5 12.63 28.42 11.19 25.93 11.97 25.48 12.85 27 13.32 26.73 12.57 25.44 13.33 25 14.07 26.29 14.59 25.99 13.68 24.41 14.48 23.95 15.95 26.5"/><path class="cls-2" d="M14.08,23l-3.76.8L10,22.19a2.09,2.09,0,0,1,0-1,1.37,1.37,0,0,1,.49-.74,2.31,2.31,0,0,1,1-.45,2.67,2.67,0,0,1,.78-.06,1.91,1.91,0,0,1,.59.13,1.77,1.77,0,0,1,.41.24,1.54,1.54,0,0,1,.29.41,2.58,2.58,0,0,1,.22.65L14.08,23m-1.17-.91-.06-.29a1,1,0,0,0-.2-.45.59.59,0,0,0-.38-.18,1.42,1.42,0,0,0-.57,0,2,2,0,0,0-.37.12,1.36,1.36,0,0,0-.28.18.53.53,0,0,0-.12.22,1,1,0,0,0,0,.48l.06.3Z"/><path class="cls-2" d="M26.19,24.76l.48-.18.5-.19.48-.19.48-.19.54-.21.49-.18.39-.13.28-.1.23-.11h.15l.1-.1.14,0c.4-.11.18.07.18.07-.24.25.08.17.08.17l.27-.18,0-.08a.44.44,0,0,0,.36-.36l.17,0c.74-.32,1.52-.44,2.28-.69l.17,0,.11-.1h.09l0-.05,0,0h-.05v-.06h.05l0,0,.07.09.07-.06h.12l0,0v-.1l0,0,0,0h.28l.06-.06.05,0,.08,0,0,0H35l0,.09.1,0h.13l0,0v-.07l.09-.08v-.09l-.06-.06v-.05l.06-.06h.12l0-.05h-.4l-.08.08h-.3l-.06.06,0,.05h-.08l-.05,0h-.08l.06,0V21.3h-.06l-.06.06h-.95l-.05-.31-.33.1-.42.06-.57.18-.71.21c-.5.14-.26-.14-.26-.14a1.17,1.17,0,0,0,0-.32c0-.46.29-.35.29-.35l.11-.11.2,0,.15-.15v-.17l-.08-.08-.09-.09V20c-.23-.23-.53.07-.53.07-.33,0,0-.14,0-.14s.42-.18.42-.18l.16,0,.12-.13h.23l.09-.09.29-.14.4-.11.41-.16.26-.1L33.7,19l.23,0,.09-.09h.21l.1-.1v-.13c0-.11.13-.13.13-.13l.17-.09c.15-.1.09-.19.09-.19l0-.1-.09-.17,0-.2,0,0h-.09v-.1l-.08-.06-.11-.11-.17-.08v.11c-.1.18-.24,0-.24,0l0-.14-.06-.15,0-.1h-.2l-.18,0v.07l-.19,0c-.22.06-.13-.05-.13-.05l.38-.13,0,0,0-.05.11-.05.21,0a.28.28,0,0,0,.23-.35l0-.1,0-.14v-.07l0-.11c-.15-.07,0-.18,0-.18l.17-.09.14-.05.15,0,.13-.06.13,0,0-.05.1-.1v0a.36.36,0,0,0,.32-.14v-.15c.16,0,.09-.21.09-.21l0-.24v-.1l.05-.06v-.08l0-.08c.06-.19-.2-.24-.2-.24a.35.35,0,0,1-.22.22.25.25,0,0,0-.23.12l-.07.06-.12.07-.14,0-.11.1H34.1l0,0v-.1l0-.12c0-.24-.23-.15-.23-.15h-.18l-.24.1c0-.36-.34-.24-.34-.24l-.15.06-.2.11c-.22.07-.08-.1-.08-.1l.09-.09L33,14c.22-.17.06-.28.06-.28l-.18-.08-.05-.05h-.61l.09-.07.2-.12.19-.14s.09,0,.4-.33.14-.54.14-.54a2,2,0,0,1-.11-.39,2.33,2.33,0,0,0-.3-.49c0-.38-.54-.24-.54-.24s0-.07,0-.07l.1-.06a1.68,1.68,0,0,0,.3-.29c.24-.25,0-.37,0-.37l0-.09V10.2c-.13-.62-.58-.32-.58-.32H32c-.26.1-.53.08-.79.19l-.26.07c-.2.07-.06-.06-.06-.06L31,10l.18-.1.22-.1.25-.13.18-.08.11,0h.12l.18,0c.31-.18,0-.28,0-.28H32l-.27.07-.85.42-.21.09-.21.15-.23.19c-.33.19,0,.43,0,.43h.34l.16,0a.8.8,0,0,0,.34-.08h.18l.13-.06.23,0c.34-.13,0,0,0,0l-.09.09-.24.08-.27.13-.14.14-.13,0h-.14l-.13,0-.11,0-.1.05-.14,0H30c-.44,0-.3.2-.3.2l.15.31.2.3.11.21.11,0,.1.1.11,0,0-.1A11.74,11.74,0,0,1,32,11.56l.24-.08c.26-.07,0,.07,0,.07l-.4.15-.4.14-.47.18-.58.25-.22.12-.13,0-.07-.18-.13-.12h-.24l0,.07-.09.09-.11.1c-.13,0-.38.23-.38.23h-.17v.13h-.14l-.06-.06-.08-.19-.15,0c-.25-.24-.43-.33-.71-.63l-.08-.05c-.13-.3-.15,0-.15,0,0,.32-.3.32-.3.32-.3,0-.32.23-.32.23h-.17l-.1.05-.07.07-.07.08-.11.05-.07.08h-.12l-.06.05-.06.06h-.08l-.07.07-.14.08-.11.08c-.19,0-.28.18-.28.18-.16,0-.38.24-.38.24h-.1l-.05,0-.08.09-.05.05-.09,0c-.11,0-.07,0-.07,0a.06.06,0,0,1,.07-.06l.08,0,.15-.15a2.15,2.15,0,0,0,.53-.36l.16-.05c.08-.19.44-.25.44-.25L26,12.6l.17-.17.06-.06.13,0,.15-.14a.54.54,0,0,1,.35-.18l.16-.21.12,0,.13-.09,0,0,.12,0a2,2,0,0,0,.45-.53.48.48,0,0,0,.07-.22v0a2.81,2.81,0,0,1,0-.29l0,0a0,0,0,0,1,0,0v0l0,0,0,0h.06l0,0V10.5H28L28,10.43l-.05,0-.05-.05v-.09l0,0,0-.07a.07.07,0,0,0-.1,0l0,0h-.13l-.07.1h-.13v.07l-.29.13-.07.08-.1.09-.27.08-.12.13-.29.16c-.17,0-.07-.07-.07-.07l.34-.24a.72.72,0,0,1,.2-.26l.14-.08.24-.32c.2-.28,0-.45,0-.45.11-.28-.16-.23-.16-.23l-.1.1-.18.11-.27.12-.17,0L26,9.83l-.24.12-.17,0-.08.09-.25.15a3.1,3.1,0,0,0-.68.38c-.42.23-.12,0-.12,0l.05-.08c0-.08.16-.13.16-.13l.14-.15H25c0-.1.17-.17.17-.17l.19-.19.22-.22.64-.47a.35.35,0,0,1,.18-.24V8.66l-.06-.05-.05,0c.08-.25-.14-.06-.14-.06H26l-.12.1-.18.1-.11.11h-.1l-.14.07L25.24,9l-.15,0L25,9H24.9c0-.39.92-.9.92-.9.31-.18,0-.29,0-.29l-.12.06-.13,0-.13,0-.22.18c-.69.43-.68.92-.68.92-.08.31,0,.27,0,.27l.15.1c.15.08-.09.08-.09.08l-.1.11-.12.12h-.09l-.08.08-.21.21H24l-.13.13-.39.28-.16,0-.23.23-.3.21a.47.47,0,0,1-.36.18l-.31.31.17.07c.14-.06.23.12.23.12.11.32.33.33.33.33h.26l.2-.06.16-.09v-.12h.05v.08h.14v-.11h.08l.14-.06.24-.1.17-.25.17,0,.09-.09,1-.41-.75.51-.42.28-.54.4-.65.53a5.93,5.93,0,0,0-.94.71h-.11l0,.16a3,3,0,0,0-.94.74l-.27,0c-.43.22-.11.2-.11.2.15-.15.25.06.25.06a.8.8,0,0,1,.31.15c.24.23.41.17.41.17.07-.15.43-.26.43-.26,0-.17.29-.23.29-.23l.36-.17.3-.24c.41-.26.06.19.06.19H23v.08l-.19,0-.41.35v.08h-.14s.05.22,0,.15-.21,0-.21,0l-.27.27-.22.2c-.37-.31-.08.07-.08.07l-.16.16c-.18.25,0,.28,0,.28l.33.33.05.14.24.15c.19.35.45.14.45.14l.38-.21.07-.07L23,16l.21-.11h.11l.09-.1.26-.14.37-.15.27-.12a1.48,1.48,0,0,1,.36-.16l.23-.09c.49-.11,0,.15,0,.15l-.18.09-.19.1-.24.12a.66.66,0,0,0-.27.13l-.26.07a10.61,10.61,0,0,1-1.46.77l-.17.08c-.33.32-.2,0-.2,0,.11-.44-.38-.28-.38-.28l-.24.12-.35.15c-.32.12-.24-.15-.24-.15a.14.14,0,0,0-.14-.14l-.06-.05a.17.17,0,0,1-.11-.21l.05-.19c-.19-.12-.12-.2-.12-.2s.07-.21.07-.21c.21,0,.05-.22.05-.22l0-.12c.28-.16.09-.31.09-.31a.29.29,0,0,0-.34,0,.25.25,0,0,0-.11.36l.21.21c-.16,0-.51.33-.51.33s0,.2,0,.2c.19.18,0,.19,0,.19l-.16.19a.86.86,0,0,0-.47.3h-.13l-.18.18-.3.16c-.29,0-.2.19-.2.19a2.55,2.55,0,0,1,.13.51h.11v.14a.8.8,0,0,1,.43.09l-.4.27a.9.9,0,0,0-.22.06l-.22.17-.32.21-.5.29h-.12l0,.14c-.14.15,0,.13,0,.13s.09,0,.09,0c-.18.06-.14.15-.14.15l0,.17.22.19c0,.17.27.14.27.14l.28-.13c.32-.32.35,0,.35,0l.13.25c-.13.21,0,.27,0,.27a1.63,1.63,0,0,0-.69.41l-.15,0c-.37.37-.45.16-.45.16-.51-.41-.47,0-.47,0v.28l.09.25.12.11c.48.22.41.52.41.52l.27.35c.28.36.43.15.43.15a2.68,2.68,0,0,1,.52-.24l.16-.09c.3-.3.39,0,.39,0l.15.15c.25.25.37,0,.37,0,.2-.12.15.07.15.07s0,.46,0,.46v.31c0,.3-.15.27-.15.27a.89.89,0,0,0-.39.15l-.34.19-.61.29a.19.19,0,0,1-.17.15.66.66,0,0,0-.22,0l-.19.2a.39.39,0,0,0-.19.06,5.48,5.48,0,0,1-.66.35.56.56,0,0,1-.36.18c0,.26-.21.21-.21.21L16,25.21v.08c-.06.52.56.82.56.82l.35,0c.34.21.46,0,.46,0l.92-.6,1.13-.6,1.58-.8,1.41-.67.66-.27-.32.31-.34.25a.53.53,0,0,1-.27.24l-.27.27-.27.19-.33.25-.57.46-.33.32A12.07,12.07,0,0,0,19,26.85c.08.24-.13.25-.13.25l.09.07-.05,0c0,.3.17,0,.17,0l.15.15a.53.53,0,0,0,.08.26l.45.35.3-.16A29.81,29.81,0,0,1,25.65,25l.54-.25m5.72-7.09v0h-.05l0,0,0,0,0,0h0v0h0l0,0h.07ZM32,17.6h0v0h0v0Zm.26-.06h-.06v0l0,0h-.09l0-.07v0h.07c.05,0,.07,0,.07,0Zm-.7-3.32.3-.14L32,14l.1,0,.11-.05,0,0h0a.67.67,0,0,1,.33-.09l-.11.11a1.57,1.57,0,0,0-.34.21l-.13,0,0,.06v0h0s-.08-.14-.27.05h-.13l0,0h-.05s0-.05.12-.08m-.38,3.66.07,0,0,.05s-.11,0-.11,0,0-.05,0-.05m-.4.21L30.9,18l.07.06-.19,0ZM27.18,10.9c.17-.11.2-.2.2-.2l.06-.06c.13,0,.11-.14.11-.14h.1a.15.15,0,0,1,0,.26c-.14,0-.11.05-.11.05l0,0c-.17,0-.19.12-.19.12a.16.16,0,0,1-.24.08c-.09-.13.07-.13.07-.13m-.21.16,0,0h0l0,0,0,0v0H27v0l0,0h0v-.09ZM24,13.2h0l0,0v0l0,0,0,0Zm.18.56,0,0v.07l0,0-.05,0v-.09l.05,0h0Zm6,6.68s.11,0,.11,0l0-.05.1,0,.08-.05c.15-.05.12.05.12.05a.58.58,0,0,0-.2,0l-.1,0v0c-.07.09-.22.06-.22.06s.09-.06.09-.06m-1.73-2.91.12-.06.12,0,.06-.06.1,0,.08-.05.1-.06.09,0s.12-.09.15-.06.05.05,0,.16-.16,0-.16,0v.05h0v0H29v.08a.26.26,0,0,0-.23.1.25.25,0,0,0-.2.13l0,0s0-.08-.07-.1-.07-.05,0-.07m-.84-4.18s.22-.1.22-.17l.12,0L28,13a.47.47,0,0,0,.21-.21l.17.13-.34.26a.17.17,0,0,0-.05.1s-.27,0-.37.15Zm-4.7,5.88a.43.43,0,0,0,.3-.19v-.43l0-.19a.19.19,0,0,0,0-.13v-.14l0-.11c.15,0,.12-.21.29-.19s.3-.11.38-.15l.42-.2a4.08,4.08,0,0,1,.51-.26c.22-.06.13,0,.13,0l.06,0-.35.18c-.15,0-.14.11-.14.11.16.08-.06.14-.06.14s-.27.14-.27.14c-.47,0-.14.33-.14.33a.32.32,0,0,1,.14.19c0,.19.24.15.24.15s.13,0,.13,0-.11.12-.17.06a.06.06,0,0,0-.09,0v.07c-.32.18-.42.17-.42.17l0,.08c-.25-.24-.21,0-.21,0l-.21.17-.07,0c0,.17-.14.14-.14.14a.07.07,0,0,0-.07-.07v.11h0c0-.07-.08,0-.08,0-.25.08-.19-.07-.19-.07m-1.54-.18.2-.13.25-.13.06,0,.06-.06H22l.16-.09.13-.07.14-.07.08-.06h.08s0,0,0-.07l.09,0s.15-.07,0,0l-.11.11a1.06,1.06,0,0,0-.34.26.21.21,0,0,1-.17,0,1.76,1.76,0,0,0-.29.13h-.08a.7.7,0,0,0-.12.15l-.14,0,0,0h-.14v.06s-.17.06-.22,0Zm-1,.36s.12.12.1.12-.35.14-.39.14a1.89,1.89,0,0,1,.29-.26m4.82,2.28-.05.16.05.38-.05.3v.22a1,1,0,0,1-.08.74c.17.17,0,.34,0,.34l-.37.34c-.2.07-.82.33-.82.33l-1,.55L22.75,25l-.15.06,0,.06-.19.09-.12,0-.11.15L22,25.31l-.06.13-.52.29-.27.08.08-.08.67-.61a1,1,0,0,0,.46-.42.3.3,0,0,0,.24-.12c0-.11.22-.22.22-.22l.11,0,.09-.1.06-.05h.07v-.09l.06-.06.07-.07.17-.05.24-.24.37-.38c.24-.06.11-.35.11-.35s-.1-.29-.1-.29l-.17-.31c.16-.15-.15-.15-.15-.15v-.08c.32-.07.1-.1.1-.1h-.11l-.09.09-.09,0h-.11l-.1,0v.09h-.11L23.15,22h-.21l-.09.09h-.18a1.33,1.33,0,0,0-.6.29c-.08-.08-.46.14-.46.14l-.15,0-.09.09-.11,0-.09.09-.24.11-.21.08s-.55.37-.55.24a1.31,1.31,0,0,0-.13-.39l0-.17v-.05l0,0V22.4l0,0v-.19a.32.32,0,0,1,.13-.29l.05,0,0,0v-.08h.11l.06-.06.14-.06.17-.05.3-.17c.36-.2.17-.3.17-.3l-.17-.31c-.13-.25.13-.24.13-.24l.27-.12a1.32,1.32,0,0,1,.47-.24l.39-.16c.39,0,.14-.32.14-.32L23,19.6l.2.16H23v.11c-.29.14-.15.31-.15.31l.25.25c.3.3.39.06.39.06a.53.53,0,0,0,.23-.11l0,0a1.17,1.17,0,0,1,.26-.1l.1-.13.2,0,.21-.13.4-.21c.14-.14.17-.05.17-.05,0,.22-.24.19-.24.19a.22.22,0,0,0-.19.2l.33.43.18.3-.05.58.11.17-.07.07Zm.34-4.62-.05.05c-.12-.11-.17.06-.17.06l-.25.12c-.07,0,0-.16,0-.16l.06-.06a.23.23,0,0,1,.13,0A.8.8,0,0,0,25.5,17l.11-.12h.14l.05-.1a.39.39,0,0,0,.27-.07l.07-.07c.18,0,.2-.06.2-.1s.13,0,.13,0c0,.25-.21.16-.21.16v.09a.38.38,0,0,0-.2,0v.08a.34.34,0,0,0-.23.1h-.09l0,.09,0,0-.09,0Zm0,6.35c.18-.08.17-.5.17-.5v-.28l0-.18,0-.22.08-.09V20.66c0-.36.17-.39.17-.39l.25-.14c.35-.19.26-.26.26-.26l-.06-.17c-.06-.44-.34-.34-.34-.34l-.32.15v-.17l.08-.07a1.09,1.09,0,0,0,.47-.27.32.32,0,0,1,.4,0l.08.08v.12c0,.52.17.26.17.26a1.53,1.53,0,0,1,.47-.25l.45-.24c.47-.26.58.05.58.05l-.08.09.11.12-.21.06-.09.09h-.24l-.05.05v.07l.1.12c-.4.07.05.14.05.14.47.26-.06.31-.06.31s-.22.28-.3.21-.31.09-.31.09L27,20.6l-.08-.09-.06.07-.08-.08-.13,0,.09.09.06.17c.17.18-.06.23-.06.23-.21,0-.1.09-.1.09l.34.34c.21.21.33.11.33.11l.16-.07a.39.39,0,0,0,.52.06c.08-.18.41-.23.41-.23l.13-.12.14-.06.19-.12.58-.3a.35.35,0,0,0,.25-.13l.24-.09v.23l.09.08.15.17c.08.33.49.11.49.11v.75h-.13l-.1.09h-.09l-.09.09h-.14L30.07,22l-.15.15h-.23l-.28.15a.52.52,0,0,0-.33.12l-.1,0-.12,0h-.15l-.11,0-.21.12a2.68,2.68,0,0,0-.82.31l-.29.08a.63.63,0,0,0-.31.14l-.1.1h-.24l-.08.08h-.13l-.07.07-.14.07h-.13l-.09.1h-.13l-.05-.05-.06-.06h-.12Zm13.13-1.91-.09.1-.07-.09.1-.06,0,0,.11-.08-.18,0,0,.09-.07.11-.17,0-.06-.09-.06-.06s-.39.12-.72.19-.65.14-.89.21-.71.17-1.11.29-.78.21-.93.27l-.62.23a6.74,6.74,0,0,0-.75.23c-.35.13-.7.28-.91.33a5.74,5.74,0,0,0-.68.21c-.24.07-.53.2-.68.24a2.75,2.75,0,0,0-.57.18,2.34,2.34,0,0,1-.45.18c-.1.05-.11,0-.22.08a2.38,2.38,0,0,1-.39.18c-.13.06-.24.12-.33.15a2.67,2.67,0,0,0-.42.15,3.17,3.17,0,0,1-.38.18,1.67,1.67,0,0,1-.24,0s-.06.13-.15.15a1.46,1.46,0,0,0-.24.07,1.59,1.59,0,0,0-.18.11.41.41,0,0,0-.2.07c-.08.07-.12.16-.17.16s-.12.06-.21.07l-.39.2a3.1,3.1,0,0,0-.32.18c-.06,0-.22.12-.27.16a1.74,1.74,0,0,1-.27.22c-.05,0-.06.07-.14.13l-.25.2s.33.57.8.57a4.5,4.5,0,0,1,1.31-1,30,30,0,0,1,4.53-2c2.49-.9,5.63-1.81,5.63-1.81s1-.24,1.07-.25l.18-.05.15-.12,0-.18v-.12Z"/><g class="cls-3"><use transform="translate(-34.29 10.65) scale(0.16)" xlink:href="#image"/></g><g class="cls-4"><use transform="translate(-32.99 31.3) scale(0.16)" xlink:href="#image"/></g><g class="cls-5"><use transform="translate(-34.15 -32.36) scale(0.16)" xlink:href="#image"/></g><g class="cls-6"><use transform="translate(-34 -40.46) scale(0.16)" xlink:href="#image"/></g></svg>