<?xml version="1.0" encoding="utf-8"?>
<!-- Generator: Adobe Illustrator 12.0.0, SVG Export Plug-In . SVG Version: 6.00 Build 51448)  -->
<!DOCTYPE svg PUBLIC "-//W3C//DTD SVG 1.1//EN" "http://www.w3.org/Graphics/SVG/1.1/DTD/svg11.dtd" [
	<!ENTITY ns_svg "http://www.w3.org/2000/svg">
	<!ENTITY ns_xlink "http://www.w3.org/1999/xlink">
]>
<svg  version="1.1" id="Layer_1" xmlns="&ns_svg;" xmlns:xlink="&ns_xlink;" width="171.921" height="171.922"
	 viewBox="-1.365 -1.858 171.921 171.922" overflow="visible" enable-background="new -1.365 -1.858 171.921 171.922"
	 xml:space="preserve">
<polygon fill="#131718" points="4.399,71.484 13.504,73.287 15.361,63.91 17.462,64.325 15.607,73.703 26.794,75.92 26.357,78.123 
	1.862,73.272 4.591,59.486 6.694,59.902 "/>
<path fill="#131718" d="M38.121,48.09L25.49,48.17l-1.634,2.613l9.031,5.657l-1.194,1.905l-21.16-13.26l4.207-6.715
	c0.45-0.718,1.006-1.308,1.674-1.768c0.663-0.46,1.379-0.778,2.148-0.954c0.768-0.176,1.555-0.202,2.358-0.073
	c0.804,0.126,1.566,0.415,2.282,0.865l1.714,1.072c0.718,0.45,1.309,1.009,1.775,1.678c0.464,0.667,0.785,1.386,0.962,2.153
	c0.175,0.768,0.2,1.553,0.078,2.352c-0.125,0.8-0.411,1.558-0.861,2.275l12.628-0.081L38.121,48.09z M22.01,38.345
	c-0.471-0.295-0.967-0.483-1.486-0.562c-0.52-0.079-1.03-0.063-1.531,0.047c-0.501,0.111-0.968,0.315-1.4,0.613
	c-0.434,0.298-0.798,0.682-1.095,1.154l-2.957,4.722l8.499,5.326L25,44.924c0.296-0.473,0.483-0.969,0.561-1.488
	c0.08-0.52,0.059-1.027-0.059-1.526c-0.12-0.499-0.328-0.967-0.624-1.398c-0.3-0.433-0.683-0.798-1.155-1.094L22.01,38.345z"/>
<rect x="25.488" y="29.262" transform="matrix(-0.6597 -0.7515 0.7515 -0.6597 40.1915 78.9664)" fill="#131718" width="24.971" height="2.244"/>
<path fill="#131718" d="M64.52,22.295c0.355,0.771,0.533,1.564,0.533,2.382c0,0.818-0.144,1.602-0.432,2.347
	c-0.29,0.747-0.712,1.426-1.268,2.033c-0.557,0.608-1.221,1.091-1.988,1.445l-1.631,0.752c-0.77,0.354-1.565,0.546-2.39,0.574
	c-0.824,0.03-1.614-0.089-2.369-0.354c-0.755-0.266-1.445-0.664-2.065-1.194c-0.624-0.53-1.113-1.182-1.467-1.951l-0.417-0.901
	l1.887-1.274l0.568,1.235c0.236,0.506,0.556,0.93,0.964,1.272c0.406,0.343,0.861,0.601,1.361,0.771
	c0.502,0.173,1.024,0.247,1.57,0.227c0.547-0.023,1.074-0.15,1.579-0.385l1.423-0.655c0.506-0.234,0.943-0.551,1.308-0.95
	c0.365-0.397,0.646-0.844,0.841-1.335c0.195-0.494,0.294-1.006,0.297-1.538c0.004-0.532-0.111-1.051-0.344-1.558l-0.314-0.68
	c-0.359-0.779-0.813-1.358-1.354-1.732c-0.544-0.377-1.155-0.63-1.829-0.76c-0.674-0.13-1.386-0.175-2.14-0.133
	c-0.755,0.04-1.529,0.09-2.32,0.147c-0.793,0.059-1.576,0.082-2.356,0.069c-0.779-0.01-1.526-0.129-2.244-0.354
	c-0.717-0.226-1.383-0.599-1.994-1.122c-0.613-0.524-1.142-1.271-1.59-2.239l-0.197-0.428c-0.356-0.768-0.542-1.558-0.564-2.367
	c-0.023-0.809,0.105-1.582,0.377-2.321c0.272-0.739,0.682-1.411,1.229-2.015c0.546-0.604,1.203-1.083,1.974-1.438l1.453-0.67
	c0.77-0.355,1.559-0.544,2.367-0.565c0.81-0.021,1.582,0.105,2.322,0.379c0.739,0.272,1.411,0.679,2.011,1.219
	c0.601,0.541,1.079,1.196,1.434,1.967l0.27,0.585l-1.886,1.271l-0.422-0.916c-0.235-0.507-0.547-0.935-0.94-1.284
	c-0.391-0.35-0.826-0.612-1.303-0.789c-0.477-0.175-0.979-0.258-1.503-0.246c-0.525,0.013-1.042,0.135-1.547,0.369l-1.266,0.583
	c-0.506,0.232-0.933,0.547-1.283,0.938c-0.35,0.392-0.615,0.827-0.797,1.307c-0.183,0.479-0.266,0.983-0.255,1.507
	c0.013,0.526,0.136,1.042,0.37,1.547l0.197,0.428c0.335,0.728,0.77,1.269,1.304,1.623c0.534,0.354,1.135,0.591,1.804,0.711
	c0.67,0.12,1.383,0.161,2.14,0.126c0.756-0.036,1.534-0.076,2.332-0.118c0.8-0.042,1.592-0.05,2.379-0.022
	c0.784,0.028,1.54,0.159,2.261,0.395c0.724,0.236,1.392,0.62,2.011,1.154c0.616,0.534,1.148,1.285,1.596,2.255L64.52,22.295z"/>
<path fill="#131718" d="M88.069,19.129c0.052,0.846-0.069,1.65-0.366,2.412c-0.298,0.764-0.714,1.439-1.254,2.031
	c-0.537,0.592-1.181,1.069-1.919,1.435c-0.739,0.365-1.53,0.573-2.377,0.626l-1.791,0.109c-0.848,0.051-1.659-0.059-2.438-0.331
	c-0.777-0.272-1.471-0.669-2.081-1.19c-0.606-0.521-1.102-1.141-1.49-1.861c-0.388-0.722-0.608-1.504-0.659-2.351l-0.059-0.989
	l2.218-0.503l0.084,1.355c0.034,0.557,0.179,1.067,0.434,1.535c0.255,0.468,0.586,0.871,0.99,1.212
	c0.404,0.342,0.863,0.602,1.383,0.779c0.516,0.179,1.053,0.25,1.609,0.216l1.563-0.096c0.56-0.033,1.078-0.171,1.564-0.411
	c0.484-0.238,0.906-0.552,1.268-0.939c0.359-0.39,0.639-0.831,0.836-1.325c0.195-0.494,0.277-1.021,0.242-1.577l-0.045-0.747
	c-0.053-0.857-0.264-1.56-0.637-2.106c-0.369-0.547-0.846-1.003-1.426-1.37c-0.581-0.365-1.23-0.666-1.947-0.901
	c-0.721-0.234-1.457-0.469-2.216-0.701c-0.759-0.233-1.5-0.496-2.221-0.789s-1.375-0.676-1.963-1.144
	c-0.587-0.472-1.071-1.061-1.452-1.77c-0.381-0.711-0.603-1.598-0.668-2.664l-0.029-0.469c-0.052-0.846,0.059-1.65,0.331-2.411
	c0.274-0.762,0.671-1.437,1.195-2.026c0.521-0.591,1.146-1.068,1.874-1.435c0.727-0.362,1.515-0.57,2.361-0.623l1.599-0.098
	c0.846-0.051,1.649,0.061,2.41,0.333c0.762,0.273,1.437,0.671,2.028,1.192c0.588,0.521,1.065,1.145,1.431,1.866
	c0.364,0.723,0.571,1.507,0.623,2.353l0.041,0.642l-2.22,0.504l-0.063-1.008c-0.033-0.558-0.168-1.068-0.406-1.537
	c-0.238-0.468-0.549-0.87-0.93-1.208c-0.381-0.337-0.818-0.595-1.313-0.773c-0.494-0.181-1.019-0.252-1.574-0.219L79.22,2.242
	c-0.557,0.033-1.068,0.169-1.537,0.408c-0.468,0.237-0.873,0.548-1.217,0.93c-0.344,0.381-0.603,0.818-0.782,1.313
	c-0.179,0.493-0.252,1.019-0.218,1.575l0.03,0.469c0.048,0.799,0.257,1.461,0.627,1.984c0.369,0.524,0.843,0.963,1.423,1.318
	c0.581,0.354,1.229,0.651,1.946,0.892c0.719,0.241,1.459,0.487,2.219,0.737s1.502,0.53,2.224,0.841
	c0.724,0.311,1.38,0.707,1.968,1.188c0.586,0.481,1.07,1.083,1.453,1.803c0.381,0.722,0.605,1.614,0.668,2.682L88.069,19.129z"/>
<polygon fill="#131718" points="96.404,26.092 103.97,2.293 117.363,6.553 116.716,8.594 105.464,5.016 102.65,13.861 
	111.761,16.758 111.113,18.799 102.003,15.902 99.194,24.73 110.444,28.31 109.796,30.351 "/>
<path fill="#111516" d="M9.73,98.49l-8.508,2.28L0,96.218l23.511-6.302l2.107,7.864c0.633,2.355,0.443,4.408-0.572,6.156
	c-1.013,1.75-2.64,2.924-4.879,3.524c-2.25,0.603-4.246,0.399-5.988-0.61c-1.741-1.01-2.929-2.693-3.562-5.051L9.73,98.49z
	 M13.299,97.533l0.888,3.311c0.273,1.022,0.848,1.702,1.723,2.039s1.877,0.354,3.008,0.052c1.152-0.31,2.029-0.83,2.636-1.563
	c0.606-0.733,0.772-1.611,0.497-2.634l-0.887-3.312L13.299,97.533z"/>
<polygon fill="#111516" points="16.694,127.228 21.916,134.651 18.909,136.769 10.974,125.487 30.884,111.483 33.594,115.339 "/>
<path fill="#111516" d="M38.578,147.349l-4.847-3.677l-4.275,3.367l-3.918-2.97l20.21-15.223l3.89,2.948l-9.206,23.565l-3.93-2.979
	L38.578,147.349z M36.745,141.301l3.304,2.505l3.054-7.375l-0.079-0.063L36.745,141.301z"/>
<polygon fill="#111516" points="70.432,166.11 65.866,164.942 62.233,147.981 62.131,147.974 58.285,163.002 53.718,161.834 
	59.753,138.252 64.32,139.421 67.949,156.397 68.048,156.407 71.899,141.362 76.468,142.531 "/>
<polygon fill="#111516" points="104.408,165.069 99.735,165.7 90.003,151.343 89.905,151.372 91.981,166.747 87.31,167.377 
	84.054,143.255 88.728,142.625 98.458,156.999 98.558,156.969 96.478,141.579 101.151,140.947 "/>
<polygon fill="#111516" points="125.302,144.313 118.777,147.885 122.173,154.088 129.988,149.81 131.757,153.036 119.804,159.577 
	108.117,138.226 120.039,131.7 121.812,134.94 114.026,139.202 117.013,144.658 123.539,141.087 "/>
<polygon fill="#111516" points="155.16,130.271 152.108,133.863 135.272,129.692 135.218,129.78 147.042,139.826 143.992,143.418 
	125.44,127.656 128.494,124.063 145.343,128.245 145.394,128.158 133.56,118.103 136.612,114.511 "/>
<path fill="#111516" d="M142.804,108.458l3.697,3.146l-0.572,0.676l-3.699-3.147l-1.109,1.306l-0.604-0.515l2.795-3.284l0.604,0.514
	L142.804,108.458z M151.021,106.296l-2.414-2.053l1.412,3.23l-0.299,0.351l-3.396-0.871l2.4,2.042l-0.58,0.682l-4.303-3.662
	l0.346-0.406l4.682,1.193l-1.918-4.441l0.33-0.387l4.303,3.66L151.021,106.296z"/>
<rect fill="none" width="155.16" height="167.377"/>
</svg>
