<?xml version="1.0" encoding="utf-8"?>
<!-- Generator: Adobe Illustrator 12.0.0, SVG Export Plug-In . SVG Version: 6.00 Build 51448)  -->
<!DOCTYPE svg PUBLIC "-//W3C//DTD SVG 1.1//EN" "http://www.w3.org/Graphics/SVG/1.1/DTD/svg11.dtd" [
	<!ENTITY ns_svg "http://www.w3.org/2000/svg">
	<!ENTITY ns_xlink "http://www.w3.org/1999/xlink">
]>
<svg  version="1.1" id="Layer_1" xmlns="&ns_svg;" xmlns:xlink="&ns_xlink;" width="68.156" height="48.019"
	 viewBox="0 0 68.156 48.019" overflow="visible" enable-background="new 0 0 68.156 48.019" xml:space="preserve">
<g>
	<path fill="#E94927" d="M2.5,0C1.119,0,0,1.119,0,2.5S1.119,5,2.5,5h63.156c1.381,0,2.5-1.119,2.5-2.5S67.037,0,65.656,0H2.5z"/>
</g>
<g>
	<path fill="#E94927" d="M2.5,20.62c-1.381,0-2.5,1.119-2.5,2.5s1.119,2.5,2.5,2.5h63.156c1.381,0,2.5-1.119,2.5-2.5
		s-1.119-2.5-2.5-2.5H2.5z"/>
</g>
<g>
	<path fill="#E94927" d="M2.5,43.019c-1.381,0-2.5,1.119-2.5,2.5s1.119,2.5,2.5,2.5h63.156c1.381,0,2.5-1.119,2.5-2.5
		s-1.119-2.5-2.5-2.5H2.5z"/>
</g>
</svg>
