<?xml version="1.0" encoding="utf-8"?>
<!-- Generator: Adobe Illustrator 12.0.0, SVG Export Plug-In . SVG Version: 6.00 Build 51448)  -->
<!DOCTYPE svg PUBLIC "-//W3C//DTD SVG 1.1//EN" "http://www.w3.org/Graphics/SVG/1.1/DTD/svg11.dtd" [
	<!ENTITY ns_svg "http://www.w3.org/2000/svg">
	<!ENTITY ns_xlink "http://www.w3.org/1999/xlink">
]>
<svg  version="1.1" id="Layer_1" xmlns="&ns_svg;" xmlns:xlink="&ns_xlink;" width="188.086" height="188.086"
	 viewBox="0 0 188.086 188.086" overflow="visible" enable-background="new 0 0 188.086 188.086" xml:space="preserve">
<path fill="#38B14A" d="M187.586,94.043c0,51.663-41.881,93.543-93.543,93.543S0.5,145.706,0.5,94.043
	C0.5,42.381,42.381,0.5,94.043,0.5S187.586,42.381,187.586,94.043"/>
<circle fill="none" stroke="#000000" stroke-miterlimit="10" cx="94.043" cy="94.043" r="93.543"/>
<polygon fill="#FFFFFF" stroke="#000000" points="55.804,73.402 50.479,73.402 50.479,99.949 67.692,99.949 67.692,95.865 
	55.804,95.865 "/>
<path fill="#FFFFFF" stroke="#111516" stroke-width="1.029" stroke-miterlimit="10" d="M86.944,89.063
	c0,2.103-0.509,3.817-1.531,5.142c-1.02,1.325-2.443,1.987-4.266,1.987c-1.812,0-3.221-0.662-4.23-1.987
	c-1.01-1.325-1.514-3.039-1.514-5.142V84.25c0-2.067,0.502-3.762,1.504-5.087c1.003-1.325,2.405-1.987,4.203-1.987
	c1.824,0,3.251,0.662,4.285,1.987c1.033,1.325,1.549,3.02,1.549,5.087V89.063z M92.251,84.287c0-3.245-1.034-5.935-3.1-8.068
	c-2.067-2.133-4.747-3.2-8.041-3.2c-3.269,0-5.922,1.067-7.959,3.2c-2.036,2.133-3.053,4.823-3.053,8.068v4.777
	c0,3.258,1.021,5.951,3.063,8.078s4.704,3.19,7.986,3.19c3.293,0,5.968-1.062,8.022-3.182c2.055-2.121,3.082-4.816,3.082-8.086
	V84.287z"/>
<path fill="#FFFFFF" stroke="#000000" d="M116.811,86.074h-10.447v3.683h5.105v5.141c-0.401,0.39-0.97,0.711-1.705,0.967
	c-0.735,0.255-1.735,0.383-2.999,0.383c-1.714,0-3.082-0.632-4.102-1.897c-1.022-1.262-1.533-2.897-1.533-4.903v-5.579
	c0-1.981,0.498-3.602,1.494-4.859c0.998-1.258,2.311-1.887,3.939-1.887c1.557,0,2.741,0.391,3.557,1.176
	c0.813,0.784,1.221,1.88,1.221,3.291h5.014l0.037-0.11c0.061-2.564-0.771-4.616-2.498-6.153c-1.727-1.538-4.212-2.307-7.457-2.307
	c-3.111,0-5.659,1.012-7.641,3.035c-1.98,2.025-2.971,4.641-2.971,7.85v5.543c0,3.221,1.021,5.841,3.063,7.858
	s4.668,3.026,7.877,3.026c2.589,0,4.704-0.397,6.345-1.194c1.64-0.795,2.874-1.734,3.701-2.816V86.074z"/>
<path fill="#FFFFFF" stroke="#000000" d="M137.503,89.063c0,2.103-0.508,3.817-1.53,5.142c-1.021,1.325-2.443,1.987-4.267,1.987
	c-1.812,0-3.221-0.662-4.229-1.987c-1.011-1.325-1.515-3.039-1.515-5.142V84.25c0-2.067,0.502-3.762,1.504-5.087
	c1.004-1.325,2.406-1.987,4.203-1.987c1.824,0,3.252,0.662,4.285,1.987s1.549,3.02,1.549,5.087V89.063z M142.811,84.287
	c0-3.245-1.034-5.935-3.101-8.068c-2.066-2.133-4.746-3.2-8.041-3.2c-3.269,0-5.922,1.067-7.959,3.2
	c-2.035,2.133-3.053,4.823-3.053,8.068v4.777c0,3.258,1.021,5.951,3.063,8.078s4.704,3.19,7.985,3.19
	c3.293,0,5.969-1.062,8.022-3.182c2.056-2.121,3.082-4.816,3.082-8.086V84.287z"/>
<g>
	<path fill="#111516" d="M75.219,111.659v1.539h1.672v0.891h-1.672v3.463c0,0.797,0.226,1.248,0.876,1.248
		c0.318,0,0.504-0.026,0.677-0.079l0.053,0.876c-0.226,0.093-0.584,0.172-1.035,0.172c-0.544,0-0.982-0.186-1.261-0.504
		c-0.332-0.346-0.451-0.916-0.451-1.672v-3.504h-0.996v-0.891h0.996v-1.181L75.219,111.659z"/>
	<path fill="#111516" d="M82.718,118.083c0,0.558,0.026,1.102,0.106,1.54h-1.062l-0.093-0.81h-0.04
		c-0.358,0.504-1.049,0.955-1.964,0.955c-1.301,0-1.965-0.916-1.965-1.844c0-1.554,1.38-2.403,3.863-2.39v-0.133
		c0-0.531-0.146-1.487-1.46-1.487c-0.598,0-1.221,0.187-1.673,0.479l-0.265-0.77c0.531-0.346,1.301-0.571,2.11-0.571
		c1.964,0,2.442,1.341,2.442,2.628V118.083z M81.589,116.344c-1.274-0.027-2.721,0.199-2.721,1.447c0,0.756,0.504,1.114,1.102,1.114
		c0.836,0,1.367-0.53,1.553-1.075c0.04-0.119,0.066-0.252,0.066-0.371V116.344z"/>
	<path fill="#111516" d="M90.084,118.694c0,1.473-0.292,2.375-0.916,2.934c-0.624,0.584-1.526,0.77-2.336,0.77
		c-0.77,0-1.619-0.186-2.137-0.531l0.292-0.889c0.425,0.265,1.088,0.504,1.885,0.504c1.194,0,2.07-0.624,2.07-2.243v-0.717h-0.026
		c-0.358,0.597-1.049,1.075-2.044,1.075c-1.593,0-2.734-1.354-2.734-3.133c0-2.177,1.42-3.411,2.894-3.411
		c1.115,0,1.726,0.584,2.004,1.115h0.027l0.053-0.97h1.022c-0.027,0.465-0.053,0.982-0.053,1.766V118.694z M88.929,115.733
		c0-0.198-0.013-0.371-0.066-0.53c-0.212-0.677-0.783-1.234-1.632-1.234c-1.115,0-1.912,0.942-1.912,2.429
		c0,1.262,0.637,2.31,1.898,2.31c0.717,0,1.367-0.451,1.62-1.194c0.066-0.199,0.093-0.425,0.093-0.624V115.733z"/>
	<path fill="#111516" d="M92.021,110.199h1.168v9.424h-1.168V110.199z"/>
	<path fill="#111516" d="M96.454,111.393c0.014,0.398-0.278,0.717-0.742,0.717c-0.412,0-0.704-0.318-0.704-0.717
		c0-0.411,0.306-0.73,0.729-0.73C96.176,110.663,96.454,110.982,96.454,111.393z M95.153,119.623v-6.425h1.168v6.425H95.153z"/>
	<path fill="#111516" d="M98.26,114.937c0-0.663-0.013-1.208-0.053-1.739h1.035l0.066,1.063h0.026
		c0.318-0.61,1.063-1.208,2.123-1.208c0.891,0,2.271,0.531,2.271,2.734v3.836h-1.168v-3.703c0-1.035-0.386-1.897-1.487-1.897
		c-0.77,0-1.367,0.543-1.565,1.193c-0.054,0.146-0.08,0.346-0.08,0.545v3.862H98.26V114.937z"/>
	<path fill="#111516" d="M106.276,116.624c0.027,1.578,1.035,2.229,2.203,2.229c0.836,0,1.341-0.146,1.779-0.331l0.199,0.836
		c-0.412,0.187-1.115,0.411-2.137,0.411c-1.979,0-3.16-1.313-3.16-3.252c0-1.938,1.143-3.464,3.014-3.464
		c2.097,0,2.654,1.845,2.654,3.026c0,0.238-0.026,0.425-0.039,0.545H106.276z M109.701,115.787c0.013-0.743-0.306-1.897-1.62-1.897
		c-1.181,0-1.698,1.088-1.791,1.897H109.701z"/>
</g>
</svg>
