<?xml version="1.0" encoding="utf-8"?>
<!-- Generator: Adobe Illustrator 12.0.0, SVG Export Plug-In . SVG Version: 6.00 Build 51448)  -->
<!DOCTYPE svg PUBLIC "-//W3C//DTD SVG 1.1//EN" "http://www.w3.org/Graphics/SVG/1.1/DTD/svg11.dtd" [
	<!ENTITY ns_svg "http://www.w3.org/2000/svg">
	<!ENTITY ns_xlink "http://www.w3.org/1999/xlink">
]>
<svg  version="1.1" id="Layer_1" xmlns="&ns_svg;" xmlns:xlink="&ns_xlink;" width="188.156" height="188.086"
	 viewBox="0 0 188.156 188.086" overflow="visible" enable-background="new 0 0 188.156 188.086" xml:space="preserve">
<path fill="#38B14A" d="M187.586,94.043c0,51.663-41.88,93.543-93.543,93.543c-51.662,0-93.543-41.88-93.543-93.543
	C0.5,42.381,42.381,0.5,94.043,0.5C145.706,0.5,187.586,42.381,187.586,94.043"/>
<circle fill="none" stroke="#000000" stroke-miterlimit="10" cx="94.043" cy="94.043" r="93.543"/>
<path fill="#231F20" d="M82.087,78.458c3.409-3.127,6.931-6.129,10.359-9.235c1.483-1.343,3.07-2.043,5.136-2.018
	c6.393,0.078,12.783-0.334,19.182-0.004c2.534,0.131,4.27,1.262,5.303,3.561c0.83,1.852,1.193,3.829,1.275,5.811
	c0.289,6.975,0.646,13.956,0.066,20.934c-0.176,2.138-0.686,4.201-1.838,6.057c-0.61,0.982-1.369,1.873-2.457,2.267
	c-1.002,0.362-1.203,0.938-1.2,1.927c0.038,11.702,0.034,23.404,0.028,35.107c0,3.814-2.508,6.416-5.98,6.246
	c-2.122-0.104-3.598-1.225-5.221-4.069c-0.207,0.438-0.344,0.767-0.512,1.078c-1.216,2.269-3.796,3.45-6.197,2.844
	c-2.655-0.672-4.338-2.78-4.34-5.527c-0.006-12.882,0-25.763,0-38.646c0-8.391,0.002-16.782,0.004-25.173v-1.162
	c-0.67,0.071-0.986,0.543-1.365,0.876c-2.694,2.362-5.368,4.747-8.059,7.113"/>
<path fill="#231F20" d="M106.845,66.093c-4.601-0.027-8.343-3.716-8.358-8.245c-0.017-4.675,3.764-8.378,8.516-8.341
	c4.516,0.034,8.23,3.876,8.15,8.429C115.072,62.427,111.313,66.118,106.845,66.093"/>
<path fill="#FFFFFF" d="M182.932,123.242H39.151l44.336-25.608h104.099C187.586,97.634,185.231,120.368,182.932,123.242"/>
<path fill="none" stroke="#111516" stroke-width="1.029" stroke-miterlimit="10" d="M182.932,123.242H39.151l44.336-25.608h104.099
	C187.586,97.634,185.231,120.368,182.932,123.242z"/>
<path fill="#231F20" d="M92.102,107.577l-4.673,0.875c-1.284,0.241-2.532-0.613-2.773-1.897l-4.828-25.769
	c-0.241-1.285,0.613-2.533,1.898-2.773l4.673-0.875c1.284-0.241,2.532,0.613,2.773,1.897L94,104.804
	C94.24,106.089,93.386,107.337,92.102,107.577"/>
<path fill="#231F20" d="M126.94,110.849l0.601-4.716c0.164-1.296,1.36-2.222,2.657-2.058l9.756,1.242
	c1.298,0.165,2.222,1.361,2.058,2.658l-0.601,4.715c-0.165,1.297-1.362,2.223-2.657,2.059l-9.756-1.242
	C127.701,113.342,126.775,112.146,126.94,110.849"/>
<g>
	<defs>
		<path id="XMLID_1_" d="M0.501,94.043c0,51.663,41.88,93.543,93.542,93.543l0,0c51.663,0,93.543-41.88,93.543-93.543l0,0
			c0-51.663-41.88-93.543-93.543-93.543l0,0C42.381,0.5,0.501,42.38,0.501,94.043"/>
	</defs>
	<clipPath id="XMLID_3_">
		<use xlink:href="#XMLID_1_" />
	</clipPath>
	<path clip-path="url(#XMLID_3_)" fill="#231F20" d="M127.519,105.513c3.407-3.127,6.93-6.129,10.358-9.235
		c1.483-1.343,3.069-2.043,5.137-2.018c6.392,0.078,12.783-0.334,19.181-0.004c2.535,0.131,4.271,1.262,5.302,3.561
		c0.83,1.853,1.194,3.829,1.276,5.812c0.289,6.975,0.647,13.956,0.067,20.934c-0.178,2.137-0.687,4.201-1.838,6.057
		c-0.61,0.982-1.369,1.873-2.457,2.266c-1.004,0.363-1.205,0.939-1.201,1.928c0.039,11.702,0.033,23.404,0.029,35.107
		c0,3.813-2.509,6.416-5.98,6.246c-2.123-0.104-3.598-1.226-5.221-4.069c-0.207,0.438-0.344,0.765-0.512,1.078
		c-1.217,2.269-3.797,3.45-6.197,2.844c-2.656-0.672-4.338-2.782-4.34-5.528c-0.008-12.882-0.002-25.764,0-38.645
		c0-8.391,0.002-16.782,0.004-25.173v-1.162c-0.67,0.071-0.987,0.543-1.367,0.876c-2.693,2.362-5.367,4.747-8.057,7.113"/>
	<path clip-path="url(#XMLID_3_)" fill="#231F20" d="M152.276,93.146c-4.603-0.027-8.342-3.716-8.358-8.245
		c-0.018-4.675,3.762-8.378,8.514-8.341c4.518,0.034,8.231,3.876,8.15,8.429C160.502,89.48,156.743,93.173,152.276,93.146"/>
</g>
</svg>
