<?xml version="1.0" encoding="utf-8"?>
<!-- Generator: Adobe Illustrator 12.0.0, SVG Export Plug-In . SVG Version: 6.00 Build 51448)  -->
<!DOCTYPE svg PUBLIC "-//W3C//DTD SVG 1.1//EN" "http://www.w3.org/Graphics/SVG/1.1/DTD/svg11.dtd" [
	<!ENTITY ns_svg "http://www.w3.org/2000/svg">
	<!ENTITY ns_xlink "http://www.w3.org/1999/xlink">
]>
<svg  version="1.1" id="Layer_1" xmlns="&ns_svg;" xmlns:xlink="&ns_xlink;" width="188.234" height="188.086"
	 viewBox="0 0 188.234 188.086" overflow="visible" enable-background="new 0 0 188.234 188.086" xml:space="preserve">
<path fill="#38B14A" d="M187.734,94.043c0,51.663-41.881,93.543-93.543,93.543S0.648,145.706,0.648,94.043S42.529,0.5,94.191,0.5
	S187.734,42.38,187.734,94.043"/>
<circle fill="none" stroke="#000000" stroke-miterlimit="10" cx="94.191" cy="94.043" r="93.543"/>
<path fill="#111516" d="M73.856,67.473v51.33c0,2.062,2.147,3.418,4.009,2.533l53.962-25.665c2.133-1.015,2.133-4.051,0-5.065
	L77.865,64.939C76.003,64.055,73.856,65.412,73.856,67.473"/>
<path fill="none" stroke="#FFFFFF" stroke-width="2.059" stroke-miterlimit="10" d="M73.856,67.473v51.33
	c0,2.062,2.147,3.418,4.009,2.533l53.962-25.665c2.133-1.015,2.133-4.051,0-5.065L77.865,64.939
	C76.003,64.055,73.856,65.412,73.856,67.473z"/>
<rect x="35.557" y="53.516" fill="#FFFFFF" width="113.22" height="78.224"/>
<rect x="35.557" y="53.516" fill="none" stroke="#111516" stroke-miterlimit="10" width="113.22" height="78.224"/>
<line fill="none" stroke="#231F20" stroke-miterlimit="10" x1="108.575" y1="104.637" x2="99.807" y2="80.618"/>
<path fill="none" d="M0,94.044c0,51.661,41.881,93.543,93.543,93.543l0,0c51.663,0,93.543-41.882,93.543-93.543l0,0
	c0-51.663-41.881-93.544-93.543-93.544l0,0C41.881,0.5,0,42.381,0,94.044"/>
<path fill="#231F20" d="M148.566,176.438c-0.207,0.438-0.347,0.766-0.513,1.077c-1.217,2.27-3.797,3.451-6.196,2.845
	c-2.656-0.671-4.338-2.781-4.34-5.528c-0.009-12.882-0.002-25.763-0.001-38.644c0.001-8.393,0.003-16.783,0.004-25.175v-1.162
	c-0.669,0.071-0.986,0.543-1.366,0.877c-2.692,2.361-5.368,4.746-8.06,7.112c-3.074,2.705-5.731,2.747-8.84,0.109
	c-3.734-3.169-7.446-6.365-11.168-9.549c-1.074-0.919-1.806-2.027-1.888-3.48c-0.146-2.56,1.901-4.285,4.417-3.729
	c1.042,0.229,1.922,0.747,2.729,1.446c2.777,2.405,5.606,4.749,8.352,7.189c0.83,0.737,1.33,0.84,2.217,0.027
	c3.407-3.126,6.93-6.129,10.358-9.234c1.481-1.344,3.069-2.044,5.136-2.02c6.393,0.078,12.784-0.332,19.18-0.003
	c2.537,0.132,4.271,1.262,5.303,3.561c0.83,1.852,1.195,3.829,1.277,5.811c0.289,6.976,0.647,13.956,0.067,20.935
	c-0.179,2.137-0.687,4.201-1.838,6.056c-0.611,0.984-1.37,1.874-2.458,2.267c-1.003,0.362-1.203,0.938-1.2,1.928
	c0.038,11.702,0.034,23.404,0.029,35.106c-0.001,3.814-2.509,6.416-5.981,6.247C151.665,180.404,150.188,179.282,148.566,176.438"/>
<path fill="#231F20" d="M148.669,97.489c-4.601-0.026-8.342-3.716-8.358-8.245c-0.018-4.675,3.762-8.378,8.516-8.341
	c4.516,0.034,8.229,3.876,8.15,8.43C156.897,93.823,153.137,97.516,148.669,97.489"/>
</svg>
