<?xml version="1.0" encoding="utf-8"?>
<!-- Generator: Adobe Illustrator 12.0.0, SVG Export Plug-In . SVG Version: 6.00 Build 51448)  -->
<!DOCTYPE svg PUBLIC "-//W3C//DTD SVG 1.1//EN" "http://www.w3.org/Graphics/SVG/1.1/DTD/svg11.dtd" [
	<!ENTITY ns_svg "http://www.w3.org/2000/svg">
	<!ENTITY ns_xlink "http://www.w3.org/1999/xlink">
]>
<svg  version="1.1" id="Layer_1" xmlns="&ns_svg;" xmlns:xlink="&ns_xlink;" width="188.086" height="188.086"
	 viewBox="0 0 188.086 188.086" overflow="visible" enable-background="new 0 0 188.086 188.086" xml:space="preserve">
<path fill="#38B14A" d="M187.586,94.043c0,51.662-41.881,93.543-93.543,93.543S0.5,145.706,0.5,94.043S42.381,0.5,94.043,0.5
	S187.586,42.381,187.586,94.043"/>
<circle fill="none" stroke="#000000" stroke-miterlimit="10" cx="94.043" cy="94.043" r="93.543"/>
<path fill="#111516" d="M73.708,67.473v51.329c0,2.062,2.147,3.419,4.009,2.533l53.962-25.664c2.133-1.015,2.133-4.052,0-5.066
	L77.717,64.94C75.855,64.055,73.708,65.412,73.708,67.473"/>
<path fill="none" stroke="#FFFFFF" stroke-width="2.059" stroke-miterlimit="10" d="M73.708,67.473v51.329
	c0,2.062,2.147,3.419,4.009,2.533l53.962-25.664c2.133-1.015,2.133-4.052,0-5.066L77.717,64.94
	C75.855,64.055,73.708,65.412,73.708,67.473z"/>
</svg>
