<svg id="Laag_1" data-name="Laag 1" xmlns="http://www.w3.org/2000/svg" viewBox="0 0 80.7 116.29"><defs><style>.cls-1{fill:#e33b17;}</style></defs><title>phone</title><path class="cls-1" d="M63.81,65c0,12.77-.09,25.53,0,38.3a10.74,10.74,0,0,1-10.92,10.91c-11.67,0-23.33,0-35,0A10.56,10.56,0,0,1,7.51,106.1a10.71,10.71,0,0,1-.24-2.39q0-38.71,0-77.42A10.39,10.39,0,0,1,17.7,15.8c2.82,0,5.64,0,8.47,0q13.5,0,27,0a10.5,10.5,0,0,1,10.38,8,11.28,11.28,0,0,1,.26,2.66Zm-6.87,0V36.68c0-1,.08-.88-.88-.88q-20.6,0-41.19,0c-.68,0-.82.2-.81.85q0,28.37,0,56.75c0,.66.16.84.83.84q20.62,0,41.26,0c.7,0,.82-.21.82-.85Q56.93,79.18,56.94,65ZM35.61,24.54H31.07c-.94,0-1.88,0-2.82,0a1.25,1.25,0,1,0,0,2.5H42.47a3.12,3.12,0,0,0,.75-.06,1.12,1.12,0,0,0,.88-.88,1.2,1.2,0,0,0-.38-1.24,1.53,1.53,0,0,0-1.09-.33Zm-3.28,79.68A3.2,3.2,0,1,0,35.49,101,3.21,3.21,0,0,0,32.33,104.22Z"/><path class="cls-1" d="M76.12,26.12c-.62,0-1.24,0-1.86,0-.42,0-.59-.09-.6-.57a18.49,18.49,0,0,0-2-8C68,10.3,62,6.46,54,5.93c-.64,0-.8-.2-.78-.81,0-1.2,0-2.39,0-3.58,0-.44.13-.55.54-.54A25.37,25.37,0,0,1,78.27,22.26c.15,1,.22,2,.3,3,.05.65-.1.93-.8.86A15.12,15.12,0,0,0,76.12,26.12Z"/><path class="cls-1" d="M53.19,10.82c0-.59,0-1.19,0-1.79s.15-.65.66-.63a17.91,17.91,0,0,1,10.39,3.74,17.46,17.46,0,0,1,7,13.21c0,.58-.07.81-.72.78-1.21-.05-2.43,0-3.65,0-.38,0-.51-.11-.53-.5A13,13,0,0,0,53.78,13.33c-.49,0-.63-.18-.6-.65S53.19,11.44,53.19,10.82Z"/><path class="cls-1" d="M32.32,58.2A2.53,2.53,0,0,1,31,59.54a2.4,2.4,0,0,1-1,.19h-.68a2.47,2.47,0,0,1-1-.19,2.57,2.57,0,0,1-.8-.54,2.6,2.6,0,0,1-.53-.8,2.4,2.4,0,0,1-.2-1V47.66h1v4.12a2.64,2.64,0,0,1,.84-.65,2.54,2.54,0,0,1,1.07-.23H30a2.4,2.4,0,0,1,1,.19,2.53,2.53,0,0,1,1.34,1.34,2.4,2.4,0,0,1,.19,1v3.83A2.4,2.4,0,0,1,32.32,58.2Zm-.83-4.86a1.4,1.4,0,0,0-.12-.58,1.48,1.48,0,0,0-.31-.47,1.38,1.38,0,0,0-.47-.31,1.4,1.4,0,0,0-.58-.12h-.68a1.35,1.35,0,0,0-.57.12,1.38,1.38,0,0,0-.47.31,1.51,1.51,0,0,0-.32.47,1.4,1.4,0,0,0-.12.58v3.95a1.4,1.4,0,0,0,.12.58,1.51,1.51,0,0,0,.32.47,1.54,1.54,0,0,0,.47.31,1.35,1.35,0,0,0,.57.12H30a1.4,1.4,0,0,0,.58-.12,1.54,1.54,0,0,0,.47-.31,1.48,1.48,0,0,0,.31-.47,1.4,1.4,0,0,0,.12-.58Z"/><path class="cls-1" d="M40,58.2a2.53,2.53,0,0,1-1.34,1.34,2.4,2.4,0,0,1-1,.19h-.68a2.47,2.47,0,0,1-1-.19,2.57,2.57,0,0,1-.8-.54,2.6,2.6,0,0,1-.53-.8,2.4,2.4,0,0,1-.2-1V53.4a2.4,2.4,0,0,1,.2-1,2.6,2.6,0,0,1,.53-.8,2.57,2.57,0,0,1,.8-.54,2.47,2.47,0,0,1,1-.19h.68a2.4,2.4,0,0,1,1,.19A2.53,2.53,0,0,1,40,52.43a2.4,2.4,0,0,1,.19,1v2H35.57v1.89a1.4,1.4,0,0,0,.12.58,1.51,1.51,0,0,0,.32.47,1.62,1.62,0,0,0,.46.31,1.43,1.43,0,0,0,.58.12h.68a1.4,1.4,0,0,0,.58-.12,1.54,1.54,0,0,0,.47-.31,1.48,1.48,0,0,0,.31-.47,1.4,1.4,0,0,0,.12-.58v-.56l1,.16v.34A2.4,2.4,0,0,1,40,58.2Zm-.83-4.86a1.4,1.4,0,0,0-.12-.58,1.48,1.48,0,0,0-.31-.47,1.38,1.38,0,0,0-.47-.31,1.4,1.4,0,0,0-.58-.12h-.68a1.48,1.48,0,0,0-1,.43,1.51,1.51,0,0,0-.32.47,1.4,1.4,0,0,0-.12.58V54.6h3.64Z"/><path class="cls-1" d="M42.61,59.56V47.66h1v11.9Z"/><path class="cls-1" d="M22.92,73.56l-.56-.86a2.54,2.54,0,0,1-.88.75,2.32,2.32,0,0,1-1.14.28h-.26a2.43,2.43,0,0,1-1-.19,2.57,2.57,0,0,1-.8-.54,2.6,2.6,0,0,1-.53-.8,2.4,2.4,0,0,1-.2-1V67.4a2.4,2.4,0,0,1,.2-1,2.6,2.6,0,0,1,.53-.8,2.57,2.57,0,0,1,.8-.54,2.43,2.43,0,0,1,1-.19h.26a2.52,2.52,0,0,1,1.06.23,2.44,2.44,0,0,1,.84.65V61.66h1v11.9Zm-.68-6.22a1.4,1.4,0,0,0-.12-.58,1.48,1.48,0,0,0-.31-.47,1.38,1.38,0,0,0-.47-.31,1.4,1.4,0,0,0-.58-.12h-.68a1.43,1.43,0,0,0-.58.12,1.33,1.33,0,0,0-.46.31,1.51,1.51,0,0,0-.32.47,1.4,1.4,0,0,0-.12.58v4a1.4,1.4,0,0,0,.12.58,1.51,1.51,0,0,0,.32.47,1.49,1.49,0,0,0,.46.31,1.43,1.43,0,0,0,.58.12h.68a1.4,1.4,0,0,0,.58-.12,1.54,1.54,0,0,0,.47-.31,1.48,1.48,0,0,0,.31-.47,1.4,1.4,0,0,0,.12-.58Z"/><path class="cls-1" d="M25.56,63V61.66h1.19V63Zm.08,10.54v-8.5h1v8.5Z"/><path class="cls-1" d="M31.55,66a1.42,1.42,0,0,0-1.05.43,1.42,1.42,0,0,0-.43,1v6h-1v-8.5h.34l.55.87a2.54,2.54,0,0,1,.88-.75A2.36,2.36,0,0,1,32,64.9h.6V66Z"/><path class="cls-1" d="M39.41,72.2a2.6,2.6,0,0,1-.53.8,2.57,2.57,0,0,1-.8.54,2.47,2.47,0,0,1-1,.19h-.68a2.4,2.4,0,0,1-1-.19,2.53,2.53,0,0,1-1.34-1.34,2.4,2.4,0,0,1-.19-1V67.4a2.4,2.4,0,0,1,.19-1,2.53,2.53,0,0,1,1.34-1.34,2.4,2.4,0,0,1,1-.19h.68a2.47,2.47,0,0,1,1,.19,2.57,2.57,0,0,1,.8.54,2.6,2.6,0,0,1,.53.8,2.4,2.4,0,0,1,.2,1v2H35v1.89a1.58,1.58,0,0,0,.11.58,1.7,1.7,0,0,0,.32.47,1.54,1.54,0,0,0,.47.31,1.4,1.4,0,0,0,.58.12h.68a1.39,1.39,0,0,0,.57-.12,1.54,1.54,0,0,0,.47-.31,1.51,1.51,0,0,0,.32-.47,1.4,1.4,0,0,0,.11-.58v-.56l1,.16v.34A2.4,2.4,0,0,1,39.41,72.2Zm-.83-4.86a1.4,1.4,0,0,0-.11-.58,1.51,1.51,0,0,0-.32-.47,1.53,1.53,0,0,0-1-.43h-.68a1.4,1.4,0,0,0-.58.12,1.38,1.38,0,0,0-.47.31,1.7,1.7,0,0,0-.32.47,1.58,1.58,0,0,0-.11.58V68.6h3.63Z"/><path class="cls-1" d="M47.13,72.2a2.6,2.6,0,0,1-.53.8,2.57,2.57,0,0,1-.8.54,2.47,2.47,0,0,1-1,.19h-.68a2.4,2.4,0,0,1-1-.19,2.36,2.36,0,0,1-.8-.54,2.46,2.46,0,0,1-.54-.8,2.4,2.4,0,0,1-.19-1V67.4a2.4,2.4,0,0,1,.19-1,2.46,2.46,0,0,1,.54-.8,2.36,2.36,0,0,1,.8-.54,2.4,2.4,0,0,1,1-.19h.68a2.47,2.47,0,0,1,1,.19,2.57,2.57,0,0,1,.8.54,2.6,2.6,0,0,1,.53.8,2.4,2.4,0,0,1,.2,1v.34l-1,.16v-.56a1.4,1.4,0,0,0-.11-.58,1.51,1.51,0,0,0-.32-.47,1.53,1.53,0,0,0-1-.43h-.68a1.4,1.4,0,0,0-.58.12,1.38,1.38,0,0,0-.47.31,1.7,1.7,0,0,0-.32.47,1.58,1.58,0,0,0-.11.58v4a1.58,1.58,0,0,0,.11.58,1.7,1.7,0,0,0,.32.47,1.54,1.54,0,0,0,.47.31,1.4,1.4,0,0,0,.58.12h.68a1.39,1.39,0,0,0,.57-.12,1.54,1.54,0,0,0,.47-.31,1.51,1.51,0,0,0,.32-.47,1.4,1.4,0,0,0,.11-.58v-.56l1,.16v.34A2.4,2.4,0,0,1,47.13,72.2Z"/><path class="cls-1" d="M52.46,73.56a2.11,2.11,0,0,1-.87-.17,2.39,2.39,0,0,1-.72-.48,2.47,2.47,0,0,1-.48-.71,2.2,2.2,0,0,1-.18-.88V66H48.69v-1h1.52V63l1-.16v2.2h2.16v1H51.23v5.33a1.29,1.29,0,0,0,.1.48,1.16,1.16,0,0,0,.26.39,1.33,1.33,0,0,0,.39.26,1.28,1.28,0,0,0,.48.09h.93v1Z"/></svg>