<?xml version="1.0" encoding="utf-8"?>
<!-- Generator: Adobe Illustrator 12.0.0, SVG Export Plug-In . SVG Version: 6.00 Build 51448)  -->
<!DOCTYPE svg PUBLIC "-//W3C//DTD SVG 1.1//EN" "http://www.w3.org/Graphics/SVG/1.1/DTD/svg11.dtd" [
	<!ENTITY ns_svg "http://www.w3.org/2000/svg">
	<!ENTITY ns_xlink "http://www.w3.org/1999/xlink">
]>
<svg  version="1.1" id="Layer_1" xmlns="&ns_svg;" xmlns:xlink="&ns_xlink;" width="74.238" height="59.936"
	 viewBox="0 0 74.238 59.936" overflow="visible" enable-background="new 0 0 74.238 59.936" xml:space="preserve">
<path fill="#E94927" d="M37.143,59.936H9.011c-0.695,0-0.695,0-0.695-0.706c0-2.766-0.006-5.53,0.002-8.296
	c0.004-1.283,0.172-2.548,0.407-3.811c0.597-3.212,2.001-6.081,3.688-8.832c1.513-2.464,3.037-4.92,4.562-7.376
	c1.507-2.428,3.021-4.851,4.532-7.275c0.254-0.407,0.504-0.816,0.767-1.218c0.19-0.289,0.22-0.606,0.22-0.938
	c-0.002-2.102-0.001-4.203-0.001-6.305c0-0.51,0.023-0.534,0.548-0.534c2.581,0,5.162,0.005,7.743-0.007
	c0.359-0.002,0.492,0.089,0.486,0.474c-0.022,1.475,0.001,2.95-0.016,4.425c-0.005,0.347,0.11,0.433,0.443,0.432
	c3.638-0.011,7.275-0.01,10.913,0c0.321,0.001,0.426-0.088,0.422-0.415c-0.015-1.487,0.002-2.975-0.013-4.461
	c-0.003-0.328,0.08-0.455,0.429-0.454c2.654,0.012,5.31,0.011,7.963,0c0.329-0.001,0.412,0.109,0.41,0.428
	c-0.013,2.09,0.005,4.179-0.016,6.269c-0.005,0.474,0.126,0.874,0.369,1.261c2.306,3.656,4.613,7.31,6.911,10.971
	c1.386,2.208,2.761,4.423,4.126,6.644c0.902,1.469,1.649,3.02,2.143,4.673c0.317,1.061,0.449,2.156,0.51,3.272
	c0.206,3.754,0.044,7.509,0.116,11.263c0.01,0.516,0.001,0.518-0.521,0.518H37.143z M45.197,35.585c0.687,0,1.373-0.007,2.061,0.003
	c0.263,0.004,0.381-0.085,0.379-0.36c-0.009-0.895-0.009-1.79,0-2.686c0.002-0.251-0.086-0.348-0.342-0.347
	c-1.387,0.008-2.772,0.008-4.158,0c-0.262-0.001-0.378,0.084-0.374,0.361c0.01,0.87,0.011,1.741,0,2.612
	c-0.004,0.325,0.144,0.425,0.448,0.419C43.872,35.577,44.535,35.585,45.197,35.585 M45.207,41.417c0.677,0,1.353-0.013,2.027,0.006
	c0.306,0.009,0.409-0.093,0.404-0.398c-0.016-0.859-0.016-1.72,0-2.58c0.005-0.304-0.104-0.412-0.405-0.41
	c-1.351,0.01-2.702,0.008-4.054,0.002c-0.289-0.001-0.423,0.099-0.418,0.409c0.013,0.86,0.013,1.721,0,2.58
	c-0.005,0.313,0.124,0.403,0.42,0.396C43.856,41.407,44.532,41.417,45.207,41.417 M36.921,32.2c-0.688,0-1.375,0.007-2.063-0.004
	c-0.24-0.004-0.372,0.061-0.371,0.323c0.005,0.908,0.001,1.816,0.002,2.726c0,0.238,0.105,0.346,0.361,0.345
	c1.375-0.009,2.75-0.009,4.125,0c0.237,0.001,0.331-0.079,0.329-0.317c-0.006-0.921-0.008-1.842,0.002-2.763
	c0.002-0.241-0.087-0.318-0.323-0.313C38.296,32.208,37.609,32.2,36.921,32.2 M28.598,32.2c-0.688,0-1.374,0.007-2.062-0.004
	c-0.241-0.005-0.357,0.056-0.354,0.325c0.011,0.906,0.008,1.814,0.002,2.723c-0.001,0.244,0.082,0.348,0.344,0.346
	c1.374-0.01,2.749-0.008,4.123-0.001c0.236,0.002,0.336-0.082,0.335-0.317c-0.004-0.92-0.007-1.841,0.001-2.761
	c0.002-0.239-0.092-0.318-0.327-0.314C29.973,32.207,29.286,32.2,28.598,32.2 M28.589,41.417c0.676,0,1.352-0.011,2.027,0.006
	c0.267,0.006,0.376-0.066,0.372-0.348c-0.013-0.896-0.01-1.794-0.001-2.691c0.002-0.253-0.091-0.35-0.345-0.348
	c-1.376,0.006-2.752,0.005-4.128,0c-0.232-0.001-0.334,0.079-0.332,0.321c0.008,0.909,0.009,1.818,0,2.728
	c-0.002,0.251,0.081,0.344,0.342,0.338C27.213,41.407,27.901,41.417,28.589,41.417 M45.181,26.375c-0.699,0-1.399,0.006-2.098-0.003
	c-0.234-0.003-0.325,0.075-0.322,0.319c0.011,0.883,0.01,1.767,0.001,2.649c-0.003,0.231,0.077,0.35,0.309,0.35
	c1.424,0.001,2.847-0.001,4.271-0.001c0.212,0,0.298-0.094,0.296-0.317c-0.01-0.896-0.011-1.791,0-2.687
	c0.003-0.244-0.087-0.317-0.321-0.314C46.604,26.381,45.893,26.375,45.181,26.375 M36.898,41.417c0.701,0,1.401-0.007,2.1,0.004
	c0.222,0.004,0.31-0.065,0.308-0.291c-0.007-0.934-0.005-1.867,0-2.801c0.001-0.201-0.075-0.291-0.28-0.29
	c-1.4,0.002-2.8,0.003-4.2-0.002c-0.23,0-0.291,0.111-0.29,0.32c0.006,0.909,0.01,1.818-0.001,2.727
	c-0.003,0.252,0.076,0.345,0.338,0.339C35.547,41.406,36.223,41.417,36.898,41.417 M28.621,26.375c-0.712,0-1.424,0.007-2.136-0.004
	c-0.215-0.004-0.306,0.048-0.303,0.284c0.011,0.908,0.011,1.816,0,2.725c-0.004,0.248,0.095,0.317,0.324,0.317
	c1.386-0.006,2.772-0.005,4.159-0.001c0.229,0.001,0.327-0.074,0.323-0.32c-0.012-0.897-0.015-1.792,0.001-2.688
	c0.005-0.274-0.103-0.323-0.345-0.318C29.971,26.383,29.296,26.375,28.621,26.375 M36.943,26.375c-0.712,0-1.425,0.009-2.136-0.005
	c-0.245-0.005-0.323,0.084-0.321,0.318c0.007,0.884,0.008,1.769-0.001,2.652c-0.002,0.245,0.079,0.357,0.338,0.356
	c1.388-0.006,2.775-0.007,4.162,0.001c0.269,0.002,0.326-0.113,0.323-0.355c-0.012-0.885-0.016-1.769,0.001-2.652
	c0.005-0.271-0.094-0.326-0.34-0.32C38.294,26.384,37.619,26.375,36.943,26.375"/>
<path fill="#E94927" d="M37.481,8.84c-1.375,0-2.753-0.046-4.126,0.01c-2.342,0.094-4.678,0.295-6.986,0.718
	c-1.708,0.313-3.383,0.753-4.907,1.622c-0.933,0.531-1.758,1.182-2.162,2.229c-0.188,0.486-0.278,0.994-0.24,1.515
	c0.03,0.399-0.158,0.648-0.484,0.826c-1.808,0.983-3.677,1.827-5.655,2.397c-1.052,0.304-2.127,0.519-3.219,0.671
	c-0.914,0.128-1.835,0.191-2.744,0.181c-1.426-0.016-2.854-0.13-4.255-0.48c-0.781-0.197-1.55-0.425-2.321-0.646
	c-0.232-0.067-0.333-0.178-0.281-0.451c0.173-0.892,0.37-1.775,0.585-2.657c0.226-0.925,0.49-1.838,0.8-2.732
	C1.957,10.68,2.486,9.336,3.13,8.042c0.288-0.579,0.618-1.141,0.872-1.734c0.266-0.623,0.765-0.89,1.358-1.083
	C6.336,4.906,7.3,4.55,8.276,4.234c0.867-0.28,1.74-0.541,2.618-0.784c1.026-0.283,2.062-0.534,3.09-0.804
	c1.271-0.331,2.554-0.604,3.841-0.85c1.359-0.261,2.723-0.503,4.09-0.722c0.895-0.143,1.797-0.237,2.698-0.34
	c1.266-0.143,2.531-0.31,3.802-0.397c1.271-0.087,2.545-0.164,3.818-0.229c2.074-0.106,4.147-0.12,6.222-0.1
	c2.086,0.021,4.167,0.138,6.25,0.261c1.812,0.106,3.617,0.291,5.418,0.499c1.945,0.226,3.883,0.54,5.81,0.902
	c2.01,0.379,4.007,0.823,5.983,1.351c1.527,0.407,3.048,0.852,4.552,1.341c1.062,0.346,2.122,0.699,3.155,1.131
	c0.491,0.206,0.607,0.672,0.827,1.057c0.739,1.3,1.361,2.659,1.896,4.054c0.304,0.795,0.563,1.61,0.809,2.43
	c0.25,0.841,0.478,1.688,0.672,2.541c0.14,0.613,0.312,1.227,0.354,1.862c0.018,0.249-0.068,0.381-0.299,0.409
	c-0.754,0.09-1.487,0.295-2.248,0.355c-1.699,0.136-3.394,0.319-5.104,0.279c-1.203-0.027-2.391-0.18-3.574-0.397
	c-1.921-0.352-3.77-0.938-5.571-1.681c-0.621-0.255-1.238-0.521-1.856-0.783c-0.196-0.084-0.329-0.222-0.311-0.448
	c0.16-1.971-0.887-3.202-2.497-4.089c-1.197-0.66-2.487-1.07-3.813-1.359c-1.729-0.376-3.484-0.586-5.244-0.729
	C41.606,8.824,39.545,8.737,37.481,8.84"/>
<path fill="#E94927" d="M19.055,19.309c0.01,1.663-0.243,3.267-1.026,4.763c-0.755,1.44-1.929,2.408-3.393,3.037
	c-0.863,0.371-1.767,0.613-2.697,0.786c-0.917,0.171-1.836,0.22-2.757,0.311c-0.711,0.07-1.417,0.091-2.121,0.066
	c-1.177-0.041-2.358-0.125-3.502-0.429c-1.098-0.292-2.048-0.842-2.628-1.87c-0.368-0.654-0.58-1.361-0.684-2.114
	C0.069,22.584-0.006,21.307,0,20.023c0.002-0.38,0.046-0.389,0.406-0.27C1,19.951,1.602,20.114,2.205,20.28
	c0.926,0.256,1.879,0.353,2.813,0.548l0.11,0.011c0.891,0.049,1.783,0.157,2.672,0.131c1.056-0.032,2.121-0.111,3.161-0.294
	c2.723-0.479,5.302-1.4,7.735-2.72c0.299-0.163,0.353-0.133,0.357,0.211C19.059,18.547,19.055,18.928,19.055,19.309"/>
<path fill="#E94927" d="M66.592,27.711c-0.712,0-1.43,0.051-2.136-0.014c-0.843-0.077-1.682-0.208-2.515-0.393
	c-1.152-0.256-2.25-0.625-3.267-1.219c-1.617-0.942-2.634-2.346-3.135-4.138c-0.38-1.359-0.309-2.747-0.287-4.134
	c0.005-0.309,0.145-0.237,0.325-0.144c1.175,0.612,2.405,1.102,3.658,1.522c0.788,0.265,1.601,0.468,2.414,0.659
	c1.031,0.242,2.074,0.409,3.118,0.521c1.182,0.127,2.38,0.057,3.571,0.064c0.822,0.006,1.637-0.091,2.441-0.205
	c0.906-0.126,1.822-0.249,2.701-0.534c0.173-0.056,0.356-0.043,0.535-0.109c0.233-0.086,0.157,0.146,0.168,0.252
	c0.104,0.923,0.028,1.846-0.014,2.769c-0.046,1.001-0.255,1.959-0.73,2.854c-0.428,0.804-1.094,1.332-1.921,1.65
	C69.933,27.727,68.268,27.787,66.592,27.711"/>
</svg>
