<svg id="Laag_1" data-name="Laag 1" xmlns="http://www.w3.org/2000/svg" viewBox="0 0 52.8 94.82"><defs><style>.cls-1{fill:#4cae3f;}</style></defs><polyline class="cls-1" points="9.26 16.86 13.03 17.61 13.61 14.72 12.71 14.54 12.35 16.33 11.76 16.21 12.05 14.75 11.19 14.58 10.9 16.04 10.37 15.94 10.72 14.22 9.83 14.04 9.26 16.86"/><path class="cls-1" d="M13.36,13.24h-.2a2.36,2.36,0,0,1-.93-.3,2.7,2.7,0,0,1-.66-.53,2.08,2.08,0,0,1-.39-.64,1.64,1.64,0,0,1-.08-.65,1.83,1.83,0,0,1,.25-.78,2,2,0,0,1,.46-.57,1.44,1.44,0,0,1,.59-.3,1.47,1.47,0,0,1,.36,0l.28,0a2.09,2.09,0,0,1,.52.17l-.54,1a.85.85,0,0,0-.33-.07.39.39,0,0,0-.15,0,.54.54,0,0,0-.34.27.6.6,0,0,0,0,.57,1.42,1.42,0,0,0,.64.58,1.73,1.73,0,0,0,.57.23h.12a.71.71,0,0,0,.26-.05.59.59,0,0,0,.27-.27.57.57,0,0,0,.07-.45.75.75,0,0,0-.32-.4l.55-1a2.38,2.38,0,0,1,.46.41,1.53,1.53,0,0,1,.27.51,1.59,1.59,0,0,1,.06.65,1.81,1.81,0,0,1-.23.69,2.14,2.14,0,0,1-.48.59,1.54,1.54,0,0,1-.61.31,1.74,1.74,0,0,1-.45.06"/><path class="cls-1" d="M16,6.44h-.12a.55.55,0,0,0-.29.13.69.69,0,0,0-.19.33.8.8,0,0,0,0,.45,1.72,1.72,0,0,0,.33.52,1.4,1.4,0,0,0,.73.48h.13A.52.52,0,0,0,17,8.21a.57.57,0,0,0,.2-.32.77.77,0,0,0,0-.44,1.85,1.85,0,0,0-.34-.52,1.91,1.91,0,0,0-.34-.31,1.15,1.15,0,0,0-.31-.16.55.55,0,0,0-.18,0m.45,3h-.17a2.1,2.1,0,0,1-1.36-.76A2.21,2.21,0,0,1,14.44,8a1.82,1.82,0,0,1-.16-.65,1.57,1.57,0,0,1,.06-.55,2.15,2.15,0,0,1,.22-.46,1.9,1.9,0,0,1,.35-.4,1.94,1.94,0,0,1,.88-.47,1.55,1.55,0,0,1,.37,0,1.71,1.71,0,0,1,.59.11,2.25,2.25,0,0,1,.87.63,2.47,2.47,0,0,1,.54.91,1.78,1.78,0,0,1,0,1,1.71,1.71,0,0,1-.57.89,1.8,1.8,0,0,1-1.21.5"/><path class="cls-1" d="M19.76,7.14,18.25,3.6,19.58,3a4.1,4.1,0,0,1,.72-.26,1.43,1.43,0,0,1,.44,0,1.39,1.39,0,0,1,.38.12,1.31,1.31,0,0,1,.35.27,1.5,1.5,0,0,1,.25.41,1.47,1.47,0,0,1,.13.52,1.2,1.2,0,0,1,0,.44.92.92,0,0,1-.14.3,1.24,1.24,0,0,1-.2.21,1.82,1.82,0,0,1-.52.32l-.61.26.47,1.1-1,.45M19.65,4l.32.73.38-.16a1.26,1.26,0,0,0,.3-.16.32.32,0,0,0,.1-.19.45.45,0,0,0,0-.25.34.34,0,0,0-.25-.23,1,1,0,0,0-.47.11Z"/><path class="cls-1" d="M23.59,5.66l-.36-3.83L25,1.67a3.18,3.18,0,0,1,.61,0,1.18,1.18,0,0,1,.41.09,1,1,0,0,1,.29.2,1,1,0,0,1,.2.28,1.63,1.63,0,0,1,.09.38,1.25,1.25,0,0,1,0,.49.78.78,0,0,1-.21.35.72.72,0,0,1-.26.16,1.06,1.06,0,0,1,.5.27,1,1,0,0,1,.18.56l.07.6a.63.63,0,0,0,0,.15.1.1,0,0,0,.09,0v.11l-1.16.11a1.8,1.8,0,0,1-.11-.52l0-.28a.89.89,0,0,0-.09-.3.34.34,0,0,0-.18-.15.83.83,0,0,0-.33,0l-.46,0,.13,1.33-1.12.11m.92-2.28.55,0a.61.61,0,0,0,.37-.13.39.39,0,0,0,.08-.28.32.32,0,0,0-.13-.26A.57.57,0,0,0,25,2.59l-.56.06Z"/><polyline class="cls-1" points="28.06 5.53 28.68 1.74 29.82 1.92 29.2 5.72 28.06 5.53"/><polyline class="cls-1" points="30.48 5.95 32.08 2.45 33.06 2.9 33.32 5.28 34.17 3.41 35.18 3.87 33.58 7.37 32.58 6.91 32.33 4.58 31.5 6.41 30.48 5.95"/><polyline class="cls-1" points="37.04 5.13 39.41 7.34 38.72 8.08 37.96 7.37 36.03 9.44 35.18 8.65 37.11 6.58 36.35 5.87 37.04 5.13"/><polyline class="cls-1" points="37.42 10.99 40.76 9.09 42.18 11.59 41.39 12.04 40.53 10.51 40.06 10.78 40.79 12.07 40.03 12.51 39.3 11.21 38.77 11.51 39.67 13.1 38.87 13.55 37.42 10.99"/><path class="cls-1" d="M39.26,14.55,43,13.77l.32,1.57a2.08,2.08,0,0,1,0,1,1.37,1.37,0,0,1-.49.74,2.47,2.47,0,0,1-1,.44,2.6,2.6,0,0,1-.77.05,1.91,1.91,0,0,1-.6-.13,1.44,1.44,0,0,1-.4-.25,1.48,1.48,0,0,1-.29-.4,2.67,2.67,0,0,1-.22-.66l-.32-1.54m1.17.91.06.29a.94.94,0,0,0,.2.46.65.65,0,0,0,.37.18,1.63,1.63,0,0,0,.57,0,2.11,2.11,0,0,0,.38-.12.91.91,0,0,0,.27-.18.39.39,0,0,0,.13-.21,1.19,1.19,0,0,0,0-.48l-.06-.3Z"/><polyline class="cls-1" points="43.13 23.25 42.24 23.08 42.57 21.36 42.04 21.26 41.76 22.72 40.9 22.55 41.19 21.09 40.59 20.98 40.25 22.77 39.34 22.59 39.9 19.7 43.67 20.43 43.13 23.25"/><path class="cls-1" d="M40.22,27.89l-.27,0a2,2,0,0,1-.52-.16l.53-1a.85.85,0,0,0,.33.07.44.44,0,0,0,.16,0,.55.55,0,0,0,.33-.27.6.6,0,0,0,0-.57,1.42,1.42,0,0,0-.64-.58,1.78,1.78,0,0,0-.58-.22h-.11a.6.6,0,0,0-.27.06.59.59,0,0,0-.27.27.57.57,0,0,0-.06.45.75.75,0,0,0,.32.4l-.54,1a2.41,2.41,0,0,1-.46-.41,1.71,1.71,0,0,1-.28-.52,1.52,1.52,0,0,1-.07-.64,1.71,1.71,0,0,1,.23-.69,1.88,1.88,0,0,1,.48-.59,1.62,1.62,0,0,1,.6-.33,1.84,1.84,0,0,1,.47-.06h.19a2.41,2.41,0,0,1,.93.3,2.67,2.67,0,0,1,.66.52,2.08,2.08,0,0,1,.39.64,1.49,1.49,0,0,1,.09.65,2,2,0,0,1-.24.78,2.35,2.35,0,0,1-.46.57,1.35,1.35,0,0,1-.59.31,1.5,1.5,0,0,1-.37,0"/><path class="cls-1" d="M36.41,29a.52.52,0,0,0-.38.16.6.6,0,0,0-.2.32.7.7,0,0,0,.05.44,1.6,1.6,0,0,0,.33.52,2.36,2.36,0,0,0,.35.31,1.15,1.15,0,0,0,.31.16l.18,0h.13a.67.67,0,0,0,.28-.14.78.78,0,0,0,.19-.33.81.81,0,0,0,0-.45,1.47,1.47,0,0,0-.33-.51,1.39,1.39,0,0,0-.74-.48h-.12m.44,3a1.66,1.66,0,0,1-.58-.11,2.33,2.33,0,0,1-.88-.62,2.61,2.61,0,0,1-.54-.91,1.87,1.87,0,0,1,1.74-2.37h.17a2.09,2.09,0,0,1,1.36.75,2.3,2.3,0,0,1,.44.66,1.63,1.63,0,0,1,.16.65,1.87,1.87,0,0,1,0,.55,2,2,0,0,1-.22.46,1.9,1.9,0,0,1-.34.41,2,2,0,0,1-.88.47,1.65,1.65,0,0,1-.38.05"/><path class="cls-1" d="M33.24,30.22l1.55,3.53-1.33.57a4.32,4.32,0,0,1-.72.27,1.83,1.83,0,0,1-.44,0,1.46,1.46,0,0,1-.39-.12,1.23,1.23,0,0,1-.34-.26,1.6,1.6,0,0,1-.39-.94,1.15,1.15,0,0,1,0-.43,1,1,0,0,1,.13-.3,1.33,1.33,0,0,1,.21-.22,1.91,1.91,0,0,1,.51-.32l.6-.27-.47-1.09,1-.46m.14,3.13-.32-.74-.38.16a1.83,1.83,0,0,0-.31.17.31.31,0,0,0-.09.19.45.45,0,0,0,0,.25.32.32,0,0,0,.26.22.86.86,0,0,0,.46-.11Z"/><path class="cls-1" d="M29.42,31.73l.39,3.82-1.72.18a4.46,4.46,0,0,1-.61,0,1.24,1.24,0,0,1-.42-.09.94.94,0,0,1-.48-.48,1.23,1.23,0,0,1-.1-.38,1.09,1.09,0,0,1,0-.49.87.87,0,0,1,.2-.35A.68.68,0,0,1,27,33.8a1,1,0,0,1-.49-.27A1,1,0,0,1,26.3,33l-.08-.6a.34.34,0,0,0,0-.15.12.12,0,0,0-.09,0v-.12L27.25,32a2,2,0,0,1,.1.52l0,.29a.55.55,0,0,0,.09.29.34.34,0,0,0,.18.15.81.81,0,0,0,.33,0l.45,0-.13-1.33,1.11-.11M28.53,34l-.55.06a.55.55,0,0,0-.37.14.33.33,0,0,0-.08.28.35.35,0,0,0,.13.26.59.59,0,0,0,.38,0l.56,0Z"/><polyline class="cls-1" points="24.96 31.89 24.37 35.69 23.22 35.51 23.81 31.71 24.96 31.89"/><polyline class="cls-1" points="22.54 31.49 20.96 35 19.98 34.55 19.7 32.18 18.86 34.05 17.85 33.6 19.42 30.09 20.43 30.55 20.7 32.87 21.52 31.04 22.54 31.49"/><polyline class="cls-1" points="15.99 32.36 13.59 30.16 14.28 29.42 15.05 30.12 16.96 28.04 17.82 28.82 15.9 30.91 16.67 31.61 15.99 32.36"/><polyline class="cls-1" points="15.56 26.5 12.23 28.42 10.79 25.93 11.58 25.48 12.46 27 12.93 26.73 12.18 25.44 12.93 25 13.68 26.29 14.2 25.99 13.29 24.41 14.09 23.95 15.56 26.5"/><path class="cls-1" d="M13.69,23l-3.76.8-.34-1.57a2.23,2.23,0,0,1,0-1,1.41,1.41,0,0,1,.48-.74,2.41,2.41,0,0,1,1-.45,2.63,2.63,0,0,1,.77-.06,1.91,1.91,0,0,1,.6.13,1.51,1.51,0,0,1,.4.24,1.36,1.36,0,0,1,.3.41,2.58,2.58,0,0,1,.22.65L13.69,23m-1.17-.91-.06-.29a1.05,1.05,0,0,0-.2-.45.59.59,0,0,0-.38-.18,1.42,1.42,0,0,0-.57,0,2.11,2.11,0,0,0-.38.12,1.58,1.58,0,0,0-.27.18.53.53,0,0,0-.12.22,1,1,0,0,0,0,.48l.06.3Z"/><path class="cls-1" d="M25.8,24.76l.48-.18.5-.19.47-.19.48-.19.54-.21.49-.18.4-.13.27-.1.24-.11h.15l.1-.1.14,0c.39-.11.18.07.18.07-.24.25.07.17.07.17l.28-.18,0-.08a.44.44,0,0,0,.36-.36l.18,0c.74-.32,1.51-.44,2.28-.69l.17,0,.11-.1h.09l0-.05,0,0h0v-.06h0l0,0,.08.09.06-.06h.13l0,0v-.1l.05,0,0,0h.29l.06-.06.05,0,.08,0,0,0H34.6l0,.09.1,0h.13l0,0v-.07l.09-.08v-.09l-.06-.06v-.05l.06-.06h.12l0-.05h-.4l-.08.08h-.3l-.06.06,0,.05h-.07l-.05,0h-.08l.06,0V21.3h-.06l-.06.06h-1l0-.31-.33.1-.43.06-.56.18-.71.21c-.5.14-.27-.14-.27-.14a1,1,0,0,0,.06-.32c-.05-.46.29-.35.29-.35l.11-.11.2,0,.15-.15v-.17l-.08-.08-.09-.09V20c-.23-.23-.53.07-.53.07-.33,0,0-.14,0-.14s.42-.18.42-.18l.15,0,.13-.13h.23l.09-.09.28-.14.41-.11.41-.16.26-.1.07-.07.23,0,.09-.09h.21l.1-.1,0-.13c0-.11.14-.13.14-.13l.16-.09c.15-.1.1-.19.1-.19l0-.1-.09-.17-.05-.2,0,0H34v-.1L34,17.55l-.11-.11-.17-.08v.11c-.1.18-.24,0-.24,0l0-.14-.06-.15,0-.1h-.21l-.17,0v.07l-.2,0c-.21.06-.12-.05-.12-.05L33,17l0,0,.05-.05.11-.05.2,0a.27.27,0,0,0,.23-.35l0-.1-.06-.14v-.07l0-.11c-.15-.07,0-.18,0-.18l.18-.09.14-.05.15,0,.12-.06.14,0,0-.05.1-.1v0a.35.35,0,0,0,.31-.14v-.15c.16,0,.09-.21.09-.21l0-.24v-.1l.06-.06v-.08l0-.08c.06-.19-.2-.24-.2-.24a.35.35,0,0,1-.22.22.25.25,0,0,0-.23.12l-.07.06-.13.07-.14,0-.1.1h-.13l0,0v-.1l0-.12c0-.24-.24-.15-.24-.15h-.17l-.24.1c0-.36-.34-.24-.34-.24l-.15.06-.2.11c-.22.07-.09-.1-.09-.1l.1-.09.29-.27c.22-.17,0-.28,0-.28l-.17-.08-.05-.05h-.61l.08-.07.21-.12.19-.14s.08,0,.4-.33.13-.54.13-.54a2,2,0,0,1-.11-.39,2.34,2.34,0,0,0-.29-.49c0-.38-.54-.24-.54-.24s0-.07,0-.07l.09-.06a1.5,1.5,0,0,0,.31-.29c.24-.25,0-.37,0-.37l0-.09V10.2c-.13-.62-.59-.32-.59-.32h-.15c-.26.1-.53.08-.79.19l-.26.07c-.2.07-.06-.06-.06-.06l.18-.11.18-.1.22-.1.25-.13.18-.08.11,0h.11l.18,0c.32-.18,0-.28,0-.28h-.21l-.27.07-.85.42-.21.09-.21.15-.23.19c-.33.19,0,.43,0,.43h.33l.17,0a.8.8,0,0,0,.34-.08h.18l.13-.06.23,0c.34-.13,0,0,0,0l-.09.09-.24.08-.28.13-.13.14-.13,0h-.14l-.13,0-.11,0-.11.05-.13,0h-.24c-.43,0-.29.2-.29.2l.14.31.21.3.11.21.11,0,.09.1.12,0,0-.1a11.21,11.21,0,0,1,1.49-.52l.23-.08c.27-.07,0,.07,0,.07l-.39.15-.4.14-.48.18-.57.25-.22.12-.14,0-.07-.18-.12-.12h-.24l0,.07-.09.09-.1.1c-.13,0-.38.23-.38.23h-.17v.13h-.14l-.06-.06-.08-.19-.15,0c-.25-.24-.43-.33-.71-.63l-.08-.05c-.14-.3-.15,0-.15,0,0,.32-.3.32-.3.32-.3,0-.33.23-.33.23h-.16l-.1.05-.07.07-.08.08-.1.05-.08.08h-.11l-.06.05-.06.06h-.08l-.07.07-.14.08-.12.08c-.19,0-.27.18-.27.18-.16,0-.38.24-.38.24h-.1l0,0-.08.09-.05.05-.09,0c-.11,0-.07,0-.07,0a.06.06,0,0,1,.07-.06l.08,0,.15-.15a2.24,2.24,0,0,0,.52-.36l.17-.05c.08-.19.44-.25.44-.25l.09-.09.17-.17.06-.06.13,0,.14-.14a.57.57,0,0,1,.36-.18l.16-.21.12,0,.13-.09,0,0,.12,0a2,2,0,0,0,.45-.53.48.48,0,0,0,.07-.22v0a2.81,2.81,0,0,1,0-.29l0,0s0,0,0,0v.06l0,0h0l0,0V10.5h-.05l-.05-.06-.05,0-.05-.05v-.09l0,0,0-.07a.07.07,0,0,0-.1,0l0,0h-.12l-.08.1H27v.07l-.29.13-.07.08-.1.09-.27.08-.12.13-.29.16c-.17,0-.07-.07-.07-.07l.34-.24a.62.62,0,0,1,.2-.26l.14-.08.24-.32a.34.34,0,0,0,0-.45c.11-.28-.16-.23-.16-.23l-.11.1-.17.11L26,9.68l-.16,0-.17.17-.24.12-.17,0-.08.09-.25.15a3.31,3.31,0,0,0-.69.38c-.41.23-.11,0-.11,0l.05-.08c0-.08.15-.13.15-.13l.15-.15h.12c0-.1.17-.17.17-.17l.19-.19.22-.22.63-.47A.35.35,0,0,1,26,8.91V8.66l-.06-.05,0,0c.08-.25-.14-.06-.14-.06h-.13l-.12.1-.19.1-.1.11h-.1l-.14.07L24.85,9l-.15,0L24.63,9h-.12c0-.39.92-.9.92-.9.31-.18,0-.29,0-.29l-.11.06-.13,0-.14,0-.22.18c-.68.43-.67.92-.67.92-.08.31,0,.27,0,.27l.15.1c.15.08-.08.08-.08.08l-.1.11-.12.12H24l-.08.08-.21.21H23.6l-.13.13-.39.28-.16,0-.23.23-.3.21a.47.47,0,0,1-.36.18l-.31.31.17.07c.14-.06.23.12.23.12.11.32.33.33.33.33h.26l.2-.06.16-.09v-.12h.05v.08h.14v-.11h.08l.14-.06.23-.1.18-.25.17,0,.09-.09,1-.41-.75.51-.41.28-.54.4-.66.53a6.26,6.26,0,0,0-.93.71h-.12v.16a3,3,0,0,0-.94.74l-.28,0c-.42.22-.1.2-.1.2.15-.15.25.06.25.06a.8.8,0,0,1,.31.15c.24.23.4.17.4.17.08-.15.44-.26.44-.26,0-.17.29-.23.29-.23l.36-.17.3-.24c.41-.26.06.19.06.19h-.13v.08l-.19,0-.42.35v.08H21.9s.05.22,0,.15-.2,0-.2,0l-.27.27-.22.2c-.37-.31-.08.07-.08.07l-.16.16c-.18.25,0,.28,0,.28l.33.33.05.14.24.15c.19.35.45.14.45.14l.38-.21.07-.07.13,0,.21-.11h.11l.09-.1.25-.14.38-.15.26-.12a1.7,1.7,0,0,1,.37-.16l.22-.09c.5-.11.05.15.05.15l-.18.09-.2.1-.23.12a.66.66,0,0,0-.27.13l-.26.07a11.9,11.9,0,0,1-1.46.77l-.18.08c-.32.32-.19,0-.19,0,.11-.44-.38-.28-.38-.28l-.24.12-.35.15c-.33.12-.24-.15-.24-.15a.14.14,0,0,0-.14-.14l-.07-.05A.18.18,0,0,1,20,16l.06-.19c-.19-.12-.13-.2-.13-.2s.08-.21.08-.21c.2,0,.05-.22.05-.22l0-.12c.28-.16.08-.31.08-.31a.28.28,0,0,0-.33,0,.25.25,0,0,0-.11.36l.21.21c-.17,0-.51.33-.51.33s0,.2,0,.2c.18.18,0,.19,0,.19l-.16.19a.86.86,0,0,0-.48.3h-.12l-.18.18-.3.16c-.29,0-.2.19-.2.19a2.45,2.45,0,0,1,.12.51h.11v.14a.82.82,0,0,1,.44.09l-.4.27a.9.9,0,0,0-.22.06l-.22.17-.32.21-.5.29h-.12l0,.14c-.15.15,0,.13,0,.13s.09,0,.09,0c-.19.06-.15.15-.15.15l0,.17.22.19c0,.17.27.14.27.14l.28-.13c.32-.32.35,0,.35,0l.13.25c-.13.21,0,.27,0,.27a1.63,1.63,0,0,0-.69.41l-.15,0c-.37.37-.46.16-.46.16-.5-.41-.46,0-.46,0v.28l.09.25.11.11c.49.22.42.52.42.52l.27.35c.27.36.43.15.43.15a2.43,2.43,0,0,1,.52-.24l.16-.09c.3-.3.39,0,.39,0l.15.15c.25.25.37,0,.37,0,.2-.12.15.07.15.07s0,.46,0,.46v.31c0,.3-.15.27-.15.27a1,1,0,0,0-.4.15l-.33.19-.61.29c-.06.15-.17.15-.17.15a.76.76,0,0,0-.23,0l-.18.2a.39.39,0,0,0-.19.06,5.48,5.48,0,0,1-.66.35.56.56,0,0,1-.36.18c0,.26-.21.21-.21.21l-.34-.05v.08c-.06.52.56.82.56.82l.35,0c.34.21.45,0,.45,0l.93-.6L19,25l1.58-.8L22,23.48l.66-.27-.32.31-.34.25a.57.57,0,0,1-.27.24l-.28.27-.26.19-.33.25-.58.46-.32.32a11.26,11.26,0,0,0-1.35,1.35c.07.24-.13.25-.13.25l.09.07-.05,0c0,.3.17,0,.17,0l.14.15a.53.53,0,0,0,.08.26l.46.35.29-.16A30.2,30.2,0,0,1,25.26,25l.54-.25m5.72-7.09v0h-.05l0,0,0,0,0,0h0v0h0l0,0h.07Zm.12-.07h0v0h0v0Zm.26-.06h-.06v0l0,0h-.08l0-.07v0h.07c.05,0,.08,0,.08,0Zm-.7-3.32.3-.14.08-.05.1,0,.11-.05,0,0h.05a.62.62,0,0,1,.33-.09l-.11.11a1.36,1.36,0,0,0-.34.21l-.14,0v.06l0,0h0s-.08-.14-.27.05h-.13l0,0h0s0-.05.12-.08m-.38,3.66.07,0,0,.05s-.11,0-.11,0,0-.05,0-.05m-.4.21.09-.05.07.06-.19,0ZM26.79,10.9c.17-.11.2-.2.2-.2l.06-.06c.13,0,.11-.14.11-.14h.09a.15.15,0,0,1,0,.26c-.13,0-.1.05-.1.05l0,0C27,10.83,27,11,27,11c-.1.18-.24.08-.24.08s.07-.13.07-.13m-.21.16v0h0l0,0,0,0,0,0h0v0l0,0h0v-.09Zm-3,2.14h0l0,0v0l0,0,0,0Zm.18.56,0,0v.07l0,0-.05,0v-.09l.05,0h.05Zm6,6.68s.1,0,.1,0l0-.05.09,0,.09-.05c.15-.05.12.05.12.05a.58.58,0,0,0-.2,0l-.1,0v0a.25.25,0,0,1-.22.06c.12,0,.09-.06.09-.06M28,17.53l.12-.06.12,0,.06-.06.1,0,.08-.05.1-.06.09,0s.12-.09.15-.06,0,.05,0,.16-.16,0-.16,0v.05h0v0H28.6v.08a.26.26,0,0,0-.23.1.25.25,0,0,0-.2.13l0,0s0-.08-.07-.1-.08-.05,0-.07m-.84-4.18s.22-.1.22-.17l.12,0,0-.19a.47.47,0,0,0,.21-.21l.17.13-.34.26a.17.17,0,0,0-.05.1s-.27,0-.37.15Zm-4.7,5.88a.43.43,0,0,0,.3-.19v-.43l0-.19a.19.19,0,0,0,0-.13v-.14l0-.11c.15,0,.12-.21.29-.19s.3-.11.38-.15l.42-.2a4.08,4.08,0,0,1,.51-.26c.22-.06.13,0,.12,0l.06,0-.34.18c-.15,0-.14.11-.14.11s-.06.14-.06.14-.27.14-.27.14c-.47,0-.14.33-.14.33a.28.28,0,0,1,.13.19c0,.19.25.15.25.15s.13,0,.13,0-.12.12-.17.06-.09,0-.09,0v.07c-.32.18-.42.17-.42.17l0,.08c-.25-.24-.21,0-.21,0l-.22.17-.06,0c0,.17-.14.14-.14.14a.07.07,0,0,0-.07-.07v.11h0c0-.07-.07,0-.07,0-.25.08-.19-.07-.19-.07M21,19.05l.2-.13.25-.13.06,0,.06-.06h.09l.16-.09.13-.07.14-.07.08-.06h.07a.07.07,0,0,1,0-.07l.1,0s.15-.07,0,0l-.11.11a1.06,1.06,0,0,0-.34.26.21.21,0,0,1-.17,0,2.17,2.17,0,0,0-.3.13h-.07a.7.7,0,0,0-.12.15l-.14,0,0,0H21v.06s-.16.06-.21,0Zm-1,.36s.13.12.11.12-.35.14-.39.14.24-.26.28-.26m4.83,2.28,0,.16,0,.38,0,.3v.22a1,1,0,0,1-.07.74c.17.17,0,.34,0,.34l-.37.34c-.2.07-.82.33-.82.33l-1,.55L22.36,25l-.15.06-.05.06-.18.09-.12,0-.11.15-.14-.07-.06.13-.52.29-.27.08.08-.08.66-.61A.91.91,0,0,0,22,24.7a.31.31,0,0,0,.25-.12c0-.11.21-.22.21-.22l.12,0,.09-.1.06-.05h.06v-.09l.07-.06.06-.07.18-.05.24-.24.37-.38c.23-.06.11-.35.11-.35s-.1-.29-.1-.29l-.17-.31c.16-.15-.15-.15-.15-.15v-.08c.32-.07.1-.1.1-.1h-.12l-.09.09-.08,0h-.11L23,22v.09h-.1L22.76,22h-.21l-.09.09h-.18a1.33,1.33,0,0,0-.6.29c-.08-.08-.46.14-.46.14l-.15,0-.09.09-.11,0-.09.09-.24.11-.22.08s-.54.37-.54.24a1.31,1.31,0,0,0-.13-.39l0-.17v-.05l0,0V22.4l0,0v-.19a.32.32,0,0,1,.13-.29l0,0,.05,0v-.08H20l.06-.06.14-.06.17-.05.3-.17c.35-.2.16-.3.16-.3l-.16-.31c-.13-.25.13-.24.13-.24l.27-.12a1.32,1.32,0,0,1,.47-.24L22,20.1c.39,0,.14-.32.14-.32l.47-.18.19.16h-.13v.11c-.3.14-.15.31-.15.31l.25.25c.3.3.39.06.39.06a.53.53,0,0,0,.23-.11l0,0a1,1,0,0,1,.26-.1l.1-.13.2,0,.2-.13.4-.21c.15-.14.18-.05.18-.05,0,.22-.25.19-.25.19a.22.22,0,0,0-.18.2l.32.43.19.3-.06.58.12.17-.07.07Zm.34-4.62,0,.05c-.12-.11-.18.06-.18.06l-.24.12c-.08,0,0-.16,0-.16l.06-.06a.23.23,0,0,1,.13,0,.8.8,0,0,0,.22-.07l.11-.12h.14l0-.1a.44.44,0,0,0,.28-.07l.07-.07c.18,0,.2-.06.2-.1s.13,0,.13,0c0,.25-.21.16-.21.16v.09a.38.38,0,0,0-.2,0v.08a.34.34,0,0,0-.23.1h-.09l0,.09,0,0-.09,0Zm0,6.35c.18-.08.17-.5.17-.5v-.28l0-.18,0-.22.08-.09V20.66c0-.36.17-.39.17-.39l.25-.14c.34-.19.26-.26.26-.26L26,19.7c-.06-.44-.34-.34-.34-.34l-.32.15v-.17l.07-.07A1.09,1.09,0,0,0,25.9,19a.31.31,0,0,1,.39,0l.09.08v.12c0,.52.17.26.17.26a1.53,1.53,0,0,1,.47-.25l.44-.24c.48-.26.59.05.59.05l-.09.09.12.12-.21.06-.09.09h-.24l-.06.05v.07l.11.12c-.41.07.05.14.05.14.47.26-.06.31-.06.31s-.22.28-.3.21-.32.09-.32.09l-.33.22-.08-.09-.07.07-.07-.08-.13,0,.09.09.05.17c.18.18-.05.23-.05.23-.22,0-.1.09-.1.09l.34.34c.21.21.33.11.33.11l.16-.07a.39.39,0,0,0,.52.06c.08-.18.41-.23.41-.23l.12-.12.15-.06.18-.12.59-.3a.35.35,0,0,0,.25-.13l.24-.09v.23l.09.08.15.17c.07.33.49.11.49.11v.75h-.14l-.09.09H30l-.1.09h-.13L29.68,22l-.16.15H29.3l-.28.15a.49.49,0,0,0-.33.12l-.1,0-.13,0h-.14l-.12,0-.2.12a2.77,2.77,0,0,0-.83.31l-.28.08a.68.68,0,0,0-.32.14l-.1.1h-.23l-.09.08H26l-.07.07-.15.07h-.12l-.09.1h-.13l0-.05-.06-.06h-.12Zm13.13-1.91-.09.1-.07-.09.1-.06,0,0,.11-.08-.18,0,0,.09-.07.11-.17,0-.06-.09-.06-.06s-.39.12-.72.19-.65.14-.9.21-.7.17-1.1.29-.78.21-.93.27l-.62.23a7.46,7.46,0,0,0-.76.23c-.34.13-.69.28-.9.33a5.74,5.74,0,0,0-.68.21c-.24.07-.53.2-.68.24a2.75,2.75,0,0,0-.57.18,2.45,2.45,0,0,1-.46.18c-.09.05-.1,0-.21.08a2.38,2.38,0,0,1-.39.18c-.14.06-.24.12-.33.15a2.67,2.67,0,0,0-.42.15,3.17,3.17,0,0,1-.38.18,1.67,1.67,0,0,1-.24,0s-.06.13-.15.15a1.64,1.64,0,0,0-.25.07l-.18.11a.39.39,0,0,0-.19.07c-.08.07-.12.16-.17.16s-.12.06-.21.07l-.39.2a3.1,3.1,0,0,0-.32.18c-.06,0-.23.12-.27.16a2.38,2.38,0,0,1-.27.22c-.05,0-.06.07-.14.13l-.26.2s.34.57.8.57a4.73,4.73,0,0,1,1.32-1,29.54,29.54,0,0,1,4.53-2c2.49-.9,5.62-1.81,5.62-1.81S38,22,38.07,22l.18-.05.15-.12v-.3Z"/><path d="M5.06,46.48c-.12-.19-.34-.1-.51-.15a2.56,2.56,0,0,1-1.72-2.49c0-1.16,0-2.31,0-3.46,0-.25.06-.35.34-.36,1.23,0,1.23,0,1.23,1.17,0,.69,0,1.38,0,2.08a1.66,1.66,0,0,0,1.7,1.65c1,0,1.93,0,2.89,0,.29,0,.39.08.37.36s0,.8,0,1.2Z"/><path d="M34.7,46.48a1.68,1.68,0,0,1-1.36-1.16,2.81,2.81,0,0,1,.25-2.3,1.68,1.68,0,0,1,1.54-.75,1.45,1.45,0,0,1,1.32,1.17c.3,1.1.23,1.18-.91,1.18-.34,0-.68,0-1,0s-.35.15-.29.37a.84.84,0,0,0,.77.68,1.42,1.42,0,0,0,.77-.13c.35-.19.48-.09.6.24s-.17.39-.36.5-.53,0-.75.2Zm.12-2.57c.72,0,.72,0,.72-.23a.66.66,0,1,0-1.31,0C34.29,44.12,34.66,43.79,34.82,43.91Z"/><path d="M39.09,46.48a2.77,2.77,0,0,1-1.73-3.43,2.91,2.91,0,0,1,.82-1.89,2,2,0,0,1,2.38,0c.31.27,0,.42-.1.62s-.24.12-.39,0a.93.93,0,0,0-1.55.69,5.69,5.69,0,0,0,0,2.29.91.91,0,0,0,1.44.72c.37-.17.51-.06.66.26s-.16.4-.36.54-.41,0-.55.19Z"/><path d="M12.72,46.48A2.43,2.43,0,0,1,11,43.63a3.94,3.94,0,0,1,.46-2,2,2,0,0,1,2.77-.45c.31.25,0,.39-.09.57s-.15.26-.38.12c-.81-.51-1.44-.26-1.59.65a5.7,5.7,0,0,0,.05,2.29c.21.84.66,1.08,1.43.73.39-.19.52,0,.66.27s-.17.38-.34.51-.44,0-.6.2Z"/><path d="M27.22,46.48a1.24,1.24,0,0,1-1-1.23,1.17,1.17,0,0,1,.81-1.16,3.2,3.2,0,0,1,.91-.18c.2,0,.41.05.4-.28s0-.53-.39-.57a1.63,1.63,0,0,0-.95.13c-.25.12-.34,0-.39-.21s-.19-.42.13-.52a3,3,0,0,1,1.82-.09,1,1,0,0,1,.69,1,10.44,10.44,0,0,0,.05,2c.12.58.09.93-.51,1.11h-.1L28.48,46a2.89,2.89,0,0,1-.79.48ZM28.36,45c0-.22.13-.54-.34-.51s-.83.25-.83.66a.53.53,0,0,0,.54.56C28.13,45.78,28.35,45.51,28.36,45Z"/><path d="M42.27,46.48c-.84-.38-1.1-.81-.93-1.58a1.08,1.08,0,0,1,.84-.83c.27-.07.54-.11.82-.16s.43.09.41-.26,0-.56-.41-.6a1.87,1.87,0,0,0-1,.14c-.21.1-.3,0-.35-.19s-.24-.43.08-.53a2.85,2.85,0,0,1,1.91-.08.94.94,0,0,1,.64.92v1.75a.84.84,0,0,0,0,.32.69.69,0,0,1-.48,1.1h-.09c-.11-.38-.3-.53-.64-.19-.1.11-.3,0-.39.19ZM43.41,45c0-.51,0-.51-.36-.5s-.82.26-.83.63a.57.57,0,0,0,.57.6C43.21,45.75,43.41,45.52,43.41,45Z"/><path d="M31.43,46.48a1.1,1.1,0,0,1-.75-1.22c0-.59,0-1.19,0-1.79,0-.26-.07-.37-.33-.36s-.41,0-.41-.35.15-.36.4-.33.36-.12.34-.36,0-.21,0-.32a.63.63,0,0,1,.81-.6c.12,0,.11.13.12.21.05.34-.13.75.1,1s.65,0,1,.11q0,.76-.72.66c-.24,0-.34.07-.33.31,0,.57,0,1.14,0,1.71,0,.36.23.54.55.41.49-.2.49.11.57.42s-.24.34-.44.4-.19,0-.24.11Z"/><path d="M15.9,46.48a1.15,1.15,0,0,1-.71-1.16c0-1.43,0-2.86,0-4.29,0-.52.51-.34.79-.42s.18.25.18.39c0,1.35,0,2.71,0,4.06,0,.31,0,.57.45.51s.21.22.26.35.12.33-.1.44-.19,0-.22.12Z"/><path d="M46.2,46.48a1.08,1.08,0,0,1-.74-1.17c0-1.39,0-2.77,0-4.16,0-.39.22-.57.75-.55.35,0,.22.32.22.49,0,1.33,0,2.65,0,4,0,.29,0,.54.45.51s.21.35.29.54-.1.25-.26.27a.36.36,0,0,0-.25.1Z"/><path d="M49.1,46.48c-.62-.21-1.17-.5-1.32-1.2a3,3,0,0,1,.1-2,1.79,1.79,0,0,1,2.81-.61v.09a.45.45,0,0,0-.11.13c-.15.35-.31.43-.69.2a.73.73,0,0,0-1.09.48,2.69,2.69,0,0,0-.06,1.32c.11.72.62.95,1.3.64.18-.08.26-.12.38.11s.11.55-.28.67c-.16,0-.35,0-.48.14Z"/><path d="M20.22,44.47a9.56,9.56,0,0,0-.09-1.73c-.11-.41.31-.28.49-.39s.37-.09.41.18.07.31.31.14c.82-.57,1-.56,1.79,0,.17.13.21,0,.3-.07a1.61,1.61,0,0,1,1.26-.33.72.72,0,0,1,.63.7c0,1,.05,2,0,3,0,.46-.4.19-.61.25s-.33,0-.32-.3c0-.76,0-1.51,0-2.26,0-.25,0-.53-.28-.64s-.47.06-.68.19-.18.27-.18.44c0,.74,0,1.48,0,2.22,0,.39-.21.37-.47.35s-.54.12-.53-.34c0-.79,0-1.57,0-2.36,0-.27-.07-.57-.43-.52s-.65.13-.64.57c0,.77,0,1.54,0,2.31,0,.47-.3.33-.54.34s-.51.09-.48-.33S20.22,45,20.22,44.47Z"/><path d="M7.38,44.44c.56-1,.54-1.75,0-2.35S6.05,41.41,4.88,42c0-.57,0-1.11,0-1.66,0-.2.06-.28.27-.27a16.28,16.28,0,0,1,2.09.07,2.44,2.44,0,0,1,2.1,2.34c0,.56,0,1.13,0,1.7,0,.17,0,.3-.24.3Z"/><path d="M18.91,44.4c0,.51,0,1,0,1.52s-.23.37-.49.38-.48,0-.46-.37c0-.81,0-1.63,0-2.44,0-.27,0-.41-.35-.37s-.42-.08-.41-.39.23-.3.44-.3c1.26,0,1.26,0,1.26,1.23v.74Z"/><path d="M7.28,43.24a1.18,1.18,0,0,1-1.2,1.2,1.19,1.19,0,1,1,0-2.38A1.17,1.17,0,0,1,7.28,43.24Zm-.7,0c-.09-.21-.2-.45-.5-.42a.46.46,0,1,0,0,.92C6.36,43.71,6.52,43.52,6.58,43.21Z"/><path d="M19.07,41.21a.68.68,0,0,1-.66.64.66.66,0,0,1-.62-.67.59.59,0,0,1,.63-.6A.61.61,0,0,1,19.07,41.21Z"/><path d="M28,76.22a11.43,11.43,0,0,0,.47,3.39c.07.25,0,.32-.23.32a8.53,8.53,0,0,0-1,0,.34.34,0,0,1-.4-.26,10.18,10.18,0,0,1-.63-5.18,10.32,10.32,0,0,1,12.1-8.8,10.35,10.35,0,0,1,7.8,13.83c-.11.3-.26.46-.61.42a7,7,0,0,0-.92,0c-.17,0-.26,0-.19-.24a12,12,0,0,0,.35-5.38A9.87,9.87,0,0,0,40.09,67a6.89,6.89,0,0,0-7.81.25,9.66,9.66,0,0,0-3.79,5.36A11.67,11.67,0,0,0,28,76.22Z"/><path d="M43.92,77a7.51,7.51,0,0,1-3.16,1.67,9.42,9.42,0,0,1-4.57,0c-.09,0-.24,0-.27-.11s.1-.16.18-.22A8.16,8.16,0,0,1,42,76.65,8.86,8.86,0,0,1,43.92,77Z"/><path d="M35.32,79c0,.23,0,.46,0,.69s-.07.28-.27.26a2.8,2.8,0,0,0-.41,0c-.22,0-.27-.08-.26-.28,0-.86.09-1.72.15-2.58a9.23,9.23,0,0,1,2-5.08.33.33,0,0,0,0-.37,1.18,1.18,0,0,1,.58-1.45,1.15,1.15,0,0,1,1.48.4,1.1,1.1,0,0,1,.07,1.19,1,1,0,0,1-1.06.61.61.61,0,0,0-.61.32,8.1,8.1,0,0,0-1.26,2.94A13.41,13.41,0,0,0,35.32,79Z"/><path d="M31.13,84.7H41.57a8.37,8.37,0,0,1-3.66,1.37A10,10,0,0,1,31.13,84.7Z"/><path d="M32.88,76.72a4.85,4.85,0,0,1-4.22-2.5c-.21-.36-.2-.38.23-.44a4.72,4.72,0,0,1,4.27,1.4,8.17,8.17,0,0,1,.92,1.12c.13.18.16.29-.12.33A7.37,7.37,0,0,1,32.88,76.72Z"/><path d="M42.21,72.09a1.54,1.54,0,1,1-1.53-1.54A1.55,1.55,0,0,1,42.21,72.09Z"/><path d="M38.17,69a1.52,1.52,0,1,1,1.52,1.53A1.52,1.52,0,0,1,38.17,69Z"/><path d="M38.19,75.65a1.53,1.53,0,1,1,1.54-1.52A1.54,1.54,0,0,1,38.19,75.65Z"/><path d="M34.66,69.84a1.53,1.53,0,0,1,0,3,1.53,1.53,0,0,1,0-3Z"/><path d="M34.94,68.47a1.52,1.52,0,0,1,3,0,1.52,1.52,0,1,1-3,0Z"/><path d="M32.78,82.27a2.46,2.46,0,0,1-.14,1,1.06,1.06,0,0,1-.93.79,1,1,0,0,1-1-.6,2.79,2.79,0,0,1,0-2.33.93.93,0,0,1,1.09-.57,1,1,0,0,1,.84.75A2.37,2.37,0,0,1,32.78,82.27Zm-1.48,0c0,.26,0,.52,0,.78s.09.32.28.32.26-.16.28-.32a6.61,6.61,0,0,0,0-1.54c0-.16-.08-.32-.28-.32s-.27.16-.28.32S31.31,82,31.3,82.27Z"/><path d="M41.07,82.29a3.06,3.06,0,0,1,.15-1.09.93.93,0,0,1,.81-.66.84.84,0,0,1,.93.56,3.15,3.15,0,0,1,0,2.34A.84.84,0,0,1,42,84a.89.89,0,0,1-.8-.7A3.21,3.21,0,0,1,41.07,82.29Zm1.26,0h0c0-.28,0-.56,0-.85,0-.12,0-.27-.21-.27s-.21.13-.22.26a12.06,12.06,0,0,0,0,1.7c0,.13.05.27.21.27s.21-.13.22-.25C42.34,82.85,42.33,82.57,42.33,82.28Z"/><path d="M40.87,82.22a3.14,3.14,0,0,1-.2,1.18.89.89,0,0,1-.86.62.83.83,0,0,1-.87-.6,3.4,3.4,0,0,1,0-2.29.83.83,0,0,1,.91-.59.91.91,0,0,1,.83.66A3,3,0,0,1,40.87,82.22Zm-1.31,0a7.72,7.72,0,0,0,0,1c0,.13.08.22.22.21s.18-.1.19-.21a6.7,6.7,0,0,0,0-1.79c0-.11-.06-.23-.21-.23s-.2.13-.21.26C39.58,81.7,39.57,82,39.56,82.17Z"/><path d="M29.25,84.05a1.17,1.17,0,0,1-1-.68c-.07-.14-.06-.23.1-.29a2.3,2.3,0,0,0,.32-.15c.1-.06.17,0,.22.08a.7.7,0,0,0,.09.17.37.37,0,0,0,.38.16.23.23,0,0,0,.22-.2.33.33,0,0,0-.17-.37,4.78,4.78,0,0,0-.45-.23,1,1,0,0,1-.66-1,1,1,0,0,1,.52-.94,1,1,0,0,1,1.41.49c0,.08.05.15,0,.19l-.4.2c-.2.09-.2-.12-.3-.2s-.28-.16-.41,0a.24.24,0,0,0,.09.38c.2.12.43.21.64.33a1,1,0,0,1,.49,1.21A1.1,1.1,0,0,1,29.25,84.05Z"/><path d="M38.23,81.6v.6c0,.18-.06.38.25.39s.09.21.1.32,0,.25-.11.25c-.31,0-.24.2-.24.36,0,.42-.25.58-.65.44-.15,0-.1-.17-.1-.26,0-.53,0-.53-.54-.53s-.66-.25-.43-.72.58-1.12.88-1.68a.81.81,0,0,1,.79-.16c.07,0,0,.13,0,.2Zm-1.2,1c.49,0,.61-.2.4-.8Z"/><path d="M44.86,82c0,.37,0,.74,0,1.11,0,.17,0,.29.23.27s.19.2.21.35,0,.24-.23.24q-.59,0-1.17,0c-.19,0-.24-.08-.22-.25s-.08-.37.22-.34.23,0,.23-.21c0-.5,0-1,0-1.49,0-.15,0-.22-.21-.16s-.22.09-.22-.06-.13-.39.09-.51a5.15,5.15,0,0,0,.61-.33c.25-.16.46,0,.46.27Z"/><path d="M35.65,82v1.17c0,.15,0,.24.21.23s.2.21.22.37S36,84,35.84,84q-.57,0-1.14,0c-.2,0-.23-.1-.21-.26s-.09-.35.19-.33.25-.08.25-.26c0-.48,0-1,0-1.42,0-.13,0-.24-.18-.19s-.24.11-.24-.07-.12-.39.11-.5a4.83,4.83,0,0,0,.55-.3c.28-.18.49,0,.49.26Z"/><path d="M27.92,82.31c0,.46,0,.92,0,1.39,0,.19-.05.29-.26.27a1.71,1.71,0,0,0-.32,0c-.15,0-.2-.07-.2-.21q0-1.49,0-3c0-.14.05-.22.2-.21a.56.56,0,0,0,.13,0c.45,0,.45,0,.45.43Z"/><path d="M27.12,67.84c0,.25.16.48.05.62s-.37,0-.61.1c.24.19.45.37.66.55s.17.11.07.22-.15,0-.22,0l-.91-.72c-.05,0-.14-.08-.09-.18a.2.2,0,0,1,.17-.12h.19c.51,0,.51,0,.4-.52,0-.12-.1-.26,0-.34s.22.07.31.14c.26.19.51.4.76.61.07,0,.2.09.1.22s-.18,0-.27,0Z"/><path d="M35.48,63.64c-.06,0-.09,0-.11.08-.31.39-.31.39-.68.05l-.12-.06c0,.3.07.56.09.83,0,.09.06.2-.09.23s-.14-.1-.15-.18c-.05-.39-.09-.78-.14-1.16,0-.07,0-.13.06-.16a.18.18,0,0,1,.23,0l.43.52c.17-.26.28-.44.39-.62a.2.2,0,0,1,.21-.1c.08,0,.08.08.09.14.05.39.1.77.14,1.16,0,.09.06.2-.09.22s-.15-.11-.16-.21C35.55,64.17,35.51,63.92,35.48,63.64Z"/><path d="M48.28,78.82c0-.22-.33-.31-.27-.5s.33-.15.47-.32a3.56,3.56,0,0,0-.76-.2c-.11,0-.22,0-.18-.19s.14-.08.23-.06l1,.22c.07,0,.18,0,.2.11s-.05.17-.13.23-.48.12-.51.32.22.31.34.47a.21.21,0,0,1,0,.23c-.06.11-.14.06-.22.05L47.46,79c-.1,0-.2,0-.18-.17s.14-.09.23-.08A3.26,3.26,0,0,0,48.28,78.82Z"/><path d="M44.67,66.75c-.24-.06-.46.15-.61,0s0-.37-.1-.61l-.54.64c-.06.07-.11.16-.23.07s0-.16,0-.23l.73-.87s.09-.13.18-.09.12.11.12.2-.1.49,0,.61.39-.06.6-.08.17,0,.22.08,0,.15-.06.21l-.73.87c-.05.06-.1.15-.2.07s-.06-.16,0-.24Z"/><path d="M38.93,64.45c0-.34.09-.6.14-.86,0-.09,0-.23.18-.19s.09.14.07.23c-.06.35-.12.7-.19,1.05,0,.08,0,.21-.12.22s-.16-.06-.21-.15c-.22-.36-.44-.71-.68-1.12-.06.33-.11.61-.15.88,0,.09,0,.21-.16.19s-.09-.13-.08-.21l.18-1c0-.09,0-.24.14-.25s.16.11.22.2c.16.28.33.56.5.84Z"/><path d="M24.7,76.29h-.85c-.07,0-.18,0-.18-.1s.1-.13.18-.13L25,76c.08,0,.18,0,.21.08a.21.21,0,0,1-.08.22l-.93.85.06.09.82-.06c.1,0,.21,0,.23.1s-.12.12-.2.13l-1.1.1c-.08,0-.18,0-.22-.07a.18.18,0,0,1,.09-.22l.9-.84Z"/><path d="M29.8,66.24c-.21-.28-.38-.5-.53-.72-.05-.06-.13-.13,0-.21s.17,0,.23.07c.22.29.45.58.66.88.05.06.15.12.09.21s-.17.09-.28.07l-1-.22a.26.26,0,0,0-.21,0l.51.68c.05.07.13.13,0,.21s-.16,0-.21-.07c-.23-.29-.45-.59-.67-.88,0-.07-.15-.12-.09-.21s.16-.09.26-.07l1.05.22Z"/><path d="M26.55,69.69l-.79-.44c-.07,0-.2-.07-.12-.21s.16-.06.24,0l.95.55c.07,0,.18.06.16.17s-.11.14-.21.16c-.4.07-.8.16-1.28.26l.76.43c.07.05.2.07.13.21s-.18,0-.26,0c-.32-.17-.64-.36-1-.54-.05,0-.15-.06-.13-.15a.18.18,0,0,1,.18-.15Z"/><path d="M46.2,68.33l-.73.51c-.07,0-.14.16-.24,0s0-.18.11-.24l.9-.64c.06,0,.11-.12.19-.07a.2.2,0,0,1,.07.25c-.06.2-.11.41-.16.61s-.09.41-.14.68l.73-.51c.07,0,.14-.14.23,0s0,.16-.1.21l-.9.63c-.06,0-.11.15-.21.07s-.08-.16-.06-.26C46,69.21,46.08,68.81,46.2,68.33Z"/><path d="M25.19,72.51a.81.81,0,0,1-.8-.77.86.86,0,0,1,.81-.88.79.79,0,0,1,.8.77A.86.86,0,0,1,25.19,72.51Zm0-1.4a.64.64,0,0,0-.55.59.57.57,0,0,0,.58.55.57.57,0,0,0,0-1.14Z"/><path d="M41.91,65.93a1,1,0,0,1-1-.8.83.83,0,0,1,.69-.82,1,1,0,0,1,.86.37.16.16,0,0,1,0,.2c-.09.1-.12,0-.17,0s-.38-.36-.66-.28a.57.57,0,0,0-.44.56.6.6,0,0,0,.45.55c.08,0,.18,0,.24-.07s0-.18-.07-.22a.12.12,0,0,1-.06-.18c.06-.09.15,0,.2,0s.35,0,.26.26S42.1,65.9,41.91,65.93Z"/><path d="M24.46,72.69s.13,0,.16.06c.22.32.45.13.69,0s.23-.21.31,0-.13.21-.26.26l-.4.17a.19.19,0,0,0-.13.17c0,.1.11.08.17.11l.3.07c.08,0,.15,0,.12.15a.12.12,0,0,1-.16.1L24,73.52a.13.13,0,0,1-.11-.09A.69.69,0,0,1,24.46,72.69Zm-.06.65c.16.06.21,0,.22-.14a.19.19,0,0,0-.2-.23.22.22,0,0,0-.23.21C24.15,73.38,24.34,73.3,24.4,73.34Z"/><path d="M37.45,64.52c0,.09,0,.12-.07.13a.17.17,0,0,1-.18-.13c-.07-.17-.11-.35-.38-.33s-.44,0-.5.3a.16.16,0,0,1-.22.13c-.16-.07,0-.17,0-.23.17-.39.36-.77.53-1.15,0-.06.06-.14.15-.14s.13.06.15.13c.17.41.34.82.5,1.23Zm-.68-.95a.84.84,0,0,0-.17.36c.11,0,.26.08.3,0S36.88,63.69,36.77,63.57Z"/><path d="M40.65,65.14c0,.1.06.23-.09.24s-.18-.1-.17-.21c0-.26-.12-.33-.33-.41a.36.36,0,0,0-.48.15c-.07.1-.16.15-.26.06s0-.15.07-.2c.27-.32.55-.63.83-.95.05,0,.09-.12.18-.09s.1.09.11.17C40.55,64.32,40.6,64.74,40.65,65.14Zm-.36-1c-.12.19-.29.23-.25.39s.18.13.23.08S40.31,64.33,40.29,64.1Z"/><path d="M31.34,65c0-.17,0-.34,0-.51s-.06-.25.07-.31.22.08.31.16c.27.24.53.49.78.73.07.07.24.11.14.24s-.21,0-.29-.06-.29-.17-.5-.08-.32.17-.28.41,0,.26-.15.25-.08-.15-.08-.23S31.34,65.15,31.34,65Zm.55-.14a1.08,1.08,0,0,0-.29-.27.63.63,0,0,0,0,.41A.44.44,0,0,0,31.89,64.81Z"/><path d="M25.21,78.17c0-.17-.05-.27-.07-.37s0-.16.09-.18.13,0,.14.12l.12.59c0,.1,0,.15-.12.17l-1.2.25c-.06,0-.14,0-.16-.06s-.1-.45-.14-.67c0-.07,0-.13.1-.13a.12.12,0,0,1,.13.11,2.33,2.33,0,0,1,0,.28c0,.14.07.2.22.17s.21-.09.19-.26-.18-.36,0-.4.14.24.18.37.09.19.23.17S25.24,78.26,25.21,78.17Z"/><path d="M48.26,76.43c.15,0,.42,0,.69.06s.23.07.2.23,0,.34,0,.51,0,.14-.13.14-.11-.07-.11-.15,0-.19,0-.29,0-.2-.15-.2-.24,0-.26.18.09.39-.13.38-.09-.25-.1-.38,0-.23-.21-.24-.19.08-.21.21.08.42-.15.4-.08-.28-.07-.42C47.62,76.4,47.63,76.4,48.26,76.43Z"/><path d="M27.88,66.38l.11.07s.05.1,0,.14a1.52,1.52,0,0,1-.22.22c-.1.09-.19.16,0,.3s.19.13.33,0,.18-.36.35-.18-.12.24-.21.34-.1.19,0,.31.19.12.3,0,.15-.15.23-.23.1,0,.16,0a.1.1,0,0,1,0,.16l-.48.47c-.09.09-.15,0-.21,0-.28-.28-.56-.57-.83-.86,0,0-.09-.11-.07-.12C27.49,66.77,27.68,66.58,27.88,66.38Z"/><path d="M45.41,68.13l-.22-.29c-.09-.12-.17-.16-.3,0s-.15.21,0,.32,0,0,0,0,.34.19.16.36-.24-.11-.32-.2c-.36-.37-.36-.38,0-.73.19-.18.4-.34.58-.53s.23-.13.35,0a3.4,3.4,0,0,0,.32.34c.07.07.1.14,0,.22s-.13,0-.18,0l-.17-.18c-.11-.16-.2-.13-.33,0s-.07.21,0,.31a1,1,0,0,1,.19.21C45.64,68,45.54,68.05,45.41,68.13Z"/><path d="M43,66.52c-.05.09-.08.19-.21.11l-.53-.35c-.11-.07-.08-.14,0-.24l.63-1c.07-.11.14-.13.25,0s.3.19.45.29.16.09.08.19-.13.06-.2,0-.16-.09-.23-.15-.21,0-.29.09,0,.19.07.27.38.11.26.3S43,66,42.91,65.9s-.19-.13-.27,0-.14.23,0,.33A.81.81,0,0,1,43,66.52Z"/><path d="M47.29,71.72a1.84,1.84,0,0,0-.06.18c0,.16,0,.32.14.37s.23-.13.28-.26.05-.18.08-.27a.39.39,0,0,1,.51-.3.54.54,0,0,1,.3.6.16.16,0,0,1-.16.13c-.13,0-.07-.1-.07-.16s0-.31-.17-.33-.18.17-.22.3-.05.21-.09.3a.42.42,0,0,1-.58.22.6.6,0,0,1-.25-.63C47.05,71.76,47.14,71.73,47.29,71.72Z"/><path d="M47.86,74a.32.32,0,0,1,0,.07c-.07.18-.22.42,0,.52s.28-.19.36-.34.26-.42.56-.33a.49.49,0,0,1,.28.6c0,.12-.1.2-.22.17s0-.13,0-.2,0-.3-.14-.34-.19.12-.24.23-.09.19-.15.28a.44.44,0,0,1-.61.13.6.6,0,0,1-.13-.69C47.66,74,47.75,74,47.86,74Z"/><path d="M24.66,75.07l-.74-.37c-.11,0-.24-.11-.16-.25s.17,0,.25,0l1.32.66-1.53.53c-.05,0-.11.06-.13,0a.14.14,0,0,1,.08-.18l.44-.17A1.31,1.31,0,0,0,24.66,75.07Z"/><path d="M46.5,70.72a.11.11,0,0,1-.13-.08c-.06-.09,0-.13.07-.17.26-.14.52-.29.78-.41s.25-.17.13-.35-.16-.2,0-.28.17.08.21.16c.15.26.28.52.42.78,0,.08.07.16-.05.21s-.13,0-.16-.1c-.1-.31-.26-.31-.51-.15A5.83,5.83,0,0,1,46.5,70.72Z"/><path d="M30.19,65l-.28.15c-.07,0-.14,0-.19-.05s0-.11.06-.15l.91-.5a.11.11,0,0,1,.16,0,.11.11,0,0,1-.06.18c-.39.12-.29.33-.12.57a6,6,0,0,1,.34.61c0,.07.09.14,0,.2s-.15,0-.2-.08l-.45-.82C30.29,65.08,30.28,65,30.19,65Z"/><path d="M48.33,75.72h-.54c-.08,0-.14,0-.14-.12s.06-.12.14-.12c.27,0,.55,0,.82,0s.37,0,.33-.32c0-.08,0-.21.11-.21s.12.12.12.21c0,.31,0,.61,0,.92,0,.07,0,.15-.11.15s-.12,0-.11-.08C49,75.48,48.54,75.78,48.33,75.72Z"/><path d="M48.7,72.39c.16.35-.23.46-.29.73l.46.23a.19.19,0,0,1,.09.25c-.06.08-.14,0-.2,0a1.2,1.2,0,0,0-1.16-.15c-.08,0-.2.06-.24-.07s0-.17.12-.17a1.4,1.4,0,0,0,1.13-.75S48.66,72.4,48.7,72.39Z"/><path d="M33.72,64.88l0,.07s-.06,0-.09,0c-.66.3-.69.29-.91-.39-.07-.23-.13-.46-.2-.69s-.06-.15.05-.19.16,0,.18.11.14.47.21.7c.11.39.11.38.51.28C33.52,64.77,33.67,64.65,33.72,64.88Z"/><path d="M24,73.92l1.15.16c.08,0,.18,0,.18.13s-.12.13-.21.11L24,74.16c-.08,0-.17,0-.15-.15S23.92,73.9,24,73.92Z"/><path d="M12.92,74.39H11.86a.45.45,0,0,1-.49-.49V72.45c0-.18,0-.17-.18-.15-.33,0-.65.11-1,.11A.45.45,0,0,1,9.73,72a.51.51,0,0,1,.48-.48c.33,0,.65-.07,1-.1a5.25,5.25,0,0,1,.68-.08.42.42,0,0,1,.41.36,8,8,0,0,1,0,.85c0,.28,0,.56,0,.84,0,.09,0,.12.12.12h1c.09,0,.12,0,.12-.12,0-.52,0-1,0-1.57a.47.47,0,0,1,.47-.48,1.8,1.8,0,0,1,.79.22,2.5,2.5,0,0,0,1.23.31,1.48,1.48,0,0,0,1.22-.88,1.54,1.54,0,0,0-.5-1.77,3.56,3.56,0,0,0-.58-.37c-.11,0-.12-.09,0-.17a1.58,1.58,0,0,0,.41-1.24,1.71,1.71,0,0,0-1.31-1.54c-.24-.06-.34-.1-.36-.37a1.81,1.81,0,0,0-.59-1.17,1.91,1.91,0,0,0-.78-.45,2,2,0,0,0-.65-.1,1.84,1.84,0,0,0-1.2.45,4.6,4.6,0,0,0-1.11,1.44,13.47,13.47,0,0,0-.89,2c-.18.51-.35,1-.5,1.54s-.29,1-.42,1.49-.24.93-.36,1.4c-.07.27-.12.54-.19.81a.47.47,0,0,1-.82.23c-.22-.22-.45-.44-.67-.67l-1-1c-.16-.16-.31-.33-.48-.48a.5.5,0,0,1,0-.66.47.47,0,0,1,.69,0l1.3,1.29.18.18c.06.05.1.08.12,0,.08-.3.16-.59.23-.89s.14-.47.2-.71.18-.69.27-1,.25-.83.39-1.24.29-.87.46-1.29a8.74,8.74,0,0,1,1.56-2.71A3.27,3.27,0,0,1,11.89,63a2.72,2.72,0,0,1,1.29-.18A2.89,2.89,0,0,1,15.23,64a2.81,2.81,0,0,1,.47.91.23.23,0,0,0,.15.18,2.57,2.57,0,0,1,1.35,1.25,2.68,2.68,0,0,1,.28,1.52,1.76,1.76,0,0,1-.13.5.13.13,0,0,0,0,.18,2.41,2.41,0,0,1,.87,2.32,2.26,2.26,0,0,1-1.1,1.56,2.34,2.34,0,0,1-1.61.33,2.78,2.78,0,0,1-.93-.28c-.15-.07-.16-.07-.16.1,0,.44,0,.89,0,1.33a.5.5,0,0,1-.49.51c-.36,0-.72,0-1.07,0Z"/><path d="M8.49,78.8h-.9c-.07,0-.13,0-.14-.1s0-.12.13-.13.22,0,.34,0,.17-.09.17-.2,0-.33,0-.49c0-.58,0-1.17,0-1.76,0-.19,0-.23-.23-.26l-.3,0c-.07,0-.12,0-.11-.11a.11.11,0,0,1,.12-.12,8.53,8.53,0,0,1,.88,0,2.07,2.07,0,0,0,.35,0c.58,0,1.16,0,1.74,0a.21.21,0,0,1,.23.16c.05.15.12.28.18.43s.08.12,0,.17a.17.17,0,0,1-.22,0L10.3,76a1,1,0,0,0-.8-.17,4.69,4.69,0,0,1-.53,0c-.13,0-.18.06-.18.17v1c0,.06,0,.1.08.1A2.51,2.51,0,0,0,9.59,77a.26.26,0,0,0,.2-.24,1.09,1.09,0,0,1,.05-.17c0-.09.11-.09.19-.08s.08.07.08.13c0,.27,0,.53,0,.8a2.66,2.66,0,0,0,0,.28c0,.08,0,.11-.1.11s-.15,0-.17-.08a1.21,1.21,0,0,0-.05-.18c-.05-.17-.11-.25-.34-.26s-.39,0-.59,0-.11,0-.11.11c0,.29,0,.59,0,.88a.18.18,0,0,0,.18.21c.14,0,.28,0,.42,0s.14,0,.14.12-.07.11-.15.11Z"/><path d="M13.63,78.12a.55.55,0,0,0-.28-.48,3.89,3.89,0,0,0-.84-.48,2.84,2.84,0,0,1-.81-.51.51.51,0,0,1,.05-.78,1.27,1.27,0,0,1,.54-.25,2.88,2.88,0,0,1,.77-.08,3.51,3.51,0,0,1,.85.09.21.21,0,0,1,.19.25,2.45,2.45,0,0,0,0,.38c0,.11-.06.14-.15.16s-.17,0-.2-.11a.79.79,0,0,0-1-.49.78.78,0,0,0-.32.12.29.29,0,0,0,0,.49,2.09,2.09,0,0,0,.61.36,4.93,4.93,0,0,1,1.05.6.69.69,0,0,1,.31.68.79.79,0,0,1-.48.54,2,2,0,0,1-.88.2,4.52,4.52,0,0,1-1.27-.1.25.25,0,0,1-.2-.19c0-.19-.09-.37-.12-.55s0-.16.1-.18.16,0,.2.08a1.14,1.14,0,0,0,.18.32,1.19,1.19,0,0,0,1.18.36.75.75,0,0,0,.35-.13A.38.38,0,0,0,13.63,78.12Z"/><path d="M16.67,78.81a2.13,2.13,0,0,1-1.27-.38,1.46,1.46,0,0,1-.62-.92,1.38,1.38,0,0,1,.48-1.38,2.74,2.74,0,0,1,1.62-.58,5.62,5.62,0,0,1,.92,0c.25,0,.3,0,.29.3s0,.24,0,.36-.06.14-.15.16-.11-.05-.13-.12a.58.58,0,0,0-.47-.45,1.69,1.69,0,0,0-1.41.3,1.05,1.05,0,0,0-.43.79,1.53,1.53,0,0,0,.2,1,1.27,1.27,0,0,0,.81.6,2.19,2.19,0,0,0,1,0,1.75,1.75,0,0,0,.32-.12c.12,0,.19,0,.26.09s0,.06,0,.08a2.79,2.79,0,0,1-.61.22A3.32,3.32,0,0,1,16.67,78.81Z"/><path d="M13.63,85.17a1.38,1.38,0,0,1-.11.65.62.62,0,0,1-1.16,0,2.12,2.12,0,0,1-.09-.83,1.14,1.14,0,0,1,.15-.6.6.6,0,0,1,.64-.29.63.63,0,0,1,.52.55c0,.08.07.16.05.25A2.61,2.61,0,0,0,13.63,85.17Zm-1,0a1.3,1.3,0,0,0,.08.62.28.28,0,0,0,.26.17.29.29,0,0,0,.27-.16.92.92,0,0,0,.1-.36,2.48,2.48,0,0,0-.05-.77.39.39,0,0,0-.3-.29.33.33,0,0,0-.31.25A1.42,1.42,0,0,0,12.6,85.14Z"/><path d="M12,85.13a1.54,1.54,0,0,1-.09.68.65.65,0,0,1-.61.4.64.64,0,0,1-.6-.51,2.1,2.1,0,0,1,0-1.19.63.63,0,0,1,1.21.06A1.85,1.85,0,0,1,12,85.13Zm-1,0a1.16,1.16,0,0,0,.09.57.28.28,0,0,0,.36.17c.21,0,.24-.24.25-.4a1.92,1.92,0,0,0,0-.89.35.35,0,0,0-.28-.27.32.32,0,0,0-.3.22A1.19,1.19,0,0,0,10.91,85.17Z"/><path d="M18.52,63.78a.78.78,0,0,1-.78.8.8.8,0,1,1,0-1.6A.77.77,0,0,1,18.52,63.78Zm-.4.45c-.2.06-.25-.08-.31-.19a.64.64,0,0,0-.1-.13.11.11,0,0,0-.12,0,.1.1,0,0,0-.05.1v.17c0,.06,0,.08-.07.09s-.09,0-.09-.09v-.71s0-.08.07-.08a2.54,2.54,0,0,1,.39,0c.2,0,.3.26.17.38s-.08.17,0,.27a.57.57,0,0,1,.08.13c.06.09.11.08.16,0a.67.67,0,0,0,.1-.5.62.62,0,1,0-.91.68A.56.56,0,0,0,18.12,64.23Zm-.42-.71c-.05,0-.15,0-.16.09s.05.12.13.12.18,0,.19-.12S17.77,63.53,17.7,63.52Z"/><path d="M4.25,92.05v-.4c0-.17.07-.21.22-.13a.09.09,0,0,0,.1,0,.41.41,0,0,1,.48,0c.07.06.12,0,.16,0a.39.39,0,0,1,.54.1.37.37,0,0,1,0,.14c0,.25,0,.5,0,.75,0,.09,0,.1-.11.1s-.12,0-.12-.1,0-.42,0-.63,0-.19-.13-.22a.23.23,0,0,0-.26.17,2.07,2.07,0,0,0,0,.5v.17c0,.1,0,.11-.12.11s-.11,0-.11-.11v-.64c0-.11,0-.19-.15-.2a.23.23,0,0,0-.24.19,3.54,3.54,0,0,0,0,.65c0,.09,0,.11-.13.11s-.11,0-.11-.11S4.25,92.2,4.25,92.05Z"/><path d="M10.81,92.15a3.07,3.07,0,0,1,0,.59.47.47,0,0,1-.58.32c-.14,0-.28-.06-.33-.23s-.07-.11,0-.15a.16.16,0,0,1,.19,0c0,.12.14.13.26.13s.22-.06.25-.22,0-.09-.07-.06A.44.44,0,0,1,10,92.5a.59.59,0,0,1-.16-.58.52.52,0,0,1,.14-.31.48.48,0,0,1,.52-.11s.07,0,.13,0,.2,0,.2.13Zm-.22-.1V92a.3.3,0,0,0-.25-.29c-.16,0-.23.07-.29.25a.58.58,0,0,0,0,.32.24.24,0,0,0,.36.15A.31.31,0,0,0,10.59,92.05Z"/><path d="M10.82,89.69v-.41c0-.16,0-.19.19-.13s.06,0,.1,0a.39.39,0,0,1,.49,0c.06,0,.09,0,.13,0a.41.41,0,0,1,.37-.07.24.24,0,0,1,.21.22,6.18,6.18,0,0,1,0,.86c0,.08-.06.07-.11.07s-.1,0-.1-.09,0-.36,0-.54,0-.11,0-.17-.08-.17-.19-.16a.24.24,0,0,0-.22.21v.64c0,.09,0,.12-.11.11s-.13,0-.13-.11,0-.4,0-.59,0-.26-.17-.26a.23.23,0,0,0-.24.25c0,.19,0,.38,0,.57s0,.15-.1.15-.12-.06-.12-.14v-.44Z"/><path d="M13.66,90.26c-.1,0-.14,0-.16-.12s-.14-.45-.21-.68a.84.84,0,0,1,0-.17c0-.05-.08-.13,0-.15s.17,0,.19.09.09.31.13.47,0,.1.07.1,0-.06,0-.09.1-.32.14-.48.07-.1.14-.1.12,0,.14.09a4.6,4.6,0,0,0,.13.5s0,.08,0,.07.05,0,.06-.07l.15-.5a.1.1,0,0,1,.11-.09c.12,0,.14,0,.1.14l-.15.46c0,.15-.09.29-.13.44a.11.11,0,0,1-.14.09c-.06,0-.11,0-.13-.08s-.09-.33-.13-.49,0-.09-.07-.09,0,.05,0,.08-.08.33-.13.5S13.71,90.27,13.66,90.26Z"/><path d="M9.91,85.13v.92c0,.1,0,.13-.13.13s-.18,0-.18-.19V84.81s0-.09,0-.11-.07,0-.11,0l-.3.16a0,0,0,0,1-.07,0,.34.34,0,0,1,.08-.32,1.26,1.26,0,0,0,.45-.37c.05-.07.09-.12.18-.12s.11,0,.11.11Z"/><path d="M13.3,91.86v.59c0,.17-.06.22-.21.16s-.06,0-.1,0a.48.48,0,0,1-.66-.43.72.72,0,0,1,.06-.46A.45.45,0,0,1,13,91.5c.1,0,.1,0,.1-.07v-.21c0-.09,0-.15.11-.15s.12.06.12.14,0,.43,0,.65Zm-.22.24a.6.6,0,0,0,0-.2.27.27,0,0,0-.2-.23.22.22,0,0,0-.26.13.52.52,0,0,0,0,.47c.05.09.09.15.19.17a.25.25,0,0,0,.27-.13C13.09,92.23,13.06,92.15,13.08,92.1Z"/><path d="M7.05,92.17c0,.12,0,.26,0,.4a0,0,0,0,1,0,.05c-.07,0-.16,0-.21,0s-.08,0-.12,0a.61.61,0,0,1-.44,0,.38.38,0,0,1-.26-.3A.41.41,0,0,1,6.24,92a2.2,2.2,0,0,1,.43-.09s.13,0,.14-.08a.16.16,0,0,0-.11-.17.32.32,0,0,0-.38.12c-.05.1-.15.07-.21,0s0-.08,0-.13a.34.34,0,0,1,.31-.22,1.31,1.31,0,0,1,.28,0c.27,0,.31.17.34.37S7.05,92.05,7.05,92.17Zm-.57.29a.3.3,0,0,0,.33-.28c0-.05,0-.1-.07-.08s-.21,0-.31.06-.15.07-.13.17S6.41,92.44,6.48,92.46Z"/><path d="M11.73,92.14c-.11,0-.22,0-.32,0s-.09,0-.08.1a.22.22,0,0,0,.17.19c.11,0,.24,0,.32-.08s0-.11.11-.11.15,0,.17,0,0,.11,0,.16a.49.49,0,0,1-.55.21.56.56,0,0,1-.43-.69.6.6,0,0,1,.22-.39.53.53,0,0,1,.8.27c.07.32.08.31-.23.31Zm-.14-.21h.18c.11,0,.11-.05.07-.13a.29.29,0,0,0-.36-.11c-.07,0-.16.1-.14.2s.12,0,.18,0Z"/><path d="M17.59,92.14h-.31c-.08,0-.1,0-.07.1s.09.19.21.2.25,0,.32-.14a.21.21,0,0,1,.23,0s0,.07,0,.11a.5.5,0,0,1-.59.27.49.49,0,0,1-.42-.46.58.58,0,0,1,.28-.66.52.52,0,0,1,.57.06.54.54,0,0,1,.18.51s0,0-.08,0Zm-.11-.21h.2c.06,0,.09,0,.06-.1a.3.3,0,0,0-.38-.14c-.08,0-.15.12-.14.19s.13,0,.2.05Z"/><path d="M9.54,92.07c0,.16,0,.32.05.47s0,.06,0,.07-.14,0-.19,0-.11,0-.17,0a.5.5,0,0,1-.5,0,.32.32,0,0,1-.14-.37A.39.39,0,0,1,8.9,92l.28,0c.06,0,.14,0,.14-.09s-.07-.13-.14-.16a.3.3,0,0,0-.35.14c-.05.09-.14,0-.21,0s0-.08,0-.11a.34.34,0,0,1,.24-.24.82.82,0,0,1,.49,0,.27.27,0,0,1,.19.25Zm-.56.4a.36.36,0,0,0,.34-.26s0-.13-.06-.1-.22,0-.32.06-.16.06-.14.16S8.91,92.45,9,92.47Z"/><path d="M15.52,89.75h-.28c-.11,0-.14,0-.1.14a.28.28,0,0,0,.25.19.27.27,0,0,0,.27-.15.17.17,0,0,1,.24,0s0,0,0,.06a.43.43,0,0,1-.39.31c-.25,0-.46,0-.57-.28a.63.63,0,0,1,.27-.86.51.51,0,0,1,.69.34c.06.28.06.28-.23.28Zm-.13-.19h.18c.11,0,.11-.06.08-.12a.26.26,0,0,0-.26-.15.25.25,0,0,0-.24.17c0,.06,0,.11.07.1Z"/><path d="M7.44,89.48v-.66c0-.08,0-.11.11-.11H8.4c.08,0,.11,0,.11.11s0,.1-.11.1H7.82c-.11,0-.16,0-.16.15,0,.32,0,.28.28.28h.34c.09,0,.11,0,.1.11s0,.11-.09.11-.32,0-.48,0-.15,0-.15.14a2.81,2.81,0,0,1,0,.41c0,.08,0,.16-.1.16s-.12-.07-.12-.15Z"/><path d="M14,84.62a.52.52,0,0,1,.24-.5.45.45,0,0,1,.66.31.8.8,0,0,1,0,.51.44.44,0,0,1-.5.25.47.47,0,0,1-.35-.41A1,1,0,0,0,14,84.62Zm.28,0a.45.45,0,0,0,0,.23.16.16,0,0,0,.15.11.17.17,0,0,0,.14-.12.72.72,0,0,0,0-.41c0-.07-.08-.13-.15-.13s-.12,0-.15.11A.39.39,0,0,0,14.29,84.62Z"/><path d="M16.17,85.68a.5.5,0,0,1-.27.52.42.42,0,0,1-.6-.24.66.66,0,0,1,.13-.74.44.44,0,0,1,.69.16A.79.79,0,0,1,16.17,85.68Zm-.27,0a.46.46,0,0,0-.05-.23.14.14,0,0,0-.16-.09.15.15,0,0,0-.13.14.87.87,0,0,0,0,.36c0,.08,0,.13.13.14a.14.14,0,0,0,.16-.1A.44.44,0,0,0,15.9,85.68Z"/><path d="M14.91,92.07a.53.53,0,0,1,.22-.51A.54.54,0,0,1,16,92a.61.61,0,0,1-.22.59.52.52,0,0,1-.56,0A.49.49,0,0,1,14.91,92.07Zm.23,0a.22.22,0,0,0,0,.08.31.31,0,0,0,.25.31c.2,0,.28,0,.33-.25a.42.42,0,0,0,0-.22c0-.19-.14-.3-.28-.3S15.14,91.8,15.14,92.05Z"/><path d="M10,90.27a.49.49,0,0,1-.5-.51c0-.2,0-.4.18-.54a.59.59,0,0,1,.64,0,.63.63,0,0,1,.24.62.51.51,0,0,1-.33.45A.8.8,0,0,1,10,90.27Zm-.28-.59a.49.49,0,0,1,0,.12.35.35,0,0,0,.25.28.27.27,0,0,0,.3-.16.57.57,0,0,0,0-.46.28.28,0,0,0-.52,0A.54.54,0,0,0,9.72,89.68Z"/><path d="M18.68,92.65a.44.44,0,0,1-.46-.25c0-.05-.06-.12,0-.14s.14-.07.19,0a.32.32,0,0,0,.39.13.13.13,0,0,0,.09-.13.14.14,0,0,0-.1-.11l-.35-.1a.29.29,0,0,1-.22-.33.3.3,0,0,1,.27-.27.5.5,0,0,1,.53.13.15.15,0,0,1,0,.19s-.16,0-.21-.06a.28.28,0,0,0-.34,0c-.09.06-.08.13,0,.17a2.29,2.29,0,0,0,.28.09c.28.07.34.15.32.4a.4.4,0,0,1-.41.29Z"/><path d="M20.47,92.65a.41.41,0,0,1-.45-.28s-.07-.1,0-.11.16-.06.2,0,.19.16.33.16a.14.14,0,0,0,.15-.12c0-.08,0-.11-.12-.13a2.07,2.07,0,0,1-.33-.1.28.28,0,0,1-.22-.25.3.3,0,0,1,.19-.33.58.58,0,0,1,.57.06s.06.05.07.08.09.12,0,.16-.15.07-.21,0a.27.27,0,0,0-.32-.09s-.1,0-.09.11a.11.11,0,0,0,.09.08c.1,0,.2.07.3.09a.37.37,0,0,1,.31.31.36.36,0,0,1-.29.35A.44.44,0,0,1,20.47,92.65Z"/><path d="M7.35,92v-.41c0-.13.09-.2.21-.12a.16.16,0,0,0,.15,0,.46.46,0,0,1,.38,0,.29.29,0,0,1,.19.24c0,.26,0,.53,0,.8,0,.11-.09.07-.14.08s-.1,0-.09-.09V91.9c0-.15-.05-.22-.18-.23a.25.25,0,0,0-.27.2,2.64,2.64,0,0,0,0,.63c0,.09,0,.12-.13.12s-.12,0-.11-.12Z"/><path d="M15.78,84.08l-.85,1.65-.22.43a.3.3,0,0,1-.28.07s0-.06,0-.08l.24-.46.75-1.44C15.53,84.05,15.53,84.05,15.78,84.08Z"/><path d="M18.18,80.84v.47a.39.39,0,0,1-.4.4c-.18,0-.34,0-.43-.18s-.08-.09,0-.13a.12.12,0,0,1,.16.06.31.31,0,0,0,.48,0A.26.26,0,0,0,18,81.4c0-.06.06-.14,0-.19s-.11,0-.16.05a.42.42,0,0,1-.54-.25.7.7,0,0,1,.11-.66.38.38,0,0,1,.5-.06c.05,0,.09.06.13,0s.06,0,.09,0,0,0,0,.08Zm-.13-.08v-.1a.35.35,0,0,0-.23-.3.26.26,0,0,0-.3.1.55.55,0,0,0-.08.43c0,.17.14.26.27.26S18.05,81,18.05,80.76Z"/><path d="M10,81c.09-.22.14-.44.21-.65,0,0,0-.07,0-.09a.09.09,0,0,1,.11,0s0,0,0,.08l-.27.85a.12.12,0,0,1-.14.1c-.09,0-.07-.06-.08-.11a5.09,5.09,0,0,1-.14-.56.14.14,0,0,0-.08-.09c-.06.21-.11.42-.17.63s0,.12-.12.13-.09,0-.11-.11c-.08-.28-.18-.55-.27-.83,0,0,0-.08,0-.09a.1.1,0,0,1,.13.07c.05.18.1.36.14.55a.3.3,0,0,0,.09.15c.06-.21.11-.4.17-.6,0,0,0-.08,0-.12s.06-.06.1-.06.06,0,.08.07c.08.21.1.44.19.65C10,81,10,81,10,81Z"/><path d="M8.16,80.51c-.1.25-.13.48-.2.7,0,0,0,.08-.07.07s-.1,0-.13,0-.07-.24-.12-.36a3.64,3.64,0,0,1-.14-.47s-.07-.11,0-.14.11,0,.13.09l.17.59s0,.07,0,.07S7.9,81,7.9,81c0-.19.11-.38.15-.57s0-.12.12-.13.09,0,.11.11.09.38.14.56A.11.11,0,0,0,8.5,81l.21-.66c0-.07,0-.11.11-.1s0,.09,0,.12l-.27.84c0,.07-.06.07-.12.08s-.07-.05-.08-.09C8.29,81,8.27,80.75,8.16,80.51Z"/><path d="M10.9,81c.09-.21.13-.44.2-.66,0-.06,0-.11.1-.11a.12.12,0,0,1,.13.12c0,.22.11.42.15.64.12-.07.1-.2.14-.29a1.76,1.76,0,0,0,.12-.39c0-.06,0-.1.12-.07s0,.08,0,.12c-.08.28-.18.55-.26.82,0,.07,0,.09-.11.09a.1.1,0,0,1-.11-.1c-.05-.2-.1-.4-.14-.6,0,0,0,0,0,0s-.06,0-.07.07c-.05.2-.11.4-.15.6s-.05.08-.1.08-.1,0-.12-.07c-.08-.29-.17-.58-.26-.87,0,0,0-.09,0-.09s.11,0,.13.07.12.46.18.69Z"/><path d="M14.69,91.06s.15,0,.16.08,0,.15-.11.12a.14.14,0,0,0-.11,0,.14.14,0,0,0-.05.16c0,.06.06,0,.1,0s.12,0,.12.1-.05.09-.11.08-.12,0-.12.14v.69c0,.1,0,.12-.12.12s-.11,0-.11-.11c0-.24,0-.48,0-.71,0-.07,0-.13-.1-.13s-.06,0-.06-.09,0-.09.06-.09.09-.06.1-.12C14.35,91.15,14.45,91.06,14.69,91.06Z"/><path d="M19.69,92.63c-.19,0-.27-.08-.27-.29s0-.37,0-.55,0-.1-.07-.12-.06-.16,0-.17.07-.09.08-.15a.25.25,0,0,1,.19-.22c.05,0,0,0,0,.05a1.09,1.09,0,0,1,0,.18c0,.07,0,.14.11.13s.07,0,.07.09,0,.1-.08.09-.11.06-.1.13v.49c0,.07,0,.14.1.14s.11,0,.11.12-.08.06-.13.07Z"/><path d="M16.45,80.75a.5.5,0,0,1-.28.52.54.54,0,0,1-.57-.11.68.68,0,0,1,0-.77.48.48,0,0,1,.71,0A.41.41,0,0,1,16.45,80.75Zm-.8,0a.34.34,0,0,0,0,.1.31.31,0,0,0,.42.29c.18-.06.22-.19.23-.39s-.13-.43-.36-.42S15.64,80.52,15.65,80.77Z"/><path d="M13.39,81.31c-.16,0-.31,0-.38-.21S13,81,13,81a.1.1,0,0,1,.14,0,.31.31,0,0,0,.43.13.15.15,0,0,0,.08-.14.15.15,0,0,0-.12-.14l-.28-.08c-.19-.06-.24-.12-.24-.27s.06-.22.24-.28a.49.49,0,0,1,.47.12s.07.09,0,.14-.09,0-.13,0a.29.29,0,0,0-.37-.08c-.1.07-.1.16,0,.22a1.6,1.6,0,0,0,.37.12c.19.08.24.14.22.32a.31.31,0,0,1-.3.25Z"/><path d="M16.4,89.49c0,.22,0,.44,0,.66s0,.11-.12.12-.12,0-.12-.12c0-.44,0-.88,0-1.31,0-.09,0-.13.11-.13s.12,0,.11.13Z"/><path d="M16.22,92.05v-.41c0-.15.07-.2.21-.14s.06,0,.1,0a.32.32,0,0,1,.27,0s.07,0,0,.08,0,.14-.1.15-.29,0-.29.3,0,.33,0,.49-.05.1-.12.1-.11,0-.11-.1S16.22,92.21,16.22,92.05Z"/><path d="M9,89.91v.26c0,.1-.06.09-.12.09s-.12,0-.11-.09v-.93c0-.08,0-.13.11-.11s.24,0,.37,0a.16.16,0,0,1,.16.07c0,.07,0,.12-.05.17s0,0-.08,0a.17.17,0,0,0-.25.13A1.56,1.56,0,0,0,9,89.91Z"/><path d="M14.47,80.22a.42.42,0,0,1,.35.18s.06.1,0,.13a.08.08,0,0,1-.13,0,.26.26,0,0,0-.31-.13.3.3,0,0,0-.21.25.61.61,0,0,0,0,.4.27.27,0,0,0,.26.18.27.27,0,0,0,.25-.16s0,0,0-.07.08,0,.13,0,0,0,0,.09c-.08.23-.28.3-.54.26a.44.44,0,0,1-.32-.43,1.48,1.48,0,0,1,0-.21A.44.44,0,0,1,14.47,80.22Z"/><path d="M17,89.49v.67c0,.09,0,.1-.11.1s-.11,0-.11-.1V88.82c0-.09,0-.11.12-.11s.1,0,.1.11Z"/><path d="M12.5,80.83v-.32c0-.08,0-.17-.12-.16s-.05,0,0,0,0,0,0,0,.12-.1.13-.19.14-.27.34-.24.08,0,.08.08-.05.06-.08.06-.18,0-.19.13,0,.15.11.15.08,0,.08.06-.05,0-.08,0-.11,0-.11.13v.68s0,.11-.07.12-.08-.07-.08-.12Z"/><path d="M16.85,80.37c.09-.11.18-.2.32-.12s.07,0,0,.08,0,.07-.08.07c-.22,0-.29.08-.3.31s0,.32,0,.48,0,.09-.07.1-.07-.06-.07-.1V80.4c0-.05,0-.13,0-.15S16.82,80.31,16.85,80.37Z"/><path d="M17.51,89.57a1,1,0,0,0,.17,0c.12,0,.14.05.13.15s0,.08-.09.08H17.3c-.08,0-.09,0-.09-.11s0-.12.09-.12A1.47,1.47,0,0,0,17.51,89.57Z"/><path d="M15.19,81.28c-.08,0-.09,0-.09-.09s0-.08.1-.08.09,0,.09.09S15.25,81.29,15.19,81.28Z"/><path d="M12.17,81.19c0,.07,0,.1-.09.1s-.09,0-.09-.08,0-.1.08-.1S12.18,81.12,12.17,81.19Z"/><path d="M26.72,60.42H14.07a3,3,0,0,1-3.3-3.27c0-1.36,0-2.71,0-4.07a3,3,0,0,1,3-3H39.66a3,3,0,0,1,3.08,3c0,1.39,0,2.78,0,4.18a3,3,0,0,1-3.14,3.09ZM33,50.71c-6.56,0-12.88,0-19.2,0a2.31,2.31,0,0,0-2.38,2.39c-.05,1.32,0,2.64,0,4a2.47,2.47,0,0,0,2.73,2.75c1.73,0,3.47,0,5.21,0,3.51,0,7,0,10.54,0,1.55,0,2.26-.73,2.29-2.21,0-1,0-1.9,0-2.85C32.17,53.42,31.92,52,33,50.71Zm-.86,9.06c2.75,0,5.4.06,8,0a2.22,2.22,0,0,0,2-2.3c.06-1.43.06-2.86,0-4.29a2.38,2.38,0,0,0-2.47-2.44c-1.07-.05-2.14,0-3.22,0-3.34,0-3.62.33-3.69,3.65C32.71,56.14,33.22,58,32.1,59.77Z"/><path d="M17.68,55.29A5.11,5.11,0,0,1,17.39,57a1.4,1.4,0,0,1-1.5.89A1.32,1.32,0,0,1,14.53,57a6.14,6.14,0,0,1-.13-3,1.59,1.59,0,0,1,3.16,0C17.64,54.41,17.64,54.85,17.68,55.29ZM15,56.51c.52-1,.9-1.63,1.23-2.32.14-.31.66-.71,0-1a.81.81,0,0,0-1.16.52A5.68,5.68,0,0,0,15,56.51Zm1.87-2.24c-.44.83-.77,1.43-1.08,2-.14.28-.47.53-.31.89.1.21.38.16.6.15a.84.84,0,0,0,.81-.77A5.29,5.29,0,0,0,16.9,54.27Z"/><path d="M27.17,55.24a13.59,13.59,0,0,1-.25,1.56,1.43,1.43,0,0,1-1.56,1.12,1.38,1.38,0,0,1-1.44-1.14,6.38,6.38,0,0,1,0-3,1.49,1.49,0,0,1,1.65-1.17A1.43,1.43,0,0,1,27,53.87C27.06,54.3,27.1,54.73,27.17,55.24Zm-.61,0c0-.39-.09-.79-.17-1.18s-.37-.89-.95-.9-.82.37-1,.87a4.92,4.92,0,0,0,0,2.69.84.84,0,0,0,.89.67.86.86,0,0,0,.91-.63A5.19,5.19,0,0,0,26.56,55.21Z"/><path d="M19.88,55.41a4.82,4.82,0,0,1,.31-2,1.37,1.37,0,0,1,1.54-.84,1.3,1.3,0,0,1,1.21,1c.06.21.11.49-.13.59s-.41-.08-.47-.31a.79.79,0,0,0-1-.69c-.61.08-.74.58-.8,1a6.06,6.06,0,0,0,.07,2.4c.11.39.3.76.82.76a.81.81,0,0,0,.84-.72c.06-.26,0-.71.45-.59s.2.56.12.85a1.32,1.32,0,0,1-1.4,1A1.3,1.3,0,0,1,20.12,57,4.39,4.39,0,0,1,19.88,55.41Z"/><path d="M27.94,56c.27-.83.91-1.08,1.22-.48A.89.89,0,0,1,29,56.63c-.23.22-.5.41-.7.57.22.55.72.16.9.57l-.76,0c-.72,0-.61-.32-.32-.72.11-.15.25-.27.37-.41s.73-.57.38-1S28.32,56,27.94,56Z"/><path d="M37.5,58.66a3.4,3.4,0,1,1-.07-6.8,3.46,3.46,0,0,1,3.49,3.37A3.41,3.41,0,0,1,37.5,58.66Zm.29-5.91A2.58,2.58,0,0,0,35,55.89a2.37,2.37,0,0,0,2.06,1.89,2.47,2.47,0,0,0,2.64-1.19c.14-.25.35-.54,0-.78s-.53,0-.7.28a2.22,2.22,0,0,1-.25.35,1.64,1.64,0,0,1-2.2.34,1.61,1.61,0,0,1-.76-2.07,1.69,1.69,0,0,1,1.92-1.14,1.81,1.81,0,0,1,1.37,1c.13.22.3.34.54.23s.25-.42.13-.65A2.4,2.4,0,0,0,37.79,52.75Zm0,2.34c-.18-.16-.31-.29-.45-.4s-.32-.48-.63-.34-.15.45-.18.69a2.16,2.16,0,0,0,0,.44c0,.24-.11.58.16.69s.31-.24.41-.44c.18-.36.34,0,.49.05s.44.62.81.38.16-.61.16-.92.17-.78-.21-.88S38.07,54.88,37.74,55.09Z"/></svg>