<svg id="Laag_1" data-name="Laag 1" xmlns="http://www.w3.org/2000/svg" viewBox="0 0 86.35 11.44"><path d="M3.45,9c-.12-.19-.34-.1-.51-.15A2.57,2.57,0,0,1,1.22,6.31c0-1.16,0-2.31,0-3.46,0-.25.06-.35.34-.36,1.23,0,1.23,0,1.23,1.17V5.74a1.66,1.66,0,0,0,1.7,1.65c1,0,1.93,0,2.89,0,.29,0,.39.08.37.36s0,.8,0,1.2Z"/><path d="M33.09,9a1.68,1.68,0,0,1-1.36-1.16A2.81,2.81,0,0,1,32,5.49a1.68,1.68,0,0,1,1.54-.75,1.47,1.47,0,0,1,1.33,1.17c.29,1.1.22,1.18-.91,1.18-.35,0-.69,0-1,0s-.35.15-.29.37a.84.84,0,0,0,.77.68A1.42,1.42,0,0,0,34.16,8c.35-.19.48-.09.6.24s-.17.39-.36.5-.53,0-.75.2Zm.12-2.57c.72,0,.72,0,.72-.23a.66.66,0,1,0-1.31,0C32.68,6.59,33.05,6.26,33.21,6.38Z"/><path d="M37.48,9a2.77,2.77,0,0,1-1.73-3.43,2.88,2.88,0,0,1,.83-1.89,2,2,0,0,1,2.37,0c.31.27,0,.42-.09.62s-.25.12-.39,0A.93.93,0,0,0,36.91,5a5.7,5.7,0,0,0,0,2.29A.91.91,0,0,0,38.39,8c.37-.17.52-.06.66.26s-.16.4-.36.54-.41,0-.55.19Z"/><path d="M11.11,9A2.43,2.43,0,0,1,9.4,6.1a4,4,0,0,1,.46-2,2,2,0,0,1,2.77-.45c.31.25,0,.39-.09.57s-.15.26-.38.12c-.81-.51-1.44-.26-1.59.65a5.7,5.7,0,0,0,0,2.29c.21.84.66,1.08,1.43.72.39-.18.52,0,.66.28s-.17.38-.34.51-.44,0-.6.2Z"/><path d="M25.61,9a1.24,1.24,0,0,1-1-1.23,1.17,1.17,0,0,1,.81-1.16,3.2,3.2,0,0,1,.91-.18c.2,0,.42,0,.4-.28s0-.53-.39-.57a1.64,1.64,0,0,0-.95.13c-.24.11-.33,0-.39-.21s-.19-.42.13-.52A3,3,0,0,1,27,4.84a1,1,0,0,1,.69,1,11.3,11.3,0,0,0,.05,2c.12.58.09.93-.51,1.11h-.1l-.23-.48a2.89,2.89,0,0,1-.79.48Zm1.14-1.44c0-.22.13-.54-.34-.51s-.83.25-.83.66a.53.53,0,0,0,.54.56C26.52,8.25,26.74,8,26.75,7.51Z"/><path d="M40.66,9c-.84-.38-1.1-.81-.93-1.58a1.08,1.08,0,0,1,.84-.83c.27-.07.54-.11.82-.16s.43.09.41-.26,0-.56-.41-.6a1.87,1.87,0,0,0-1,.14c-.21.1-.3,0-.35-.19s-.24-.43.08-.53a2.85,2.85,0,0,1,1.91-.08.93.93,0,0,1,.64.92V7.53a.84.84,0,0,0,0,.32A.69.69,0,0,1,42.25,9h-.09c-.11-.38-.3-.53-.64-.19-.1.11-.3,0-.39.19ZM41.8,7.5c0-.51,0-.51-.36-.5s-.81.26-.83.63a.57.57,0,0,0,.57.6C41.6,8.22,41.8,8,41.8,7.5Z"/><path d="M29.82,9a1.08,1.08,0,0,1-.74-1.22c0-.59,0-1.19,0-1.79,0-.26-.07-.37-.33-.36s-.41,0-.41-.35.15-.36.4-.33.36-.12.34-.36,0-.21,0-.32a.63.63,0,0,1,.81-.6c.12,0,.11.12.12.21,0,.34-.13.75.1,1s.65,0,1,.11q0,.77-.72.66c-.23,0-.34.07-.33.31,0,.57,0,1.14,0,1.71,0,.36.23.54.55.41.49-.2.49.11.57.42s-.24.34-.44.4-.19,0-.24.11Z"/><path d="M14.29,9a1.15,1.15,0,0,1-.71-1.16c0-1.43,0-2.86,0-4.29,0-.52.51-.34.79-.42s.18.25.18.39c0,1.35,0,2.71,0,4.06,0,.31,0,.57.45.51s.21.22.26.35.12.33-.1.44c-.07,0-.19,0-.22.12Z"/><path d="M44.59,9a1.08,1.08,0,0,1-.74-1.17c0-1.39,0-2.77,0-4.16,0-.39.22-.57.75-.55.36,0,.22.32.22.49,0,1.33,0,2.65,0,4,0,.29,0,.54.45.51s.21.35.29.54-.1.25-.26.27a.36.36,0,0,0-.25.1Z"/><path d="M47.49,9c-.62-.21-1.17-.5-1.32-1.2a3.09,3.09,0,0,1,.1-2,1.79,1.79,0,0,1,2.81-.61v.09a.45.45,0,0,0-.11.13c-.15.35-.31.43-.68.2a.74.74,0,0,0-1.1.48,2.69,2.69,0,0,0-.06,1.32c.11.72.62,1,1.3.64.18-.08.26-.12.38.11s.11.55-.28.67c-.16,0-.35,0-.48.14Z"/><path d="M18.61,6.94a9.56,9.56,0,0,0-.09-1.73c-.11-.41.31-.28.49-.39s.37-.09.41.18.07.31.31.14c.83-.57,1-.56,1.79,0,.17.13.21,0,.3-.07a1.62,1.62,0,0,1,1.26-.33.72.72,0,0,1,.63.7c0,1,.05,2,0,3,0,.46-.4.19-.61.25s-.33,0-.32-.3c0-.76,0-1.51,0-2.26,0-.25,0-.53-.28-.64s-.47.06-.68.19-.18.27-.18.44c0,.74,0,1.48,0,2.22,0,.39-.21.37-.47.35s-.54.11-.53-.34c0-.79,0-1.57,0-2.36,0-.27-.07-.57-.43-.52s-.65.13-.64.57c0,.77,0,1.54,0,2.31,0,.47-.3.33-.54.34s-.51.09-.48-.33S18.61,7.5,18.61,6.94Z"/><path d="M5.77,6.9c.56-1,.54-1.74,0-2.34s-1.28-.68-2.45-.13c0-.57,0-1.11,0-1.66,0-.2.06-.28.27-.27a16.28,16.28,0,0,1,2.09.07,2.44,2.44,0,0,1,2.1,2.34c0,.56,0,1.13,0,1.7,0,.17,0,.3-.24.3Z"/><path d="M17.3,6.87c0,.51,0,1,0,1.52s-.23.37-.49.38-.48,0-.46-.37c0-.81,0-1.63,0-2.44,0-.27-.05-.41-.35-.37s-.42-.08-.41-.4.23-.29.44-.29c1.26,0,1.26,0,1.26,1.23v.74Z"/><path d="M5.68,5.71a1.19,1.19,0,0,1-1.21,1.2A1.22,1.22,0,0,1,3.27,5.7,1.2,1.2,0,0,1,4.51,4.53,1.18,1.18,0,0,1,5.68,5.71ZM5,5.67c-.09-.2-.2-.44-.5-.41a.46.46,0,1,0,0,.92C4.76,6.18,4.91,6,5,5.67Z"/><path d="M17.46,3.68a.68.68,0,0,1-.66.64.66.66,0,0,1-.62-.67.59.59,0,0,1,.63-.6A.61.61,0,0,1,17.46,3.68Z"/><path d="M69.6,10.6H57a3,3,0,0,1-3.31-3.28c0-1.35,0-2.71,0-4.06a3,3,0,0,1,3-3q12.93,0,25.86,0a3,3,0,0,1,3.08,3.05c0,1.4,0,2.79,0,4.18a3,3,0,0,1-3.15,3.09ZM75.84.88c-6.56,0-12.88,0-19.2,0a2.3,2.3,0,0,0-2.38,2.39c-.06,1.32,0,2.64,0,4A2.48,2.48,0,0,0,57,10c1.74,0,3.48,0,5.22,0,3.51,0,7,0,10.54,0C74.28,10,75,9.26,75,7.79c0-1,0-1.91,0-2.86C75.05,3.59,74.8,2.21,75.84.88ZM75,9.94c2.74,0,5.4.06,8,0a2.22,2.22,0,0,0,2-2.3c.06-1.43.06-2.86,0-4.29A2.39,2.39,0,0,0,82.54.88c-1.07-.05-2.15,0-3.22,0-3.34,0-3.62.33-3.69,3.65C75.59,6.31,76.1,8.18,75,9.94Z"/><path d="M60.55,5.46a4.6,4.6,0,0,1-.29,1.73,1.39,1.39,0,0,1-1.5.89,1.33,1.33,0,0,1-1.36-.92,6.15,6.15,0,0,1-.12-3,1.48,1.48,0,0,1,1.59-1.37,1.5,1.5,0,0,1,1.56,1.41A11.21,11.21,0,0,1,60.55,5.46ZM57.91,6.69c.51-1,.9-1.64,1.22-2.33.15-.3.67-.7,0-1A.81.81,0,0,0,58,3.89,5.6,5.6,0,0,0,57.91,6.69Zm1.87-2.25c-.44.83-.77,1.43-1.08,2.05-.14.28-.47.53-.31.88s.38.16.6.15a.83.83,0,0,0,.8-.77A5.12,5.12,0,0,0,59.78,4.44Z"/><path d="M70.05,5.41c-.08.48-.11,1-.25,1.56A1.44,1.44,0,0,1,68.23,8.1,1.4,1.4,0,0,1,66.8,7a6.26,6.26,0,0,1,0-3,1.49,1.49,0,0,1,1.65-1.18A1.44,1.44,0,0,1,69.86,4C69.93,4.47,70,4.91,70.05,5.41Zm-.61,0c-.06-.4-.09-.8-.18-1.18s-.36-.9-.94-.91-.83.38-1,.87a4.86,4.86,0,0,0,0,2.7.84.84,0,0,0,.89.66.87.87,0,0,0,.91-.63A5.13,5.13,0,0,0,69.44,5.39Z"/><path d="M62.75,5.58a4.85,4.85,0,0,1,.32-2,1.36,1.36,0,0,1,1.53-.83,1.31,1.31,0,0,1,1.22,1c.06.21.11.48-.13.59s-.41-.09-.47-.32a.79.79,0,0,0-1-.69c-.61.08-.75.59-.8,1.05a6.25,6.25,0,0,0,.06,2.4c.12.4.31.76.82.76a.8.8,0,0,0,.84-.72c.07-.26,0-.71.45-.58s.21.55.13.84a1.34,1.34,0,0,1-1.41,1A1.3,1.3,0,0,1,63,7.15,4.8,4.8,0,0,1,62.75,5.58Z"/><path d="M70.82,6.17c.27-.83.9-1.07,1.21-.48a.89.89,0,0,1-.16,1.11c-.23.22-.5.41-.7.58.22.55.71.16.9.56L71.3,8c-.72,0-.6-.33-.31-.73a4.73,4.73,0,0,1,.37-.4c.26-.29.73-.58.38-1S71.19,6.21,70.82,6.17Z"/><path d="M80.37,8.84A3.41,3.41,0,1,1,80.31,2,3.46,3.46,0,0,1,83.8,5.41,3.42,3.42,0,0,1,80.37,8.84Zm.29-5.92a2.58,2.58,0,0,0-2.78,3.14A2.39,2.39,0,0,0,79.93,8a2.49,2.49,0,0,0,2.64-1.2c.14-.25.36-.54.05-.78s-.52,0-.69.28a1.77,1.77,0,0,1-.26.35A1.61,1.61,0,0,1,79.48,7a1.59,1.59,0,0,1-.76-2.07,1.68,1.68,0,0,1,1.91-1.14,1.79,1.79,0,0,1,1.37,1c.14.21.31.34.55.22s.25-.42.13-.65A2.41,2.41,0,0,0,80.66,2.92Zm0,2.35c-.18-.17-.3-.29-.45-.41s-.31-.48-.62-.33-.15.45-.18.68a2.16,2.16,0,0,0,0,.44c0,.25-.11.58.16.7.42.17.31-.25.41-.45.18-.36.34-.05.49,0s.43.62.81.38.15-.61.15-.92.18-.78-.2-.87S81,5.05,80.61,5.27Z"/></svg>