<svg id="Laag_1" data-name="Laag 1" xmlns="http://www.w3.org/2000/svg" viewBox="0 0 110.35 24.89"><defs><style>.cls-1{fill:#4cae3f;}</style></defs><polyline class="cls-1" points="0.75 11.38 3.45 11.92 3.86 9.85 3.21 9.72 2.96 11 2.53 10.91 2.74 9.87 2.13 9.75 1.92 10.79 1.54 10.72 1.79 9.49 1.15 9.36 0.75 11.38"/><path class="cls-1" d="M3.68,8.79H3.54a1.73,1.73,0,0,1-.67-.23,1.92,1.92,0,0,1-.47-.37,1.29,1.29,0,0,1-.27-.46,1.08,1.08,0,0,1-.07-.46,1.47,1.47,0,0,1,.18-.56,1.49,1.49,0,0,1,.33-.41A.93.93,0,0,1,3,6.09a1.15,1.15,0,0,1,.26,0h.2a1.58,1.58,0,0,1,.37.12l-.38.68a.74.74,0,0,0-.24,0H3.09a.42.42,0,0,0-.24.2.43.43,0,0,0,0,.4,1,1,0,0,0,.46.42A1,1,0,0,0,3.7,8h.09A.41.41,0,0,0,4,8a.49.49,0,0,0,.19-.19.43.43,0,0,0,0-.33A.59.59,0,0,0,4,7.18l.39-.7a1.64,1.64,0,0,1,.33.3,1.07,1.07,0,0,1,.19.37,1,1,0,0,1,0,.46,1.25,1.25,0,0,1-.17.49,1.43,1.43,0,0,1-.34.42A1.2,1.2,0,0,1,4,8.75a1.24,1.24,0,0,1-.33,0"/><path class="cls-1" d="M5.54,3.92H5.45a.42.42,0,0,0-.2.1.49.49,0,0,0-.14.23.6.6,0,0,0,0,.32A1.11,1.11,0,0,0,5.38,5a1,1,0,0,0,.52.35H6a.41.41,0,0,0,.28-.12A.46.46,0,0,0,6.41,5a.61.61,0,0,0,0-.32,1.29,1.29,0,0,0-.24-.37,1.69,1.69,0,0,0-.25-.23.9.9,0,0,0-.22-.11l-.13,0m.32,2.13H5.74a1.48,1.48,0,0,1-1-.54A1.91,1.91,0,0,1,4.45,5a1.19,1.19,0,0,1-.11-.47,1.23,1.23,0,0,1,0-.39,1.66,1.66,0,0,1,.16-.33,1.68,1.68,0,0,1,.25-.29,1.59,1.59,0,0,1,.63-.33l.26,0a1.26,1.26,0,0,1,.43.08,1.72,1.72,0,0,1,.62.45,1.82,1.82,0,0,1,.38.65,1.28,1.28,0,0,1,0,.7,1.21,1.21,0,0,1-.4.63,1.29,1.29,0,0,1-.87.36"/><path class="cls-1" d="M8.26,4.43,7.18,1.9l1-.41a4.08,4.08,0,0,1,.51-.18,1,1,0,0,1,.32,0,.72.72,0,0,1,.27.09.79.79,0,0,1,.25.19,1,1,0,0,1,.18.29.88.88,0,0,1,.09.38,1,1,0,0,1,0,.31.7.7,0,0,1-.11.21.6.6,0,0,1-.14.16,1.51,1.51,0,0,1-.37.22l-.43.19L9,4.1l-.75.33M8.18,2.19l.23.53.27-.12a.87.87,0,0,0,.22-.11A.31.31,0,0,0,9,2.35a.67.67,0,0,0,0-.18A.27.27,0,0,0,8.76,2a.77.77,0,0,0-.34.08Z"/><path class="cls-1" d="M11,3.37,10.74.63,12,.51h.44a1.11,1.11,0,0,1,.3.07.8.8,0,0,1,.21.15.72.72,0,0,1,.14.2.9.9,0,0,1,.06.27,1,1,0,0,1,0,.35.68.68,0,0,1-.14.25.68.68,0,0,1-.19.11.75.75,0,0,1,.35.19.72.72,0,0,1,.13.4l.06.43a.25.25,0,0,0,0,.12l.07,0v.08l-.84.08a1.5,1.5,0,0,1-.08-.37l0-.21a.53.53,0,0,0-.06-.21.26.26,0,0,0-.13-.1.43.43,0,0,0-.24,0l-.32,0,.09,1-.8.08m.65-1.63.4,0a.4.4,0,0,0,.26-.09.24.24,0,0,0,.06-.2.26.26,0,0,0-.09-.19.37.37,0,0,0-.27,0l-.41,0Z"/><polyline class="cls-1" points="14.19 3.28 14.63 0.56 15.46 0.7 15.01 3.41 14.19 3.28"/><polyline class="cls-1" points="15.93 3.57 17.07 1.07 17.77 1.4 17.95 3.1 18.57 1.76 19.29 2.09 18.14 4.59 17.43 4.26 17.25 2.6 16.65 3.91 15.93 3.57"/><polyline class="cls-1" points="20.61 2.99 22.31 4.57 21.82 5.1 21.27 4.59 19.89 6.07 19.29 5.51 20.67 4.03 20.12 3.52 20.61 2.99"/><polyline class="cls-1" points="20.89 7.18 23.27 5.82 24.29 7.61 23.73 7.93 23.11 6.84 22.77 7.03 23.3 7.96 22.76 8.26 22.23 7.34 21.86 7.55 22.5 8.69 21.93 9.01 20.89 7.18"/><path class="cls-1" d="M22.21,9.72l2.69-.55.23,1.12a1.47,1.47,0,0,1,0,.69,1,1,0,0,1-.35.52,1.7,1.7,0,0,1-.72.32,1.85,1.85,0,0,1-.56,0,1.9,1.9,0,0,1-.42-.09,1,1,0,0,1-.29-.18.94.94,0,0,1-.21-.29,2,2,0,0,1-.15-.47l-.23-1.11m.83.66,0,.2a.73.73,0,0,0,.14.33.49.49,0,0,0,.27.13,1.17,1.17,0,0,0,.41,0,1.07,1.07,0,0,0,.27-.09.57.57,0,0,0,.19-.12.29.29,0,0,0,.09-.16.79.79,0,0,0,0-.34l-.05-.21Z"/><polyline class="cls-1" points="24.97 15.95 24.34 15.83 24.57 14.6 24.19 14.52 23.99 15.57 23.38 15.45 23.58 14.4 23.16 14.32 22.91 15.61 22.26 15.48 22.66 13.41 25.36 13.93 24.97 15.95"/><path class="cls-1" d="M22.89,19.27l-.19,0a1.18,1.18,0,0,1-.37-.11l.38-.69a.5.5,0,0,0,.23.05h.11a.37.37,0,0,0,.24-.2.41.41,0,0,0,0-.4,1,1,0,0,0-.45-.42,1.59,1.59,0,0,0-.41-.16h-.09a.41.41,0,0,0-.19,0,.48.48,0,0,0-.24.52.56.56,0,0,0,.24.28l-.39.7a2,2,0,0,1-.33-.29,1.18,1.18,0,0,1-.2-.37,1,1,0,0,1,0-.46,1.4,1.4,0,0,1,.51-.92,1.06,1.06,0,0,1,.43-.23,1.26,1.26,0,0,1,.33,0h.13a1.71,1.71,0,0,1,.67.22,2,2,0,0,1,.48.37,1.46,1.46,0,0,1,.27.46,1.06,1.06,0,0,1,.07.46,1.3,1.3,0,0,1-.17.56,1.65,1.65,0,0,1-.33.41,1.06,1.06,0,0,1-.42.22,1.24,1.24,0,0,1-.27,0"/><path class="cls-1" d="M20.17,20a.43.43,0,0,0-.28.11.43.43,0,0,0-.14.23.54.54,0,0,0,0,.32,1.05,1.05,0,0,0,.24.37,1.6,1.6,0,0,0,.24.22.68.68,0,0,0,.23.11l.12,0h.09a.41.41,0,0,0,.21-.1.48.48,0,0,0,.13-.23.64.64,0,0,0,0-.33,1.19,1.19,0,0,0-.24-.36.91.91,0,0,0-.53-.34h-.08m.31,2.12a1.25,1.25,0,0,1-.42-.08,1.58,1.58,0,0,1-.62-.44,1.76,1.76,0,0,1-.39-.65,1.35,1.35,0,0,1,0-.69,1.28,1.28,0,0,1,.41-.64,1.22,1.22,0,0,1,.87-.37h.11a1.48,1.48,0,0,1,1,.54,1.71,1.71,0,0,1,.32.47,1.39,1.39,0,0,1,.11.47,1.17,1.17,0,0,1,0,.39,2,2,0,0,1-.15.33,1.37,1.37,0,0,1-.25.29,1.44,1.44,0,0,1-.63.34,1.24,1.24,0,0,1-.27,0"/><path class="cls-1" d="M17.9,20.94,19,23.45l-.94.42a3.17,3.17,0,0,1-.52.19,1.22,1.22,0,0,1-.32,0A.59.59,0,0,1,17,24a1.1,1.1,0,0,1-.25-.19,1,1,0,0,1-.18-.29,1.08,1.08,0,0,1-.1-.37,1.3,1.3,0,0,1,0-.31.9.9,0,0,1,.1-.22,1,1,0,0,1,.15-.16,1.31,1.31,0,0,1,.36-.23l.43-.19-.34-.78.75-.32m.1,2.23-.23-.53-.27.12a1.26,1.26,0,0,0-.22.12.21.21,0,0,0-.07.13.29.29,0,0,0,0,.18.25.25,0,0,0,.18.16.73.73,0,0,0,.34-.07Z"/><path class="cls-1" d="M15.17,22l.28,2.74-1.23.12a3.71,3.71,0,0,1-.44,0,.83.83,0,0,1-.3-.07.6.6,0,0,1-.21-.14.67.67,0,0,1-.2-.47.78.78,0,0,1,0-.35.58.58,0,0,1,.15-.25.41.41,0,0,1,.18-.12.71.71,0,0,1-.35-.19.76.76,0,0,1-.14-.4l0-.43a.3.3,0,0,0,0-.11l-.06,0v-.08l.83-.09a1.49,1.49,0,0,1,.08.38l0,.2a.53.53,0,0,0,.06.21.22.22,0,0,0,.13.1.54.54,0,0,0,.24,0l.32,0-.1-1,.8-.08m-.64,1.63-.39.05a.43.43,0,0,0-.27.09.28.28,0,0,0-.06.2.24.24,0,0,0,.1.19.4.4,0,0,0,.27,0l.4,0Z"/><polyline class="cls-1" points="11.98 22.13 11.55 24.84 10.73 24.72 11.16 22 11.98 22.13"/><polyline class="cls-1" points="10.24 21.84 9.12 24.35 8.41 24.03 8.22 22.33 7.62 23.68 6.89 23.35 8.02 20.84 8.74 21.17 8.93 22.83 9.52 21.52 10.24 21.84"/><polyline class="cls-1" points="5.56 22.46 3.85 20.89 4.34 20.36 4.89 20.86 6.26 19.37 6.87 19.93 5.5 21.42 6.05 21.93 5.56 22.46"/><polyline class="cls-1" points="5.26 18.27 2.88 19.65 1.85 17.87 2.41 17.54 3.04 18.63 3.37 18.44 2.84 17.51 3.38 17.2 3.91 18.12 4.28 17.91 3.63 16.78 4.2 16.45 5.26 18.27"/><path class="cls-1" d="M3.92,15.74l-2.69.58L1,15.19a1.47,1.47,0,0,1,0-.69A.92.92,0,0,1,1.32,14,1.7,1.7,0,0,1,2,13.66a1.85,1.85,0,0,1,.56-.05A2,2,0,0,1,3,13.7a.94.94,0,0,1,.5.46,1.72,1.72,0,0,1,.16.47l.24,1.11m-.84-.65L3,14.88a.64.64,0,0,0-.14-.32.43.43,0,0,0-.27-.13,1.18,1.18,0,0,0-.41,0,1.14,1.14,0,0,0-.26.09.63.63,0,0,0-.2.13.6.6,0,0,0-.09.15.88.88,0,0,0,0,.35l.05.21Z"/><path class="cls-1" d="M12.58,17l.34-.13.36-.14.34-.13.34-.14.39-.15.35-.12.28-.1.2-.07.16-.08h.11l.08-.07.1,0c.28-.08.12.05.12.05-.17.18.06.12.06.12L16,16l0-.06a.31.31,0,0,0,.26-.25l.12,0a15.34,15.34,0,0,1,1.63-.5l.12,0,.08-.07h.07l0,0,0,0h0v0h0l0,0,.05.07.05-.05h.09l0,0V14.9l0,0,0,0h.2l0,0,0,0,.06,0,0,0h-.06l0,.06.07,0h.09l0,0v0l.06-.06v-.06l0,0v0l0,0h.08l0,0H19l-.06,0H18.7l0,0,0,0h-.06l0,0h-.05l0,0v0h0l0,0h-.68l0-.22-.23.06-.31.05-.4.13-.51.15c-.36.1-.19-.11-.19-.11a.68.68,0,0,0,0-.22c0-.33.21-.25.21-.25l.08-.08.14,0,.11-.1v-.12l-.06-.06-.06-.07v-.09c-.17-.16-.38,0-.38,0-.24,0,0-.1,0-.1s.3-.13.3-.13l.11,0,.09-.09h.16l.07-.06.2-.1.29-.09.3-.11.18-.07.05,0h.16l.07-.07h.15l.07-.07v-.09c0-.08.09-.1.09-.1l.12-.06c.11-.07.07-.14.07-.14l0-.07-.06-.12,0-.14,0,0h-.06v-.07l-.06-.05-.08-.08-.12,0v.08c-.07.12-.17,0-.17,0l0-.11-.05-.1v-.07h-.27v0l-.15,0c-.15,0-.09,0-.09,0l.27-.09h0l0,0,.08,0,.15,0a.2.2,0,0,0,.16-.26l0-.07,0-.09v-.05l0-.09c-.1-.05,0-.12,0-.12l.13-.07.1,0,.11,0,.09,0h.09l0,0,.07-.07v0a.26.26,0,0,0,.22-.09v-.11c.11,0,.06-.15.06-.15l0-.17V9.78l0,0V9.68l0,0c0-.14-.15-.18-.15-.18a.23.23,0,0,1-.16.16.19.19,0,0,0-.16.09l-.05,0-.09,0-.1,0-.07.07h-.1l0,0V9.8l0-.08c0-.18-.17-.12-.17-.12H17.9l-.17.07c0-.25-.25-.17-.25-.17l-.1.05-.14.08c-.16,0-.07-.07-.07-.07l.07-.07.21-.2c.15-.12,0-.19,0-.19L17.36,9l0,0h-.44L17,9l.15-.08.13-.1s.06,0,.29-.24.1-.39.1-.39a1.29,1.29,0,0,1-.08-.27,1.53,1.53,0,0,0-.21-.35c0-.28-.39-.18-.39-.18s0,0,0,0l.07,0A1.35,1.35,0,0,0,17.22,7c.18-.17,0-.26,0-.26l0-.07,0-.09c-.1-.45-.43-.24-.43-.24h-.1c-.19.08-.38.07-.57.14L16,6.58c-.14,0,0,0,0,0L16,6.45l.13-.07.16-.08.18-.08.12-.06.08,0h.08l.13,0c.23-.12,0-.2,0-.2h-.14l-.2.05-.61.3-.15.06-.15.12-.16.13c-.24.14,0,.31,0,.31h.24l.12,0a.5.5,0,0,0,.24-.07h.13l.09,0,.16,0c.25-.09,0,0,0,0l-.06.06-.17.06-.2.09L16,7l-.09,0h-.1l-.09,0-.08,0-.07,0-.1,0h-.17c-.31,0-.21.15-.21.15l.1.22.15.22.08.14.08,0,.07.07.08,0V8a7.84,7.84,0,0,1,1.07-.37l.16-.06c.19,0,0,0,0,0l-.28.11-.28.1L16,7.92l-.41.17-.16.09-.1,0,0-.12L15.15,8H15l0,0-.07.07-.07.07c-.09,0-.28.16-.28.16h-.12v.1h-.09l-.05,0-.06-.14-.1,0a6.59,6.59,0,0,1-.51-.45l-.06,0c-.1-.21-.11,0-.11,0,0,.22-.21.23-.21.23C13,8,13,8.14,13,8.14h-.12l-.07,0-.05.05-.06.06-.07,0-.06,0h-.08l0,0,0,.05-.06,0,0,.05-.1.06-.08.06c-.14,0-.2.13-.2.13s-.28.17-.28.17h-.06l0,0L11.48,9l0,0h-.07c-.08,0,0,0,0,0s0,0,0,0l.06,0,.11-.1a1.63,1.63,0,0,0,.37-.26l.12,0c.06-.14.31-.18.31-.18l.07-.07.12-.12,0,0,.1,0,.1-.11A.41.41,0,0,1,13,7.92l.12-.15.09,0,.09-.06,0,0,.08,0a1.41,1.41,0,0,0,.32-.38.36.36,0,0,0,.05-.16v0a1.34,1.34,0,0,1,0-.2v0h0V6.9h.07V6.83h0l0,0,0,0,0,0V6.64l0,0,0-.06a0,0,0,0,0-.06,0l0,0h-.09l-.05.07h-.09v0l-.21.09,0,0-.07.07L12.89,7l-.09.09-.21.12c-.12,0-.05-.05-.05-.05L12.79,7a.41.41,0,0,1,.14-.19l.1-.06.17-.23c.14-.2,0-.32,0-.32.08-.2-.12-.16-.12-.16L13,6.08l-.13.08-.19.08h-.12l-.12.12-.18.09-.12,0-.06.06-.17.1a2.19,2.19,0,0,0-.49.28c-.3.16-.09,0-.09,0l0,0c0-.06.11-.1.11-.1l.11-.1h.08c0-.08.12-.13.12-.13L12,6.36l.16-.16.45-.33a.28.28,0,0,1,.13-.18V5.52l0,0,0,0c.06-.18-.1,0-.1,0h-.09l-.09.07-.13.07-.08.08h-.06l-.11,0,0,.06-.11,0,0,0h-.08c0-.27.65-.63.65-.63.22-.14,0-.22,0-.22l-.08,0-.09,0-.1,0-.16.12a.88.88,0,0,0-.48.66c-.06.22,0,.19,0,.19l.1.08c.11,0-.06,0-.06,0l-.07.08-.09.09h-.06l-.06,0-.15.15H11l-.09.09-.28.21-.11,0L10.35,7l-.21.15a.36.36,0,0,1-.26.13l-.22.22.12,0c.1,0,.17.09.17.09.08.23.23.23.23.23h.19l.14,0,.11-.06V7.66h0v.06h.1V7.64h.06l.1,0,.17-.07.12-.18.12,0,.07-.06L12.08,7l-.54.36-.3.2-.38.29-.47.38a4,4,0,0,0-.67.51H9.64v.11A2.07,2.07,0,0,0,9,9.34l-.2,0c-.3.16-.07.14-.07.14s.17,0,.17,0a.61.61,0,0,1,.23.11c.17.17.29.12.29.12s.31-.18.31-.18.21-.17.21-.17l.26-.12.21-.17c.29-.19,0,.14,0,.14h-.09v0l-.14,0-.3.26v0H9.79s0,.16,0,.11-.15,0-.15,0l-.19.19-.16.14c-.26-.21-.06.06-.06.06l-.11.11c-.13.18,0,.2,0,.2l.23.23,0,.1.17.11c.13.26.32.1.32.1l.27-.15.05,0,.1,0,.15-.08h.07l.07-.06.18-.11.27-.1.19-.09a1.37,1.37,0,0,1,.26-.12l.16-.06c.36-.08,0,.11,0,.11l-.13.07-.14.06-.17.09a.46.46,0,0,0-.19.1l-.19.05a8,8,0,0,1-1.05.54l-.12.06c-.23.23-.14,0-.14,0,.08-.31-.27-.2-.27-.2l-.17.09-.26.11c-.23.08-.17-.11-.17-.11a.1.1,0,0,0-.1-.1l0,0a.13.13,0,0,1-.08-.15l0-.13c-.14-.09-.09-.15-.09-.15s.06-.15.06-.15,0-.16,0-.16l0-.08c.2-.12.06-.22.06-.22a.2.2,0,0,0-.24,0c-.18.11-.08.25-.08.25l.15.15c-.12,0-.37.24-.37.24s0,.14,0,.14,0,.14,0,.14L7.9,11a.66.66,0,0,0-.34.22H7.47l-.13.13-.21.11c-.21,0-.15.14-.15.14a1.45,1.45,0,0,1,.09.36h.08V12a.59.59,0,0,1,.31.06l-.28.19a.6.6,0,0,0-.16.05l-.16.12-.23.15-.35.21H6.19v.1c-.11.1,0,.09,0,.09s.07,0,.07,0-.1.11-.1.11l0,.12.16.14c0,.12.19.1.19.1l.2-.1c.22-.23.25,0,.25,0l.09.19c-.09.14,0,.19,0,.19a1.14,1.14,0,0,0-.49.29l-.11,0c-.26.26-.32.11-.32.11-.37-.29-.34,0-.34,0v.2l.07.18.08.08c.35.16.29.37.29.37l.2.25c.2.26.31.11.31.11a1.51,1.51,0,0,1,.37-.18l.11-.06c.22-.21.28,0,.28,0l.11.1c.18.18.27,0,.27,0s.1.05.1.05,0,.33,0,.33v.22c0,.21-.11.19-.11.19a.65.65,0,0,0-.29.11l-.23.14-.44.21a.15.15,0,0,1-.13.1.52.52,0,0,0-.16,0l-.13.14a.23.23,0,0,0-.13.05,4.53,4.53,0,0,1-.47.25.4.4,0,0,1-.26.13c0,.18-.15.15-.15.15l-.25,0v0c0,.38.41.59.41.59l.25,0c.24.15.32,0,.32,0l.66-.43.81-.42,1.13-.58,1-.48.47-.19-.23.22-.24.18a.4.4,0,0,1-.2.17l-.19.2-.19.13L9,17l-.41.33-.23.23a7.77,7.77,0,0,0-1,1c0,.18-.1.18-.1.18l.07.05,0,0c0,.21.12,0,.12,0l.1.1a.39.39,0,0,0,.06.19l.33.25.21-.11a21.31,21.31,0,0,1,4-2l.39-.17M16.67,12v0h-.09v0h.09Zm.09,0h0v0Zm.18,0h0v0h0v0l0,0h-.06l0-.05v0h.05s.05,0,.05,0Zm-.5-2.38.21-.1.06,0,.07,0,.08,0,0,0h0a.46.46,0,0,1,.24-.07l-.08.09s-.21.09-.24.15h-.1v.07h0s-.06-.1-.2,0l-.09,0v0h0s0,0,.09-.06m-.27,2.62,0,0v0s-.08,0-.08,0,0,0,0,0m-.29.15.07,0,0,0-.13,0Zm-2.6-5.15c.13-.07.15-.13.15-.13l0-.05c.1,0,.08-.1.08-.1h.07a.1.1,0,0,1,0,.18c-.1,0-.08,0-.08,0l0,0c-.12,0-.14.08-.14.08s-.16.06-.16.06,0-.1,0-.1m-.15.12,0,0h0l0,0h0v0h0v0h0V7.24ZM11,8.76h0l0,0v0h0l0,0Zm.13.4,0,0v.05l0,0,0,0V9.17l0,0h0Zm4.29,4.78s.07,0,.07,0l0,0h.07l.06,0c.1,0,.08,0,.08,0a.37.37,0,0,0-.14,0l-.07,0v0c-.05.06-.16,0-.16,0s.07,0,.07,0m-1.24-2.08.09,0,.09,0,0,0,.07,0,.06,0,.07,0,.06,0s.09-.07.11-.05,0,0,0,.12-.12,0-.12,0v0h0v0h-.05v.06a.16.16,0,0,0-.16.07.19.19,0,0,0-.15.1h0s0-.06,0-.07-.06,0,0-.05m-.6-3s.16-.07.16-.13l.09,0,0-.13A.32.32,0,0,0,14,8.48l.13.09-.25.18a.14.14,0,0,0,0,.08s-.19,0-.26.1Zm-3.36,4.2a.29.29,0,0,0,.21-.13v-.31l0-.14s0-.09,0-.09v-.18c.11,0,.09-.15.21-.13S10.9,12,11,12l.3-.14a1.84,1.84,0,0,1,.37-.19c.15-.05.09,0,.08,0l0,0-.25.13c-.11,0-.1.08-.1.08s0,.1,0,.1-.19.1-.19.1c-.34,0-.11.24-.11.24a.17.17,0,0,1,.1.13.15.15,0,0,0,.18.11c.1-.06.09,0,.09,0s-.08.09-.12.05a0,0,0,0,0-.07,0v0c-.22.13-.3.12-.3.12l0,.07c-.17-.18-.14,0-.14,0l-.16.12,0,0c0,.12-.09.1-.09.1s-.06-.06-.06-.06v.09h0c0-.06-.06,0-.06,0-.17,0-.13-.06-.13-.06M9.11,13l.14-.1.18-.09.05,0,0,0h.06l.11-.06.1-.05.1-.05.06,0H10s0,0,0,0l.06,0s.11-.05,0,0l-.07.08a.9.9,0,0,0-.25.18.15.15,0,0,1-.12,0,1.76,1.76,0,0,0-.21.09H9.41a.63.63,0,0,0-.08.11l-.1,0v0H9.11v0S9,13.06,9,13Zm-.69.25s.09.09.08.09l-.28.1s.17-.19.2-.19m3.45,1.64,0,.11,0,.27,0,.21v.16a.74.74,0,0,1-.05.53c.12.12,0,.24,0,.24l-.27.25c-.14,0-.58.23-.58.23l-.75.4,0,0-.1,0,0,0-.13.07H9.76l-.08.11-.1,0,0,.1-.38.2L9,17.78,9,17.72l.48-.44a.63.63,0,0,0,.32-.3A.23.23,0,0,0,10,16.9c0-.08.15-.16.15-.16l.08,0,.07-.07,0,0h.05v-.06l0-.05,0,0,.13,0,.17-.17.26-.27c.17-.05.08-.26.08-.26s-.07-.2-.07-.2l-.12-.22c.11-.11-.11-.11-.11-.11v-.06c.23-.05.07-.07.07-.07h-.08l-.06.06-.06,0h-.08l-.08,0v.07h-.07l-.06-.06h-.16l-.06.07h-.13a.9.9,0,0,0-.43.2c-.06,0-.33.11-.33.11l-.11,0-.06.06H9.05L9,15.59l-.16.08-.16.06s-.39.26-.39.17a1,1,0,0,0-.09-.28l0-.12v0l0,0v-.1l0,0v-.14A.25.25,0,0,1,8.3,15l0,0,0,0v-.05h.08l.05-.05.1,0,.12,0,.21-.12c.26-.15.12-.22.12-.22l-.12-.22c-.09-.18.1-.17.1-.17L9.21,14a.82.82,0,0,1,.33-.17l.28-.12c.28,0,.1-.23.1-.23l.34-.12.14.11h-.1v.08c-.21.1-.1.22-.1.22l.17.18c.22.21.28,0,.28,0a.44.44,0,0,0,.17-.07l0,0a.94.94,0,0,1,.19-.07l.07-.1h.14l.15-.09.28-.15c.1-.1.13,0,.13,0,0,.15-.18.13-.18.13a.16.16,0,0,0-.13.15l.23.3.13.21,0,.42.08.12-.05.05Zm.24-3.31,0,0c-.08-.09-.12,0-.12,0l-.18.08s0-.11,0-.11l0,0a.19.19,0,0,1,.1,0,.5.5,0,0,0,.15-.05l.08-.08h.1l0-.07a.29.29,0,0,0,.2,0l0-.05c.13,0,.15,0,.15-.07s.09,0,.09,0c0,.18-.15.11-.15.11v.07a.19.19,0,0,0-.14,0v.06a.24.24,0,0,0-.17.07h-.06l0,.06,0,0-.06,0Zm0,4.54c.13-.06.12-.36.12-.36v-.49l0-.06V14.1c0-.26.12-.29.12-.29l.18-.09c.25-.14.19-.19.19-.19l0-.12c-.05-.32-.25-.24-.25-.24l-.23.1v-.12l.05-.05a.8.8,0,0,0,.34-.19.22.22,0,0,1,.28,0L13,13v.08c0,.37.12.19.12.19a1.11,1.11,0,0,1,.34-.18l.32-.17c.34-.19.42,0,.42,0l-.06.07.08.08-.15,0-.06.06h-.18l0,0v0l.08.09c-.29.05,0,.1,0,.1.34.19,0,.22,0,.22s-.16.2-.21.15-.23.06-.23.06l-.24.16L13.11,14l0,0L13,14l-.1,0,.07.06,0,.13c.13.12,0,.16,0,.16-.15,0-.07.07-.07.07l.25.24c.15.15.23.07.23.07l.12,0a.28.28,0,0,0,.37,0c.06-.13.29-.17.29-.17l.09-.08.11,0,.13-.09.42-.21a.24.24,0,0,0,.17-.1l.18-.06v.16l.06.06.11.12c.05.24.35.08.35.08V15h-.1l-.07.07h-.06l-.07.07h-.1l0,0-.11.11h-.16l-.2.1a.36.36,0,0,0-.24.09l-.07,0-.09,0h-.1l-.08,0-.15.08a2,2,0,0,0-.59.22l-.2.06a.49.49,0,0,0-.23.1l-.07.07h-.17l-.06.06h-.09l-.05.05-.1.05H12.5l-.07.07h-.09l0,0-.05,0h-.08Zm9.39-1.37-.06.08,0-.07.07,0,0,0,.08-.06-.13,0,0,.07-.06.07-.12,0,0-.06,0,0-.52.14a5.58,5.58,0,0,0-.64.15l-.79.2c-.28.09-.56.15-.66.2l-.45.16a4.38,4.38,0,0,0-.54.16,5,5,0,0,1-.64.24,3.4,3.4,0,0,0-.49.15l-.49.17a2.21,2.21,0,0,0-.41.13,1.93,1.93,0,0,1-.32.13c-.07,0-.08,0-.15.05a1.2,1.2,0,0,1-.28.13,1.56,1.56,0,0,1-.24.11,2.22,2.22,0,0,0-.3.11L14,17l-.17,0s-.05.1-.11.11l-.18.05a.81.81,0,0,0-.12.08.4.4,0,0,0-.15.05c-.05.05-.08.11-.11.11s-.09,0-.16.06l-.28.14a1.51,1.51,0,0,0-.22.13l-.2.11a.83.83,0,0,1-.19.15s0,.06-.1.1l-.18.14s.24.41.57.41a3.22,3.22,0,0,1,.94-.7,21.75,21.75,0,0,1,3.24-1.44c1.78-.64,4-1.29,4-1.29l.77-.18a.48.48,0,0,0,.13,0l.11-.08V14.7Z"/></svg>