<svg id="Laag_1" data-name="Laag 1" xmlns="http://www.w3.org/2000/svg" viewBox="0 0 110.35 24.89"><path d="M6,14a11.43,11.43,0,0,0,.47,3.39c.07.25,0,.32-.23.31s-.67,0-1,0a.34.34,0,0,1-.4-.26,10.18,10.18,0,0,1-.63-5.18A10,10,0,0,1,7.75,5.78a9.92,9.92,0,0,1,8.54-2.27A10,10,0,0,1,24.08,10a10.05,10.05,0,0,1,0,7.32c-.11.31-.26.47-.61.43a7,7,0,0,0-.92,0c-.17,0-.26,0-.2-.24a11.81,11.81,0,0,0,.36-5.38,9.91,9.91,0,0,0-4.6-7.33,6.89,6.89,0,0,0-7.81.26,9.61,9.61,0,0,0-3.79,5.36A11.67,11.67,0,0,0,6,14Z"/><path d="M22,14.82a7.51,7.51,0,0,1-3.16,1.67,9.42,9.42,0,0,1-4.57,0c-.1,0-.24,0-.28-.11s.11-.16.19-.22A8.15,8.15,0,0,1,20,14.46,8.84,8.84,0,0,1,22,14.82Z"/><path d="M13.34,16.75c0,.24,0,.47,0,.7s-.08.28-.27.26a1.87,1.87,0,0,0-.41,0c-.22,0-.27-.08-.26-.28.05-.86.09-1.72.15-2.58a9.21,9.21,0,0,1,1.95-5.08.32.32,0,0,0,0-.37A1.18,1.18,0,0,1,15.12,8a1.16,1.16,0,0,1,1.48.39,1.11,1.11,0,0,1,.07,1.2,1,1,0,0,1-1.06.61.61.61,0,0,0-.61.32,7.93,7.93,0,0,0-1.26,2.94A13.88,13.88,0,0,0,13.34,16.75Z"/><path d="M9.16,22.51H19.6a8.37,8.37,0,0,1-3.66,1.37A10,10,0,0,1,9.16,22.51Z"/><path d="M10.91,14.53A4.83,4.83,0,0,1,6.69,12c-.22-.36-.2-.38.23-.44A4.73,4.73,0,0,1,11.19,13a8.17,8.17,0,0,1,.92,1.12c.13.18.15.29-.12.33A9.07,9.07,0,0,1,10.91,14.53Z"/><path d="M20.24,9.9a1.54,1.54,0,1,1-1.53-1.54A1.55,1.55,0,0,1,20.24,9.9Z"/><path d="M16.2,6.81a1.52,1.52,0,1,1,1.52,1.53A1.52,1.52,0,0,1,16.2,6.81Z"/><path d="M16.22,13.46a1.53,1.53,0,1,1,1.54-1.52A1.54,1.54,0,0,1,16.22,13.46Z"/><path d="M12.69,7.65a1.53,1.53,0,0,1,0,3,1.53,1.53,0,1,1,0-3Z"/><path d="M13,6.28a1.53,1.53,0,0,1,3.05,0,1.53,1.53,0,1,1-3.05,0Z"/><path d="M10.81,20.08a2.46,2.46,0,0,1-.15,1,1,1,0,0,1-.92.79,1,1,0,0,1-1-.6,2.75,2.75,0,0,1,0-2.33.93.93,0,0,1,1.09-.57,1,1,0,0,1,.84.75A2.37,2.37,0,0,1,10.81,20.08Zm-1.49,0c0,.26,0,.52,0,.78s.08.32.28.32.26-.16.28-.32a6.61,6.61,0,0,0,0-1.54c0-.16-.08-.32-.28-.32s-.27.16-.28.32S9.34,19.82,9.32,20.08Z"/><path d="M19.1,20.09A3,3,0,0,1,19.25,19a.92.92,0,0,1,.81-.66.84.84,0,0,1,.93.56,3.15,3.15,0,0,1,0,2.34.84.84,0,0,1-.95.57.89.89,0,0,1-.8-.7A3.24,3.24,0,0,1,19.1,20.09Zm1.26,0h0c0-.28,0-.57,0-.85,0-.12,0-.27-.21-.27s-.21.13-.22.26a12.06,12.06,0,0,0,0,1.7c0,.13.05.27.21.27s.21-.13.22-.25C20.37,20.66,20.36,20.38,20.36,20.09Z"/><path d="M18.9,20a3.14,3.14,0,0,1-.2,1.18.9.9,0,0,1-.86.62.85.85,0,0,1-.88-.6,3.46,3.46,0,0,1,0-2.29.83.83,0,0,1,.91-.59.89.89,0,0,1,.83.66A3.25,3.25,0,0,1,18.9,20ZM17.59,20a7.72,7.72,0,0,0,0,1c0,.13.08.22.22.21S18,21.1,18,21a6.71,6.71,0,0,0,0-1.79c0-.12-.05-.23-.2-.23s-.2.13-.21.26C17.61,19.51,17.6,19.79,17.59,20Z"/><path d="M7.28,21.86a1.17,1.17,0,0,1-1-.68c-.07-.14-.06-.23.1-.29a1.77,1.77,0,0,0,.31-.15c.11-.06.18,0,.22.08A.86.86,0,0,0,7,21a.36.36,0,0,0,.38.17.26.26,0,0,0,.22-.2.33.33,0,0,0-.17-.37A4.78,4.78,0,0,0,7,20.35a1,1,0,0,1-.66-1,1,1,0,0,1,.52-.94,1,1,0,0,1,1.41.49c0,.08,0,.15,0,.19l-.39.2c-.2.09-.21-.12-.3-.2s-.28-.16-.41,0a.23.23,0,0,0,.08.37c.21.13.44.22.65.34A1,1,0,0,1,8.32,21,1.11,1.11,0,0,1,7.28,21.86Z"/><path d="M16.26,19.41V20c0,.18-.06.38.25.39s.09.21.1.32,0,.25-.12.25-.23.2-.23.36c0,.41-.26.58-.66.44-.14-.05-.09-.17-.09-.26,0-.53,0-.53-.54-.53s-.66-.25-.43-.72.58-1.12.88-1.68a.81.81,0,0,1,.79-.16c.07,0,.05.13.05.2Zm-1.21.94c.5,0,.62-.19.4-.79Z"/><path d="M22.89,19.81c0,.37,0,.74,0,1.11,0,.17,0,.29.23.27s.19.2.21.35,0,.24-.23.24q-.59,0-1.17,0c-.19,0-.24-.09-.22-.25s-.08-.37.22-.34c.15,0,.23,0,.23-.21,0-.5,0-1,0-1.49,0-.15,0-.22-.2-.16s-.22.09-.22-.06-.13-.4.09-.51.41-.2.61-.33.46,0,.46.27Z"/><path d="M13.68,19.79V21c0,.15,0,.24.21.23.32,0,.2.21.22.37s-.09.22-.25.22c-.37,0-.75,0-1.13,0-.21,0-.23-.11-.21-.26s-.09-.35.19-.33.25-.08.25-.26c0-.48,0-.95,0-1.42,0-.13,0-.24-.19-.19s-.23.11-.23-.07-.13-.39.11-.5a4.83,4.83,0,0,0,.55-.3c.27-.18.49-.05.49.26Z"/><path d="M6,20.12c0,.46,0,.92,0,1.38,0,.2,0,.3-.26.28a1.14,1.14,0,0,0-.32,0c-.15,0-.2-.07-.2-.21q0-1.49,0-3c0-.14,0-.22.2-.21H5.5c.45,0,.45,0,.45.43Z"/><path d="M5.14,5.65c0,.25.17.48.06.62s-.37,0-.61.09l.66.56c.08.06.17.11.07.22s-.16,0-.22,0l-.91-.72c-.06,0-.14-.08-.09-.18a.2.2,0,0,1,.17-.12h.19c.51,0,.51,0,.4-.52,0-.12-.1-.26,0-.34s.23.07.32.14c.26.19.51.4.76.61.07,0,.19.09.1.22s-.18,0-.27,0Z"/><path d="M13.51,1.45c-.06,0-.09.05-.11.08-.31.39-.31.39-.68.05a.43.43,0,0,1-.12-.06c0,.3.06.56.09.83,0,.09.06.2-.09.23s-.14-.1-.15-.18c0-.39-.1-.78-.14-1.16,0-.07,0-.13.06-.16a.18.18,0,0,1,.23,0c.14.16.27.33.42.52l.4-.62a.2.2,0,0,1,.21-.1c.08,0,.08.08.09.14,0,.39.1.77.14,1.16,0,.09.06.2-.1.22s-.14-.11-.15-.21C13.57,2,13.54,1.73,13.51,1.45Z"/><path d="M26.31,16.63c0-.22-.33-.31-.27-.5s.33-.15.47-.32a3.72,3.72,0,0,0-.76-.2c-.11,0-.23,0-.19-.19s.15-.08.23-.06l1.05.22c.08,0,.19,0,.21.11s-.05.17-.13.23-.48.12-.51.32.22.31.33.47a.2.2,0,0,1,.05.23c-.06.11-.15.06-.22,0l-1.08-.24c-.1,0-.2,0-.18-.16s.14-.1.22-.08A3.42,3.42,0,0,0,26.31,16.63Z"/><path d="M22.7,4.56c-.24-.06-.46.15-.62,0s0-.37-.09-.61l-.54.64c-.06.07-.12.16-.23.07s0-.17,0-.23L22,3.59c.05-.06.09-.13.18-.09a.19.19,0,0,1,.12.2c0,.21-.1.49,0,.61s.39-.06.59-.08a.23.23,0,0,1,.23.08c.08.09,0,.15-.06.21l-.73.87c-.05.06-.1.15-.2.07s-.06-.16,0-.24Z"/><path d="M17,2.26c.06-.34.1-.6.15-.86,0-.09,0-.23.18-.19s.08.14.07.22c-.06.36-.12.71-.19,1.06,0,.08,0,.21-.12.22s-.16-.06-.21-.15c-.22-.36-.44-.71-.68-1.12L16,2.32c0,.09,0,.21-.15.19s-.09-.13-.08-.21l.18-1c0-.1,0-.24.14-.25s.16.11.22.2c.16.28.33.56.5.84Z"/><path d="M2.73,14.1H1.88c-.08,0-.18,0-.18-.11s.09-.12.18-.12L3,13.79c.08,0,.18,0,.21.08a.21.21,0,0,1-.08.22l-.93.85.06.09L3.09,15c.09,0,.21,0,.23.1s-.12.12-.2.13L2,15.3c-.08,0-.18,0-.22-.07s0-.17.08-.23l.91-.83Z"/><path d="M7.83,4.05c-.21-.28-.38-.5-.53-.72,0-.06-.13-.13,0-.21s.17,0,.23.07l.66.88c0,.06.15.12.09.21s-.17.09-.28.07l-1-.22a.26.26,0,0,0-.21,0l.51.68c0,.07.12.13,0,.21S7.1,5,7,5l-.66-.88c0-.07-.15-.12-.09-.21s.16-.09.26-.07l1,.22Z"/><path d="M4.58,7.5l-.79-.45c-.07,0-.2-.06-.13-.2s.16-.06.24,0l1,.55c.07,0,.18.06.16.16s-.11.15-.21.17L3.52,8c.3.18.54.3.76.44s.21.07.14.21-.18.05-.26,0l-1-.55c-.06,0-.15-.05-.13-.14a.18.18,0,0,1,.18-.15Z"/><path d="M24.23,6.14l-.73.51c-.07,0-.14.16-.24,0s0-.18.11-.24l.9-.64c.05,0,.1-.12.19-.07s.09.15.07.25-.11.41-.16.61-.09.41-.15.68L25,6.77c.08,0,.15-.14.24,0s0,.16-.1.21l-.9.63c-.06.05-.11.15-.21.07s-.08-.16-.06-.26C24,7,24.11,6.62,24.23,6.14Z"/><path d="M3.22,10.32a.82.82,0,0,1-.8-.78.85.85,0,0,1,.81-.87A.78.78,0,0,1,4,9.44.85.85,0,0,1,3.22,10.32Zm0-1.4a.65.65,0,0,0-.56.59.59.59,0,0,0,.59.55.57.57,0,0,0,0-1.14Z"/><path d="M19.94,3.74a1,1,0,0,1-1-.8.82.82,0,0,1,.69-.82,1,1,0,0,1,.86.37.16.16,0,0,1,0,.2c-.09.09-.12,0-.17,0s-.38-.36-.66-.28a.57.57,0,0,0-.44.56.57.57,0,0,0,.45.54c.08,0,.18.06.24-.06s0-.18-.08-.22-.09-.11,0-.18S19.9,3,20,3s.36,0,.27.26S20.13,3.71,19.94,3.74Z"/><path d="M2.49,10.5s.13,0,.16.06c.21.32.45.13.69,0s.23-.21.3,0-.12.21-.25.26L3,11a.19.19,0,0,0-.13.17c0,.1.11.08.17.11l.3.07c.08,0,.14.05.12.15a.12.12,0,0,1-.16.1l-1.23-.29A.13.13,0,0,1,2,11.24.69.69,0,0,1,2.49,10.5Zm-.06.65c.16.06.21,0,.22-.14a.2.2,0,0,0-.2-.23c-.14,0-.21.09-.23.21S2.36,11.11,2.43,11.15Z"/><path d="M15.48,2.33c0,.09,0,.12-.07.13s-.15,0-.19-.13S15.12,2,14.85,2s-.44,0-.5.3c0,.1-.11.17-.22.12s0-.16,0-.23c.17-.38.35-.76.53-1.14,0-.07.06-.14.15-.14S14.94,1,15,1c.17.41.34.82.5,1.23A.21.21,0,0,1,15.48,2.33Zm-.68-1a.84.84,0,0,0-.17.36c.11,0,.26.08.3,0S14.91,1.5,14.8,1.38Z"/><path d="M18.68,3c0,.1.06.23-.09.24s-.18-.1-.17-.21-.12-.33-.33-.41a.36.36,0,0,0-.48.15c-.07.1-.16.15-.26.06s0-.15.06-.2l.84-1s.09-.12.18-.09.1.09.1.17C18.58,2.13,18.63,2.55,18.68,3Zm-.36-1c-.12.19-.29.23-.25.39s.18.13.23.08S18.34,2.14,18.32,1.91Z"/><path d="M9.37,2.76c0-.17,0-.34,0-.51s-.06-.25.07-.31.22.08.31.16c.27.24.52.49.78.73.07.07.23.11.14.24s-.21,0-.29-.06-.29-.17-.5-.08-.32.17-.28.4,0,.27-.15.25-.08-.14-.08-.23S9.37,3,9.37,2.76Zm.55-.14a.94.94,0,0,0-.29-.27.64.64,0,0,0,0,.41A.44.44,0,0,0,9.92,2.62Z"/><path d="M3.24,16l-.07-.38c0-.07,0-.15.08-.17s.14,0,.15.12l.12.58c0,.11,0,.16-.12.18l-1.2.25c-.06,0-.14,0-.16-.06s-.1-.45-.14-.67A.1.1,0,0,1,2,15.7c.08,0,.11,0,.13.11a2.33,2.33,0,0,1,.05.28c0,.14.07.2.22.17s.21-.09.19-.26-.18-.36,0-.4.14.24.18.37.09.19.23.17S3.26,16.07,3.24,16Z"/><path d="M26.29,14.24c.15,0,.42,0,.69.06s.23.07.2.23,0,.34,0,.51,0,.14-.13.14-.11-.07-.11-.15,0-.19,0-.29,0-.2-.15-.2-.24,0-.26.18.09.39-.13.38-.09-.25-.1-.38-.06-.23-.22-.24-.18.08-.2.21.08.42-.15.4-.08-.28-.08-.42C25.65,14.21,25.66,14.21,26.29,14.24Z"/><path d="M5.9,4.19,6,4.26s.05.1,0,.14a2.28,2.28,0,0,1-.22.22c-.1.09-.19.16,0,.3s.19.13.33,0,.18-.36.35-.18-.12.24-.21.34-.1.19,0,.31.2.12.31,0,.15-.14.22-.22a.11.11,0,0,1,.17,0,.1.1,0,0,1,0,.16l-.47.47c-.09.09-.15,0-.21,0-.28-.28-.56-.57-.83-.86,0,0-.09-.11-.08-.13Z"/><path d="M23.44,5.94l-.22-.29c-.09-.12-.17-.16-.3,0s-.15.21,0,.32l0,0c0,.13.34.19.15.36s-.23-.11-.32-.2c-.35-.37-.35-.38,0-.73.19-.18.4-.34.58-.53s.23-.13.34,0,.22.23.33.34.1.14,0,.22-.13,0-.18,0a1.54,1.54,0,0,1-.17-.19c-.11-.15-.2-.12-.33,0s-.07.21,0,.31a1,1,0,0,1,.19.21C23.67,5.83,23.57,5.86,23.44,5.94Z"/><path d="M21.06,4.33c0,.09-.08.19-.21.11l-.53-.35c-.11-.07-.08-.14,0-.24l.63-1c.07-.11.14-.13.25-.05s.3.19.45.29.16.09.08.19-.13.06-.2,0a1.82,1.82,0,0,1-.23-.15c-.16-.13-.21,0-.3.09s0,.19.08.27.38.11.26.3-.25,0-.38-.11-.19-.13-.28,0-.13.23.05.33A.81.81,0,0,1,21.06,4.33Z"/><path d="M25.32,9.53a1.84,1.84,0,0,0-.06.18c0,.16,0,.32.14.37s.23-.13.28-.26.05-.18.08-.27a.39.39,0,0,1,.51-.3.54.54,0,0,1,.3.6.17.17,0,0,1-.16.13c-.14,0-.07-.1-.07-.16s0-.31-.17-.33-.19.17-.23.3,0,.2-.08.3a.42.42,0,0,1-.58.22A.61.61,0,0,1,25,9.68C25.08,9.57,25.17,9.54,25.32,9.53Z"/><path d="M25.89,11.79v.06c-.08.19-.22.43,0,.53s.28-.19.36-.35.26-.41.56-.32a.49.49,0,0,1,.28.6c0,.12-.1.2-.22.17s0-.13,0-.2.05-.3-.13-.34-.19.12-.25.23a1.83,1.83,0,0,1-.14.28.44.44,0,0,1-.61.13.6.6,0,0,1-.13-.69C25.69,11.79,25.78,11.81,25.89,11.79Z"/><path d="M2.69,12.88,2,12.51c-.11,0-.24-.11-.16-.25s.17,0,.25,0L3.35,13l-1.53.53s-.1.06-.12,0,0-.15.08-.18l.44-.17A1.31,1.31,0,0,0,2.69,12.88Z"/><path d="M24.53,8.53a.11.11,0,0,1-.13-.08c-.06-.09,0-.13.07-.17.26-.14.52-.29.78-.41s.25-.17.13-.36-.16-.19,0-.27.17.08.21.16c.15.26.28.52.42.78,0,.08.06.16,0,.21s-.14,0-.16-.1c-.1-.31-.26-.31-.51-.15A5.83,5.83,0,0,1,24.53,8.53Z"/><path d="M8.22,2.81,7.94,3c-.07,0-.14,0-.19,0s0-.11.06-.15l.91-.5a.11.11,0,0,1,.16,0,.11.11,0,0,1-.06.18c-.39.12-.29.33-.12.57s.23.4.34.6.09.15,0,.21-.15,0-.2-.08L8.36,3C8.32,2.89,8.31,2.8,8.22,2.81Z"/><path d="M26.36,13.53h-.54c-.08,0-.14,0-.14-.12s.06-.12.14-.12c.27,0,.55,0,.82,0s.37,0,.32-.32c0-.08,0-.21.11-.21s.12.12.13.21v.92c0,.07,0,.15-.1.15S27,14,27,13.94C27.06,13.29,26.57,13.59,26.36,13.53Z"/><path d="M26.72,10.2c.17.35-.22.46-.28.73a4.93,4.93,0,0,1,.46.23.18.18,0,0,1,.08.25c-.05.08-.13,0-.19,0a1.18,1.18,0,0,0-1.16-.15c-.08,0-.2.06-.24-.07s0-.17.12-.17a1.41,1.41,0,0,0,1.13-.75S26.69,10.21,26.72,10.2Z"/><path d="M11.75,2.69l-.05.07s-.06,0-.09,0c-.66.3-.7.29-.91-.39-.07-.23-.13-.46-.2-.69s-.06-.15.05-.19.16,0,.18.11l.21.7c.11.39.11.38.51.28C11.55,2.58,11.7,2.46,11.75,2.69Z"/><path d="M2,11.73l1.15.16c.08,0,.18,0,.18.13s-.12.12-.21.11L2,12c-.08,0-.17,0-.15-.15S1.94,11.71,2,11.73Z"/></svg>