<?xml version="1.0" encoding="UTF-8"?><svg id="Laag_1" xmlns="http://www.w3.org/2000/svg" viewBox="0 0 675 126"><defs><style>.cls-1{fill:#e23b17;}.cls-2,.cls-3{fill:#fff;}.cls-4{font-size:40px;}.cls-5{letter-spacing:0em;}.cls-6{font-size:20px;}.cls-3{font-family:Abel-Regular, Abel;}</style></defs><rect class="cls-1" width="675" height="126"/><circle class="cls-2" cx="82.72" cy="63.59" r="47.48"/><text class="cls-3" transform="translate(171.15 60.42)"><tspan class="cls-4"><tspan class="cls-5" x="0" y="0">M</tspan><tspan x="25.76" y="0">aak vrij</tspan><tspan class="cls-5" x="134.71" y="0">b</tspan><tspan x="152.48" y="0">lijvende belafspraak</tspan></tspan><tspan class="cls-6"><tspan x="0" y="36">met Calendly</tspan></tspan></text><path class="cls-1" d="m59.14,54.22c.03-2.74.65-5.56,2.17-8.15,1.01-1.71,2.28-3.2,3.86-4.42.78-.61,1.49-1.31,2.28-1.91,1.32-1.02,2.69-1.06,4.06-.17.45.29.83.68,1.21,1.06.99,1.03,1.74,2.24,2.5,3.43.89,1.39,1.8,2.78,2.37,4.34.38,1.04.6,2.09.41,3.2-.21,1.22-.89,2.17-1.8,2.98-1,.89-2.02,1.74-3.1,2.53-1.3.95-1.83,2.52-1.48,4.1.45,2.01,1.48,3.72,2.64,5.38,1.31,1.86,2.79,3.59,4.36,5.23,1.57,1.63,3.22,3.19,5.26,4.23,1.45.74,2.95,1.11,4.49.21.65-.38,1.11-.98,1.65-1.49.98-.93,1.93-1.89,3.1-2.6,1.39-.84,2.85-.83,4.33-.26,1.22.47,2.29,1.19,3.3,2.02,1.54,1.27,3.11,2.51,4.44,4.01.51.58.97,1.19,1.26,1.92.53,1.34.31,2.66-.76,3.64-1.42,1.32-2.79,2.71-4.41,3.79-2.08,1.39-4.37,2.26-6.86,2.54-3.87.43-7.49-.42-10.96-2.11-3.14-1.53-5.9-3.58-8.48-5.9-2.97-2.67-5.62-5.64-8.05-8.79-2.32-3.01-4.34-6.2-5.81-9.72-1.18-2.83-1.92-5.77-1.95-9.09Z"/></svg>