<?xml version="1.0" encoding="UTF-8"?><svg id="Laag_1" xmlns="http://www.w3.org/2000/svg" viewBox="0 0 756.67 141.25"><defs><style>.cls-1{fill:#e23b17;}.cls-2{fill:#fff;}</style></defs><rect class="cls-1" y="0" width="756.67" height="141.25"/><circle class="cls-2" cx="92.73" cy="71.28" r="53.22"/><path class="cls-2" d="m280.86,64.37h-1.34l-7.95-22.42h2.69l5.85,16.99.09,1.16.09-1.16,5.82-16.99h2.69l-7.95,22.42Z"/><path class="cls-2" d="m298.53,44.51c-.54,0-1.05.1-1.52.31-.48.2-.89.48-1.24.83s-.63.76-.83,1.24c-.21.47-.31.98-.31,1.52v15.96h-2.69v-22.42h.9l1.47,2.28c.61-.83,1.38-1.49,2.31-1.98.93-.49,1.94-.73,3.03-.73h1.58v3h-2.69Z"/><path class="cls-2" d="m305.49,36.57v-3.59h3.13v3.59h-3.13Zm.22,27.81v-22.42h2.69v22.42h-2.69Z"/><path class="cls-2" d="m317.76,69.31c-.34.8-.81,1.49-1.41,2.09-.6.6-1.3,1.07-2.1,1.42-.8.35-1.66.53-2.56.53v-2.56c.54,0,1.05-.1,1.52-.31.47-.2.89-.48,1.24-.83s.63-.76.83-1.24c.2-.47.31-.98.31-1.52v-24.94h2.69v24.81c0,.91-.17,1.75-.51,2.55Zm-2.4-32.74v-3.59h3.13v3.59h-3.13Z"/><path class="cls-2" d="m339.02,60.78c-.34.8-.81,1.5-1.41,2.1-.6.6-1.3,1.07-2.1,1.41-.8.34-1.66.51-2.56.51h-1.8c-.91,0-1.76-.17-2.56-.51-.8-.34-1.5-.81-2.1-1.41-.6-.6-1.07-1.3-1.41-2.1-.34-.8-.51-1.66-.51-2.56v-25.24h2.69v10.86c.61-.73,1.35-1.3,2.21-1.71.86-.41,1.8-.61,2.8-.61h.68c.9,0,1.76.17,2.56.51.8.34,1.5.81,2.1,1.41.6.6,1.07,1.3,1.41,2.1.34.8.51,1.66.51,2.56v10.12c0,.91-.17,1.76-.51,2.56Zm-2.18-12.83c0-.54-.1-1.05-.31-1.52-.21-.47-.48-.89-.83-1.24s-.76-.63-1.24-.83c-.48-.2-.98-.31-1.52-.31h-1.8c-.54,0-1.05.1-1.52.31-.48.2-.89.48-1.24.83s-.63.76-.83,1.24c-.21.47-.31.98-.31,1.52v10.42c0,.54.1,1.05.31,1.52.2.47.48.89.83,1.24s.76.63,1.24.83c.47.2.98.31,1.52.31h1.8c.54,0,1.05-.1,1.52-.31.47-.2.89-.48,1.24-.83s.63-.76.83-1.24c.2-.47.31-.98.31-1.52v-10.42Z"/><path class="cls-2" d="m345.38,64.37v-31.4h2.69v31.4h-2.69Z"/><path class="cls-2" d="m355.04,36.57v-3.59h3.13v3.59h-3.13Zm.22,27.81v-22.42h2.69v22.42h-2.69Z"/><path class="cls-2" d="m367.31,69.31c-.34.8-.81,1.49-1.41,2.09-.6.6-1.3,1.07-2.1,1.42-.8.35-1.66.53-2.56.53v-2.56c.54,0,1.05-.1,1.52-.31.47-.2.89-.48,1.24-.83s.63-.76.83-1.24c.2-.47.31-.98.31-1.52v-24.94h2.69v24.81c0,.91-.17,1.75-.51,2.55Zm-2.4-32.74v-3.59h3.13v3.59h-3.13Z"/><path class="cls-2" d="m381.14,64.37h-1.34l-7.95-22.42h2.69l5.85,16.99.09,1.16.09-1.16,5.82-16.99h2.69l-7.95,22.42Z"/><path class="cls-2" d="m406.68,60.78c-.34.8-.81,1.5-1.41,2.1-.6.6-1.3,1.07-2.1,1.41-.8.34-1.66.51-2.56.51h-1.8c-.91,0-1.76-.17-2.56-.51-.8-.34-1.5-.81-2.1-1.41-.6-.6-1.07-1.3-1.41-2.1-.34-.8-.51-1.66-.51-2.56v-10.12c0-.91.17-1.76.51-2.56.34-.8.81-1.5,1.41-2.1.6-.6,1.3-1.07,2.1-1.41.8-.34,1.66-.51,2.56-.51h1.8c.9,0,1.76.17,2.56.51.8.34,1.5.81,2.1,1.41.6.6,1.07,1.3,1.41,2.1.34.8.51,1.66.51,2.56v5.28h-12.28v4.99c0,.54.1,1.05.31,1.52.2.47.48.89.83,1.24s.76.63,1.24.83c.47.2.98.31,1.52.31h1.8c.54,0,1.05-.1,1.52-.31.47-.2.89-.48,1.24-.83s.63-.76.83-1.24c.2-.47.31-.98.31-1.52v-1.49l2.69.44v.9c0,.91-.17,1.76-.51,2.56Zm-2.18-12.83c0-.54-.1-1.05-.31-1.52-.21-.47-.48-.89-.83-1.24s-.76-.63-1.24-.83c-.48-.2-.98-.31-1.52-.31h-1.8c-.54,0-1.05.1-1.52.31-.48.2-.89.48-1.24.83s-.63.76-.83,1.24c-.21.47-.31.98-.31,1.52v3.33h9.59v-3.33Z"/><path class="cls-2" d="m424.86,64.37v-16.42c0-.54-.1-1.05-.31-1.52-.21-.47-.48-.89-.83-1.24s-.76-.63-1.24-.83c-.48-.2-.98-.31-1.52-.31h-1.8c-.54,0-1.05.1-1.52.31-.48.2-.89.48-1.24.83s-.63.76-.83,1.24c-.21.47-.31.98-.31,1.52v16.42h-2.69v-22.42h.9l1.47,2.28c.61-.83,1.38-1.49,2.31-1.98.93-.49,1.94-.73,3.03-.73h.68c.9,0,1.76.17,2.56.51.8.34,1.5.81,2.1,1.41.6.6,1.07,1.3,1.41,2.1.34.8.51,1.66.51,2.56v16.27h-2.69Z"/><path class="cls-2" d="m447.02,64.37l-1.49-2.28c-.61.83-1.38,1.49-2.3,1.98s-1.93.73-3.02.73h-.68c-.91,0-1.76-.17-2.56-.51-.8-.34-1.5-.81-2.1-1.41-.6-.6-1.07-1.3-1.41-2.1-.34-.8-.51-1.66-.51-2.56v-10.12c0-.91.17-1.76.51-2.56.34-.8.81-1.5,1.41-2.1.6-.6,1.3-1.07,2.1-1.41.8-.34,1.66-.51,2.56-.51h.68c1.01,0,1.94.2,2.8.61.86.41,1.6.98,2.21,1.71v-10.86h2.69v31.4h-.9Zm-1.8-16.42c0-.54-.1-1.05-.31-1.52-.21-.47-.48-.89-.83-1.24s-.76-.63-1.24-.83c-.48-.2-.98-.31-1.52-.31h-1.8c-.54,0-1.05.1-1.52.31-.48.2-.89.48-1.24.83s-.63.76-.83,1.24c-.21.47-.31.98-.31,1.52v10.42c0,.54.1,1.05.31,1.52.2.47.48.89.83,1.24s.76.63,1.24.83c.47.2.98.31,1.52.31h1.8c.54,0,1.05-.1,1.52-.31.47-.2.89-.48,1.24-.83s.63-.76.83-1.24c.2-.47.31-.98.31-1.52v-10.42Z"/><path class="cls-2" d="m467.76,60.78c-.34.8-.81,1.5-1.41,2.1-.6.6-1.3,1.07-2.1,1.41-.8.34-1.66.51-2.56.51h-1.8c-.91,0-1.76-.17-2.56-.51-.8-.34-1.5-.81-2.1-1.41-.6-.6-1.07-1.3-1.41-2.1-.34-.8-.51-1.66-.51-2.56v-10.12c0-.91.17-1.76.51-2.56.34-.8.81-1.5,1.41-2.1.6-.6,1.3-1.07,2.1-1.41.8-.34,1.66-.51,2.56-.51h1.8c.9,0,1.76.17,2.56.51.8.34,1.5.81,2.1,1.41.6.6,1.07,1.3,1.41,2.1.34.8.51,1.66.51,2.56v5.28h-12.28v4.99c0,.54.1,1.05.31,1.52.2.47.48.89.83,1.24s.76.63,1.24.83c.47.2.98.31,1.52.31h1.8c.54,0,1.05-.1,1.52-.31.47-.2.89-.48,1.24-.83s.63-.76.83-1.24c.2-.47.31-.98.31-1.52v-1.49l2.69.44v.9c0,.91-.17,1.76-.51,2.56Zm-2.18-12.83c0-.54-.1-1.05-.31-1.52-.21-.47-.48-.89-.83-1.24s-.76-.63-1.24-.83c-.48-.2-.98-.31-1.52-.31h-1.8c-.54,0-1.05.1-1.52.31-.48.2-.89.48-1.24.83s-.63.76-.83,1.24c-.21.47-.31.98-.31,1.52v3.33h9.59v-3.33Z"/><path class="cls-2" d="m498.44,60.78c-.34.8-.81,1.5-1.41,2.1-.6.6-1.3,1.07-2.1,1.41-.8.34-1.66.51-2.56.51h-1.8c-.91,0-1.76-.17-2.56-.51-.8-.34-1.5-.81-2.1-1.41-.6-.6-1.07-1.3-1.41-2.1-.34-.8-.51-1.66-.51-2.56v-25.24h2.69v10.86c.61-.73,1.35-1.3,2.21-1.71.86-.41,1.8-.61,2.8-.61h.68c.9,0,1.76.17,2.56.51.8.34,1.5.81,2.1,1.41.6.6,1.07,1.3,1.41,2.1.34.8.51,1.66.51,2.56v10.12c0,.91-.17,1.76-.51,2.56Zm-2.18-12.83c0-.54-.1-1.05-.31-1.52-.21-.47-.48-.89-.83-1.24s-.76-.63-1.24-.83c-.48-.2-.98-.31-1.52-.31h-1.8c-.54,0-1.05.1-1.52.31-.48.2-.89.48-1.24.83s-.63.76-.83,1.24c-.21.47-.31.98-.31,1.52v10.42c0,.54.1,1.05.31,1.52.2.47.48.89.83,1.24s.76.63,1.24.83c.47.2.98.31,1.52.31h1.8c.54,0,1.05-.1,1.52-.31.47-.2.89-.48,1.24-.83s.63-.76.83-1.24c.2-.47.31-.98.31-1.52v-10.42Z"/><path class="cls-2" d="m518.8,60.78c-.34.8-.81,1.5-1.41,2.1-.6.6-1.3,1.07-2.1,1.41-.8.34-1.66.51-2.56.51h-1.8c-.91,0-1.76-.17-2.56-.51-.8-.34-1.5-.81-2.1-1.41-.6-.6-1.07-1.3-1.41-2.1-.34-.8-.51-1.66-.51-2.56v-10.12c0-.91.17-1.76.51-2.56.34-.8.81-1.5,1.41-2.1.6-.6,1.3-1.07,2.1-1.41.8-.34,1.66-.51,2.56-.51h1.8c.9,0,1.76.17,2.56.51.8.34,1.5.81,2.1,1.41.6.6,1.07,1.3,1.41,2.1.34.8.51,1.66.51,2.56v5.28h-12.28v4.99c0,.54.1,1.05.31,1.52.2.47.48.89.83,1.24s.76.63,1.24.83c.47.2.98.31,1.52.31h1.8c.54,0,1.05-.1,1.52-.31.47-.2.89-.48,1.24-.83s.63-.76.83-1.24c.2-.47.31-.98.31-1.52v-1.49l2.69.44v.9c0,.91-.17,1.76-.51,2.56Zm-2.18-12.83c0-.54-.1-1.05-.31-1.52-.21-.47-.48-.89-.83-1.24s-.76-.63-1.24-.83c-.48-.2-.98-.31-1.52-.31h-1.8c-.54,0-1.05.1-1.52.31-.48.2-.89.48-1.24.83s-.63.76-.83,1.24c-.21.47-.31.98-.31,1.52v3.33h9.59v-3.33Z"/><path class="cls-2" d="m525.6,64.37v-31.4h2.69v31.4h-2.69Z"/><path class="cls-2" d="m548.65,64.37l-1.49-2.23c-.61.8-1.38,1.45-2.3,1.94s-1.93.73-3.02.73h-.68c-.91,0-1.76-.17-2.56-.51-.8-.34-1.5-.81-2.1-1.41-.6-.6-1.07-1.3-1.41-2.1-.34-.8-.51-1.66-.51-2.56v-.22c0-.91.17-1.76.51-2.56.34-.8.81-1.5,1.41-2.1.6-.6,1.3-1.07,2.1-1.41.8-.34,1.66-.51,2.56-.51h5.69v-3.46c0-.54-.1-1.05-.31-1.52-.21-.47-.48-.89-.83-1.24s-.76-.63-1.24-.83c-.48-.2-.98-.31-1.52-.31h-1.58c-.54,0-1.05.1-1.52.31-.48.2-.89.48-1.24.83s-.63.76-.83,1.24c-.21.47-.31.98-.31,1.52v.81l-2.69-.44v-.22c0-.91.17-1.76.51-2.56.34-.8.81-1.5,1.41-2.1.6-.6,1.3-1.07,2.1-1.41.8-.34,1.66-.51,2.56-.51h1.58c.9,0,1.76.17,2.56.51.8.34,1.5.81,2.1,1.41.6.6,1.07,1.3,1.41,2.1.34.8.51,1.66.51,2.56v16.27h-.9Zm-1.8-10.86h-5.69c-.54,0-1.05.1-1.52.31-.48.2-.89.48-1.24.84s-.63.77-.83,1.25c-.21.47-.31.98-.31,1.52v.94c0,.54.1,1.05.31,1.52.2.47.48.89.83,1.24s.76.63,1.24.83c.47.2.98.31,1.52.31h1.8c.54,0,1.05-.1,1.52-.31.47-.2.89-.48,1.24-.83s.63-.76.83-1.24c.2-.47.31-.98.31-1.52v-4.86Z"/><path class="cls-2" d="m562.64,35.54c-.45,0-.87.08-1.26.25-.39.17-.73.4-1.02.69-.29.29-.52.63-.69,1.03-.17.39-.25.82-.25,1.27v3.17h5.23v2.56h-5.23v19.86h-2.69v-19.86h-4.05v-2.56h4.05v-3.04c0-.82.15-1.59.46-2.31s.73-1.35,1.27-1.89c.54-.54,1.17-.96,1.88-1.27.71-.31,1.48-.46,2.3-.46h2.47v2.56h-2.47Z"/><path class="cls-2" d="m583.22,58.68c0,.91-.18,1.73-.55,2.49-.37.75-.86,1.4-1.49,1.94-.63.54-1.36.96-2.18,1.26-.83.3-1.69.45-2.59.45h-1.8c-.91,0-1.77-.17-2.59-.51-.83-.34-1.55-.81-2.17-1.41-.62-.6-1.12-1.3-1.49-2.1s-.56-1.66-.56-2.56v-.9l2.69-.44v1.49c0,.54.11,1.05.34,1.52.23.47.53.89.91,1.24.38.35.82.63,1.31.83.49.2,1.01.31,1.55.31h1.8c.54,0,1.06-.08,1.55-.24.49-.16.94-.39,1.32-.69.39-.3.69-.66.92-1.08.23-.42.34-.91.34-1.45,0-.8-.18-1.46-.53-1.97s-.81-.94-1.39-1.28c-.58-.34-1.23-.63-1.97-.85-.74-.23-1.49-.45-2.27-.68-.78-.23-1.53-.48-2.27-.78-.74-.29-1.39-.68-1.97-1.15-.58-.47-1.04-1.07-1.39-1.78s-.53-1.61-.53-2.67c0-.91.18-1.73.53-2.49s.82-1.4,1.42-1.94c.6-.54,1.29-.96,2.09-1.26.79-.3,1.64-.45,2.55-.45h1.58c.9,0,1.76.17,2.56.51.8.34,1.5.81,2.1,1.41.6.6,1.07,1.3,1.41,2.1.34.8.51,1.66.51,2.56v.09l-2.69.44v-.68c0-.54-.1-1.05-.31-1.52-.21-.47-.48-.89-.83-1.24s-.76-.63-1.24-.83c-.48-.2-.98-.31-1.52-.31h-1.58c-.54,0-1.05.08-1.52.24-.48.16-.89.39-1.24.69s-.63.66-.83,1.08c-.21.42-.31.91-.31,1.45,0,.77.18,1.4.53,1.89s.81.9,1.39,1.24c.58.34,1.23.62,1.97.84.74.23,1.49.46,2.26.7s1.52.51,2.26.82c.74.31,1.39.7,1.97,1.18.58.48,1.04,1.08,1.39,1.81s.53,1.62.53,2.68Z"/><path class="cls-2" d="m602.85,60.78c-.34.8-.81,1.5-1.41,2.1-.6.6-1.3,1.07-2.1,1.41-.8.34-1.66.51-2.56.51h-.68c-1.01,0-1.94-.2-2.8-.61-.86-.41-1.6-.98-2.21-1.71v10.86h-2.69v-31.4h.9l1.47,2.28c.61-.83,1.38-1.49,2.31-1.98.93-.49,1.94-.73,3.03-.73h.68c.9,0,1.76.17,2.56.51.8.34,1.5.81,2.1,1.41.6.6,1.07,1.3,1.41,2.1.34.8.51,1.66.51,2.56v10.12c0,.91-.17,1.76-.51,2.56Zm-2.18-12.83c0-.54-.1-1.05-.31-1.52-.21-.47-.48-.89-.83-1.24s-.76-.63-1.24-.83c-.48-.2-.98-.31-1.52-.31h-1.8c-.54,0-1.05.1-1.52.31-.48.2-.89.48-1.24.83s-.63.76-.83,1.24c-.21.47-.31.98-.31,1.52v10.42c0,.54.1,1.05.31,1.52.2.47.48.89.83,1.24s.76.63,1.24.83c.47.2.98.31,1.52.31h1.8c.54,0,1.05-.1,1.52-.31.47-.2.89-.48,1.24-.83s.63-.76.83-1.24c.2-.47.31-.98.31-1.52v-10.42Z"/><path class="cls-2" d="m615.34,44.51c-.54,0-1.05.1-1.52.31-.48.2-.89.48-1.24.83s-.63.76-.83,1.24c-.21.47-.31.98-.31,1.52v15.96h-2.69v-22.42h.9l1.47,2.28c.61-.83,1.38-1.49,2.31-1.98.93-.49,1.94-.73,3.03-.73h1.58v3h-2.69Z"/><path class="cls-2" d="m635.7,64.37l-1.49-2.23c-.61.8-1.38,1.45-2.3,1.94s-1.93.73-3.02.73h-.68c-.91,0-1.76-.17-2.56-.51-.8-.34-1.5-.81-2.1-1.41-.6-.6-1.07-1.3-1.41-2.1-.34-.8-.51-1.66-.51-2.56v-.22c0-.91.17-1.76.51-2.56.34-.8.81-1.5,1.41-2.1.6-.6,1.3-1.07,2.1-1.41.8-.34,1.66-.51,2.56-.51h5.69v-3.46c0-.54-.1-1.05-.31-1.52-.21-.47-.48-.89-.83-1.24s-.76-.63-1.24-.83c-.48-.2-.98-.31-1.52-.31h-1.58c-.54,0-1.05.1-1.52.31-.48.2-.89.48-1.24.83s-.63.76-.83,1.24c-.21.47-.31.98-.31,1.52v.81l-2.69-.44v-.22c0-.91.17-1.76.51-2.56.34-.8.81-1.5,1.41-2.1.6-.6,1.3-1.07,2.1-1.41.8-.34,1.66-.51,2.56-.51h1.58c.9,0,1.76.17,2.56.51.8.34,1.5.81,2.1,1.41.6.6,1.07,1.3,1.41,2.1.34.8.51,1.66.51,2.56v16.27h-.9Zm-1.8-10.86h-5.69c-.54,0-1.05.1-1.52.31-.48.2-.89.48-1.24.84s-.63.77-.83,1.25c-.21.47-.31.98-.31,1.52v.94c0,.54.1,1.05.31,1.52.2.47.48.89.83,1.24s.76.63,1.24.83c.47.2.98.31,1.52.31h1.8c.54,0,1.05-.1,1.52-.31.47-.2.89-.48,1.24-.83s.63-.76.83-1.24c.2-.47.31-.98.31-1.52v-4.86Z"/><path class="cls-2" d="m656.06,64.37l-1.49-2.23c-.61.8-1.38,1.45-2.3,1.94s-1.93.73-3.02.73h-.68c-.91,0-1.76-.17-2.56-.51-.8-.34-1.5-.81-2.1-1.41-.6-.6-1.07-1.3-1.41-2.1-.34-.8-.51-1.66-.51-2.56v-.22c0-.91.17-1.76.51-2.56.34-.8.81-1.5,1.41-2.1.6-.6,1.3-1.07,2.1-1.41.8-.34,1.66-.51,2.56-.51h5.69v-3.46c0-.54-.1-1.05-.31-1.52-.21-.47-.48-.89-.83-1.24s-.76-.63-1.24-.83c-.48-.2-.98-.31-1.52-.31h-1.58c-.54,0-1.05.1-1.52.31-.48.2-.89.48-1.24.83s-.63.76-.83,1.24c-.21.47-.31.98-.31,1.52v.81l-2.69-.44v-.22c0-.91.17-1.76.51-2.56.34-.8.81-1.5,1.41-2.1.6-.6,1.3-1.07,2.1-1.41.8-.34,1.66-.51,2.56-.51h1.58c.9,0,1.76.17,2.56.51.8.34,1.5.81,2.1,1.41.6.6,1.07,1.3,1.41,2.1.34.8.51,1.66.51,2.56v16.27h-.9Zm-1.8-10.86h-5.69c-.54,0-1.05.1-1.52.31-.48.2-.89.48-1.24.84s-.63.77-.83,1.25c-.21.47-.31.98-.31,1.52v.94c0,.54.1,1.05.31,1.52.2.47.48.89.83,1.24s.76.63,1.24.83c.47.2.98.31,1.52.31h1.8c.54,0,1.05-.1,1.52-.31.47-.2.89-.48,1.24-.83s.63-.76.83-1.24c.2-.47.31-.98.31-1.52v-4.86Z"/><path class="cls-2" d="m663.25,64.37v-31.4h2.69v31.4h-2.69Zm12.37,0l-9.15-11.21,9.15-11.21h3.5l-9.37,11.21,9.37,11.21h-3.5Z"/><path class="cls-2" d="m211.63,112.57v-12.32c0-.41-.08-.78-.23-1.14s-.36-.67-.62-.93-.57-.47-.93-.62c-.36-.15-.74-.23-1.14-.23h-1c-.41,0-.79.08-1.14.23-.36.15-.67.36-.93.62-.27.26-.48.57-.63.93s-.23.74-.23,1.14v12.32h-2v-12.32c0-.41-.08-.78-.23-1.14s-.37-.67-.63-.93c-.27-.26-.58-.47-.93-.62-.36-.15-.74-.23-1.14-.23h-1c-.41,0-.79.08-1.14.23-.36.15-.67.36-.93.62s-.47.57-.62.93-.23.74-.23,1.14v12.32h-2.02v-16.81h.67l1.1,1.71c.46-.62,1.04-1.12,1.73-1.49.69-.37,1.45-.55,2.27-.55h.16c.95,0,1.81.24,2.58.71s1.36,1.09,1.77,1.87c.21-.38.46-.73.77-1.05s.65-.59,1.02-.81c.37-.22.78-.4,1.22-.53.44-.12.89-.19,1.36-.19h.16c.68,0,1.32.13,1.92.39.6.26,1.13.61,1.58,1.06s.8.97,1.06,1.58c.26.6.39,1.24.39,1.92v12.2h-2.02Z"/><path class="cls-2" d="m228.54,109.88c-.26.6-.61,1.13-1.06,1.58s-.97.8-1.58,1.06c-.6.26-1.24.39-1.92.39h-1.35c-.68,0-1.32-.13-1.92-.39-.6-.26-1.13-.61-1.58-1.06s-.8-.97-1.06-1.58c-.26-.6-.39-1.24-.39-1.92v-7.59c0-.68.13-1.32.39-1.92.26-.6.61-1.13,1.06-1.58s.97-.8,1.58-1.06c.6-.26,1.24-.39,1.92-.39h1.35c.68,0,1.32.13,1.92.39.6.26,1.13.61,1.58,1.06s.8.97,1.06,1.58c.26.6.39,1.24.39,1.92v3.96h-9.21v3.74c0,.41.08.79.23,1.14.15.36.36.67.62.93s.57.47.93.62c.35.15.74.23,1.14.23h1.35c.41,0,.78-.08,1.14-.23.35-.15.67-.36.93-.62s.47-.57.62-.93c.15-.35.23-.74.23-1.14v-1.12l2.02.33v.67c0,.68-.13,1.32-.39,1.92Zm-1.63-9.62c0-.41-.08-.78-.23-1.14s-.36-.67-.62-.93-.57-.47-.93-.62c-.36-.15-.74-.23-1.14-.23h-1.35c-.41,0-.79.08-1.14.23-.36.15-.67.36-.93.62s-.47.57-.62.93-.23.74-.23,1.14v2.5h7.19v-2.5Z"/><path class="cls-2" d="m239.09,112.57c-.61,0-1.19-.11-1.73-.34-.54-.23-1.01-.55-1.41-.95-.4-.41-.72-.88-.95-1.41-.24-.54-.35-1.11-.35-1.72v-10.46h-3.02v-1.92h3.02v-4.04l2.02-.33v4.37h4.27v1.92h-4.27v10.56c0,.34.06.65.19.94.12.29.3.55.52.76s.48.39.77.52c.3.13.61.19.95.19h1.84v1.92h-1.84Z"/><path class="cls-2" d="m265.5,109.37c-.3.7-.72,1.31-1.24,1.84s-1.14.94-1.84,1.24c-.7.3-1.45.45-2.25.45h-1.67c-.8,0-1.55-.15-2.26-.45-.71-.3-1.32-.71-1.85-1.24s-.94-1.14-1.24-1.84c-.3-.7-.45-1.45-.45-2.25v-12.64c0-.8.15-1.55.45-2.25.3-.7.71-1.31,1.24-1.84s1.14-.94,1.85-1.24c.71-.3,1.46-.45,2.26-.45h1.67c.8,0,1.55.15,2.25.45.7.3,1.31.71,1.84,1.24s.94,1.14,1.24,1.84c.3.7.45,1.45.45,2.25v.95l-2.12.33v-1.28c0-.53-.1-1.01-.3-1.47s-.46-.85-.8-1.19-.74-.61-1.19-.8c-.46-.2-.94-.3-1.47-.3h-1.48c-.53,0-1.02.1-1.47.3-.46.2-.85.47-1.2.8-.34.34-.62.74-.81,1.19s-.3.94-.3,1.47v12.64c0,.53.1,1.02.3,1.47.2.46.47.85.81,1.2.35.34.74.62,1.2.81.45.2.94.3,1.47.3h1.48c.53,0,1.01-.1,1.47-.3.45-.2.85-.47,1.19-.81.34-.35.61-.74.8-1.2.2-.45.3-.94.3-1.47v-1.28l2.12.34v.94c0,.8-.15,1.55-.45,2.25Z"/><path class="cls-2" d="m280.55,112.57l-1.12-1.67c-.46.6-1.03,1.09-1.72,1.45-.69.37-1.45.55-2.27.55h-.51c-.68,0-1.32-.13-1.92-.39-.6-.26-1.13-.61-1.58-1.06s-.8-.97-1.06-1.58c-.26-.6-.39-1.24-.39-1.92v-.16c0-.68.13-1.32.39-1.92.26-.6.61-1.13,1.06-1.58s.97-.8,1.58-1.06c.6-.26,1.24-.39,1.92-.39h4.27v-2.59c0-.41-.08-.78-.23-1.14s-.36-.67-.62-.93-.57-.47-.93-.62c-.35-.15-.74-.23-1.14-.23h-1.18c-.41,0-.79.08-1.14.23-.36.15-.67.36-.93.62s-.47.57-.62.93-.23.74-.23,1.14v.61l-2.02-.33v-.16c0-.68.13-1.32.39-1.92.26-.6.61-1.13,1.06-1.58s.97-.8,1.58-1.06c.6-.26,1.24-.39,1.92-.39h1.18c.68,0,1.32.13,1.92.39.6.26,1.13.61,1.58,1.06s.8.97,1.06,1.58c.26.6.39,1.24.39,1.92v12.2h-.67Zm-1.35-8.14h-4.27c-.41,0-.79.08-1.14.23-.36.15-.67.36-.93.63s-.47.58-.62.93c-.15.36-.23.74-.23,1.14v.71c0,.41.08.79.23,1.14.15.36.36.67.62.93s.57.47.93.62c.35.15.74.23,1.14.23h1.35c.41,0,.79-.08,1.14-.23.36-.15.67-.36.93-.62s.47-.57.62-.93c.15-.35.23-.74.23-1.14v-3.65Z"/><path class="cls-2" d="m285.94,112.57v-23.55h2.02v23.55h-2.02Z"/><path class="cls-2" d="m303.51,109.88c-.26.6-.61,1.13-1.06,1.58s-.97.8-1.58,1.06c-.6.26-1.24.39-1.92.39h-1.35c-.68,0-1.32-.13-1.92-.39-.6-.26-1.13-.61-1.58-1.06s-.8-.97-1.06-1.58c-.26-.6-.39-1.24-.39-1.92v-7.59c0-.68.13-1.32.39-1.92.26-.6.61-1.13,1.06-1.58s.97-.8,1.58-1.06c.6-.26,1.24-.39,1.92-.39h1.35c.68,0,1.32.13,1.92.39.6.26,1.13.61,1.58,1.06s.8.97,1.06,1.58c.26.6.39,1.24.39,1.92v3.96h-9.21v3.74c0,.41.08.79.23,1.14.15.36.36.67.62.93s.57.47.93.62c.35.15.74.23,1.14.23h1.35c.41,0,.78-.08,1.14-.23.35-.15.67-.36.93-.62s.47-.57.62-.93c.15-.35.23-.74.23-1.14v-1.12l2.02.33v.67c0,.68-.13,1.32-.39,1.92Zm-1.63-9.62c0-.41-.08-.78-.23-1.14s-.36-.67-.62-.93-.57-.47-.93-.62c-.36-.15-.74-.23-1.14-.23h-1.35c-.41,0-.79.08-1.14.23-.36.15-.67.36-.93.62s-.47.57-.62.93-.23.74-.23,1.14v2.5h7.19v-2.5Z"/><path class="cls-2" d="m317.15,112.57v-12.32c0-.41-.08-.78-.23-1.14s-.36-.67-.62-.93-.57-.47-.93-.62c-.36-.15-.74-.23-1.14-.23h-1.35c-.41,0-.79.08-1.14.23-.36.15-.67.36-.93.62s-.47.57-.62.93-.23.74-.23,1.14v12.32h-2.02v-16.81h.67l1.1,1.71c.46-.62,1.04-1.12,1.73-1.49.69-.37,1.45-.55,2.27-.55h.51c.68,0,1.32.13,1.92.39.6.26,1.13.61,1.58,1.06s.8.97,1.06,1.58c.26.6.39,1.24.39,1.92v12.2h-2.02Z"/><path class="cls-2" d="m333.77,112.57l-1.12-1.71c-.46.62-1.04,1.12-1.73,1.49-.69.37-1.45.55-2.27.55h-.51c-.68,0-1.32-.13-1.92-.39-.6-.26-1.13-.61-1.58-1.06s-.8-.97-1.06-1.58c-.26-.6-.39-1.24-.39-1.92v-7.59c0-.68.13-1.32.39-1.92.26-.6.61-1.13,1.06-1.58s.97-.8,1.58-1.06c.6-.26,1.24-.39,1.92-.39h.51c.76,0,1.46.15,2.1.46s1.2.73,1.66,1.28v-8.14h2.02v23.55h-.67Zm-1.35-12.32c0-.41-.08-.78-.23-1.14s-.36-.67-.62-.93-.57-.47-.93-.62c-.36-.15-.74-.23-1.14-.23h-1.35c-.41,0-.79.08-1.14.23-.36.15-.67.36-.93.62s-.47.57-.62.93-.23.74-.23,1.14v7.82c0,.41.08.79.23,1.14.15.36.36.67.62.93s.57.47.93.62c.35.15.74.23,1.14.23h1.35c.41,0,.78-.08,1.14-.23.35-.15.67-.36.93-.62s.47-.57.62-.93c.15-.35.23-.74.23-1.14v-7.82Z"/><path class="cls-2" d="m339.16,112.57v-23.55h2.02v23.55h-2.02Z"/><path class="cls-2" d="m348.62,119.31h-1.96l2.99-8.18-5.45-15.37h2.02l4.38,12.74.07.87.07-.87,4.37-12.74h2.02l-8.51,23.55Z"/><path class="cls-1" d="m66.29,60.78c.04-3.07.73-6.24,2.44-9.13,1.13-1.92,2.55-3.59,4.33-4.96.88-.68,1.67-1.47,2.55-2.14,1.48-1.14,3.02-1.18,4.56-.19.51.33.93.76,1.35,1.19,1.11,1.15,1.95,2.51,2.81,3.85.99,1.56,2.01,3.11,2.65,4.87.42,1.16.68,2.35.46,3.59-.24,1.37-1,2.43-2.02,3.34-1.12,1-2.27,1.95-3.48,2.84-1.46,1.07-2.06,2.82-1.66,4.59.5,2.25,1.66,4.18,2.96,6.03,1.47,2.09,3.12,4.03,4.89,5.86,1.76,1.83,3.6,3.57,5.89,4.74,1.63.83,3.3,1.24,5.03.23.73-.43,1.25-1.09,1.85-1.67,1.1-1.04,2.17-2.12,3.47-2.91,1.55-.94,3.2-.93,4.86-.29,1.37.53,2.57,1.34,3.7,2.26,1.73,1.43,3.48,2.82,4.97,4.5.57.65,1.09,1.34,1.41,2.16.6,1.51.35,2.98-.85,4.08-1.6,1.48-3.13,3.04-4.94,4.25-2.33,1.56-4.89,2.54-7.7,2.85-4.34.48-8.4-.47-12.29-2.37-3.52-1.71-6.61-4.01-9.51-6.61-3.33-2.99-6.3-6.32-9.03-9.86-2.6-3.37-4.87-6.96-6.52-10.9-1.33-3.18-2.15-6.47-2.19-10.19Z"/><path class="cls-2" d="m207.73,47.64c-.41.96-.98,1.81-1.71,2.53-.72.72-1.57,1.29-2.54,1.71-.97.41-2.01.62-3.11.62h-7.34v12.45h-2.92v-32.4h10.26c1.1,0,2.14.21,3.11.62.97.41,1.82.98,2.54,1.71.72.72,1.29,1.57,1.71,2.54.41.97.62,2.01.62,3.11v4.02c0,1.1-.21,2.13-.62,3.1Zm-2.29-7.12c0-.72-.14-1.4-.41-2.02-.27-.62-.64-1.17-1.12-1.65s-1.02-.85-1.65-1.12c-.62-.27-1.3-.41-2.02-.41h-7.21v14.39h7.21c.72,0,1.4-.14,2.02-.41s1.17-.64,1.65-1.11.85-1.01,1.12-1.64c.27-.62.41-1.3.41-2.02v-4.02Z"/><path class="cls-2" d="m213.9,64.95v-32.4h2.78v32.4h-2.78Z"/><path class="cls-2" d="m237.69,64.95l-1.54-2.3c-.63.83-1.42,1.5-2.37,2s-1.99.76-3.12.76h-.7c-.93,0-1.81-.18-2.64-.53-.83-.35-1.55-.84-2.17-1.46-.62-.62-1.1-1.34-1.46-2.17-.35-.83-.53-1.71-.53-2.64v-.23c0-.93.18-1.81.53-2.64.35-.83.84-1.55,1.46-2.17.62-.62,1.34-1.1,2.17-1.46.83-.35,1.71-.53,2.64-.53h5.87v-3.57c0-.56-.11-1.08-.32-1.57s-.5-.92-.86-1.28c-.36-.36-.79-.65-1.28-.86s-1.01-.32-1.57-.32h-1.63c-.56,0-1.08.11-1.57.32-.49.21-.92.5-1.28.86-.36.36-.65.79-.86,1.28s-.32,1.01-.32,1.57v.84l-2.78-.45v-.23c0-.93.18-1.81.53-2.64.35-.83.84-1.55,1.46-2.17.62-.62,1.34-1.1,2.17-1.46.83-.35,1.71-.53,2.64-.53h1.63c.93,0,1.82.18,2.64.53.83.35,1.55.84,2.17,1.46s1.1,1.34,1.46,2.17c.35.83.53,1.71.53,2.64v16.79h-.93Zm-1.85-11.21h-5.87c-.56,0-1.08.11-1.57.32s-.92.5-1.28.87c-.36.37-.65.8-.86,1.29s-.32,1.01-.32,1.57v.97c0,.56.11,1.08.32,1.57.21.49.5.92.86,1.28s.79.65,1.28.86c.49.21,1.01.32,1.57.32h1.85c.56,0,1.08-.1,1.57-.32.49-.21.92-.5,1.28-.86.36-.36.65-.79.86-1.28.21-.49.32-1.01.32-1.57v-5.02Z"/><path class="cls-2" d="m256.85,64.95v-16.94c0-.56-.11-1.08-.32-1.57s-.5-.92-.86-1.28c-.36-.36-.79-.65-1.28-.86s-1.01-.32-1.57-.32h-1.85c-.56,0-1.08.11-1.57.32s-.92.5-1.28.86c-.36.36-.65.79-.86,1.28s-.32,1.01-.32,1.57v16.94h-2.78v-23.14h.93l1.51,2.35c.63-.86,1.43-1.54,2.38-2.04.96-.5,2-.76,3.13-.76h.7c.93,0,1.82.18,2.64.53.83.35,1.55.84,2.17,1.46s1.1,1.34,1.46,2.17c.35.83.53,1.71.53,2.64v16.79h-2.78Z"/></svg>