<?xml version="1.0" encoding="UTF-8"?><svg id="Laag_1" xmlns="http://www.w3.org/2000/svg" viewBox="0 0 675 126"><defs><style>.cls-1{fill:#e23b17;}.cls-2{fill:#fff;}</style></defs><rect class="cls-1" width="675" height="126"/><circle class="cls-2" cx="82.72" cy="63.59" r="47.48"/><path class="cls-2" d="m172.76,70.42v-1.19l12.48-24.41h-12.09v-2.4h15.37v1.21l-12.48,24.39h12.48v2.4h-15.76Z"/><path class="cls-2" d="m193.13,45.62v-3.2h2.79v3.2h-2.79Zm.2,24.8v-20h2.4v20h-2.4Z"/><path class="cls-2" d="m214.23,67.22c-.31.72-.73,1.34-1.26,1.88-.54.53-1.16.95-1.88,1.26-.72.31-1.48.46-2.29.46h-1.6c-.81,0-1.57-.15-2.29-.46-.72-.31-1.34-.73-1.88-1.26-.54-.53-.96-1.16-1.26-1.88-.31-.72-.46-1.48-.46-2.29v-9.02c0-.81.15-1.57.46-2.29.3-.72.72-1.34,1.26-1.88.53-.53,1.16-.95,1.88-1.26.71-.31,1.48-.46,2.29-.46h1.6c.81,0,1.57.15,2.29.46.71.31,1.34.73,1.88,1.26.53.53.95,1.16,1.26,1.88.3.72.46,1.48.46,2.29v4.71h-10.96v4.45c0,.48.09.93.27,1.36.18.42.43.79.74,1.1s.68.56,1.1.74c.42.18.88.27,1.36.27h1.6c.48,0,.93-.09,1.36-.27.42-.18.79-.43,1.1-.74s.56-.68.74-1.1c.18-.42.27-.88.27-1.36v-1.33l2.4.39v.8c0,.81-.15,1.57-.46,2.29Zm-1.94-11.45c0-.48-.09-.93-.27-1.36-.18-.42-.43-.79-.74-1.1s-.68-.56-1.1-.74c-.42-.18-.88-.27-1.36-.27h-1.6c-.48,0-.94.09-1.36.27-.42.18-.79.43-1.1.74s-.56.68-.74,1.1c-.18.42-.27.88-.27,1.36v2.97h8.55v-2.97Z"/><path class="cls-2" d="m234.96,70.42h-1.19l-7.09-20h2.4l5.21,15.16.08,1.04.08-1.04,5.2-15.16h2.4l-7.09,20Z"/><path class="cls-2" d="m245.45,45.62v-3.2h2.79v3.2h-2.79Zm.2,24.8v-20h2.4v20h-2.4Z"/><path class="cls-2" d="m266.21,70.42l-1.33-2.03c-.55.74-1.23,1.33-2.05,1.77s-1.72.65-2.7.65h-.61c-.81,0-1.57-.15-2.29-.46-.72-.31-1.34-.73-1.88-1.26-.54-.53-.96-1.16-1.26-1.88-.31-.72-.46-1.48-.46-2.29v-9.02c0-.81.15-1.57.46-2.29.3-.72.72-1.34,1.26-1.88.53-.53,1.16-.95,1.88-1.26.71-.31,1.48-.46,2.29-.46h.61c.9,0,1.73.18,2.5.55.77.36,1.43.87,1.97,1.52v-9.69h2.4v28.01h-.8Zm-1.6-14.65c0-.48-.09-.93-.27-1.36-.18-.42-.43-.79-.74-1.1s-.68-.56-1.1-.74c-.42-.18-.88-.27-1.36-.27h-1.6c-.48,0-.94.09-1.36.27-.42.18-.79.43-1.1.74s-.56.68-.74,1.1c-.18.42-.27.88-.27,1.36v9.3c0,.48.09.93.27,1.36.18.42.43.79.74,1.1s.68.56,1.1.74c.42.18.88.27,1.36.27h1.6c.48,0,.93-.09,1.36-.27.42-.18.79-.43,1.1-.74s.56-.68.74-1.1c.18-.42.27-.88.27-1.36v-9.3Z"/><path class="cls-2" d="m284.72,67.22c-.31.72-.73,1.34-1.26,1.88-.54.53-1.16.95-1.88,1.26-.72.31-1.48.46-2.29.46h-1.6c-.81,0-1.57-.15-2.29-.46-.72-.31-1.34-.73-1.88-1.26-.54-.53-.96-1.16-1.26-1.88-.31-.72-.46-1.48-.46-2.29v-9.02c0-.81.15-1.57.46-2.29.3-.72.72-1.34,1.26-1.88.53-.53,1.16-.95,1.88-1.26.71-.31,1.48-.46,2.29-.46h1.6c.81,0,1.57.15,2.29.46.71.31,1.34.73,1.88,1.26.53.53.95,1.16,1.26,1.88.3.72.46,1.48.46,2.29v4.71h-10.96v4.45c0,.48.09.93.27,1.36.18.42.43.79.74,1.1s.68.56,1.1.74c.42.18.88.27,1.36.27h1.6c.48,0,.93-.09,1.36-.27.42-.18.79-.43,1.1-.74s.56-.68.74-1.1c.18-.42.27-.88.27-1.36v-1.33l2.4.39v.8c0,.81-.15,1.57-.46,2.29Zm-1.94-11.45c0-.48-.09-.93-.27-1.36-.18-.42-.43-.79-.74-1.1s-.68-.56-1.1-.74c-.42-.18-.88-.27-1.36-.27h-1.6c-.48,0-.94.09-1.36.27-.42.18-.79.43-1.1.74s-.56.68-.74,1.1c-.18.42-.27.88-.27,1.36v2.97h8.55v-2.97Z"/><path class="cls-2" d="m302.88,67.22c-.31.72-.73,1.34-1.26,1.88-.54.53-1.16.95-1.88,1.26-.72.31-1.48.46-2.29.46h-1.6c-.81,0-1.57-.15-2.29-.46-.72-.31-1.34-.73-1.88-1.26-.54-.53-.96-1.16-1.26-1.88-.31-.72-.46-1.48-.46-2.29v-9.02c0-.81.15-1.57.46-2.29.3-.72.72-1.34,1.26-1.88.53-.53,1.16-.95,1.88-1.26.71-.31,1.48-.46,2.29-.46h1.6c.81,0,1.57.15,2.29.46.71.31,1.34.73,1.88,1.26.53.53.95,1.16,1.26,1.88.3.72.46,1.48.46,2.29v9.02c0,.81-.15,1.57-.46,2.29Zm-1.94-11.45c0-.48-.09-.93-.27-1.36-.18-.42-.43-.79-.74-1.1s-.68-.56-1.1-.74c-.42-.18-.88-.27-1.36-.27h-1.6c-.48,0-.94.09-1.36.27-.42.18-.79.43-1.1.74s-.56.68-.74,1.1c-.18.42-.27.88-.27,1.36v9.3c0,.48.09.93.27,1.36.18.42.43.79.74,1.1s.68.56,1.1.74c.42.18.88.27,1.36.27h1.6c.48,0,.93-.09,1.36-.27.42-.18.79-.43,1.1-.74s.56-.68.74-1.1c.18-.42.27-.88.27-1.36v-9.3Z"/><path class="cls-2" d="m330.25,67.22c-.31.72-.73,1.34-1.26,1.88-.54.53-1.16.95-1.88,1.26-.72.31-1.48.46-2.29.46h-1.6c-.81,0-1.57-.15-2.29-.46-.72-.31-1.34-.73-1.88-1.26-.54-.53-.96-1.16-1.26-1.88-.31-.72-.46-1.48-.46-2.29v-9.02c0-.81.15-1.57.46-2.29.3-.72.72-1.34,1.26-1.88.53-.53,1.16-.95,1.88-1.26.71-.31,1.48-.46,2.29-.46h1.6c.81,0,1.57.15,2.29.46.71.31,1.34.73,1.88,1.26.53.53.95,1.16,1.26,1.88.3.72.46,1.48.46,2.29v9.02c0,.81-.15,1.57-.46,2.29Zm-1.94-11.45c0-.48-.09-.93-.27-1.36-.18-.42-.43-.79-.74-1.1s-.68-.56-1.1-.74c-.42-.18-.88-.27-1.36-.27h-1.6c-.48,0-.94.09-1.36.27-.42.18-.79.43-1.1.74s-.56.68-.74,1.1c-.18.42-.27.88-.27,1.36v9.3c0,.48.09.93.27,1.36.18.42.43.79.74,1.1s.68.56,1.1.74c.42.18.88.27,1.36.27h1.6c.48,0,.93-.09,1.36-.27.42-.18.79-.43,1.1-.74s.56-.68.74-1.1c.18-.42.27-.88.27-1.36v-9.3Z"/><path class="cls-2" d="m341.78,70.42h-1.19l-7.09-20h2.4l5.21,15.16.08,1.04.08-1.04,5.2-15.16h2.4l-7.09,20Z"/><path class="cls-2" d="m364.56,67.22c-.31.72-.73,1.34-1.26,1.88-.54.53-1.16.95-1.88,1.26-.72.31-1.48.46-2.29.46h-1.6c-.81,0-1.57-.15-2.29-.46-.72-.31-1.34-.73-1.88-1.26-.54-.53-.96-1.16-1.26-1.88-.31-.72-.46-1.48-.46-2.29v-9.02c0-.81.15-1.57.46-2.29.3-.72.72-1.34,1.26-1.88.53-.53,1.16-.95,1.88-1.26.71-.31,1.48-.46,2.29-.46h1.6c.81,0,1.57.15,2.29.46.71.31,1.34.73,1.88,1.26.53.53.95,1.16,1.26,1.88.3.72.46,1.48.46,2.29v4.71h-10.96v4.45c0,.48.09.93.27,1.36.18.42.43.79.74,1.1s.68.56,1.1.74c.42.18.88.27,1.36.27h1.6c.48,0,.93-.09,1.36-.27.42-.18.79-.43,1.1-.74s.56-.68.74-1.1c.18-.42.27-.88.27-1.36v-1.33l2.4.39v.8c0,.81-.15,1.57-.46,2.29Zm-1.94-11.45c0-.48-.09-.93-.27-1.36-.18-.42-.43-.79-.74-1.1s-.68-.56-1.1-.74c-.42-.18-.88-.27-1.36-.27h-1.6c-.48,0-.94.09-1.36.27-.42.18-.79.43-1.1.74s-.56.68-.74,1.1c-.18.42-.27.88-.27,1.36v2.97h8.55v-2.97Z"/><path class="cls-2" d="m375.7,52.71c-.48,0-.94.09-1.36.27-.42.18-.79.43-1.1.74s-.56.68-.74,1.1c-.18.42-.27.88-.27,1.36v14.24h-2.4v-20h.8l1.31,2.03c.55-.74,1.23-1.33,2.06-1.77.83-.44,1.73-.65,2.71-.65h1.41v2.68h-2.4Z"/><path class="cls-2" d="m403.6,75.17c-.31.68-.73,1.26-1.26,1.74-.54.48-1.16.86-1.88,1.12-.72.27-1.48.4-2.29.4h-1c-.81,0-1.57-.13-2.29-.4-.72-.27-1.34-.64-1.88-1.12-.54-.48-.96-1.06-1.26-1.74-.31-.68-.46-1.42-.46-2.23v-.08c0-.78.14-1.5.43-2.15.29-.65.68-1.22,1.17-1.7-.62-.38-1.12-.89-1.49-1.53s-.56-1.36-.56-2.14c0-.7.15-1.36.45-1.96.3-.61.71-1.1,1.23-1.47-.62-.55-1.12-1.2-1.48-1.97-.37-.77-.55-1.61-.55-2.52v-1.5c0-.81.15-1.57.46-2.29.3-.72.72-1.34,1.26-1.88.53-.53,1.16-.95,1.88-1.26.71-.31,1.48-.46,2.29-.46h1c.98,0,1.88.22,2.71.65.83.44,1.51,1.03,2.06,1.77l1.31-2.03h.8v6.99c0,.81-.15,1.57-.46,2.29-.31.72-.73,1.34-1.26,1.88-.54.53-1.16.95-1.88,1.26-.72.31-1.48.46-2.29.46h-3.48c-.27,0-.54.06-.78.17-.25.11-.47.26-.65.44-.19.18-.34.4-.44.65-.11.25-.16.52-.16.79s.05.53.16.78c.1.25.25.47.44.65.19.19.41.33.65.44.25.1.51.16.78.16h3.28c.81,0,1.57.13,2.29.4.71.27,1.34.64,1.88,1.12.53.48.95,1.06,1.26,1.74.3.68.46,1.42.46,2.23v.08c0,.81-.15,1.55-.46,2.23Zm-1.73-19.39c0-.48-.09-.93-.27-1.36-.18-.42-.43-.79-.75-1.1-.32-.31-.69-.56-1.11-.74-.42-.18-.88-.27-1.36-.27h-1.99c-.48,0-.94.09-1.36.27-.42.18-.79.43-1.1.74s-.56.68-.74,1.1c-.18.42-.27.88-.27,1.36v1.78c0,.48.09.93.27,1.36.18.42.43.79.74,1.1s.68.56,1.1.74c.42.18.88.27,1.36.27h1.99c.48,0,.93-.09,1.36-.27.42-.18.79-.43,1.11-.74.32-.31.57-.68.75-1.1.18-.42.27-.88.27-1.36v-1.78Zm-.1,16.97c0-.48-.09-.92-.27-1.3-.18-.38-.43-.71-.74-.97s-.68-.46-1.1-.61c-.42-.14-.88-.21-1.36-.21h-1.23c-.48,0-.94.07-1.36.21-.42.14-.79.34-1.1.61s-.56.58-.74.97c-.18.38-.27.82-.27,1.3v.31c0,.48.09.91.27,1.29.18.38.43.7.74.97s.68.47,1.1.62c.42.14.88.21,1.36.21h1.23c.48,0,.93-.07,1.36-.21.42-.14.79-.35,1.1-.62s.56-.59.74-.97c.18-.38.27-.81.27-1.29v-.31Z"/><path class="cls-2" d="m409.28,45.62v-3.2h2.79v3.2h-2.79Zm.2,24.8v-20h2.4v20h-2.4Z"/><path class="cls-2" d="m430.04,70.42l-1.33-2.03c-.55.74-1.23,1.33-2.05,1.77s-1.72.65-2.7.65h-.61c-.81,0-1.57-.15-2.29-.46-.72-.31-1.34-.73-1.88-1.26-.54-.53-.96-1.16-1.26-1.88-.31-.72-.46-1.48-.46-2.29v-9.02c0-.81.15-1.57.46-2.29.3-.72.72-1.34,1.26-1.88.53-.53,1.16-.95,1.88-1.26.71-.31,1.48-.46,2.29-.46h.61c.9,0,1.73.18,2.5.55.77.36,1.43.87,1.97,1.52v-9.69h2.4v28.01h-.8Zm-1.6-14.65c0-.48-.09-.93-.27-1.36-.18-.42-.43-.79-.74-1.1s-.68-.56-1.1-.74c-.42-.18-.88-.27-1.36-.27h-1.6c-.48,0-.94.09-1.36.27-.42.18-.79.43-1.1.74s-.56.68-.74,1.1c-.18.42-.27.88-.27,1.36v9.3c0,.48.09.93.27,1.36.18.42.43.79.74,1.1s.68.56,1.1.74c.42.18.88.27,1.36.27h1.6c.48,0,.93-.09,1.36-.27.42-.18.79-.43,1.1-.74s.56-.68.74-1.1c.18-.42.27-.88.27-1.36v-9.3Z"/><path class="cls-2" d="m449.4,65.35c0,.81-.16,1.55-.49,2.22-.33.67-.77,1.25-1.33,1.73-.56.48-1.21.86-1.94,1.12-.74.27-1.51.4-2.31.4h-1.6c-.81,0-1.58-.15-2.31-.46-.74-.31-1.38-.73-1.93-1.26-.55-.53-1-1.16-1.33-1.88s-.5-1.48-.5-2.29v-.8l2.4-.39v1.33c0,.48.1.93.3,1.36.2.42.47.79.81,1.1.34.31.73.56,1.17.74.44.18.9.27,1.39.27h1.6c.48,0,.94-.07,1.39-.21.44-.14.84-.35,1.18-.62.34-.27.62-.59.82-.97.2-.38.3-.81.3-1.29,0-.72-.16-1.3-.47-1.76s-.73-.84-1.24-1.14c-.52-.31-1.1-.56-1.76-.76-.66-.2-1.33-.4-2.02-.61-.69-.2-1.37-.43-2.02-.69-.66-.26-1.24-.6-1.76-1.03-.52-.42-.93-.95-1.24-1.59s-.47-1.43-.47-2.38c0-.81.16-1.55.47-2.22s.73-1.25,1.27-1.73c.53-.48,1.15-.86,1.87-1.12.71-.27,1.47-.4,2.28-.4h1.41c.81,0,1.57.15,2.29.46.71.31,1.34.73,1.88,1.26.53.53.95,1.16,1.26,1.88.3.72.46,1.48.46,2.29v.08l-2.4.39v-.61c0-.48-.09-.93-.27-1.36-.18-.42-.43-.79-.74-1.1s-.68-.56-1.1-.74c-.42-.18-.88-.27-1.36-.27h-1.41c-.48,0-.94.07-1.36.21-.42.14-.79.35-1.1.62s-.56.59-.74.97c-.18.38-.27.81-.27,1.29,0,.69.16,1.25.47,1.69s.72.8,1.24,1.1c.51.3,1.1.55,1.76.75.66.2,1.33.41,2.01.62s1.35.46,2.01.73c.66.27,1.24.62,1.76,1.05.51.43.93.97,1.24,1.61s.47,1.44.47,2.39Z"/><polygon class="cls-1" points="71.85 45.42 71.85 81.91 104.33 63.67 71.85 45.42"/></svg>