<?xml version="1.0" encoding="UTF-8"?><svg id="Laag_1" xmlns="http://www.w3.org/2000/svg" viewBox="0 0 675 126"><defs><style>.cls-1{fill:#e23b17;}.cls-2{fill:#fff;}</style></defs><rect class="cls-1" width="675" height="126"/><circle class="cls-2" cx="82.72" cy="63.59" r="47.48"/><path class="cls-2" d="m191.6,57.42v-19.2l-.18,1.19-6.5,18.01h-1.33l-6.56-18.01-.16-1.19v19.2h-2.52v-28.01h1.31l8.5,22.97.08,1.04.08-1.04,8.48-22.97h1.33v28.01h-2.52Z"/><path class="cls-2" d="m211.88,57.42l-1.33-1.99c-.55.72-1.23,1.29-2.05,1.73s-1.72.65-2.7.65h-.61c-.81,0-1.57-.15-2.29-.46-.72-.31-1.34-.73-1.88-1.26-.54-.53-.96-1.16-1.26-1.88-.31-.72-.46-1.48-.46-2.29v-.2c0-.81.15-1.57.46-2.29.3-.72.72-1.34,1.26-1.88.53-.53,1.16-.95,1.88-1.26.71-.31,1.48-.46,2.29-.46h5.08v-3.09c0-.48-.09-.93-.27-1.36-.18-.42-.43-.79-.74-1.1s-.68-.56-1.1-.74c-.42-.18-.88-.27-1.36-.27h-1.41c-.48,0-.94.09-1.36.27-.42.18-.79.43-1.1.74s-.56.68-.74,1.1c-.18.42-.27.88-.27,1.36v.72l-2.4-.39v-.2c0-.81.15-1.57.46-2.29.3-.72.72-1.34,1.26-1.88.53-.53,1.16-.95,1.88-1.26.71-.31,1.48-.46,2.29-.46h1.41c.81,0,1.57.15,2.29.46.71.31,1.34.73,1.88,1.26.53.53.95,1.16,1.26,1.88.3.72.46,1.48.46,2.29v14.51h-.8Zm-1.6-9.69h-5.08c-.48,0-.94.09-1.36.27-.42.18-.79.43-1.1.75s-.56.69-.74,1.11c-.18.42-.27.88-.27,1.36v.84c0,.48.09.93.27,1.36.18.42.43.79.74,1.1s.68.56,1.1.74c.42.18.88.27,1.36.27h1.6c.48,0,.93-.09,1.36-.27.42-.18.79-.43,1.1-.74s.56-.68.74-1.1c.18-.42.27-.88.27-1.36v-4.34Z"/><path class="cls-2" d="m230.04,57.42l-1.33-1.99c-.55.72-1.23,1.29-2.05,1.73s-1.72.65-2.7.65h-.61c-.81,0-1.57-.15-2.29-.46-.72-.31-1.34-.73-1.88-1.26-.54-.53-.96-1.16-1.26-1.88-.31-.72-.46-1.48-.46-2.29v-.2c0-.81.15-1.57.46-2.29.3-.72.72-1.34,1.26-1.88.53-.53,1.16-.95,1.88-1.26.71-.31,1.48-.46,2.29-.46h5.08v-3.09c0-.48-.09-.93-.27-1.36-.18-.42-.43-.79-.74-1.1s-.68-.56-1.1-.74c-.42-.18-.88-.27-1.36-.27h-1.41c-.48,0-.94.09-1.36.27-.42.18-.79.43-1.1.74s-.56.68-.74,1.1c-.18.42-.27.88-.27,1.36v.72l-2.4-.39v-.2c0-.81.15-1.57.46-2.29.3-.72.72-1.34,1.26-1.88.53-.53,1.16-.95,1.88-1.26.71-.31,1.48-.46,2.29-.46h1.41c.81,0,1.57.15,2.29.46.71.31,1.34.73,1.88,1.26.53.53.95,1.16,1.26,1.88.3.72.46,1.48.46,2.29v14.51h-.8Zm-1.6-9.69h-5.08c-.48,0-.94.09-1.36.27-.42.18-.79.43-1.1.75s-.56.69-.74,1.11c-.18.42-.27.88-.27,1.36v.84c0,.48.09.93.27,1.36.18.42.43.79.74,1.1s.68.56,1.1.74c.42.18.88.27,1.36.27h1.6c.48,0,.93-.09,1.36-.27.42-.18.79-.43,1.1-.74s.56-.68.74-1.1c.18-.42.27-.88.27-1.36v-4.34Z"/><path class="cls-2" d="m236.45,57.42v-28.01h2.4v28.01h-2.4Zm11.04,0l-8.16-10,8.16-10h3.12l-8.36,10,8.36,10h-3.12Z"/><path class="cls-2" d="m269.28,57.42h-1.19l-7.09-20h2.4l5.21,15.16.08,1.04.08-1.04,5.2-15.16h2.4l-7.09,20Z"/><path class="cls-2" d="m285.04,39.71c-.48,0-.94.09-1.36.27-.42.18-.79.43-1.1.74s-.56.68-.74,1.1c-.18.42-.27.88-.27,1.36v14.24h-2.4v-20h.8l1.31,2.03c.55-.74,1.23-1.33,2.06-1.77.83-.44,1.73-.65,2.71-.65h1.41v2.68h-2.4Z"/><path class="cls-2" d="m291.25,32.62v-3.2h2.79v3.2h-2.79Zm.2,24.8v-20h2.4v20h-2.4Z"/><path class="cls-2" d="m302.2,61.83c-.31.71-.73,1.33-1.26,1.87-.54.53-1.16.96-1.88,1.27-.72.31-1.48.47-2.29.47v-2.29c.48,0,.93-.09,1.36-.27.42-.18.79-.43,1.1-.74s.56-.68.74-1.1c.18-.42.27-.88.27-1.36v-22.25h2.4v22.13c0,.81-.15,1.57-.46,2.28Zm-2.14-29.21v-3.2h2.79v3.2h-2.79Z"/><path class="cls-2" d="m321.16,54.22c-.31.72-.73,1.34-1.26,1.88-.54.53-1.16.95-1.88,1.26-.72.31-1.48.46-2.29.46h-1.6c-.81,0-1.57-.15-2.29-.46-.72-.31-1.34-.73-1.88-1.26-.54-.53-.96-1.16-1.26-1.88-.31-.72-.46-1.48-.46-2.29v-22.52h2.4v9.69c.55-.65,1.2-1.16,1.97-1.52.77-.36,1.6-.55,2.5-.55h.61c.81,0,1.57.15,2.29.46.71.31,1.34.73,1.88,1.26.53.53.95,1.16,1.26,1.88.3.72.46,1.48.46,2.29v9.02c0,.81-.15,1.57-.46,2.29Zm-1.94-11.45c0-.48-.09-.93-.27-1.36-.18-.42-.43-.79-.74-1.1s-.68-.56-1.1-.74c-.42-.18-.88-.27-1.36-.27h-1.6c-.48,0-.94.09-1.36.27-.42.18-.79.43-1.1.74s-.56.68-.74,1.1c-.18.42-.27.88-.27,1.36v9.3c0,.48.09.93.27,1.36.18.42.43.79.74,1.1s.68.56,1.1.74c.42.18.88.27,1.36.27h1.6c.48,0,.93-.09,1.36-.27.42-.18.79-.43,1.1-.74s.56-.68.74-1.1c.18-.42.27-.88.27-1.36v-9.3Z"/><path class="cls-2" d="m326.84,57.42v-28.01h2.4v28.01h-2.4Z"/><path class="cls-2" d="m335.45,32.62v-3.2h2.79v3.2h-2.79Zm.2,24.8v-20h2.4v20h-2.4Z"/><path class="cls-2" d="m346.4,61.83c-.31.71-.73,1.33-1.26,1.87-.54.53-1.16.96-1.88,1.27-.72.31-1.48.47-2.29.47v-2.29c.48,0,.93-.09,1.36-.27.42-.18.79-.43,1.1-.74s.56-.68.74-1.1c.18-.42.27-.88.27-1.36v-22.25h2.4v22.13c0,.81-.15,1.57-.46,2.28Zm-2.14-29.21v-3.2h2.79v3.2h-2.79Z"/><path class="cls-2" d="m358.73,57.42h-1.19l-7.09-20h2.4l5.21,15.16.08,1.04.08-1.04,5.2-15.16h2.4l-7.09,20Z"/><path class="cls-2" d="m381.51,54.22c-.31.72-.73,1.34-1.26,1.88-.54.53-1.16.95-1.88,1.26-.72.31-1.48.46-2.29.46h-1.6c-.81,0-1.57-.15-2.29-.46-.72-.31-1.34-.73-1.88-1.26-.54-.53-.96-1.16-1.26-1.88-.31-.72-.46-1.48-.46-2.29v-9.02c0-.81.15-1.57.46-2.29.3-.72.72-1.34,1.26-1.88.53-.53,1.16-.95,1.88-1.26.71-.31,1.48-.46,2.29-.46h1.6c.81,0,1.57.15,2.29.46.71.31,1.34.73,1.88,1.26.53.53.95,1.16,1.26,1.88.3.72.46,1.48.46,2.29v4.71h-10.96v4.45c0,.48.09.93.27,1.36.18.42.43.79.74,1.1s.68.56,1.1.74c.42.18.88.27,1.36.27h1.6c.48,0,.93-.09,1.36-.27.42-.18.79-.43,1.1-.74s.56-.68.74-1.1c.18-.42.27-.88.27-1.36v-1.33l2.4.39v.8c0,.81-.15,1.57-.46,2.29Zm-1.94-11.45c0-.48-.09-.93-.27-1.36-.18-.42-.43-.79-.74-1.1s-.68-.56-1.1-.74c-.42-.18-.88-.27-1.36-.27h-1.6c-.48,0-.94.09-1.36.27-.42.18-.79.43-1.1.74s-.56.68-.74,1.1c-.18.42-.27.88-.27,1.36v2.97h8.55v-2.97Z"/><path class="cls-2" d="m397.74,57.42v-14.65c0-.48-.09-.93-.27-1.36-.18-.42-.43-.79-.74-1.1s-.68-.56-1.1-.74c-.42-.18-.88-.27-1.36-.27h-1.6c-.48,0-.94.09-1.36.27-.42.18-.79.43-1.1.74s-.56.68-.74,1.1c-.18.42-.27.88-.27,1.36v14.65h-2.4v-20h.8l1.31,2.03c.55-.74,1.23-1.33,2.06-1.77.83-.44,1.73-.65,2.71-.65h.61c.81,0,1.57.15,2.29.46.71.31,1.34.73,1.88,1.26.53.53.95,1.16,1.26,1.88.3.72.46,1.48.46,2.29v14.51h-2.4Z"/><path class="cls-2" d="m417.5,57.42l-1.33-2.03c-.55.74-1.23,1.33-2.05,1.77s-1.72.65-2.7.65h-.61c-.81,0-1.57-.15-2.29-.46-.72-.31-1.34-.73-1.88-1.26-.54-.53-.96-1.16-1.26-1.88-.31-.72-.46-1.48-.46-2.29v-9.02c0-.81.15-1.57.46-2.29.3-.72.72-1.34,1.26-1.88.53-.53,1.16-.95,1.88-1.26.71-.31,1.48-.46,2.29-.46h.61c.9,0,1.73.18,2.5.55.77.36,1.43.87,1.97,1.52v-9.69h2.4v28.01h-.8Zm-1.6-14.65c0-.48-.09-.93-.27-1.36-.18-.42-.43-.79-.74-1.1s-.68-.56-1.1-.74c-.42-.18-.88-.27-1.36-.27h-1.6c-.48,0-.94.09-1.36.27-.42.18-.79.43-1.1.74s-.56.68-.74,1.1c-.18.42-.27.88-.27,1.36v9.3c0,.48.09.93.27,1.36.18.42.43.79.74,1.1s.68.56,1.1.74c.42.18.88.27,1.36.27h1.6c.48,0,.93-.09,1.36-.27.42-.18.79-.43,1.1-.74s.56-.68.74-1.1c.18-.42.27-.88.27-1.36v-9.3Z"/><path class="cls-2" d="m436.01,54.22c-.31.72-.73,1.34-1.26,1.88-.54.53-1.16.95-1.88,1.26-.72.31-1.48.46-2.29.46h-1.6c-.81,0-1.57-.15-2.29-.46-.72-.31-1.34-.73-1.88-1.26-.54-.53-.96-1.16-1.26-1.88-.31-.72-.46-1.48-.46-2.29v-9.02c0-.81.15-1.57.46-2.29.3-.72.72-1.34,1.26-1.88.53-.53,1.16-.95,1.88-1.26.71-.31,1.48-.46,2.29-.46h1.6c.81,0,1.57.15,2.29.46.71.31,1.34.73,1.88,1.26.53.53.95,1.16,1.26,1.88.3.72.46,1.48.46,2.29v4.71h-10.96v4.45c0,.48.09.93.27,1.36.18.42.43.79.74,1.1s.68.56,1.1.74c.42.18.88.27,1.36.27h1.6c.48,0,.93-.09,1.36-.27.42-.18.79-.43,1.1-.74s.56-.68.74-1.1c.18-.42.27-.88.27-1.36v-1.33l2.4.39v.8c0,.81-.15,1.57-.46,2.29Zm-1.94-11.45c0-.48-.09-.93-.27-1.36-.18-.42-.43-.79-.74-1.1s-.68-.56-1.1-.74c-.42-.18-.88-.27-1.36-.27h-1.6c-.48,0-.94.09-1.36.27-.42.18-.79.43-1.1.74s-.56.68-.74,1.1c-.18.42-.27.88-.27,1.36v2.97h8.55v-2.97Z"/><path class="cls-2" d="m463.37,54.22c-.31.72-.73,1.34-1.26,1.88-.54.53-1.16.95-1.88,1.26-.72.31-1.48.46-2.29.46h-1.6c-.81,0-1.57-.15-2.29-.46-.72-.31-1.34-.73-1.88-1.26-.54-.53-.96-1.16-1.26-1.88-.31-.72-.46-1.48-.46-2.29v-22.52h2.4v9.69c.55-.65,1.2-1.16,1.97-1.52.77-.36,1.6-.55,2.5-.55h.61c.81,0,1.57.15,2.29.46.71.31,1.34.73,1.88,1.26.53.53.95,1.16,1.26,1.88.3.72.46,1.48.46,2.29v9.02c0,.81-.15,1.57-.46,2.29Zm-1.94-11.45c0-.48-.09-.93-.27-1.36-.18-.42-.43-.79-.74-1.1s-.68-.56-1.1-.74c-.42-.18-.88-.27-1.36-.27h-1.6c-.48,0-.94.09-1.36.27-.42.18-.79.43-1.1.74s-.56.68-.74,1.1c-.18.42-.27.88-.27,1.36v9.3c0,.48.09.93.27,1.36.18.42.43.79.74,1.1s.68.56,1.1.74c.42.18.88.27,1.36.27h1.6c.48,0,.93-.09,1.36-.27.42-.18.79-.43,1.1-.74s.56-.68.74-1.1c.18-.42.27-.88.27-1.36v-9.3Z"/><path class="cls-2" d="m481.53,54.22c-.31.72-.73,1.34-1.26,1.88-.54.53-1.16.95-1.88,1.26-.72.31-1.48.46-2.29.46h-1.6c-.81,0-1.57-.15-2.29-.46-.72-.31-1.34-.73-1.88-1.26-.54-.53-.96-1.16-1.26-1.88-.31-.72-.46-1.48-.46-2.29v-9.02c0-.81.15-1.57.46-2.29.3-.72.72-1.34,1.26-1.88.53-.53,1.16-.95,1.88-1.26.71-.31,1.48-.46,2.29-.46h1.6c.81,0,1.57.15,2.29.46.71.31,1.34.73,1.88,1.26.53.53.95,1.16,1.26,1.88.3.72.46,1.48.46,2.29v4.71h-10.96v4.45c0,.48.09.93.27,1.36.18.42.43.79.74,1.1s.68.56,1.1.74c.42.18.88.27,1.36.27h1.6c.48,0,.93-.09,1.36-.27.42-.18.79-.43,1.1-.74s.56-.68.74-1.1c.18-.42.27-.88.27-1.36v-1.33l2.4.39v.8c0,.81-.15,1.57-.46,2.29Zm-1.94-11.45c0-.48-.09-.93-.27-1.36-.18-.42-.43-.79-.74-1.1s-.68-.56-1.1-.74c-.42-.18-.88-.27-1.36-.27h-1.6c-.48,0-.94.09-1.36.27-.42.18-.79.43-1.1.74s-.56.68-.74,1.1c-.18.42-.27.88-.27,1.36v2.97h8.55v-2.97Z"/><path class="cls-2" d="m487.6,57.42v-28.01h2.4v28.01h-2.4Z"/><path class="cls-2" d="m508.17,57.42l-1.33-1.99c-.55.72-1.23,1.29-2.05,1.73s-1.72.65-2.7.65h-.61c-.81,0-1.57-.15-2.29-.46-.72-.31-1.34-.73-1.88-1.26-.54-.53-.96-1.16-1.26-1.88-.31-.72-.46-1.48-.46-2.29v-.2c0-.81.15-1.57.46-2.29.3-.72.72-1.34,1.26-1.88.53-.53,1.16-.95,1.88-1.26.71-.31,1.48-.46,2.29-.46h5.08v-3.09c0-.48-.09-.93-.27-1.36-.18-.42-.43-.79-.74-1.1s-.68-.56-1.1-.74c-.42-.18-.88-.27-1.36-.27h-1.41c-.48,0-.94.09-1.36.27-.42.18-.79.43-1.1.74s-.56.68-.74,1.1c-.18.42-.27.88-.27,1.36v.72l-2.4-.39v-.2c0-.81.15-1.57.46-2.29.3-.72.72-1.34,1.26-1.88.53-.53,1.16-.95,1.88-1.26.71-.31,1.48-.46,2.29-.46h1.41c.81,0,1.57.15,2.29.46.71.31,1.34.73,1.88,1.26.53.53.95,1.16,1.26,1.88.3.72.46,1.48.46,2.29v14.51h-.8Zm-1.6-9.69h-5.08c-.48,0-.94.09-1.36.27-.42.18-.79.43-1.1.75s-.56.69-.74,1.11c-.18.42-.27.88-.27,1.36v.84c0,.48.09.93.27,1.36.18.42.43.79.74,1.1s.68.56,1.1.74c.42.18.88.27,1.36.27h1.6c.48,0,.93-.09,1.36-.27.42-.18.79-.43,1.1-.74s.56-.68.74-1.1c.18-.42.27-.88.27-1.36v-4.34Z"/><path class="cls-2" d="m520.65,31.7c-.4,0-.78.08-1.12.22-.35.15-.65.35-.91.62-.26.26-.47.57-.62.92-.15.35-.22.73-.22,1.13v2.83h4.67v2.29h-4.67v17.71h-2.4v-17.71h-3.61v-2.29h3.61v-2.71c0-.73.14-1.42.41-2.06s.65-1.21,1.13-1.69c.48-.48,1.04-.86,1.68-1.13.64-.27,1.32-.41,2.05-.41h2.21v2.29h-2.21Z"/><path class="cls-2" d="m539.01,52.35c0,.81-.16,1.55-.49,2.22-.33.67-.77,1.25-1.33,1.73-.56.48-1.21.86-1.94,1.12-.74.27-1.51.4-2.31.4h-1.6c-.81,0-1.58-.15-2.31-.46-.74-.31-1.38-.73-1.93-1.26-.55-.53-1-1.16-1.33-1.88s-.5-1.48-.5-2.29v-.8l2.4-.39v1.33c0,.48.1.93.3,1.36.2.42.47.79.81,1.1.34.31.73.56,1.17.74.44.18.9.27,1.39.27h1.6c.48,0,.94-.07,1.39-.21.44-.14.84-.35,1.18-.62.34-.27.62-.59.82-.97.2-.38.3-.81.3-1.29,0-.72-.16-1.3-.47-1.76s-.73-.84-1.24-1.14c-.52-.31-1.1-.56-1.76-.76-.66-.2-1.33-.4-2.02-.61-.69-.2-1.37-.43-2.02-.69-.66-.26-1.24-.6-1.76-1.03-.52-.42-.93-.95-1.24-1.59s-.47-1.43-.47-2.38c0-.81.16-1.55.47-2.22s.73-1.25,1.27-1.73c.53-.48,1.15-.86,1.87-1.12.71-.27,1.47-.4,2.28-.4h1.41c.81,0,1.57.15,2.29.46.71.31,1.34.73,1.88,1.26.53.53.95,1.16,1.26,1.88.3.72.46,1.48.46,2.29v.08l-2.4.39v-.61c0-.48-.09-.93-.27-1.36-.18-.42-.43-.79-.74-1.1s-.68-.56-1.1-.74c-.42-.18-.88-.27-1.36-.27h-1.41c-.48,0-.94.07-1.36.21-.42.14-.79.35-1.1.62s-.56.59-.74.97c-.18.38-.27.81-.27,1.29,0,.69.16,1.25.47,1.69s.72.8,1.24,1.1c.51.3,1.1.55,1.76.75.66.2,1.33.41,2.01.62s1.35.46,2.01.73c.66.27,1.24.62,1.76,1.05.51.43.93.97,1.24,1.61s.47,1.44.47,2.39Z"/><path class="cls-2" d="m556.51,54.22c-.31.72-.73,1.34-1.26,1.88-.54.53-1.16.95-1.88,1.26-.72.31-1.48.46-2.29.46h-.61c-.9,0-1.73-.18-2.5-.55-.77-.36-1.43-.87-1.97-1.52v9.69h-2.4v-28.01h.8l1.31,2.03c.55-.74,1.23-1.33,2.06-1.77.83-.44,1.73-.65,2.71-.65h.61c.81,0,1.57.15,2.29.46.71.31,1.34.73,1.88,1.26.53.53.95,1.16,1.26,1.88.3.72.46,1.48.46,2.29v9.02c0,.81-.15,1.57-.46,2.29Zm-1.94-11.45c0-.48-.09-.93-.27-1.36-.18-.42-.43-.79-.74-1.1s-.68-.56-1.1-.74c-.42-.18-.88-.27-1.36-.27h-1.6c-.48,0-.94.09-1.36.27-.42.18-.79.43-1.1.74s-.56.68-.74,1.1c-.18.42-.27.88-.27,1.36v9.3c0,.48.09.93.27,1.36.18.42.43.79.74,1.1s.68.56,1.1.74c.42.18.88.27,1.36.27h1.6c.48,0,.93-.09,1.36-.27.42-.18.79-.43,1.1-.74s.56-.68.74-1.1c.18-.42.27-.88.27-1.36v-9.3Z"/><path class="cls-2" d="m567.66,39.71c-.48,0-.94.09-1.36.27-.42.18-.79.43-1.1.74s-.56.68-.74,1.1c-.18.42-.27.88-.27,1.36v14.24h-2.4v-20h.8l1.31,2.03c.55-.74,1.23-1.33,2.06-1.77.83-.44,1.73-.65,2.71-.65h1.41v2.68h-2.4Z"/><path class="cls-2" d="m585.82,57.42l-1.33-1.99c-.55.72-1.23,1.29-2.05,1.73s-1.72.65-2.7.65h-.61c-.81,0-1.57-.15-2.29-.46-.72-.31-1.34-.73-1.88-1.26-.54-.53-.96-1.16-1.26-1.88-.31-.72-.46-1.48-.46-2.29v-.2c0-.81.15-1.57.46-2.29.3-.72.72-1.34,1.26-1.88.53-.53,1.16-.95,1.88-1.26.71-.31,1.48-.46,2.29-.46h5.08v-3.09c0-.48-.09-.93-.27-1.36-.18-.42-.43-.79-.74-1.1s-.68-.56-1.1-.74c-.42-.18-.88-.27-1.36-.27h-1.41c-.48,0-.94.09-1.36.27-.42.18-.79.43-1.1.74s-.56.68-.74,1.1c-.18.42-.27.88-.27,1.36v.72l-2.4-.39v-.2c0-.81.15-1.57.46-2.29.3-.72.72-1.34,1.26-1.88.53-.53,1.16-.95,1.88-1.26.71-.31,1.48-.46,2.29-.46h1.41c.81,0,1.57.15,2.29.46.71.31,1.34.73,1.88,1.26.53.53.95,1.16,1.26,1.88.3.72.46,1.48.46,2.29v14.51h-.8Zm-1.6-9.69h-5.08c-.48,0-.94.09-1.36.27-.42.18-.79.43-1.1.75s-.56.69-.74,1.11c-.18.42-.27.88-.27,1.36v.84c0,.48.09.93.27,1.36.18.42.43.79.74,1.1s.68.56,1.1.74c.42.18.88.27,1.36.27h1.6c.48,0,.93-.09,1.36-.27.42-.18.79-.43,1.1-.74s.56-.68.74-1.1c.18-.42.27-.88.27-1.36v-4.34Z"/><path class="cls-2" d="m603.99,57.42l-1.33-1.99c-.55.72-1.23,1.29-2.05,1.73s-1.72.65-2.7.65h-.61c-.81,0-1.57-.15-2.29-.46-.72-.31-1.34-.73-1.88-1.26-.54-.53-.96-1.16-1.26-1.88-.31-.72-.46-1.48-.46-2.29v-.2c0-.81.15-1.57.46-2.29.3-.72.72-1.34,1.26-1.88.53-.53,1.16-.95,1.88-1.26.71-.31,1.48-.46,2.29-.46h5.08v-3.09c0-.48-.09-.93-.27-1.36-.18-.42-.43-.79-.74-1.1s-.68-.56-1.1-.74c-.42-.18-.88-.27-1.36-.27h-1.41c-.48,0-.94.09-1.36.27-.42.18-.79.43-1.1.74s-.56.68-.74,1.1c-.18.42-.27.88-.27,1.36v.72l-2.4-.39v-.2c0-.81.15-1.57.46-2.29.3-.72.72-1.34,1.26-1.88.53-.53,1.16-.95,1.88-1.26.71-.31,1.48-.46,2.29-.46h1.41c.81,0,1.57.15,2.29.46.71.31,1.34.73,1.88,1.26.53.53.95,1.16,1.26,1.88.3.72.46,1.48.46,2.29v14.51h-.8Zm-1.6-9.69h-5.08c-.48,0-.94.09-1.36.27-.42.18-.79.43-1.1.75s-.56.69-.74,1.11c-.18.42-.27.88-.27,1.36v.84c0,.48.09.93.27,1.36.18.42.43.79.74,1.1s.68.56,1.1.74c.42.18.88.27,1.36.27h1.6c.48,0,.93-.09,1.36-.27.42-.18.79-.43,1.1-.74s.56-.68.74-1.1c.18-.42.27-.88.27-1.36v-4.34Z"/><path class="cls-2" d="m610.39,57.42v-28.01h2.4v28.01h-2.4Zm11.04,0l-8.16-10,8.16-10h3.12l-8.36,10,8.36,10h-3.12Z"/><path class="cls-2" d="m188.79,100.42v-10.99c0-.36-.07-.7-.21-1.02s-.32-.59-.56-.83-.51-.42-.83-.56c-.32-.14-.66-.21-1.02-.21h-.89c-.36,0-.7.07-1.02.21-.32.14-.6.32-.83.56-.24.23-.43.51-.56.83s-.21.66-.21,1.02v10.99h-1.79v-10.99c0-.36-.07-.7-.21-1.02s-.33-.59-.56-.83c-.24-.23-.52-.42-.83-.56-.32-.14-.66-.21-1.02-.21h-.89c-.36,0-.7.07-1.02.21-.32.14-.59.32-.83.56s-.42.51-.56.83-.21.66-.21,1.02v10.99h-1.8v-15h.6l.98,1.52c.41-.56.93-1,1.55-1.33.62-.33,1.29-.49,2.03-.49h.15c.85,0,1.62.21,2.3.63s1.21.98,1.58,1.67c.19-.34.41-.65.69-.94s.58-.52.91-.73c.33-.2.69-.36,1.08-.47.39-.11.8-.17,1.22-.17h.15c.61,0,1.18.12,1.71.34.54.23,1.01.54,1.41.95s.71.87.95,1.41c.23.54.34,1.11.34,1.71v10.88h-1.8Z"/><path class="cls-2" d="m203.87,98.02c-.23.54-.54,1.01-.95,1.41s-.87.72-1.41.95c-.54.23-1.11.34-1.71.34h-1.2c-.61,0-1.18-.12-1.71-.34-.54-.23-1.01-.54-1.41-.95s-.71-.87-.94-1.41c-.23-.54-.35-1.11-.35-1.71v-6.77c0-.61.12-1.18.35-1.71.23-.54.54-1.01.94-1.41s.87-.71,1.41-.95c.54-.23,1.11-.34,1.71-.34h1.2c.61,0,1.18.12,1.71.34.54.23,1.01.54,1.41.95s.71.87.95,1.41c.23.54.34,1.11.34,1.71v3.53h-8.22v3.34c0,.36.07.7.21,1.02.14.32.32.59.56.83s.51.42.83.56c.32.14.66.21,1.02.21h1.2c.36,0,.7-.07,1.02-.21.32-.14.59-.32.83-.56s.42-.51.56-.83c.14-.32.21-.66.21-1.02v-1l1.8.29v.6c0,.61-.12,1.18-.34,1.71Zm-1.46-8.58c0-.36-.07-.7-.21-1.02s-.32-.59-.56-.83-.51-.42-.83-.56c-.32-.14-.66-.21-1.02-.21h-1.2c-.36,0-.7.07-1.02.21-.32.14-.59.32-.83.56s-.42.51-.56.83-.21.66-.21,1.02v2.23h6.42v-2.23Z"/><path class="cls-2" d="m213.28,100.42c-.55,0-1.06-.1-1.54-.31-.48-.21-.9-.49-1.26-.85-.36-.36-.64-.78-.85-1.26-.21-.48-.32-.99-.32-1.54v-9.33h-2.7v-1.71h2.7v-3.6l1.8-.29v3.9h3.81v1.71h-3.81v9.42c0,.3.05.58.17.84.11.26.27.49.46.68s.43.35.69.46c.26.11.55.17.85.17h1.64v1.71h-1.64Z"/><path class="cls-2" d="m236.84,97.57c-.27.62-.64,1.17-1.11,1.64s-1.02.84-1.64,1.11c-.62.27-1.29.4-2.01.4h-1.49c-.71,0-1.38-.13-2.01-.4-.63-.27-1.18-.64-1.65-1.11s-.84-1.02-1.11-1.64c-.27-.62-.4-1.29-.4-2.01v-11.28c0-.71.13-1.38.4-2.01.27-.62.64-1.17,1.11-1.64s1.02-.84,1.65-1.11c.63-.27,1.3-.4,2.01-.4h1.49c.71,0,1.38.13,2.01.4.62.27,1.17.64,1.64,1.11s.84,1.02,1.11,1.64c.27.62.4,1.29.4,2.01v.85l-1.89.29v-1.14c0-.47-.09-.91-.26-1.31s-.41-.76-.72-1.06-.66-.54-1.06-.72c-.41-.18-.84-.26-1.31-.26h-1.32c-.47,0-.91.09-1.31.26-.41.18-.76.42-1.07.72-.31.3-.55.66-.72,1.06s-.26.84-.26,1.31v11.28c0,.47.09.91.26,1.31.18.41.42.76.72,1.07.31.31.66.55,1.07.72.4.18.84.26,1.31.26h1.32c.47,0,.9-.09,1.31-.26.4-.18.76-.42,1.06-.72.3-.31.54-.66.72-1.07.18-.4.26-.84.26-1.31v-1.14l1.89.31v.83c0,.71-.13,1.38-.4,2.01Z"/><path class="cls-2" d="m250.27,100.42l-1-1.49c-.41.54-.92.97-1.54,1.3-.62.33-1.29.49-2.02.49h-.46c-.61,0-1.18-.12-1.71-.34-.54-.23-1.01-.54-1.41-.95s-.72-.87-.95-1.41c-.23-.54-.34-1.11-.34-1.71v-.15c0-.61.11-1.18.34-1.71.23-.54.54-1.01.95-1.41s.87-.71,1.41-.95c.54-.23,1.11-.34,1.71-.34h3.81v-2.31c0-.36-.07-.7-.21-1.02s-.32-.59-.56-.83-.51-.42-.83-.56c-.32-.14-.66-.21-1.02-.21h-1.05c-.36,0-.7.07-1.02.21-.32.14-.59.32-.83.56s-.42.51-.56.83-.21.66-.21,1.02v.54l-1.8-.29v-.15c0-.61.11-1.18.34-1.71.23-.54.54-1.01.95-1.41s.87-.71,1.41-.95c.54-.23,1.11-.34,1.71-.34h1.05c.61,0,1.18.12,1.71.34.54.23,1.01.54,1.41.95s.71.87.94,1.41c.23.54.35,1.11.35,1.71v10.88h-.6Zm-1.2-7.27h-3.81c-.36,0-.7.07-1.02.21-.32.14-.59.33-.83.56s-.42.52-.56.83c-.14.32-.21.66-.21,1.02v.63c0,.36.07.7.21,1.02.14.32.32.59.56.83s.51.42.83.56c.32.14.66.21,1.02.21h1.2c.36,0,.7-.07,1.02-.21.32-.14.59-.32.83-.56s.42-.51.56-.83c.14-.32.21-.66.21-1.02v-3.25Z"/><path class="cls-2" d="m255.07,100.42v-21.01h1.8v21.01h-1.8Z"/><path class="cls-2" d="m270.76,98.02c-.23.54-.54,1.01-.95,1.41s-.87.72-1.41.95c-.54.23-1.11.34-1.71.34h-1.2c-.61,0-1.18-.12-1.71-.34-.54-.23-1.01-.54-1.41-.95s-.71-.87-.94-1.41c-.23-.54-.35-1.11-.35-1.71v-6.77c0-.61.12-1.18.35-1.71.23-.54.54-1.01.94-1.41s.87-.71,1.41-.95c.54-.23,1.11-.34,1.71-.34h1.2c.61,0,1.18.12,1.71.34.54.23,1.01.54,1.41.95s.71.87.95,1.41c.23.54.34,1.11.34,1.71v3.53h-8.22v3.34c0,.36.07.7.21,1.02.14.32.32.59.56.83s.51.42.83.56c.32.14.66.21,1.02.21h1.2c.36,0,.7-.07,1.02-.21.32-.14.59-.32.83-.56s.42-.51.56-.83c.14-.32.21-.66.21-1.02v-1l1.8.29v.6c0,.61-.12,1.18-.34,1.71Zm-1.46-8.58c0-.36-.07-.7-.21-1.02s-.32-.59-.56-.83-.51-.42-.83-.56c-.32-.14-.66-.21-1.02-.21h-1.2c-.36,0-.7.07-1.02.21-.32.14-.59.32-.83.56s-.42.51-.56.83-.21.66-.21,1.02v2.23h6.42v-2.23Z"/><path class="cls-2" d="m282.92,100.42v-10.99c0-.36-.07-.7-.21-1.02s-.32-.59-.56-.83-.51-.42-.83-.56c-.32-.14-.66-.21-1.02-.21h-1.2c-.36,0-.7.07-1.02.21-.32.14-.59.32-.83.56s-.42.51-.56.83-.21.66-.21,1.02v10.99h-1.8v-15h.6l.98,1.52c.41-.56.93-1,1.55-1.33.62-.33,1.29-.49,2.03-.49h.46c.61,0,1.18.12,1.71.34.54.23,1.01.54,1.41.95s.71.87.95,1.41c.23.54.34,1.11.34,1.71v10.88h-1.8Z"/><path class="cls-2" d="m297.75,100.42l-1-1.52c-.41.56-.92,1-1.54,1.33-.62.33-1.29.49-2.02.49h-.45c-.61,0-1.18-.12-1.71-.34-.54-.23-1.01-.54-1.41-.95s-.71-.87-.94-1.41c-.23-.54-.35-1.11-.35-1.71v-6.77c0-.61.12-1.18.35-1.71.23-.54.54-1.01.94-1.41s.87-.71,1.41-.95c.54-.23,1.11-.34,1.71-.34h.45c.67,0,1.3.14,1.88.41s1.07.65,1.48,1.14v-7.27h1.8v21.01h-.6Zm-1.2-10.99c0-.36-.07-.7-.21-1.02s-.32-.59-.56-.83-.51-.42-.83-.56c-.32-.14-.66-.21-1.02-.21h-1.2c-.36,0-.7.07-1.02.21-.32.14-.59.32-.83.56s-.42.51-.56.83-.21.66-.21,1.02v6.97c0,.36.07.7.21,1.02.14.32.32.59.56.83s.51.42.83.56c.32.14.66.21,1.02.21h1.2c.36,0,.7-.07,1.02-.21.32-.14.59-.32.83-.56s.42-.51.56-.83c.14-.32.21-.66.21-1.02v-6.97Z"/><path class="cls-2" d="m302.55,100.42v-21.01h1.8v21.01h-1.8Z"/><path class="cls-2" d="m310.99,106.43h-1.74l2.67-7.29-4.86-13.71h1.8l3.91,11.37.06.78.06-.78,3.9-11.37h1.8l-7.59,21.01Z"/><path class="cls-1" d="m59.14,54.22c.03-2.74.65-5.56,2.17-8.15,1.01-1.71,2.28-3.2,3.86-4.42.78-.61,1.49-1.31,2.28-1.91,1.32-1.02,2.69-1.06,4.06-.17.45.29.83.68,1.21,1.06.99,1.03,1.74,2.24,2.5,3.43.89,1.39,1.8,2.78,2.37,4.34.38,1.04.6,2.09.41,3.2-.21,1.22-.89,2.17-1.8,2.98-1,.89-2.02,1.74-3.1,2.53-1.3.95-1.83,2.52-1.48,4.1.45,2.01,1.48,3.72,2.64,5.38,1.31,1.86,2.79,3.59,4.36,5.23,1.57,1.63,3.22,3.19,5.26,4.23,1.45.74,2.95,1.11,4.49.21.65-.38,1.11-.98,1.65-1.49.98-.93,1.93-1.89,3.1-2.6,1.39-.84,2.85-.83,4.33-.26,1.22.47,2.29,1.19,3.3,2.02,1.54,1.27,3.11,2.51,4.44,4.01.51.58.97,1.19,1.26,1.92.53,1.34.31,2.66-.76,3.64-1.42,1.32-2.79,2.71-4.41,3.79-2.08,1.39-4.37,2.26-6.86,2.54-3.87.43-7.49-.42-10.96-2.11-3.14-1.53-5.9-3.58-8.48-5.9-2.97-2.67-5.62-5.64-8.05-8.79-2.32-3.01-4.34-6.2-5.81-9.72-1.18-2.83-1.92-5.77-1.95-9.09Z"/></svg>