<?xml version="1.0" encoding="UTF-8"?><svg id="Laag_1" xmlns="http://www.w3.org/2000/svg" xmlns:xlink="http://www.w3.org/1999/xlink" viewBox="0 0 675 203.41"><defs><style>.cls-1{fill:#e23b17;}.cls-2{fill:#fff;}</style></defs><path class="cls-1" d="m674.14.86v201.68H.86V.86h673.27M675,0H0v203.41h675V0h0Z"/><image width="1909" height="1064" transform="translate(11.52 16.93) scale(.16)" xlink:href="C:\Users\User\Desktop\filmpje2.jpg"/><circle class="cls-1" cx="162.72" cy="103.08" r="47.48"/><polygon class="cls-2" points="151.85 84.21 151.85 120.7 184.33 102.46 151.85 84.21"/><path class="cls-1" d="m339.65,76.24v-.83l8.74-17.09h-8.46v-1.68h10.76v.85l-8.74,17.08h8.74v1.68h-11.03Z"/><path class="cls-1" d="m353.91,58.88v-2.24h1.96v2.24h-1.96Zm.14,17.36v-14h1.68v14h-1.68Z"/><path class="cls-1" d="m368.68,74c-.21.5-.51.94-.88,1.31-.37.37-.81.67-1.31.88s-1.03.32-1.6.32h-1.12c-.57,0-1.1-.11-1.6-.32s-.94-.51-1.31-.88c-.37-.37-.67-.81-.88-1.31-.21-.5-.32-1.03-.32-1.6v-6.32c0-.56.11-1.1.32-1.6.21-.5.51-.94.88-1.31.37-.37.81-.67,1.31-.88.5-.21,1.03-.32,1.6-.32h1.12c.57,0,1.1.11,1.6.32.5.21.94.51,1.31.88.37.37.67.81.88,1.31.21.5.32,1.03.32,1.6v3.29h-7.67v3.12c0,.34.06.65.19.95.13.3.3.55.52.77s.48.39.77.52c.3.13.61.19.95.19h1.12c.34,0,.65-.06.95-.19.3-.13.55-.3.77-.52s.39-.48.52-.77c.13-.3.19-.61.19-.95v-.93l1.68.27v.56c0,.57-.11,1.1-.32,1.6Zm-1.36-8.01c0-.34-.06-.65-.19-.95-.13-.3-.3-.55-.52-.77s-.48-.39-.77-.52c-.3-.13-.61-.19-.95-.19h-1.12c-.34,0-.65.06-.95.19-.3.13-.55.3-.77.52s-.39.48-.52.77c-.13.3-.19.61-.19.95v2.08h5.99v-2.08Z"/><path class="cls-1" d="m383.19,76.24h-.83l-4.96-14h1.68l3.65,10.61.05.72.05-.72,3.64-10.61h1.68l-4.96,14Z"/><path class="cls-1" d="m390.53,58.88v-2.24h1.96v2.24h-1.96Zm.14,17.36v-14h1.68v14h-1.68Z"/><path class="cls-1" d="m405.07,76.24l-.93-1.42c-.38.52-.86.93-1.44,1.24s-1.2.46-1.89.46h-.42c-.57,0-1.1-.11-1.6-.32s-.94-.51-1.31-.88c-.37-.37-.67-.81-.88-1.31-.21-.5-.32-1.03-.32-1.6v-6.32c0-.56.11-1.1.32-1.6.21-.5.51-.94.88-1.31.37-.37.81-.67,1.31-.88.5-.21,1.03-.32,1.6-.32h.42c.63,0,1.21.13,1.75.38.54.26,1,.61,1.38,1.07v-6.78h1.68v19.61h-.56Zm-1.12-10.25c0-.34-.06-.65-.19-.95-.13-.3-.3-.55-.52-.77s-.48-.39-.77-.52c-.3-.13-.61-.19-.95-.19h-1.12c-.34,0-.65.06-.95.19-.3.13-.55.3-.77.52s-.39.48-.52.77c-.13.3-.19.61-.19.95v6.51c0,.34.06.65.19.95.13.3.3.55.52.77s.48.39.77.52c.3.13.61.19.95.19h1.12c.34,0,.65-.06.95-.19.3-.13.55-.3.77-.52s.39-.48.52-.77c.13-.3.19-.61.19-.95v-6.51Z"/><path class="cls-1" d="m418.02,74c-.21.5-.51.94-.88,1.31-.37.37-.81.67-1.31.88s-1.03.32-1.6.32h-1.12c-.57,0-1.1-.11-1.6-.32s-.94-.51-1.31-.88c-.37-.37-.67-.81-.88-1.31-.21-.5-.32-1.03-.32-1.6v-6.32c0-.56.11-1.1.32-1.6.21-.5.51-.94.88-1.31.37-.37.81-.67,1.31-.88.5-.21,1.03-.32,1.6-.32h1.12c.57,0,1.1.11,1.6.32.5.21.94.51,1.31.88.37.37.67.81.88,1.31.21.5.32,1.03.32,1.6v3.29h-7.67v3.12c0,.34.06.65.19.95.13.3.3.55.52.77s.48.39.77.52c.3.13.61.19.95.19h1.12c.34,0,.65-.06.95-.19.3-.13.55-.3.77-.52s.39-.48.52-.77c.13-.3.19-.61.19-.95v-.93l1.68.27v.56c0,.57-.11,1.1-.32,1.6Zm-1.36-8.01c0-.34-.06-.65-.19-.95-.13-.3-.3-.55-.52-.77s-.48-.39-.77-.52c-.3-.13-.61-.19-.95-.19h-1.12c-.34,0-.65.06-.95.19-.3.13-.55.3-.77.52s-.39.48-.52.77c-.13.3-.19.61-.19.95v2.08h5.99v-2.08Z"/><path class="cls-1" d="m430.73,74c-.21.5-.51.94-.88,1.31-.37.37-.81.67-1.31.88s-1.03.32-1.6.32h-1.12c-.57,0-1.1-.11-1.6-.32s-.94-.51-1.31-.88c-.37-.37-.67-.81-.88-1.31-.21-.5-.32-1.03-.32-1.6v-6.32c0-.56.11-1.1.32-1.6.21-.5.51-.94.88-1.31.37-.37.81-.67,1.31-.88.5-.21,1.03-.32,1.6-.32h1.12c.57,0,1.1.11,1.6.32.5.21.94.51,1.31.88.37.37.67.81.88,1.31.21.5.32,1.03.32,1.6v6.32c0,.57-.11,1.1-.32,1.6Zm-1.36-8.01c0-.34-.06-.65-.19-.95-.13-.3-.3-.55-.52-.77s-.48-.39-.77-.52c-.3-.13-.61-.19-.95-.19h-1.12c-.34,0-.65.06-.95.19-.3.13-.55.3-.77.52s-.39.48-.52.77c-.13.3-.19.61-.19.95v6.51c0,.34.06.65.19.95.13.3.3.55.52.77s.48.39.77.52c.3.13.61.19.95.19h1.12c.34,0,.65-.06.95-.19.3-.13.55-.3.77-.52s.39-.48.52-.77c.13-.3.19-.61.19-.95v-6.51Z"/><path class="cls-1" d="m449.89,74c-.21.5-.51.94-.88,1.31-.37.37-.81.67-1.31.88s-1.03.32-1.6.32h-1.12c-.57,0-1.1-.11-1.6-.32s-.94-.51-1.31-.88c-.37-.37-.67-.81-.88-1.31-.21-.5-.32-1.03-.32-1.6v-6.32c0-.56.11-1.1.32-1.6.21-.5.51-.94.88-1.31.37-.37.81-.67,1.31-.88.5-.21,1.03-.32,1.6-.32h1.12c.57,0,1.1.11,1.6.32.5.21.94.51,1.31.88.37.37.67.81.88,1.31.21.5.32,1.03.32,1.6v6.32c0,.57-.11,1.1-.32,1.6Zm-1.36-8.01c0-.34-.06-.65-.19-.95-.13-.3-.3-.55-.52-.77s-.48-.39-.77-.52c-.3-.13-.61-.19-.95-.19h-1.12c-.34,0-.65.06-.95.19-.3.13-.55.3-.77.52s-.39.48-.52.77c-.13.3-.19.61-.19.95v6.51c0,.34.06.65.19.95.13.3.3.55.52.77s.48.39.77.52c.3.13.61.19.95.19h1.12c.34,0,.65-.06.95-.19.3-.13.55-.3.77-.52s.39-.48.52-.77c.13-.3.19-.61.19-.95v-6.51Z"/><path class="cls-1" d="m457.96,76.24h-.83l-4.96-14h1.68l3.65,10.61.05.72.05-.72,3.64-10.61h1.68l-4.96,14Z"/><path class="cls-1" d="m473.91,74c-.21.5-.51.94-.88,1.31-.37.37-.81.67-1.31.88s-1.03.32-1.6.32h-1.12c-.57,0-1.1-.11-1.6-.32s-.94-.51-1.31-.88c-.37-.37-.67-.81-.88-1.31-.21-.5-.32-1.03-.32-1.6v-6.32c0-.56.11-1.1.32-1.6.21-.5.51-.94.88-1.31.37-.37.81-.67,1.31-.88.5-.21,1.03-.32,1.6-.32h1.12c.57,0,1.1.11,1.6.32.5.21.94.51,1.31.88.37.37.67.81.88,1.31.21.5.32,1.03.32,1.6v3.29h-7.67v3.12c0,.34.06.65.19.95.13.3.3.55.52.77s.48.39.77.52c.3.13.61.19.95.19h1.12c.34,0,.65-.06.95-.19.3-.13.55-.3.77-.52s.39-.48.52-.77c.13-.3.19-.61.19-.95v-.93l1.68.27v.56c0,.57-.11,1.1-.32,1.6Zm-1.36-8.01c0-.34-.06-.65-.19-.95-.13-.3-.3-.55-.52-.77s-.48-.39-.77-.52c-.3-.13-.61-.19-.95-.19h-1.12c-.34,0-.65.06-.95.19-.3.13-.55.3-.77.52s-.39.48-.52.77c-.13.3-.19.61-.19.95v2.08h5.99v-2.08Z"/><path class="cls-1" d="m481.71,63.84c-.34,0-.65.06-.95.19-.3.13-.55.3-.77.52s-.39.48-.52.77c-.13.3-.19.61-.19.95v9.97h-1.68v-14h.56l.92,1.42c.38-.52.86-.93,1.44-1.24.58-.31,1.21-.46,1.89-.46h.98v1.87h-1.68Z"/><path class="cls-1" d="m503.86,76.24h-.92l-3.28-10.55-.05-.72-.05.72-3.28,10.55h-.93l-4.68-14h1.71l3.34,10.58.05.72.05-.72,3.28-10.58h1.01l3.27,10.58.05.72.05-.72,3.34-10.58h1.71l-4.68,14Z"/><path class="cls-1" d="m519.29,76.24l-.93-1.39c-.38.5-.86.9-1.44,1.21s-1.2.46-1.89.46h-.42c-.57,0-1.1-.11-1.6-.32s-.94-.51-1.31-.88c-.37-.37-.67-.81-.88-1.31-.21-.5-.32-1.03-.32-1.6v-.14c0-.56.11-1.1.32-1.6.21-.5.51-.94.88-1.31.37-.37.81-.67,1.31-.88.5-.21,1.03-.32,1.6-.32h3.55v-2.16c0-.34-.06-.65-.19-.95-.13-.3-.3-.55-.52-.77s-.48-.39-.77-.52c-.3-.13-.61-.19-.95-.19h-.98c-.34,0-.65.06-.95.19-.3.13-.55.3-.77.52s-.39.48-.52.77c-.13.3-.19.61-.19.95v.51l-1.68-.27v-.14c0-.56.11-1.1.32-1.6.21-.5.51-.94.88-1.31.37-.37.81-.67,1.31-.88.5-.21,1.03-.32,1.6-.32h.98c.57,0,1.1.11,1.6.32.5.21.94.51,1.31.88.37.37.67.81.88,1.31.21.5.32,1.03.32,1.6v10.16h-.56Zm-1.12-6.78h-3.55c-.34,0-.65.06-.95.19-.3.13-.55.3-.77.53-.22.22-.39.48-.52.78-.13.3-.19.61-.19.95v.59c0,.34.06.65.19.95.13.3.3.55.52.77s.48.39.77.52c.3.13.61.19.95.19h1.12c.34,0,.65-.06.95-.19.3-.13.55-.3.77-.52s.39-.48.52-.77c.13-.3.19-.61.19-.95v-3.04Z"/><path class="cls-1" d="m528.32,76.24c-.51,0-.99-.1-1.44-.29s-.84-.46-1.18-.79c-.33-.34-.6-.73-.79-1.18-.2-.45-.29-.92-.29-1.44v-8.71h-2.52v-1.6h2.52v-3.36l1.68-.27v3.64h3.55v1.6h-3.55v8.79c0,.28.05.54.16.79.1.24.25.45.43.64.18.18.4.33.64.43.25.1.51.16.79.16h1.53v1.6h-1.53Z"/><path class="cls-1" d="m541.97,74c-.21.5-.51.94-.88,1.31-.37.37-.81.67-1.31.88s-1.03.32-1.6.32h-1.12c-.57,0-1.1-.11-1.6-.32s-.94-.51-1.31-.88c-.37-.37-.67-.81-.88-1.31-.21-.5-.32-1.03-.32-1.6v-6.32c0-.56.11-1.1.32-1.6.21-.5.51-.94.88-1.31.37-.37.81-.67,1.31-.88.5-.21,1.03-.32,1.6-.32h1.12c.57,0,1.1.11,1.6.32.5.21.94.51,1.31.88.37.37.67.81.88,1.31.21.5.32,1.03.32,1.6v3.29h-7.67v3.12c0,.34.06.65.19.95.13.3.3.55.52.77s.48.39.77.52c.3.13.61.19.95.19h1.12c.34,0,.65-.06.95-.19.3-.13.55-.3.77-.52s.39-.48.52-.77c.13-.3.19-.61.19-.95v-.93l1.68.27v.56c0,.57-.11,1.1-.32,1.6Zm-1.36-8.01c0-.34-.06-.65-.19-.95-.13-.3-.3-.55-.52-.77s-.48-.39-.77-.52c-.3-.13-.61-.19-.95-.19h-1.12c-.34,0-.65.06-.95.19-.3.13-.55.3-.77.52s-.39.48-.52.77c-.13.3-.19.61-.19.95v2.08h5.99v-2.08Z"/><path class="cls-1" d="m549.77,63.84c-.34,0-.65.06-.95.19-.3.13-.55.3-.77.52s-.39.48-.52.77c-.13.3-.19.61-.19.95v9.97h-1.68v-14h.56l.92,1.42c.38-.52.86-.93,1.44-1.24.58-.31,1.21-.46,1.89-.46h.98v1.87h-1.68Z"/><path class="cls-1" d="m563.32,72.69c0,.57-.11,1.08-.34,1.55-.23.47-.54.87-.93,1.21-.39.34-.85.6-1.36.79s-1.05.28-1.62.28h-1.12c-.57,0-1.11-.11-1.62-.32s-.97-.51-1.35-.88c-.39-.37-.7-.81-.93-1.31-.23-.5-.35-1.03-.35-1.6v-.56l1.68-.27v.93c0,.34.07.65.21.95.14.3.33.55.57.77s.51.39.82.52c.31.13.63.19.97.19h1.12c.34,0,.66-.05.97-.15.31-.1.59-.24.83-.43.24-.19.43-.41.57-.68.14-.26.21-.56.21-.9,0-.5-.11-.91-.33-1.23-.22-.32-.51-.59-.87-.8-.36-.21-.77-.39-1.23-.53-.46-.14-.93-.28-1.42-.42-.48-.14-.96-.3-1.42-.49-.46-.18-.87-.42-1.23-.72-.36-.3-.65-.67-.87-1.11-.22-.45-.33-1-.33-1.67,0-.56.11-1.08.33-1.55.22-.47.51-.87.89-1.21.37-.34.81-.6,1.31-.79.5-.19,1.03-.28,1.59-.28h.98c.57,0,1.1.11,1.6.32.5.21.94.51,1.31.88.37.37.67.81.88,1.31.21.5.32,1.03.32,1.6v.05l-1.68.27v-.42c0-.34-.06-.65-.19-.95-.13-.3-.3-.55-.52-.77s-.48-.39-.77-.52c-.3-.13-.61-.19-.95-.19h-.98c-.34,0-.65.05-.95.15-.3.1-.55.24-.77.43-.22.19-.39.41-.52.68-.13.26-.19.57-.19.9,0,.48.11.88.33,1.18.22.31.51.56.87.77.36.21.77.39,1.23.53.46.14.93.29,1.41.44s.95.32,1.41.51.87.44,1.23.74.65.68.87,1.13.33,1.01.33,1.67Z"/><path class="cls-1" d="m571.64,76.24c-.51,0-.99-.1-1.44-.29s-.84-.46-1.18-.79c-.33-.34-.6-.73-.79-1.18-.2-.45-.29-.92-.29-1.44v-8.71h-2.52v-1.6h2.52v-3.36l1.68-.27v3.64h3.55v1.6h-3.55v8.79c0,.28.05.54.16.79.1.24.25.45.43.64.18.18.4.33.64.43.25.1.51.16.79.16h1.53v1.6h-1.53Z"/><path class="cls-1" d="m585.3,74c-.21.5-.51.94-.88,1.31-.37.37-.81.67-1.31.88s-1.03.32-1.6.32h-1.12c-.57,0-1.1-.11-1.6-.32s-.94-.51-1.31-.88c-.37-.37-.67-.81-.88-1.31-.21-.5-.32-1.03-.32-1.6v-6.32c0-.56.11-1.1.32-1.6.21-.5.51-.94.88-1.31.37-.37.81-.67,1.31-.88.5-.21,1.03-.32,1.6-.32h1.12c.57,0,1.1.11,1.6.32.5.21.94.51,1.31.88.37.37.67.81.88,1.31.21.5.32,1.03.32,1.6v6.32c0,.57-.11,1.1-.32,1.6Zm-1.36-8.01c0-.34-.06-.65-.19-.95-.13-.3-.3-.55-.52-.77s-.48-.39-.77-.52c-.3-.13-.61-.19-.95-.19h-1.12c-.34,0-.65.06-.95.19-.3.13-.55.3-.77.52s-.39.48-.52.77c-.13.3-.19.61-.19.95v6.51c0,.34.06.65.19.95.13.3.3.55.52.77s.48.39.77.52c.3.13.61.19.95.19h1.12c.34,0,.65-.06.95-.19.3-.13.55-.3.77-.52s.39-.48.52-.77c.13-.3.19-.61.19-.95v-6.51Z"/><path class="cls-1" d="m593.79,58.24c-.28,0-.54.05-.79.16-.24.1-.45.25-.64.43-.18.18-.33.4-.43.64s-.16.51-.16.79v1.98h3.27v1.6h-3.27v12.4h-1.68v-12.4h-2.53v-1.6h2.53v-1.9c0-.51.1-.99.29-1.44s.46-.85.79-1.18c.34-.34.73-.6,1.18-.79s.92-.29,1.44-.29h1.54v1.6h-1.54Z"/><path class="cls-1" d="m603.88,58.88v-2.24h1.96v2.24h-1.96Zm.14,17.36v-14h1.68v14h-1.68Z"/><path class="cls-1" d="m617.29,76.24v-10.25c0-.34-.06-.65-.19-.95-.13-.3-.3-.55-.52-.77s-.48-.39-.77-.52c-.3-.13-.61-.19-.95-.19h-1.12c-.34,0-.65.06-.95.19-.3.13-.55.3-.77.52s-.39.48-.52.77c-.13.3-.19.61-.19.95v10.25h-1.68v-14h.56l.92,1.42c.38-.52.86-.93,1.44-1.24.58-.31,1.21-.46,1.89-.46h.42c.57,0,1.1.11,1.6.32.5.21.94.51,1.31.88.37.37.67.81.88,1.31.21.5.32,1.03.32,1.6v10.16h-1.68Z"/><path class="cls-1" d="m349,109.84l-.93-1.42c-.38.52-.86.93-1.44,1.24s-1.2.46-1.89.46h-.42c-.57,0-1.1-.11-1.6-.32s-.94-.51-1.31-.88c-.37-.37-.67-.81-.88-1.31-.21-.5-.32-1.03-.32-1.6v-6.32c0-.56.11-1.1.32-1.6.21-.5.51-.94.88-1.31.37-.37.81-.67,1.31-.88.5-.21,1.03-.32,1.6-.32h.42c.63,0,1.21.13,1.75.38.54.26,1,.61,1.38,1.07v-6.78h1.68v19.61h-.56Zm-1.12-10.25c0-.34-.06-.65-.19-.95-.13-.3-.3-.55-.52-.77s-.48-.39-.77-.52c-.3-.13-.61-.19-.95-.19h-1.12c-.34,0-.65.06-.95.19-.3.13-.55.3-.77.52s-.39.48-.52.77c-.13.3-.19.61-.19.95v6.51c0,.34.06.65.19.95.13.3.3.55.52.77s.48.39.77.52c.3.13.61.19.95.19h1.12c.34,0,.65-.06.95-.19.3-.13.55-.3.77-.52s.39-.48.52-.77c.13-.3.19-.61.19-.95v-6.51Z"/><path class="cls-1" d="m361.95,107.6c-.21.5-.51.94-.88,1.31-.37.37-.81.67-1.31.88s-1.03.32-1.6.32h-1.12c-.57,0-1.1-.11-1.6-.32s-.94-.51-1.31-.88c-.37-.37-.67-.81-.88-1.31-.21-.5-.32-1.03-.32-1.6v-6.32c0-.56.11-1.1.32-1.6.21-.5.51-.94.88-1.31.37-.37.81-.67,1.31-.88.5-.21,1.03-.32,1.6-.32h1.12c.57,0,1.1.11,1.6.32.5.21.94.51,1.31.88.37.37.67.81.88,1.31.21.5.32,1.03.32,1.6v3.29h-7.67v3.12c0,.34.06.65.19.95.13.3.3.55.52.77s.48.39.77.52c.3.13.61.19.95.19h1.12c.34,0,.65-.06.95-.19.3-.13.55-.3.77-.52s.39-.48.52-.77c.13-.3.19-.61.19-.95v-.93l1.68.27v.56c0,.57-.11,1.1-.32,1.6Zm-1.36-8.01c0-.34-.06-.65-.19-.95-.13-.3-.3-.55-.52-.77s-.48-.39-.77-.52c-.3-.13-.61-.19-.95-.19h-1.12c-.34,0-.65.06-.95.19-.3.13-.55.3-.77.52s-.39.48-.52.77c-.13.3-.19.61-.19.95v2.08h5.99v-2.08Z"/><path class="cls-1" d="m381.24,113.16c-.21.47-.51.88-.88,1.22-.37.34-.81.6-1.31.79-.5.19-1.03.28-1.6.28h-.7c-.57,0-1.1-.09-1.6-.28-.5-.19-.94-.45-1.31-.79-.37-.34-.67-.74-.88-1.22-.21-.47-.32-.99-.32-1.56v-.05c0-.55.1-1.05.3-1.5s.47-.85.82-1.19c-.44-.26-.79-.62-1.05-1.07s-.39-.95-.39-1.5c0-.49.1-.95.31-1.37s.5-.77.86-1.03c-.44-.38-.78-.84-1.04-1.38-.25-.54-.38-1.13-.38-1.76v-1.05c0-.56.11-1.1.32-1.6.21-.5.51-.94.88-1.31.37-.37.81-.67,1.31-.88.5-.21,1.03-.32,1.6-.32h.7c.68,0,1.31.15,1.89.46.58.31,1.06.72,1.44,1.24l.92-1.42h.56v4.89c0,.57-.11,1.1-.32,1.6-.21.5-.51.94-.88,1.31-.37.37-.81.67-1.31.88-.5.21-1.03.32-1.6.32h-2.43c-.19,0-.37.04-.55.12-.17.08-.33.18-.46.31-.13.13-.23.28-.31.46s-.11.36-.11.55.04.37.11.55c.07.17.18.33.31.46.13.13.29.23.46.31.17.07.36.11.55.11h2.3c.57,0,1.1.09,1.6.28.5.19.94.45,1.31.79.37.34.67.74.88,1.22s.32.99.32,1.56v.05c0,.56-.11,1.08-.32,1.56Zm-1.21-13.58c0-.34-.06-.65-.19-.95-.13-.3-.3-.55-.53-.77s-.48-.39-.78-.52c-.3-.13-.61-.19-.95-.19h-1.39c-.34,0-.65.06-.95.19-.3.13-.55.3-.77.52s-.39.48-.52.77c-.13.3-.19.61-.19.95v1.24c0,.34.06.65.19.95.13.3.3.55.52.77s.48.39.77.52c.3.13.61.19.95.19h1.39c.34,0,.65-.06.95-.19.3-.13.56-.3.78-.52s.4-.48.53-.77c.13-.3.19-.61.19-.95v-1.24Zm-.07,11.88c0-.34-.06-.64-.19-.91-.13-.27-.3-.49-.52-.68s-.48-.32-.77-.42c-.3-.1-.61-.15-.95-.15h-.86c-.34,0-.65.05-.95.15-.3.1-.55.24-.77.42s-.39.41-.52.68c-.13.27-.19.57-.19.91v.22c0,.34.06.64.19.9.13.26.3.49.52.68.22.19.48.33.77.43.3.1.61.15.95.15h.86c.34,0,.65-.05.95-.15.3-.1.55-.24.77-.43.22-.19.39-.41.52-.68.13-.26.19-.57.19-.9v-.22Z"/><path class="cls-1" d="m393.58,109.84l-.93-1.39c-.38.5-.86.9-1.44,1.21s-1.2.46-1.89.46h-.42c-.57,0-1.1-.11-1.6-.32s-.94-.51-1.31-.88c-.37-.37-.67-.81-.88-1.31-.21-.5-.32-1.03-.32-1.6v-.14c0-.56.11-1.1.32-1.6.21-.5.51-.94.88-1.31.37-.37.81-.67,1.31-.88.5-.21,1.03-.32,1.6-.32h3.55v-2.16c0-.34-.06-.65-.19-.95-.13-.3-.3-.55-.52-.77s-.48-.39-.77-.52c-.3-.13-.61-.19-.95-.19h-.98c-.34,0-.65.06-.95.19-.3.13-.55.3-.77.52s-.39.48-.52.77c-.13.3-.19.61-.19.95v.51l-1.68-.27v-.14c0-.56.11-1.1.32-1.6.21-.5.51-.94.88-1.31.37-.37.81-.67,1.31-.88.5-.21,1.03-.32,1.6-.32h.98c.57,0,1.1.11,1.6.32.5.21.94.51,1.31.88.37.37.67.81.88,1.31.21.5.32,1.03.32,1.6v10.16h-.56Zm-1.12-6.78h-3.55c-.34,0-.65.06-.95.19-.3.13-.55.3-.77.53-.22.22-.39.48-.52.78-.13.3-.19.61-.19.95v.59c0,.34.06.65.19.95.13.3.3.55.52.77s.48.39.77.52c.3.13.61.19.95.19h1.12c.34,0,.65-.06.95-.19.3-.13.55-.3.77-.52s.39-.48.52-.77c.13-.3.19-.61.19-.95v-3.04Z"/><path class="cls-1" d="m407.13,106.29c0,.57-.11,1.08-.34,1.55-.23.47-.54.87-.93,1.21-.39.34-.85.6-1.36.79s-1.05.28-1.62.28h-1.12c-.57,0-1.11-.11-1.62-.32s-.97-.51-1.35-.88c-.39-.37-.7-.81-.93-1.31-.23-.5-.35-1.03-.35-1.6v-.56l1.68-.27v.93c0,.34.07.65.21.95.14.3.33.55.57.77s.51.39.82.52c.31.13.63.19.97.19h1.12c.34,0,.66-.05.97-.15.31-.1.59-.24.83-.43.24-.19.43-.41.57-.68.14-.26.21-.56.21-.9,0-.5-.11-.91-.33-1.23-.22-.32-.51-.59-.87-.8-.36-.21-.77-.39-1.23-.53-.46-.14-.93-.28-1.42-.42-.48-.14-.96-.3-1.42-.49-.46-.18-.87-.42-1.23-.72-.36-.3-.65-.67-.87-1.11-.22-.45-.33-1-.33-1.67,0-.56.11-1.08.33-1.55.22-.47.51-.87.89-1.21.37-.34.81-.6,1.31-.79.5-.19,1.03-.28,1.59-.28h.98c.57,0,1.1.11,1.6.32.5.21.94.51,1.31.88.37.37.67.81.88,1.31.21.5.32,1.03.32,1.6v.05l-1.68.27v-.42c0-.34-.06-.65-.19-.95-.13-.3-.3-.55-.52-.77s-.48-.39-.77-.52c-.3-.13-.61-.19-.95-.19h-.98c-.34,0-.65.05-.95.15-.3.1-.55.24-.77.43-.22.19-.39.41-.52.68-.13.26-.19.57-.19.9,0,.48.11.88.33,1.18.22.31.51.56.87.77.36.21.77.39,1.23.53.46.14.93.29,1.41.44s.95.32,1.41.51.87.44,1.23.74.65.68.87,1.13.33,1.01.33,1.67Z"/><path class="cls-1" d="m410.92,109.84v-19.61h1.68v19.61h-1.68Z"/><path class="cls-1" d="m425.55,107.6c-.21.5-.51.94-.88,1.31-.37.37-.81.67-1.31.88s-1.03.32-1.6.32h-1.12c-.57,0-1.1-.11-1.6-.32s-.94-.51-1.31-.88c-.37-.37-.67-.81-.88-1.31-.21-.5-.32-1.03-.32-1.6v-6.32c0-.56.11-1.1.32-1.6.21-.5.51-.94.88-1.31.37-.37.81-.67,1.31-.88.5-.21,1.03-.32,1.6-.32h1.12c.57,0,1.1.11,1.6.32.5.21.94.51,1.31.88.37.37.67.81.88,1.31.21.5.32,1.03.32,1.6v3.29h-7.67v3.12c0,.34.06.65.19.95.13.3.3.55.52.77s.48.39.77.52c.3.13.61.19.95.19h1.12c.34,0,.65-.06.95-.19.3-.13.55-.3.77-.52s.39-.48.52-.77c.13-.3.19-.61.19-.95v-.93l1.68.27v.56c0,.57-.11,1.1-.32,1.6Zm-1.36-8.01c0-.34-.06-.65-.19-.95-.13-.3-.3-.55-.52-.77s-.48-.39-.77-.52c-.3-.13-.61-.19-.95-.19h-1.12c-.34,0-.65.06-.95.19-.3.13-.55.3-.77.52s-.39.48-.52.77c-.13.3-.19.61-.19.95v2.08h5.99v-2.08Z"/><path class="cls-1" d="m429.66,92.48v-2.24h1.96v2.24h-1.96Zm.14,17.36v-14h1.68v14h-1.68Z"/><path class="cls-1" d="m444.19,109.84l-.93-1.42c-.38.52-.86.93-1.44,1.24s-1.2.46-1.89.46h-.42c-.57,0-1.1-.11-1.6-.32s-.94-.51-1.31-.88c-.37-.37-.67-.81-.88-1.31-.21-.5-.32-1.03-.32-1.6v-6.32c0-.56.11-1.1.32-1.6.21-.5.51-.94.88-1.31.37-.37.81-.67,1.31-.88.5-.21,1.03-.32,1.6-.32h.42c.63,0,1.21.13,1.75.38.54.26,1,.61,1.38,1.07v-6.78h1.68v19.61h-.56Zm-1.12-10.25c0-.34-.06-.65-.19-.95-.13-.3-.3-.55-.52-.77s-.48-.39-.77-.52c-.3-.13-.61-.19-.95-.19h-1.12c-.34,0-.65.06-.95.19-.3.13-.55.3-.77.52s-.39.48-.52.77c-.13.3-.19.61-.19.95v6.51c0,.34.06.65.19.95.13.3.3.55.52.77s.48.39.77.52c.3.13.61.19.95.19h1.12c.34,0,.65-.06.95-.19.3-.13.55-.3.77-.52s.39-.48.52-.77c.13-.3.19-.61.19-.95v-6.51Z"/><path class="cls-1" d="m448.54,92.48v-2.24h1.96v2.24h-1.96Zm.14,17.36v-14h1.68v14h-1.68Z"/><path class="cls-1" d="m461.95,109.84v-10.25c0-.34-.06-.65-.19-.95-.13-.3-.3-.55-.52-.77s-.48-.39-.77-.52c-.3-.13-.61-.19-.95-.19h-1.12c-.34,0-.65.06-.95.19-.3.13-.55.3-.77.52s-.39.48-.52.77c-.13.3-.19.61-.19.95v10.25h-1.68v-14h.56l.92,1.42c.38-.52.86-.93,1.44-1.24.58-.31,1.21-.46,1.89-.46h.42c.57,0,1.1.11,1.6.32.5.21.94.51,1.31.88.37.37.67.81.88,1.31.21.5.32,1.03.32,1.6v10.16h-1.68Z"/><path class="cls-1" d="m476.17,113.16c-.21.47-.51.88-.88,1.22-.37.34-.81.6-1.31.79-.5.19-1.03.28-1.6.28h-.7c-.57,0-1.1-.09-1.6-.28-.5-.19-.94-.45-1.31-.79-.37-.34-.67-.74-.88-1.22-.21-.47-.32-.99-.32-1.56v-.05c0-.55.1-1.05.3-1.5s.47-.85.82-1.19c-.44-.26-.79-.62-1.05-1.07s-.39-.95-.39-1.5c0-.49.1-.95.31-1.37s.5-.77.86-1.03c-.44-.38-.78-.84-1.04-1.38-.25-.54-.38-1.13-.38-1.76v-1.05c0-.56.11-1.1.32-1.6.21-.5.51-.94.88-1.31.37-.37.81-.67,1.31-.88.5-.21,1.03-.32,1.6-.32h.7c.68,0,1.31.15,1.89.46.58.31,1.06.72,1.44,1.24l.92-1.42h.56v4.89c0,.57-.11,1.1-.32,1.6-.21.5-.51.94-.88,1.31-.37.37-.81.67-1.31.88-.5.21-1.03.32-1.6.32h-2.43c-.19,0-.37.04-.55.12-.17.08-.33.18-.46.31-.13.13-.23.28-.31.46s-.11.36-.11.55.04.37.11.55c.07.17.18.33.31.46.13.13.29.23.46.31.17.07.36.11.55.11h2.3c.57,0,1.1.09,1.6.28.5.19.94.45,1.31.79.37.34.67.74.88,1.22s.32.99.32,1.56v.05c0,.56-.11,1.08-.32,1.56Zm-1.21-13.58c0-.34-.06-.65-.19-.95-.13-.3-.3-.55-.53-.77s-.48-.39-.78-.52c-.3-.13-.61-.19-.95-.19h-1.39c-.34,0-.65.06-.95.19-.3.13-.55.3-.77.52s-.39.48-.52.77c-.13.3-.19.61-.19.95v1.24c0,.34.06.65.19.95.13.3.3.55.52.77s.48.39.77.52c.3.13.61.19.95.19h1.39c.34,0,.65-.06.95-.19.3-.13.56-.3.78-.52s.4-.48.53-.77c.13-.3.19-.61.19-.95v-1.24Zm-.07,11.88c0-.34-.06-.64-.19-.91-.13-.27-.3-.49-.52-.68s-.48-.32-.77-.42c-.3-.1-.61-.15-.95-.15h-.86c-.34,0-.65.05-.95.15-.3.1-.55.24-.77.42s-.39.41-.52.68c-.13.27-.19.57-.19.91v.22c0,.34.06.64.19.9.13.26.3.49.52.68.22.19.48.33.77.43.3.1.61.15.95.15h.86c.34,0,.65-.05.95-.15.3-.1.55-.24.77-.43.22-.19.39-.41.52-.68.13-.26.19-.57.19-.9v-.22Z"/><path class="cls-1" d="m500.93,109.84v-10.25c0-.34-.06-.65-.19-.95-.13-.3-.3-.55-.52-.77s-.48-.39-.77-.52c-.3-.13-.61-.19-.95-.19h-.83c-.34,0-.65.06-.95.19-.3.13-.56.3-.78.52s-.4.48-.53.77c-.13.3-.19.61-.19.95v10.25h-1.67v-10.25c0-.34-.06-.65-.19-.95-.13-.3-.3-.55-.53-.77s-.48-.39-.78-.52c-.3-.13-.61-.19-.95-.19h-.83c-.34,0-.65.06-.95.19-.3.13-.55.3-.77.52s-.39.48-.52.77c-.13.3-.19.61-.19.95v10.25h-1.68v-14h.56l.92,1.42c.38-.52.86-.93,1.44-1.24.58-.31,1.21-.46,1.89-.46h.14c.79,0,1.51.2,2.15.59.64.39,1.13.91,1.48,1.56.17-.32.39-.61.64-.88.25-.26.54-.49.85-.68.31-.19.65-.33,1.01-.44.36-.1.74-.16,1.13-.16h.14c.57,0,1.1.11,1.6.32.5.21.94.51,1.31.88.37.37.67.81.88,1.31.21.5.32,1.03.32,1.6v10.16h-1.68Z"/><path class="cls-1" d="m515.01,107.6c-.21.5-.51.94-.88,1.31-.37.37-.81.67-1.31.88s-1.03.32-1.6.32h-1.12c-.57,0-1.1-.11-1.6-.32s-.94-.51-1.31-.88c-.37-.37-.67-.81-.88-1.31-.21-.5-.32-1.03-.32-1.6v-6.32c0-.56.11-1.1.32-1.6.21-.5.51-.94.88-1.31.37-.37.81-.67,1.31-.88.5-.21,1.03-.32,1.6-.32h1.12c.57,0,1.1.11,1.6.32.5.21.94.51,1.31.88.37.37.67.81.88,1.31.21.5.32,1.03.32,1.6v3.29h-7.67v3.12c0,.34.06.65.19.95.13.3.3.55.52.77s.48.39.77.52c.3.13.61.19.95.19h1.12c.34,0,.65-.06.95-.19.3-.13.55-.3.77-.52s.39-.48.52-.77c.13-.3.19-.61.19-.95v-.93l1.68.27v.56c0,.57-.11,1.1-.32,1.6Zm-1.36-8.01c0-.34-.06-.65-.19-.95-.13-.3-.3-.55-.52-.77s-.48-.39-.77-.52c-.3-.13-.61-.19-.95-.19h-1.12c-.34,0-.65.06-.95.19-.3.13-.55.3-.77.52s-.39.48-.52.77c-.13.3-.19.61-.19.95v2.08h5.99v-2.08Z"/><path class="cls-1" d="m523.79,109.84c-.51,0-.99-.1-1.44-.29s-.84-.46-1.18-.79c-.33-.34-.6-.73-.79-1.18-.2-.45-.29-.92-.29-1.44v-8.71h-2.52v-1.6h2.52v-3.36l1.68-.27v3.64h3.55v1.6h-3.55v8.79c0,.28.05.54.16.79.1.24.25.45.43.64.18.18.4.33.64.43.25.1.51.16.79.16h1.53v1.6h-1.53Z"/><path class="cls-1" d="m543.64,109.84l-.93-1.42c-.38.52-.86.93-1.44,1.24s-1.2.46-1.89.46h-.42c-.57,0-1.1-.11-1.6-.32s-.94-.51-1.31-.88c-.37-.37-.67-.81-.88-1.31-.21-.5-.32-1.03-.32-1.6v-6.32c0-.56.11-1.1.32-1.6.21-.5.51-.94.88-1.31.37-.37.81-.67,1.31-.88.5-.21,1.03-.32,1.6-.32h.42c.63,0,1.21.13,1.75.38.54.26,1,.61,1.38,1.07v-6.78h1.68v19.61h-.56Zm-1.12-10.25c0-.34-.06-.65-.19-.95-.13-.3-.3-.55-.52-.77s-.48-.39-.77-.52c-.3-.13-.61-.19-.95-.19h-1.12c-.34,0-.65.06-.95.19-.3.13-.55.3-.77.52s-.39.48-.52.77c-.13.3-.19.61-.19.95v6.51c0,.34.06.65.19.95.13.3.3.55.52.77s.48.39.77.52c.3.13.61.19.95.19h1.12c.34,0,.65-.06.95-.19.3-.13.55-.3.77-.52s.39-.48.52-.77c.13-.3.19-.61.19-.95v-6.51Z"/><path class="cls-1" d="m547.99,92.48v-2.24h1.96v2.24h-1.96Zm.14,17.36v-14h1.68v14h-1.68Z"/><path class="cls-1" d="m562.76,107.6c-.21.5-.51.94-.88,1.31-.37.37-.81.67-1.31.88s-1.03.32-1.6.32h-1.12c-.57,0-1.1-.11-1.6-.32s-.94-.51-1.31-.88c-.37-.37-.67-.81-.88-1.31-.21-.5-.32-1.03-.32-1.6v-6.32c0-.56.11-1.1.32-1.6.21-.5.51-.94.88-1.31.37-.37.81-.67,1.31-.88.5-.21,1.03-.32,1.6-.32h1.12c.57,0,1.1.11,1.6.32.5.21.94.51,1.31.88.37.37.67.81.88,1.31.21.5.32,1.03.32,1.6v3.29h-7.67v3.12c0,.34.06.65.19.95.13.3.3.55.52.77s.48.39.77.52c.3.13.61.19.95.19h1.12c.34,0,.65-.06.95-.19.3-.13.55-.3.77-.52s.39-.48.52-.77c.13-.3.19-.61.19-.95v-.93l1.68.27v.56c0,.57-.11,1.1-.32,1.6Zm-1.36-8.01c0-.34-.06-.65-.19-.95-.13-.3-.3-.55-.52-.77s-.48-.39-.77-.52c-.3-.13-.61-.19-.95-.19h-1.12c-.34,0-.65.06-.95.19-.3.13-.55.3-.77.52s-.39.48-.52.77c-.13.3-.19.61-.19.95v2.08h5.99v-2.08Z"/><path class="cls-1" d="m575.48,107.6c-.21.5-.51.94-.88,1.31-.37.37-.81.67-1.31.88s-1.03.32-1.6.32h-.42c-.63,0-1.21-.13-1.75-.38s-1-.61-1.38-1.07v6.78h-1.68v-19.61h.56l.92,1.42c.38-.52.86-.93,1.44-1.24.58-.31,1.21-.46,1.89-.46h.42c.57,0,1.1.11,1.6.32.5.21.94.51,1.31.88.37.37.67.81.88,1.31.21.5.32,1.03.32,1.6v6.32c0,.57-.11,1.1-.32,1.6Zm-1.36-8.01c0-.34-.06-.65-.19-.95-.13-.3-.3-.55-.52-.77s-.48-.39-.77-.52c-.3-.13-.61-.19-.95-.19h-1.12c-.34,0-.65.06-.95.19-.3.13-.55.3-.77.52s-.39.48-.52.77c-.13.3-.19.61-.19.95v6.51c0,.34.06.65.19.95.13.3.3.55.52.77s.48.39.77.52c.3.13.61.19.95.19h1.12c.34,0,.65-.06.95-.19.3-.13.55-.3.77-.52s.39-.48.52-.77c.13-.3.19-.61.19-.95v-6.51Z"/><path class="cls-1" d="m588.19,107.6c-.21.5-.51.94-.88,1.31-.37.37-.81.67-1.31.88s-1.03.32-1.6.32h-1.12c-.57,0-1.1-.11-1.6-.32s-.94-.51-1.31-.88c-.37-.37-.67-.81-.88-1.31-.21-.5-.32-1.03-.32-1.6v-6.32c0-.56.11-1.1.32-1.6.21-.5.51-.94.88-1.31.37-.37.81-.67,1.31-.88.5-.21,1.03-.32,1.6-.32h1.12c.57,0,1.1.11,1.6.32.5.21.94.51,1.31.88.37.37.67.81.88,1.31.21.5.32,1.03.32,1.6v3.29h-7.67v3.12c0,.34.06.65.19.95.13.3.3.55.52.77s.48.39.77.52c.3.13.61.19.95.19h1.12c.34,0,.65-.06.95-.19.3-.13.55-.3.77-.52s.39-.48.52-.77c.13-.3.19-.61.19-.95v-.93l1.68.27v.56c0,.57-.11,1.1-.32,1.6Zm-1.36-8.01c0-.34-.06-.65-.19-.95-.13-.3-.3-.55-.52-.77s-.48-.39-.77-.52c-.3-.13-.61-.19-.95-.19h-1.12c-.34,0-.65.06-.95.19-.3.13-.55.3-.77.52s-.39.48-.52.77c-.13.3-.19.61-.19.95v2.08h5.99v-2.08Z"/><path class="cls-1" d="m349.37,146.76c-.21.47-.51.88-.88,1.22-.37.34-.81.6-1.31.79-.5.19-1.03.28-1.6.28h-.7c-.57,0-1.1-.09-1.6-.28-.5-.19-.94-.45-1.31-.79-.37-.34-.67-.74-.88-1.22-.21-.47-.32-.99-.32-1.56v-.05c0-.55.1-1.05.3-1.5s.47-.85.82-1.19c-.44-.26-.79-.62-1.05-1.07s-.39-.95-.39-1.5c0-.49.1-.95.31-1.37s.5-.77.86-1.03c-.44-.38-.78-.84-1.04-1.38-.25-.54-.38-1.13-.38-1.76v-1.05c0-.56.11-1.1.32-1.6.21-.5.51-.94.88-1.31.37-.37.81-.67,1.31-.88.5-.21,1.03-.32,1.6-.32h.7c.68,0,1.31.15,1.89.46.58.31,1.06.72,1.44,1.24l.92-1.42h.56v4.89c0,.57-.11,1.1-.32,1.6-.21.5-.51.94-.88,1.31-.37.37-.81.67-1.31.88-.5.21-1.03.32-1.6.32h-2.43c-.19,0-.37.04-.55.12-.17.08-.33.18-.46.31-.13.13-.23.28-.31.46s-.11.36-.11.55.04.37.11.55c.07.17.18.33.31.46.13.13.29.23.46.31.17.07.36.11.55.11h2.3c.57,0,1.1.09,1.6.28.5.19.94.45,1.31.79.37.34.67.74.88,1.22s.32.99.32,1.56v.05c0,.56-.11,1.08-.32,1.56Zm-1.21-13.58c0-.34-.06-.65-.19-.95-.13-.3-.3-.55-.53-.77s-.48-.39-.78-.52c-.3-.13-.61-.19-.95-.19h-1.39c-.34,0-.65.06-.95.19-.3.13-.55.3-.77.52s-.39.48-.52.77c-.13.3-.19.61-.19.95v1.24c0,.34.06.65.19.95.13.3.3.55.52.77s.48.39.77.52c.3.13.61.19.95.19h1.39c.34,0,.65-.06.95-.19.3-.13.56-.3.78-.52s.4-.48.53-.77c.13-.3.19-.61.19-.95v-1.24Zm-.07,11.88c0-.34-.06-.64-.19-.91-.13-.27-.3-.49-.52-.68s-.48-.32-.77-.42c-.3-.1-.61-.15-.95-.15h-.86c-.34,0-.65.05-.95.15-.3.1-.55.24-.77.42s-.39.41-.52.68c-.13.27-.19.57-.19.91v.22c0,.34.06.64.19.9.13.26.3.49.52.68.22.19.48.33.77.43.3.1.61.15.95.15h.86c.34,0,.65-.05.95-.15.3-.1.55-.24.77-.43.22-.19.39-.41.52-.68.13-.26.19-.57.19-.9v-.22Z"/><path class="cls-1" d="m361.95,141.2c-.21.5-.51.94-.88,1.31-.37.37-.81.67-1.31.88s-1.03.32-1.6.32h-1.12c-.57,0-1.1-.11-1.6-.32s-.94-.51-1.31-.88c-.37-.37-.67-.81-.88-1.31-.21-.5-.32-1.03-.32-1.6v-6.32c0-.56.11-1.1.32-1.6.21-.5.51-.94.88-1.31.37-.37.81-.67,1.31-.88.5-.21,1.03-.32,1.6-.32h1.12c.57,0,1.1.11,1.6.32.5.21.94.51,1.31.88.37.37.67.81.88,1.31.21.5.32,1.03.32,1.6v3.29h-7.67v3.12c0,.34.06.65.19.95.13.3.3.55.52.77s.48.39.77.52c.3.13.61.19.95.19h1.12c.34,0,.65-.06.95-.19.3-.13.55-.3.77-.52s.39-.48.52-.77c.13-.3.19-.61.19-.95v-.93l1.68.27v.56c0,.57-.11,1.1-.32,1.6Zm-1.36-8.01c0-.34-.06-.65-.19-.95-.13-.3-.3-.55-.52-.77s-.48-.39-.77-.52c-.3-.13-.61-.19-.95-.19h-1.12c-.34,0-.65.06-.95.19-.3.13-.55.3-.77.52s-.39.48-.52.77c-.13.3-.19.61-.19.95v2.08h5.99v-2.08Z"/><path class="cls-1" d="m374.67,141.2c-.21.5-.51.94-.88,1.31-.37.37-.81.67-1.31.88s-1.03.32-1.6.32h-1.12c-.57,0-1.1-.11-1.6-.32s-.94-.51-1.31-.88c-.37-.37-.67-.81-.88-1.31-.21-.5-.32-1.03-.32-1.6v-6.32c0-.56.11-1.1.32-1.6.21-.5.51-.94.88-1.31.37-.37.81-.67,1.31-.88.5-.21,1.03-.32,1.6-.32h1.12c.57,0,1.1.11,1.6.32.5.21.94.51,1.31.88.37.37.67.81.88,1.31.21.5.32,1.03.32,1.6v6.32c0,.57-.11,1.1-.32,1.6Zm-1.36-8.01c0-.34-.06-.65-.19-.95-.13-.3-.3-.55-.52-.77s-.48-.39-.77-.52c-.3-.13-.61-.19-.95-.19h-1.12c-.34,0-.65.06-.95.19-.3.13-.55.3-.77.52s-.39.48-.52.77c-.13.3-.19.61-.19.95v6.51c0,.34.06.65.19.95.13.3.3.55.52.77s.48.39.77.52c.3.13.61.19.95.19h1.12c.34,0,.65-.06.95-.19.3-.13.55-.3.77-.52s.39-.48.52-.77c.13-.3.19-.61.19-.95v-6.51Z"/><path class="cls-1" d="m383.45,143.44c-.51,0-.99-.1-1.44-.29s-.84-.46-1.18-.79c-.33-.34-.6-.73-.79-1.18-.2-.45-.29-.92-.29-1.44v-8.71h-2.52v-1.6h2.52v-3.36l1.68-.27v3.64h3.55v1.6h-3.55v8.79c0,.28.05.54.16.79.1.24.25.45.43.64.18.18.4.33.64.43.25.1.51.16.79.16h1.53v1.6h-1.53Z"/><path class="cls-1" d="m395.74,143.44v-10.25c0-.34-.06-.65-.19-.95-.13-.3-.3-.55-.52-.77s-.48-.39-.77-.52c-.3-.13-.61-.19-.95-.19h-1.12c-.34,0-.65.06-.95.19-.3.13-.55.3-.77.52s-.39.48-.52.77c-.13.3-.19.61-.19.95v10.25h-1.68v-19.61h1.68v6.78c.38-.46.84-.81,1.38-1.07.54-.25,1.12-.38,1.75-.38h.42c.57,0,1.1.11,1.6.32.5.21.94.51,1.31.88.37.37.67.81.88,1.31.21.5.32,1.03.32,1.6v10.16h-1.68Z"/><path class="cls-1" d="m409.82,141.2c-.21.5-.51.94-.88,1.31-.37.37-.81.67-1.31.88s-1.03.32-1.6.32h-1.12c-.57,0-1.1-.11-1.6-.32s-.94-.51-1.31-.88c-.37-.37-.67-.81-.88-1.31-.21-.5-.32-1.03-.32-1.6v-6.32c0-.56.11-1.1.32-1.6.21-.5.51-.94.88-1.31.37-.37.81-.67,1.31-.88.5-.21,1.03-.32,1.6-.32h1.12c.57,0,1.1.11,1.6.32.5.21.94.51,1.31.88.37.37.67.81.88,1.31.21.5.32,1.03.32,1.6v3.29h-7.67v3.12c0,.34.06.65.19.95.13.3.3.55.52.77s.48.39.77.52c.3.13.61.19.95.19h1.12c.34,0,.65-.06.95-.19.3-.13.55-.3.77-.52s.39-.48.52-.77c.13-.3.19-.61.19-.95v-.93l1.68.27v.56c0,.57-.11,1.1-.32,1.6Zm-1.36-8.01c0-.34-.06-.65-.19-.95-.13-.3-.3-.55-.52-.77s-.48-.39-.77-.52c-.3-.13-.61-.19-.95-.19h-1.12c-.34,0-.65.06-.95.19-.3.13-.55.3-.77.52s-.39.48-.52.77c-.13.3-.19.61-.19.95v2.08h5.99v-2.08Z"/><path class="cls-1" d="m417.62,131.04c-.34,0-.65.06-.95.19-.3.13-.55.3-.77.52s-.39.48-.52.77c-.13.3-.19.61-.19.95v9.97h-1.68v-14h.56l.92,1.42c.38-.52.86-.93,1.44-1.24.58-.31,1.21-.46,1.89-.46h.98v1.87h-1.68Z"/><path class="cls-1" d="m436.32,143.44v-10.25c0-.34-.06-.65-.19-.95-.13-.3-.3-.55-.52-.77s-.48-.39-.77-.52c-.3-.13-.61-.19-.95-.19h-.83c-.34,0-.65.06-.95.19-.3.13-.56.3-.78.52s-.4.48-.53.77c-.13.3-.19.61-.19.95v10.25h-1.67v-10.25c0-.34-.06-.65-.19-.95-.13-.3-.3-.55-.53-.77s-.48-.39-.78-.52c-.3-.13-.61-.19-.95-.19h-.83c-.34,0-.65.06-.95.19-.3.13-.55.3-.77.52s-.39.48-.52.77c-.13.3-.19.61-.19.95v10.25h-1.68v-14h.56l.92,1.42c.38-.52.86-.93,1.44-1.24.58-.31,1.21-.46,1.89-.46h.14c.79,0,1.51.2,2.15.59.64.39,1.13.91,1.48,1.56.17-.32.39-.61.64-.88.25-.26.54-.49.85-.68.31-.19.65-.33,1.01-.44.36-.1.74-.16,1.13-.16h.14c.57,0,1.1.11,1.6.32.5.21.94.51,1.31.88.37.37.67.81.88,1.31.21.5.32,1.03.32,1.6v10.16h-1.68Z"/><path class="cls-1" d="m441.79,126.08v-2.24h1.96v2.24h-1.96Zm.14,17.36v-14h1.68v14h-1.68Z"/><path class="cls-1" d="m456.56,141.2c-.21.5-.51.94-.88,1.31-.37.37-.81.67-1.31.88s-1.03.32-1.6.32h-1.12c-.57,0-1.1-.11-1.6-.32s-.94-.51-1.31-.88c-.37-.37-.67-.81-.88-1.31-.21-.5-.32-1.03-.32-1.6v-6.32c0-.56.11-1.1.32-1.6.21-.5.51-.94.88-1.31.37-.37.81-.67,1.31-.88.5-.21,1.03-.32,1.6-.32h1.12c.57,0,1.1.11,1.6.32.5.21.94.51,1.31.88.37.37.67.81.88,1.31.21.5.32,1.03.32,1.6v3.29h-7.67v3.12c0,.34.06.65.19.95.13.3.3.55.52.77s.48.39.77.52c.3.13.61.19.95.19h1.12c.34,0,.65-.06.95-.19.3-.13.55-.3.77-.52s.39-.48.52-.77c.13-.3.19-.61.19-.95v-.93l1.68.27v.56c0,.57-.11,1.1-.32,1.6Zm-1.36-8.01c0-.34-.06-.65-.19-.95-.13-.3-.3-.55-.52-.77s-.48-.39-.77-.52c-.3-.13-.61-.19-.95-.19h-1.12c-.34,0-.65.06-.95.19-.3.13-.55.3-.77.52s-.39.48-.52.77c-.13.3-.19.61-.19.95v2.08h5.99v-2.08Z"/><path class="cls-1" d="m475.48,143.44l-.93-1.39c-.38.5-.86.9-1.44,1.21s-1.2.46-1.89.46h-.42c-.57,0-1.1-.11-1.6-.32s-.94-.51-1.31-.88c-.37-.37-.67-.81-.88-1.31-.21-.5-.32-1.03-.32-1.6v-.14c0-.56.11-1.1.32-1.6.21-.5.51-.94.88-1.31.37-.37.81-.67,1.31-.88.5-.21,1.03-.32,1.6-.32h3.55v-2.16c0-.34-.06-.65-.19-.95-.13-.3-.3-.55-.52-.77s-.48-.39-.77-.52c-.3-.13-.61-.19-.95-.19h-.98c-.34,0-.65.06-.95.19-.3.13-.55.3-.77.52s-.39.48-.52.77c-.13.3-.19.61-.19.95v.51l-1.68-.27v-.14c0-.56.11-1.1.32-1.6.21-.5.51-.94.88-1.31.37-.37.81-.67,1.31-.88.5-.21,1.03-.32,1.6-.32h.98c.57,0,1.1.11,1.6.32.5.21.94.51,1.31.88.37.37.67.81.88,1.31.21.5.32,1.03.32,1.6v10.16h-.56Zm-1.12-6.78h-3.55c-.34,0-.65.06-.95.19-.3.13-.55.3-.77.53-.22.22-.39.48-.52.78-.13.3-.19.61-.19.95v.59c0,.34.06.65.19.95.13.3.3.55.52.77s.48.39.77.52c.3.13.61.19.95.19h1.12c.34,0,.65-.06.95-.19.3-.13.55-.3.77-.52s.39-.48.52-.77c.13-.3.19-.61.19-.95v-3.04Z"/><path class="cls-1" d="m479.96,143.44v-19.61h1.68v19.61h-1.68Z"/><path class="cls-1" d="m495.19,139.89c0,.57-.11,1.08-.34,1.55-.23.47-.54.87-.93,1.21-.39.34-.85.6-1.36.79s-1.05.28-1.62.28h-1.12c-.57,0-1.11-.11-1.62-.32s-.97-.51-1.35-.88c-.39-.37-.7-.81-.93-1.31-.23-.5-.35-1.03-.35-1.6v-.56l1.68-.27v.93c0,.34.07.65.21.95.14.3.33.55.57.77s.51.39.82.52c.31.13.63.19.97.19h1.12c.34,0,.66-.05.97-.15.31-.1.59-.24.83-.43.24-.19.43-.41.57-.68.14-.26.21-.56.21-.9,0-.5-.11-.91-.33-1.23-.22-.32-.51-.59-.87-.8-.36-.21-.77-.39-1.23-.53-.46-.14-.93-.28-1.42-.42-.48-.14-.96-.3-1.42-.49-.46-.18-.87-.42-1.23-.72-.36-.3-.65-.67-.87-1.11-.22-.45-.33-1-.33-1.67,0-.56.11-1.08.33-1.55.22-.47.51-.87.89-1.21.37-.34.81-.6,1.31-.79.5-.19,1.03-.28,1.59-.28h.98c.57,0,1.1.11,1.6.32.5.21.94.51,1.31.88.37.37.67.81.88,1.31.21.5.32,1.03.32,1.6v.05l-1.68.27v-.42c0-.34-.06-.65-.19-.95-.13-.3-.3-.55-.52-.77s-.48-.39-.77-.52c-.3-.13-.61-.19-.95-.19h-.98c-.34,0-.65.05-.95.15-.3.1-.55.24-.77.43-.22.19-.39.41-.52.68-.13.26-.19.57-.19.9,0,.48.11.88.33,1.18.22.31.51.56.87.77.36.21.77.39,1.23.53.46.14.93.29,1.41.44s.95.32,1.41.51.87.44,1.23.74.65.68.87,1.13.33,1.01.33,1.67Z"/><path class="cls-1" d="m513.89,141.2c-.21.5-.51.94-.88,1.31-.37.37-.81.67-1.31.88s-1.03.32-1.6.32h-1.12c-.57,0-1.1-.11-1.6-.32s-.94-.51-1.31-.88c-.37-.37-.67-.81-.88-1.31-.21-.5-.32-1.03-.32-1.6v-15.76h1.68v6.78c.38-.46.84-.81,1.38-1.07.54-.25,1.12-.38,1.75-.38h.42c.57,0,1.1.11,1.6.32.5.21.94.51,1.31.88.37.37.67.81.88,1.31.21.5.32,1.03.32,1.6v6.32c0,.57-.11,1.1-.32,1.6Zm-1.36-8.01c0-.34-.06-.65-.19-.95-.13-.3-.3-.55-.52-.77s-.48-.39-.77-.52c-.3-.13-.61-.19-.95-.19h-1.12c-.34,0-.65.06-.95.19-.3.13-.55.3-.77.52s-.39.48-.52.77c-.13.3-.19.61-.19.95v6.51c0,.34.06.65.19.95.13.3.3.55.52.77s.48.39.77.52c.3.13.61.19.95.19h1.12c.34,0,.65-.06.95-.19.3-.13.55-.3.77-.52s.39-.48.52-.77c.13-.3.19-.61.19-.95v-6.51Z"/><path class="cls-1" d="m521.69,131.04c-.34,0-.65.06-.95.19-.3.13-.55.3-.77.52s-.39.48-.52.77c-.13.3-.19.61-.19.95v9.97h-1.68v-14h.56l.92,1.42c.38-.52.86-.93,1.44-1.24.58-.31,1.21-.46,1.89-.46h.98v1.87h-1.68Z"/><path class="cls-1" d="m534.64,141.2c-.21.5-.51.94-.88,1.31-.37.37-.81.67-1.31.88s-1.03.32-1.6.32h-1.12c-.57,0-1.1-.11-1.6-.32s-.94-.51-1.31-.88c-.37-.37-.67-.81-.88-1.31-.21-.5-.32-1.03-.32-1.6v-6.32c0-.56.11-1.1.32-1.6.21-.5.51-.94.88-1.31.37-.37.81-.67,1.31-.88.5-.21,1.03-.32,1.6-.32h1.12c.57,0,1.1.11,1.6.32.5.21.94.51,1.31.88.37.37.67.81.88,1.31.21.5.32,1.03.32,1.6v6.32c0,.57-.11,1.1-.32,1.6Zm-1.36-8.01c0-.34-.06-.65-.19-.95-.13-.3-.3-.55-.52-.77s-.48-.39-.77-.52c-.3-.13-.61-.19-.95-.19h-1.12c-.34,0-.65.06-.95.19-.3.13-.55.3-.77.52s-.39.48-.52.77c-.13.3-.19.61-.19.95v6.51c0,.34.06.65.19.95.13.3.3.55.52.77s.48.39.77.52c.3.13.61.19.95.19h1.12c.34,0,.65-.06.95-.19.3-.13.55-.3.77-.52s.39-.48.52-.77c.13-.3.19-.61.19-.95v-6.51Z"/><path class="cls-1" d="m546,143.44v-10.25c0-.34-.06-.65-.19-.95-.13-.3-.3-.55-.52-.77s-.48-.39-.77-.52c-.3-.13-.61-.19-.95-.19h-1.12c-.34,0-.65.06-.95.19-.3.13-.55.3-.77.52s-.39.48-.52.77c-.13.3-.19.61-.19.95v10.25h-1.68v-14h.56l.92,1.42c.38-.52.86-.93,1.44-1.24.58-.31,1.21-.46,1.89-.46h.42c.57,0,1.1.11,1.6.32.5.21.94.51,1.31.88.37.37.67.81.88,1.31.21.5.32,1.03.32,1.6v10.16h-1.68Z"/><path class="cls-1" d="m551.31,143.44v-2.11h2.11v2.11h-2.11Z"/></svg>